<?xml version="1.0" standalone="no"?>
<!DOCTYPE svg PUBLIC "-//W3C//DTD SVG 1.1//EN" "http://www.w3.org/Graphics/SVG/1.1/DTD/svg11.dtd" >
<svg xmlns="http://www.w3.org/2000/svg" xmlns:xlink="http://www.w3.org/1999/xlink" version="1.1">
<metadata>
Created by FontForge 20170731 at Wed Sep 29 02:08:44 2021
 By Aleksey,,,
Copyright (c) 2021 by SANGJU CITY. All rights reserved.
</metadata>
<defs>
<font id="SANGJUHaerye" horiz-adv-x="1000" >
  <font-face 
    font-family="SANGJU Haerye"
    font-weight="400"
    font-stretch="normal"
    units-per-em="1000"
    panose-1="2 11 6 0 0 1 1 1 1 1"
    ascent="800"
    descent="-200"
    x-height="430"
    cap-height="700"
    bbox="-148 -290 960 965"
    underline-thickness="50"
    underline-position="-175"
    unicode-range="U+0020-FFE6"
  />
<missing-glyph horiz-adv-x="960" 
 />
    <glyph glyph-name=".notdef" horiz-adv-x="960" 
 />
    <glyph glyph-name=".null" horiz-adv-x="0" 
 />
    <glyph glyph-name="nonmarkingreturn" horiz-adv-x="280" 
 />
    <glyph glyph-name="space" unicode=" " horiz-adv-x="280" 
 />
    <glyph glyph-name="space" unicode="&#xa0;" horiz-adv-x="280" 
 />
    <glyph glyph-name="exclam" unicode="!" horiz-adv-x="350" 
d="M100 -15q0 32 22 53.5t53 21.5q32 0 53.5 -21.5t21.5 -53.5t-21.5 -53.5t-53.5 -21.5q-31 0 -53 21.5t-22 53.5zM120 755h110v-454l-20 -172h-70l-20 172v454z" />
    <glyph glyph-name="quotedbl" unicode="&#x22;" horiz-adv-x="460" 
d="M190 755l-20 -280h-70l-20 280h110zM380 755l-20 -280h-70l-20 280h110z" />
    <glyph glyph-name="numbersign" unicode="#" horiz-adv-x="700" 
d="M365 -80l31 195h-152l-31 -195h-108l31 195h-106v90h120l34 210h-94v90h108l31 195h108l-31 -195h152l31 195h108l-31 -195h104v-90h-118l-34 -210h92v-90h-106l-31 -195h-108zM258 205h152l34 210h-152z" />
    <glyph glyph-name="dollar" unicode="$" horiz-adv-x="690" 
d="M395 775v-68q63 -6 115 -28q72 -31 108 -80l-77 -63q-34 37 -83 60q-29 14 -63 20v-232q253 -39 253 -234q0 -67 -37 -122t-105 -86q-50 -24 -111 -30v-83h-100v84q-77 10 -137 46q-82 48 -116 125l94 52q60 -104 159 -129v289q-103 21 -156 63q-68 53 -68 138
q0 60 33.5 108.5t95.5 76.5q43 19 95 25v68h100zM490 41q48 41 48 106q0 58 -40 91q-32 27 -103 41v-277q58 7 95 39zM226 590q-45 -30 -45 -84q0 -32 16 -54.5t58 -38.5q17 -7 40 -12v215q-41 -7 -69 -26z" />
    <glyph glyph-name="percent" unicode="%" horiz-adv-x="800" 
d="M613 345q46 0 81.5 -26.5t55.5 -75.5t20 -115t-20 -115t-55.5 -76t-81.5 -27t-81.5 26.5t-55.5 75.5t-20 115t20 115t55.5 76t81.5 27zM120 -110l462 840h98l-462 -840h-98zM613 -14q32 0 50 37t18 106q0 68 -17.5 103.5t-50.5 35.5t-50.5 -36t-17.5 -106
q0 -69 17.5 -104.5t50.5 -35.5zM187 710q46 0 81.5 -26.5t55.5 -75.5t20 -115t-20 -115t-55.5 -76t-81.5 -27t-81.5 26.5t-55.5 75.5t-20 115t20 115t55.5 76t81.5 27zM187 341q32 0 50 41.5t18 111.5q0 69 -18 109t-50 40t-50 -40.5t-18 -111.5t18 -110.5t50 -39.5z" />
    <glyph glyph-name="ampersand" unicode="&#x26;" horiz-adv-x="780" 
d="M671 -78l-112 108q-107 -88 -262 -88q-67 0 -118.5 23.5t-80 66t-28.5 98.5q0 53 27 96t65 74q28 23 68 51q-28 32 -45 61q-29 47 -29 103q0 47 23 85.5t64 60.5t93 22q51 0 92.5 -20t65.5 -56t24 -82q0 -42 -24 -78t-59 -65q-23 -19 -56 -42l170 -159q40 62 57 131
l119 -30q-36 -103 -94 -178l119 -111zM261 255q-30 -24 -50.5 -53.5t-20.5 -63.5q0 -51 33 -78.5t96 -27.5q62 0 122 40q22 14 42 32l-185 180q-21 -16 -37 -29zM341 429q29 22 48 49t19 57q0 32 -18.5 51t-49.5 19q-35 0 -57 -22.5t-22 -62.5q0 -42 22 -77q12 -17 29 -37
q17 13 29 23z" />
    <glyph glyph-name="quotesingle" unicode="'" horiz-adv-x="270" 
d="M190 755l-20 -280h-70l-20 280h110z" />
    <glyph glyph-name="parenleft" unicode="(" horiz-adv-x="457" 
d="M291 774l86 -56q-51 -70 -84 -163t-33 -226t33 -226t84 -163l-86 -56q-64 85 -102.5 191t-38.5 254t38.5 254t102.5 191z" />
    <glyph glyph-name="parenright" unicode=")" horiz-adv-x="457" 
d="M166 -116l-86 56q51 70 84 163t33 226t-33 226t-84 163l86 56q64 -85 102.5 -191t38.5 -254t-38.5 -254t-102.5 -191z" />
    <glyph glyph-name="asterisk" unicode="*" horiz-adv-x="600" 
d="M230 598l-94 31l55 95l74 -61l-20 92h110l-20 -92l74 61l55 -95l-84 -31l84 -32l-55 -95l-74 61l20 -92h-110l20 92l-74 -61l-55 95z" />
    <glyph glyph-name="plus" unicode="+" horiz-adv-x="600" 
d="M355 550v-204h195v-90h-195v-206h-110v206h-195v90h195v204h110z" />
    <glyph glyph-name="comma" unicode="," horiz-adv-x="280" 
d="M138 60q34 0 55.5 -24.5t21.5 -73.5q0 -58 -30.5 -111t-77.5 -91l-47 61q21 16 40 42.5t24 49.5q-22 2 -40.5 23t-18.5 50q0 32 21 53t52 21z" />
    <glyph glyph-name="hyphen" unicode="-" horiz-adv-x="600" 
d="M550 346v-90h-500v90h500z" />
    <glyph glyph-name="period" unicode="." horiz-adv-x="280" 
d="M65 -15q0 32 22 53.5t53 21.5q32 0 53.5 -21.5t21.5 -53.5t-21.5 -53.5t-53.5 -21.5q-31 0 -53 21.5t-22 53.5z" />
    <glyph glyph-name="slash" unicode="/" horiz-adv-x="400" 
d="M5 -80l282 780h108l-282 -780h-108z" />
    <glyph glyph-name="zero" unicode="0" horiz-adv-x="692" 
d="M346 710q81 0 143.5 -50.5t97.5 -141t35 -207.5q0 -118 -35 -209t-97.5 -141.5t-143.5 -50.5t-143.5 50.5t-97.5 141t-35 207.5q0 118 35 209t97.5 141.5t143.5 50.5zM346 0q49 0 86.5 39.5t58.5 110.5t21 163q0 90 -21 160t-58.5 108.5t-86.5 38.5t-86.5 -39.5
t-58.5 -110.5t-21 -163q0 -90 21 -160t58.5 -108.5t86.5 -38.5z" />
    <glyph glyph-name="one" unicode="1" horiz-adv-x="433" 
d="M283 710v-800h-110v683l-93 -30l-30 90l143 57h90z" />
    <glyph glyph-name="two" unicode="2" horiz-adv-x="656" 
d="M332 710q67 0 120 -25.5t83.5 -74.5t30.5 -116q0 -68 -31.5 -131.5t-77.5 -116.5t-123 -130l-106 -106h368v-90h-526v70l149 149q111 111 174 196.5t63 162.5q0 58 -35.5 90t-88.5 32q-54 0 -93.5 -34t-66.5 -83l-91 50q40 69 106.5 113t144.5 44z" />
    <glyph glyph-name="three" unicode="3" horiz-adv-x="626" 
d="M158 377l132 -3q71 -1 106.5 34.5t35.5 96.5q0 51 -34 84t-92 33q-54 0 -91 -29t-56 -70l-89 49q33 59 95 98.5t147 39.5q65 0 117.5 -25t82.5 -70.5t30 -106.5q0 -67 -42 -116q-32 -37 -76 -56q28 -7 52 -23q39 -24 62.5 -66t23.5 -96q0 -71 -35.5 -126t-98 -85
t-142.5 -30q-85 0 -146 29.5t-96 72.5l83 61q23 -28 65.5 -50.5t103.5 -22.5q73 0 114.5 42.5t41.5 108.5q0 65 -40.5 103t-121.5 36l-132 -3v90z" />
    <glyph glyph-name="four" unicode="4" horiz-adv-x="630" 
d="M608 151v-90h-106v-151h-110v151h-348v70l262 569h196v-549h106zM371 610l-211 -459h232v459h-21z" />
    <glyph glyph-name="five" unicode="5" horiz-adv-x="642" 
d="M318 2q42 0 77.5 20.5t57 59t21.5 90.5q0 73 -39 112.5t-106 39.5q-47 0 -84.5 -19.5t-61.5 -51.5l-83 26l15 421h420v-90h-315l-9 -239q18 13 40 21q46 19 102 19q62 0 114.5 -26t84.5 -79t32 -129t-35.5 -137t-98.5 -95.5t-141 -34.5t-133 30.5t-88 85.5l88 57
q18 -32 54.5 -56.5t87.5 -24.5z" />
    <glyph glyph-name="six" unicode="6" horiz-adv-x="653" 
d="M368 406q62 0 112 -27t79.5 -81t29.5 -131q0 -72 -31 -130.5t-88.5 -92.5t-132.5 -34q-127 0 -197 88t-70 269q0 138 36 238t103 152.5t158 52.5q127 0 188 -106l-76 -56q-18 32 -47.5 52t-67.5 20q-88 0 -136 -95q-39 -76 -46 -201q11 14 30 28q29 23 70.5 38.5
t85.5 15.5zM339 0q65 0 104 43.5t39 118.5q0 74 -35 114t-94 40q-56 0 -107 -33q-43 -27 -65 -59q10 -224 158 -224z" />
    <glyph glyph-name="seven" unicode="7" horiz-adv-x="578" 
d="M306 -80h-110q27 322 217 690h-381v90h498v-70q-195 -382 -224 -710z" />
    <glyph glyph-name="eight" unicode="8" horiz-adv-x="636" 
d="M145 359q-65 54 -65 141q0 60 30 108t84 75t124 27q68 0 122 -25.5t85 -71.5t31 -106q0 -67 -42 -111q-34 -36 -96 -68q35 -17 60 -33q46 -28 72 -67.5t26 -96.5q0 -64 -34 -114.5t-93 -78.5t-131 -28t-131 28t-93 77t-34 109q0 84 43 134q34 39 87 67q-24 16 -45 34z
M167 137q0 -37 19 -69t53.5 -51t78.5 -19t78 18t53 48t19 66q0 31 -13.5 53t-47 41.5t-98.5 43.5q-21 8 -41 16q-101 -55 -101 -147zM417 424q31 35 31 83q0 51 -36.5 84t-93.5 33q-58 0 -95.5 -35t-37.5 -89q0 -30 16 -52t52 -44q31 -18 84 -41q52 29 80 61z" />
    <glyph glyph-name="nine" unicode="9" horiz-adv-x="653" 
d="M285 222q-61 0 -111.5 26.5t-80 78.5t-29.5 124q0 73 31 132t88.5 93t132.5 34q126 0 196.5 -91.5t70.5 -273.5q0 -215 -76 -325t-221 -110q-67 0 -116.5 27.5t-79.5 78.5l76 56q17 -32 50 -52t73 -20q95 0 139 86q39 75 44 218q-11 -14 -31 -29q-29 -22 -70.5 -37.5
t-85.5 -15.5zM431 554q-41 66 -117 66q-65 0 -104 -43.5t-39 -117.5q0 -69 35 -108t94 -39q56 0 107 32q42 27 64 58q-6 99 -40 152z" />
    <glyph glyph-name="colon" unicode=":" horiz-adv-x="280" 
d="M65 81q0 32 22 53.5t53 21.5q32 0 53.5 -21.5t21.5 -53.5q0 -31 -21.5 -53t-53.5 -22q-31 0 -53 22t-22 53zM65 521q0 32 22 53.5t53 21.5q32 0 53.5 -21.5t21.5 -53.5q0 -31 -21.5 -53t-53.5 -22q-31 0 -53 22t-22 53z" />
    <glyph glyph-name="semicolon" unicode=";" horiz-adv-x="280" 
d="M65 521q0 32 22 53.5t53 21.5q32 0 53.5 -21.5t21.5 -53.5q0 -31 -21.5 -53t-53.5 -22q-31 0 -53 22t-22 53zM138 156q34 0 55.5 -24.5t21.5 -73.5q0 -58 -30.5 -111t-77.5 -91l-47 61q21 16 40 42.5t24 49.5q-22 2 -40.5 23t-18.5 50q0 32 21 53t52 21z" />
    <glyph glyph-name="less" unicode="&#x3c;" horiz-adv-x="600" 
d="M480 563l50 -80l-349 -183l349 -183l-50 -80l-400 206v114z" />
    <glyph glyph-name="equal" unicode="=" horiz-adv-x="600" 
d="M550 446v-90h-500v90h500zM550 246v-90h-500v90h500z" />
    <glyph glyph-name="greater" unicode="&#x3e;" horiz-adv-x="600" 
d="M530 243l-400 -206l-50 80l349 183l-349 183l50 80l400 -206v-114z" />
    <glyph glyph-name="question" unicode="?" horiz-adv-x="525" 
d="M155 -15q0 32 22 53.5t53 21.5q32 0 53.5 -21.5t21.5 -53.5t-21.5 -53.5t-53.5 -21.5q-31 0 -53 21.5t-22 53.5zM335 575q0 49 -27.5 74.5t-77.5 25.5q-45 0 -84 -25t-61 -54l-61 69q25 40 83.5 70t128.5 30q89 0 149 -49t60 -144q0 -79 -43 -132.5t-117 -98.5l-10 -212
h-90l-10 242q160 94 160 204z" />
    <glyph glyph-name="at" unicode="@" horiz-adv-x="832" 
d="M469 710q105 0 180 -40.5t114 -113t39 -168.5q0 -87 -28 -151t-73 -97t-95 -33q-54 0 -85 30q-19 18 -25 41q-15 -21 -46 -40q-36 -23 -77 -23q-65 0 -106 41.5t-41 112.5q0 62 30.5 118.5t79.5 91t102 34.5q29 0 51 -9q18 -7 28 -15l2 17h90l-24 -247q-1 -7 -1 -19
q0 -47 36 -47t59 56.5t23 138.5q0 110 -60 175t-173 65q-100 0 -178 -52.5t-120.5 -139t-42.5 -184.5q0 -134 79 -198t215 -64q119 0 198 48l26 -68q-91 -60 -235 -60q-172 0 -276.5 83.5t-104.5 260.5q0 116 54 221t154 170t231 65zM444 441q-34 0 -63.5 -22.5t-47.5 -62
t-18 -88.5q0 -42 16.5 -61.5t52.5 -19.5q33 0 67 22q31 21 47 50l13 157q-26 25 -67 25z" />
    <glyph glyph-name="A" unicode="A" horiz-adv-x="700" 
d="M415 700l265 -780h-110l-83 255h-275l-82 -255h-110l265 780h130zM241 265h217l-108 333z" />
    <glyph glyph-name="B" unicode="B" horiz-adv-x="660" 
d="M353 700q110 0 176.5 -48t66.5 -137q0 -66 -30 -108.5t-73 -62.5q-11 -5 -23 -9q15 -4 30 -10q47 -18 81.5 -60t34.5 -109q0 -108 -68.5 -172t-198.5 -64h-279v780h283zM333 10q173 0 173 146q0 69 -42 101.5t-108 32.5h-176v-280h153zM356 380q62 0 96 32t34 92
q0 56 -34 81t-107 25h-165v-230h176z" />
    <glyph glyph-name="C" unicode="C" horiz-adv-x="747" 
d="M436 -90q-116 0 -206 50.5t-140 141t-50 207.5q0 118 50 209t140 141.5t206 50.5q82 0 152 -25.5t121 -73.5l-67 -67q-38 36 -91.5 56t-114.5 20q-84 0 -149 -39.5t-101 -110.5t-36 -163q0 -90 36 -159.5t101 -108t149 -38.5q69 0 124 25.5t91 72.5l72 -65
q-54 -61 -124.5 -92.5t-162.5 -31.5z" />
    <glyph glyph-name="D" unicode="D" horiz-adv-x="722" 
d="M70 700h211q125 0 215.5 -45.5t138 -131.5t47.5 -204q0 -120 -47 -210.5t-131 -139.5t-190 -49h-244v780zM572 316q0 137 -76 215.5t-213 78.5h-103v-600h107q91 0 155 38.5t97 107.5t33 160z" />
    <glyph glyph-name="E" unicode="E" horiz-adv-x="610" 
d="M70 -80v780h496v-90h-386v-230h366v-90h-366v-280h406v-90h-516z" />
    <glyph glyph-name="F" unicode="F" horiz-adv-x="600" 
d="M70 -80v780h506v-90h-396v-250h376v-90h-376v-350h-110z" />
    <glyph glyph-name="G" unicode="G" horiz-adv-x="812" 
d="M409 340h323v-420h-110v41q-19 -13 -40 -23q-61 -28 -149 -28q-115 0 -204 50.5t-139 141t-50 207.5q0 118 50 209t140 141.5t206 50.5q85 0 155 -25.5t113 -63.5l-65 -67q-87 66 -203 66q-84 0 -149 -39.5t-101 -110.5t-36 -163q0 -90 36 -159.5t101 -108t149 -38.5
q66 0 115 21q42 19 71 47v181h-213v90z" />
    <glyph glyph-name="H" unicode="H" horiz-adv-x="760" 
d="M690 700v-780h-110v370h-400v-370h-110v780h110v-320h400v320h110z" />
    <glyph glyph-name="I" unicode="I" horiz-adv-x="250" 
d="M180 700v-780h-110v780h110z" />
    <glyph glyph-name="J" unicode="J" horiz-adv-x="553" 
d="M251 0q59 0 93 37.5t34 104.5v558h110v-523q0 -126 -63 -196.5t-179 -70.5q-100 0 -157.5 57.5t-78.5 138.5l91 33q18 -61 55 -100t95 -39z" />
    <glyph glyph-name="K" unicode="K" horiz-adv-x="660" 
d="M538 710l82 -62l-329 -295l349 -378l-85 -65l-375 413v-403h-110v780h110v-326z" />
    <glyph glyph-name="L" unicode="L" horiz-adv-x="586" 
d="M180 700v-690h386v-90h-496v780h110z" />
    <glyph glyph-name="M" unicode="M" horiz-adv-x="960" 
d="M70 700h172l236 -706l240 706h172v-780h-110v668l-219 -668h-166l-215 668v-668h-110v780z" />
    <glyph glyph-name="N" unicode="N" horiz-adv-x="730" 
d="M70 700h155l325 -648v648h110v-780h-155l-325 648v-648h-110v780z" />
    <glyph glyph-name="O" unicode="O" horiz-adv-x="872" 
d="M436 710q116 0 206 -50.5t140 -141t50 -207.5q0 -118 -50 -209t-140 -141.5t-206 -50.5t-206 50.5t-140 141t-50 207.5q0 118 50 209t140 141.5t206 50.5zM436 0q84 0 149 39.5t101 110.5t36 163q0 90 -36 160t-101 108.5t-149 38.5t-149 -39.5t-101 -110.5t-36 -163
q0 -90 36 -160t101 -108.5t149 -38.5z" />
    <glyph glyph-name="P" unicode="P" horiz-adv-x="620" 
d="M70 700h236q123 0 199.5 -56t76.5 -168q0 -80 -35.5 -138.5t-100 -89t-150.5 -30.5h-116v-288h-110v770zM296 308q84 0 130 43.5t46 121.5q0 137 -176 137h-116v-302h116z" />
    <glyph glyph-name="Q" unicode="Q" horiz-adv-x="872" 
d="M436 710q116 0 206 -50.5t140 -141t50 -207.5q0 -118 -50 -209t-140 -141q-20 -11 -41 -20l251 -59l-52 -82l-364 110q-116 0 -206 50.5t-140 141t-50 207.5q0 118 50 209t140 141.5t206 50.5zM436 0q84 0 149 39.5t101 110.5t36 163q0 90 -36 160t-101 108.5t-149 38.5
t-149 -39.5t-101 -110.5t-36 -163q0 -90 36 -160t101 -108.5t149 -38.5z" />
    <glyph glyph-name="R" unicode="R" horiz-adv-x="660" 
d="M70 700h241q121 0 193.5 -49.5t72.5 -149.5q0 -69 -33 -123t-96 -84q-23 -11 -49 -19l241 -295l-82 -60l-276 344h-102v-334h-110v770zM301 354q81 0 123.5 39.5t42.5 101.5q0 63 -44.5 89t-121.5 26h-121v-256h121z" />
    <glyph glyph-name="S" unicode="S" horiz-adv-x="690" 
d="M359 0q84 0 131.5 41t47.5 106q0 58 -40 91.5t-142 47.5q-149 20 -217 73t-68 138q0 60 33.5 108.5t96 76.5t145.5 28q93 0 164.5 -31t107.5 -80l-77 -63q-34 37 -82.5 60.5t-112.5 23.5q-75 0 -120 -30t-45 -84q0 -32 16 -54.5t58.5 -38.5t119.5 -26q273 -34 273 -237
q0 -67 -37 -122t-104.5 -86.5t-155.5 -31.5q-111 0 -193 48.5t-116 125.5l94 52q79 -136 223 -136z" />
    <glyph glyph-name="T" unicode="T" horiz-adv-x="650" 
d="M30 610v90h590v-90h-240v-690h-110v690h-240z" />
    <glyph glyph-name="U" unicode="U" horiz-adv-x="708" 
d="M64 700h110v-534q0 -86 43.5 -126t136.5 -40t136.5 40t43.5 126v534h110v-514q0 -152 -79 -214t-211 -62t-211 62t-79 214v514z" />
    <glyph glyph-name="V" unicode="V" horiz-adv-x="700" 
d="M20 700h110l220 -678l220 678h110l-265 -780h-130z" />
    <glyph glyph-name="W" unicode="W" horiz-adv-x="960" 
d="M130 700l149 -666l144 666h124l138 -674l148 674h107l-181 -780h-148l-131 606l-128 -606h-148l-184 780h110z" />
    <glyph glyph-name="X" unicode="X" horiz-adv-x="672" 
d="M20 -80l255 405l-232 375h126l169 -274l173 274h118l-232 -369l255 -411h-126l-193 310l-195 -310h-118z" />
    <glyph glyph-name="Y" unicode="Y" horiz-adv-x="666" 
d="M16 700h123l194 -369l194 369h123l-262 -483v-307h-110v307z" />
    <glyph glyph-name="Z" unicode="Z" horiz-adv-x="622" 
d="M38 -10l401 620h-391v90h526v-70l-401 -620h411v-90h-546v70z" />
    <glyph glyph-name="bracketleft" unicode="[" horiz-adv-x="370" 
d="M120 769h220v-80h-110v-720h110v-80h-220v880z" />
    <glyph glyph-name="backslash" unicode="\" horiz-adv-x="400" 
d="M5 700h108l282 -780h-108z" />
    <glyph glyph-name="bracketright" unicode="]" horiz-adv-x="370" 
d="M30 -111v80h110v720h-110v80h220v-880h-220z" />
    <glyph glyph-name="asciicircum" unicode="^" horiz-adv-x="600" 
d="M236 755h128l206 -257l-87 -52l-183 235l-183 -235l-87 52z" />
    <glyph glyph-name="underscore" unicode="_" horiz-adv-x="500" 
d="M20 10h460v-90h-460v90z" />
    <glyph glyph-name="grave" unicode="`" horiz-adv-x="600" 
d="M370 733h-70l-70 220h110z" />
    <glyph glyph-name="a" unicode="a" horiz-adv-x="555" 
d="M50 66q0 98 94 142q93 44 241 45q-3 47 -36 70q-35 26 -97 26q-74 0 -152 -46l-30 80q39 23 95 40t106 17q108 0 166 -53.5t58 -150.5v-316h-110v35q-18 -16 -52 -29q-39 -16 -93 -16q-77 0 -133.5 38.5t-56.5 117.5zM160 72q0 -37 24.5 -54.5t67.5 -17.5q50 0 85 14
q30 12 48 27v134q-225 -1 -225 -103z" />
    <glyph glyph-name="b" unicode="b" horiz-adv-x="612" 
d="M170 700v-324q20 22 58 41q47 23 99 23q67 0 123 -33t89 -93.5t33 -137.5q0 -78 -34.5 -138.5t-94 -94t-131.5 -33.5q-44 0 -87 14q-34 12 -55 26v-30h-110v780h110zM309 0q44 0 78.5 22.5t54.5 63t20 92.5q0 78 -41 125t-108 47q-48 0 -90 -27q-34 -22 -53 -46v-223
q56 -54 139 -54z" />
    <glyph glyph-name="c" unicode="c" horiz-adv-x="513" 
d="M304 -90q-76 0 -136 33t-94 93t-34 138t35 138.5t96 94t137 33.5q52 0 98.5 -16.5t79.5 -45.5l-56 -71q-20 18 -50 30.5t-66 12.5q-73 0 -118.5 -49.5t-45.5 -128.5q0 -78 42.5 -124t111.5 -46q75 0 127 52l62 -70q-30 -35 -82 -54.5t-107 -19.5z" />
    <glyph glyph-name="d" unicode="d" horiz-adv-x="612" 
d="M552 -80h-110v43q-19 -20 -55 -35q-45 -18 -104 -18q-66 0 -121.5 31t-88.5 90t-33 139t34.5 141t94 95t131.5 34q47 0 88 -12q33 -10 54 -23v295h110v-780zM391 333q-36 17 -85 17q-69 0 -112.5 -50t-43.5 -133q0 -81 40.5 -124t108.5 -43q52 0 93 22q32 17 50 38v241
q-22 19 -51 32z" />
    <glyph glyph-name="e" unicode="e" horiz-adv-x="570" 
d="M309 -90q-78 0 -139 33t-95.5 93t-34.5 138t34 138.5t95 94t137 33.5q73 0 124.5 -30t77.5 -81t26 -113q0 -21 -3.5 -40t-8.5 -30h-371q6 -61 43 -99q45 -45 122 -45q46 0 82 12.5t57 29.5l56 -70q-26 -29 -82 -46.5t-120 -17.5zM427 232q0 29 -13 56.5t-41 45.5t-69 18
q-69 0 -112 -51q-25 -30 -35 -69h270z" />
    <glyph glyph-name="f" unicode="f" horiz-adv-x="389" 
d="M288 620q-34 0 -51 -29t-17 -83v-78h143v-90h-143v-420h-110v420h-100v90h100v50q0 120 46.5 175t125.5 55q31 0 54.5 -6t36.5 -15l-35 -79q-25 10 -50 10z" />
    <glyph glyph-name="g" unicode="g" horiz-adv-x="590" 
d="M294 -200q146 0 146 57q0 23 -32 31t-114 8q-103 0 -162.5 27.5t-59.5 84.5q0 27 12 48q10 19 24 30q-11 13 -21 28q-29 48 -29 111t30 112t83.5 76t122.5 27q42 0 78 -10h172v-90l-48 2q2 -2 4 -5q30 -49 30 -112t-29.5 -110.5t-83 -73t-123.5 -25.5q-64 0 -114 21
q-5 -7 -5 -19q0 -19 25 -27.5t94 -8.5q132 0 194 -28t62 -92q0 -71 -69.5 -111.5t-186.5 -40.5q-99 0 -158 16.5t-100 45.5l60 73q22 -18 73 -31.5t125 -13.5zM294 100q56 0 91 34.5t35 90.5t-35 90.5t-91 34.5t-91 -34.5t-35 -90.5t35 -90.5t91 -34.5z" />
    <glyph glyph-name="h" unicode="h" horiz-adv-x="590" 
d="M331 440q95 0 152 -52.5t57 -145.5v-322h-110v312q0 61 -33 89t-90 28q-44 0 -84 -25q-34 -21 -53 -48v-356h-110v780h110v-326q17 24 56 43q46 23 105 23z" />
    <glyph glyph-name="i" unicode="i" horiz-adv-x="270" 
d="M60 635q0 32 22 53.5t53 21.5q32 0 53.5 -21.5t21.5 -53.5q0 -31 -21.5 -53t-53.5 -22q-31 0 -53 22t-22 53zM190 430v-510h-110v510h110z" />
    <glyph glyph-name="j" unicode="j" horiz-adv-x="270" 
d="M60 635q0 32 22 53.5t53 21.5q32 0 53.5 -21.5t21.5 -53.5q0 -31 -21.5 -53t-53.5 -22q-31 0 -53 22t-22 53zM12 -200q37 0 52.5 29t15.5 103v498h110v-453q0 -137 -44 -202t-142 -65q-62 0 -99.5 29t-52.5 67l86 53q27 -59 74 -59z" />
    <glyph glyph-name="k" unicode="k" horiz-adv-x="499" 
d="M395 440l69 -62l-192 -151l215 -262l-92 -55l-225 285v-275h-110v780h110v-446z" />
    <glyph glyph-name="l" unicode="l" horiz-adv-x="268" 
d="M60 700h110v-644q0 -47 60 -57l-30 -89q-57 1 -98.5 30.5t-41.5 95.5v664z" />
    <glyph glyph-name="m" unicode="m" horiz-adv-x="910" 
d="M327 440q55 0 99 -23q42 -22 66 -63q18 31 58 56q48 30 110 30q89 0 144.5 -53t55.5 -145v-322h-110v312q0 60 -31.5 89t-80.5 29q-41 0 -79 -25q-25 -17 -42 -38q3 -17 3 -35v-332h-110v322q0 54 -28.5 81t-74.5 27q-45 0 -84 -25q-33 -22 -53 -49v-356h-110v510h110
v-56q17 24 54 43q45 23 103 23z" />
    <glyph glyph-name="n" unicode="n" horiz-adv-x="590" 
d="M331 440q95 0 152 -52.5t57 -145.5v-322h-110v312q0 61 -33.5 89.5t-89.5 28.5q-44 0 -84 -25q-34 -22 -53 -49v-356h-110v510h110v-56q17 24 56 43q46 23 105 23z" />
    <glyph glyph-name="o" unicode="o" horiz-adv-x="612" 
d="M308 440q76 0 136 -33t94 -93t34 -138t-35 -138.5t-96 -94t-137 -33.5t-136 33t-94 93t-34 138t35 138.5t96 94t137 33.5zM304 0q45 0 81 22.5t56.5 63t20.5 92.5q0 78 -42.5 125t-111.5 47q-45 0 -81 -22.5t-56.5 -63t-20.5 -92.5q0 -78 42.5 -125t111.5 -47z" />
    <glyph glyph-name="p" unicode="p" horiz-adv-x="612" 
d="M170 430v-54q20 22 58 41q47 23 99 23q67 0 123 -33t89 -93.5t33 -137.5q0 -78 -34.5 -138.5t-94 -94t-131.5 -33.5q-44 0 -87 14q-34 12 -55 26v-240h-110v720h110zM309 0q44 0 78.5 22.5t54.5 63t20 92.5q0 78 -41 125t-108 47q-48 0 -90 -27q-34 -22 -53 -46v-223
q56 -54 139 -54z" />
    <glyph glyph-name="q" unicode="q" horiz-adv-x="612" 
d="M552 -290h-110v254q-20 -21 -55 -36q-43 -18 -105 -18q-66 0 -121.5 31t-88 90.5t-32.5 141.5q0 78 34.5 138.5t94 94.5t131.5 34q47 0 88 -12q33 -10 54 -23v25h110v-720zM391 333q-36 17 -85 17q-45 0 -80.5 -22.5t-55.5 -63t-20 -92.5q0 -84 41 -128t112 -44
q53 0 91 22q30 17 48 40v239q-22 19 -51 32z" />
    <glyph glyph-name="r" unicode="r" horiz-adv-x="409" 
d="M397 440v-90q-159 0 -227 -87v-343h-110v510h110v-67q29 36 80 55q57 22 147 22z" />
    <glyph glyph-name="s" unicode="s" horiz-adv-x="518" 
d="M266 -4q51 0 80.5 21.5t29.5 57.5q0 33 -25.5 50t-91.5 24q-94 10 -146 44.5t-52 92.5q0 47 28 81.5t75.5 53.5t103.5 19q65 0 113.5 -20.5t75.5 -56.5l-77 -52q-19 18 -47.5 30.5t-64.5 12.5q-46 0 -73.5 -16t-27.5 -43q0 -23 22.5 -36.5t89.5 -20.5q101 -11 152 -47
t51 -106q0 -51 -29 -91t-78 -62t-107 -22q-81 0 -145.5 32.5t-86.5 85.5l90 50q18 -33 53.5 -57.5t86.5 -24.5z" />
    <glyph glyph-name="t" unicode="t" horiz-adv-x="452" 
d="M10 340v90h110v170h110v-170h163v-90h-163v-286q0 -25 16.5 -39.5t46.5 -14.5q42 0 78 31l51 -63q-19 -25 -54 -41.5t-80 -16.5q-74 0 -121 34t-47 102v294h-110z" />
    <glyph glyph-name="u" unicode="u" horiz-adv-x="584" 
d="M414 -80v56q-18 -24 -55 -43q-44 -23 -103 -23q-95 0 -150.5 52.5t-55.5 145.5v322h110v-312q0 -117 120 -117q44 0 82 24q33 21 52 49v356h110v-510h-110z" />
    <glyph glyph-name="v" unicode="v" horiz-adv-x="532" 
d="M16 430h117l136 -403l140 403h107l-185 -510h-130z" />
    <glyph glyph-name="w" unicode="w" horiz-adv-x="846" 
d="M130 430l120 -414l120 414h114l120 -414l120 414h106l-165 -510h-130l-112 354l-112 -354h-130l-165 510h114z" />
    <glyph glyph-name="x" unicode="x" horiz-adv-x="516" 
d="M18 -80l182 260l-169 250h122l109 -161l112 161h111l-169 -242l182 -268h-122l-122 180l-125 -180h-111z" />
    <glyph glyph-name="y" unicode="y" horiz-adv-x="532" 
d="M516 430l-153 -411q-55 -147 -120.5 -220.5t-165.5 -88.5l-22 90q64 8 114 53q28 25 49 61l-202 516h121l132 -390l137 390h110z" />
    <glyph glyph-name="z" unicode="z" horiz-adv-x="464" 
d="M34 -10l254 350h-244v90h376v-70l-254 -350h264v-90h-396v70z" />
    <glyph glyph-name="braceleft" unicode="{" horiz-adv-x="404" 
d="M187 444l-3 173q-1 57 10 90t38.5 47.5t75.5 14.5h66v-63h-22q-26 0 -38 -7.5t-16 -24.5t-4 -51v-169q0 -60 -18 -88.5t-59 -36.5q41 -8 59 -36.5t18 -88.5v-169q0 -34 4 -51t16 -24.5t38 -7.5h22v-63h-66q-48 0 -75.5 14.5t-38.5 47.5t-10 90l3 173q1 37 -20 59t-67 22
v68q46 0 67 22t20 59z" />
    <glyph glyph-name="bar" unicode="|" horiz-adv-x="410" 
d="M260 769v-880h-110v880h110z" />
    <glyph glyph-name="braceright" unicode="}" horiz-adv-x="404" 
d="M217 214l3 -173q1 -57 -10 -90t-38.5 -47.5t-75.5 -14.5h-66v63h22q26 0 38 7.5t16 24.5t4 51v169q0 60 18 88.5t59 36.5q-41 8 -59 36.5t-18 88.5v169q0 34 -4 51t-16 24.5t-38 7.5h-22v63h66q48 0 75.5 -14.5t38.5 -47.5t10 -90l-3 -173q-1 -37 20 -59t67 -22v-68
q-46 0 -67 -22t-20 -59z" />
    <glyph glyph-name="asciitilde" unicode="~" horiz-adv-x="600" 
d="M410 214q-32 0 -60.5 13.5t-66.5 39.5q-29 20 -47 29t-34 9q-26 0 -41 -21.5t-18 -46.5l-96 26q5 31 25 62t51 50.5t67 19.5q32 0 60.5 -13.5t66.5 -39.5q29 -19 47 -28.5t34 -9.5q26 0 41 21.5t18 46.5l96 -26q-5 -31 -25 -62t-51 -50.5t-67 -19.5z" />
    <glyph glyph-name="exclamdown" unicode="&#xa1;" horiz-adv-x="350" 
d="M250 690q0 -31 -21.5 -53t-53.5 -22q-31 0 -53 22t-22 53q0 32 22 53.5t53 21.5q32 0 53.5 -21.5t21.5 -53.5zM140 546h70l20 -172v-454h-110v454z" />
    <glyph glyph-name="cent" unicode="&#xa2;" horiz-adv-x="536" 
d="M352 750v-141q40 -3 77 -16q47 -16 80 -45l-56 -71q-20 19 -51 31q-23 9 -50 11v-346q59 8 102 51l62 -70q-30 -35 -83 -55q-39 -14 -81 -18v-162h-110v171q-31 8 -59 23q-65 33 -104 93.5t-39 137.5q0 78 36.5 138.5t101.5 93.5q30 15 64 24v150h110zM199 471
q-49 -49 -49 -129q0 -51 24 -89.5t64 -59.5l4 -2v310q-24 -12 -43 -30z" />
    <glyph glyph-name="sterling" unicode="&#xa3;" horiz-adv-x="600" 
d="M520 346v-90h-228q3 -16 3 -34q0 -47 -29 -111.5t-73 -100.5h362v-90h-482l-29 83q66 40 103.5 99t37.5 124q0 15 -3 30h-148v90h110q-20 39 -31 72q-12 34 -12 70q0 65 34.5 115.5t93 78.5t128.5 28q54 0 103 -12t73 -31l-50 -76q-19 13 -55 21t-71 8
q-63 0 -104.5 -35.5t-41.5 -96.5q0 -34 10.5 -62.5t31.5 -68.5l5 -11h262z" />
    <glyph glyph-name="currency" unicode="&#xa4;" horiz-adv-x="642" 
d="M522 72l-70 70q-3 -2 -5 -3q-57 -31 -126 -31t-127 31q-2 2 -4 3l-70 -70l-78 64l72 72q-5 8 -11 17q-33 54 -33 119t33 119q6 8 11 16l-72 73l78 64l70 -70l4 2q58 32 127 32t126 -32q3 -1 5 -2l70 70l78 -64l-73 -73q6 -8 11 -16q34 -54 34 -119t-34 -119
q-5 -9 -11 -17l73 -72zM462 344q0 40 -18.5 73.5t-51 53t-71.5 19.5t-71.5 -19.5t-51 -53t-18.5 -73.5t18.5 -73.5t51 -53t71.5 -19.5t71.5 19.5t51 53t18.5 73.5z" />
    <glyph glyph-name="yen" unicode="&#xa5;" horiz-adv-x="666" 
d="M620 301v-85h-232v-100h232v-85h-232v-121h-110v121h-232v85h232v100h-232v85h186l-216 399h123l194 -369l194 369h123l-217 -399h187z" />
    <glyph glyph-name="section" unicode="&#xa7;" horiz-adv-x="600" 
d="M307 26q51 0 80.5 21.5t29.5 57.5q0 33 -25.5 50t-91.5 24q-94 10 -146 44.5t-52 92.5q0 28 14 50.5t35 35.5q18 10 35 14q-18 7 -32 17q-52 35 -52 93q0 47 28 81.5t75.5 53.5t103.5 19q65 0 113.5 -20.5t75.5 -56.5l-77 -52q-19 18 -47.5 30.5t-64.5 12.5
q-46 0 -73.5 -16t-27.5 -43q0 -23 22.5 -36.5t89.5 -20.5q100 -11 151.5 -45.5t51.5 -98.5q0 -36 -24 -65q-21 -27 -47 -36q11 -6 20 -12q51 -36 51 -106q0 -51 -29 -91t-78 -62t-107 -22q-81 0 -145.5 32.5t-86.5 85.5l90 50q18 -33 53.5 -57.5t86.5 -24.5zM417 323
q0 27 -26 43t-91 23q-23 2 -44 6q-19 -5 -33 -21q-15 -18 -15 -36q0 -22 8.5 -35t32.5 -21.5t71 -13.5q26 -3 49 -8q18 5 31 18q17 16 17 45z" />
    <glyph glyph-name="dieresis" unicode="&#xa8;" horiz-adv-x="600" 
d="M85 845q0 32 22 53.5t53 21.5q32 0 53.5 -21.5t21.5 -53.5q0 -31 -21.5 -53t-53.5 -22q-31 0 -53 22t-22 53zM365 845q0 32 22 53.5t53 21.5q32 0 53.5 -21.5t21.5 -53.5q0 -31 -21.5 -53t-53.5 -22q-31 0 -53 22t-22 53z" />
    <glyph glyph-name="copyright" unicode="&#xa9;" horiz-adv-x="960" 
d="M493 35q-71 0 -128 33t-89.5 93t-32.5 138t33.5 138.5t93 94t133.5 33.5q61 0 107 -20.5t71 -55.5t25 -77h-98q0 25 -29.5 44t-73.5 19q-67 0 -109.5 -49.5t-42.5 -128.5q0 -77 41.5 -123.5t106.5 -46.5q53 0 80.5 26t27.5 66h102q0 -48 -25.5 -90t-75 -68t-117.5 -26z
M15 300q0 127 62 232.5t168.5 166.5t234.5 61t234.5 -61t168.5 -166.5t62 -232.5t-62 -232.5t-168.5 -166.5t-234.5 -61t-234.5 61t-168.5 166.5t-62 232.5zM859 300q0 111 -48.5 200t-135 139.5t-195.5 50.5t-195.5 -50.5t-135 -139.5t-48.5 -200t48.5 -200t135 -139.5
t195.5 -50.5t195.5 50.5t135 139.5t48.5 200z" />
    <glyph glyph-name="ordfeminine" unicode="&#xaa;" horiz-adv-x="387" 
d="M40 460q0 65 63 95q62 29 161 30q-2 31 -24 47q-24 17 -65 17q-49 0 -101 -31l-20 54q25 15 62.5 26.5t71.5 11.5q72 0 110.5 -35.5t38.5 -100.5v-211h-73v23q-13 -11 -35 -20q-26 -10 -62 -10q-51 0 -89 26t-38 78zM114 464q0 -48 61 -48q33 0 56 9q20 8 33 19v89
q-150 -1 -150 -69z" />
    <glyph glyph-name="guillemotleft" unicode="&#xab;" horiz-adv-x="692" 
d="M282 41l-182 260l182 260l90 -52l-146 -208l146 -208zM522 41l-182 260l182 260l90 -52l-146 -208l146 -208z" />
    <glyph glyph-name="uni00AD" unicode="&#xad;" horiz-adv-x="600" 
d="M550 346v-90h-500v90h500z" />
    <glyph glyph-name="registered" unicode="&#xae;" horiz-adv-x="759" 
d="M15 429q0 98 48.5 180t132 129t184.5 47q100 0 183.5 -47.5t132 -129t48.5 -179.5t-48.5 -179.5t-132 -129t-183.5 -47.5t-184 47.5t-132.5 129t-48.5 179.5zM684 429q0 85 -40.5 155t-110 110.5t-153.5 40.5q-85 0 -154.5 -40.5t-110 -110.5t-40.5 -155t40.5 -155
t110.5 -110.5t154 -40.5t153.5 40.5t110 110.5t40.5 155zM247 666h142q71 0 114 -29t43 -88q0 -61 -41 -100q-26 -26 -63 -35l141 -171l-49 -35l-162 202h-60v-197h-65v453zM401 463q36 0 58 23.5t22 59.5q0 37 -26.5 52t-71.5 15h-71v-150h89z" />
    <glyph glyph-name="degree" unicode="&#xb0;" horiz-adv-x="600" 
d="M170 591q0 50 37.5 85t92.5 35t92.5 -35t37.5 -85t-37.5 -85t-92.5 -35t-92.5 35t-37.5 85zM349 591q0 22 -14 36.5t-35 14.5t-35 -14.5t-14 -36.5t14 -36.5t35 -14.5t35 14.5t14 36.5z" />
    <glyph glyph-name="plusminus" unicode="&#xb1;" horiz-adv-x="600" 
d="M355 622v-204h195v-90h-195v-206h-110v206h-195v90h195v204h110zM550 46v-90h-500v90h500z" />
    <glyph glyph-name="uni00B2" unicode="&#xb2;" horiz-adv-x="456" 
d="M232 710q65 0 105.5 -37t40.5 -98q0 -41 -19 -80t-46.5 -71t-72.5 -78l-49 -48h205v-69h-326v52l90 91q66 66 101.5 114t35.5 91q0 29 -17.5 46.5t-47.5 17.5q-55 0 -91 -72l-67 37q25 47 68 75.5t90 28.5z" />
    <glyph glyph-name="uni00B3" unicode="&#xb3;" horiz-adv-x="431" 
d="M114 514l85 -2q37 -1 56.5 17t19.5 52q0 28 -18 44.5t-48 16.5q-27 0 -49 -16t-34 -45l-67 36q22 43 62.5 68t90.5 25q63 0 103.5 -35.5t40.5 -91.5q0 -43 -29 -76q-13 -14 -29 -24q20 -9 36 -25q33 -34 33 -85q0 -67 -47 -108.5t-123 -41.5q-55 0 -95 21t-58 49l61 45
q14 -21 40.5 -33.5t57.5 -12.5q39 0 61.5 21.5t22.5 59.5q0 36 -22.5 55.5t-65.5 18.5l-85 -2v69z" />
    <glyph glyph-name="acute" unicode="&#xb4;" horiz-adv-x="600" 
d="M370 953l-70 -220h-70l30 220h110z" />
    <glyph glyph-name="paragraph" unicode="&#xb6;" horiz-adv-x="600" 
d="M425 -80v780h110v-780h-110zM263 -80v365q-63 0 -115.5 21.5t-85 68t-32.5 116.5q0 110 66.5 159.5t166.5 49.5h110v-780h-110z" />
    <glyph glyph-name="periodcentered" unicode="&#xb7;" horiz-adv-x="600" 
d="M225 301q0 32 22 53.5t53 21.5q32 0 53.5 -21.5t21.5 -53.5q0 -31 -21.5 -53t-53.5 -22q-31 0 -53 22t-22 53z" />
    <glyph glyph-name="cedilla" unicode="&#xb8;" horiz-adv-x="600" 
d="M307 -80l-14 -37q45 -2 72 -19q30 -20 30 -62q0 -45 -53.5 -68.5t-156.5 -23.5v74q55 0 77.5 4.5t22.5 17.5t-21.5 18t-78.5 5l22 91h100z" />
    <glyph glyph-name="uni00B9" unicode="&#xb9;" horiz-adv-x="305" 
d="M205 710v-487h-81v399l-51 -17l-23 68l92 37h63z" />
    <glyph glyph-name="ordmasculine" unicode="&#xba;" horiz-adv-x="414" 
d="M208 710q51 0 91 -22t62.5 -62t22.5 -92t-23.5 -92.5t-64 -63t-90.5 -22.5q-51 0 -91 22t-62.5 62t-22.5 92t23.5 92.5t64 63t90.5 22.5zM206 416q45 0 75 33.5t30 85.5t-28.5 83.5t-74.5 31.5q-45 0 -75 -33.5t-30 -85.5t28.5 -83.5t74.5 -31.5z" />
    <glyph glyph-name="guillemotright" unicode="&#xbb;" horiz-adv-x="692" 
d="M466 301l-146 208l90 52l182 -260l-182 -260l-90 52zM226 301l-146 208l90 52l182 -260l-182 -260l-90 52z" />
    <glyph glyph-name="onequarter" unicode="&#xbc;" horiz-adv-x="960" 
d="M880 68v-69h-62v-89h-81v89h-205v51l157 341h129v-323h62zM214 -80l362 780h90l-362 -780h-90zM245 710v-487h-81v399l-51 -17l-23 68l92 37h63zM620 68h117v254z" />
    <glyph glyph-name="onehalf" unicode="&#xbd;" horiz-adv-x="960" 
d="M726 391q65 0 105.5 -37t40.5 -98q0 -60 -36 -112t-102 -117l-49 -48h205v-69h-326v52l90 91q66 66 101.5 114t35.5 91q0 29 -17.5 46.5t-47.5 17.5q-55 0 -91 -72l-67 37q25 47 68 75.5t90 28.5zM199 -80l362 780h90l-362 -780h-90zM245 710v-487h-81v399l-51 -17
l-23 68l92 37h63z" />
    <glyph glyph-name="threequarters" unicode="&#xbe;" horiz-adv-x="960" 
d="M900 68v-69h-62v-89h-81v89h-205v51l157 341h129v-323h62zM130 514l85 -2q37 -1 56.5 17t19.5 52q0 28 -18 44.5t-48 16.5q-27 0 -49 -16t-34 -45l-67 36q22 43 62.5 68t90.5 25q63 0 103.5 -35.5t40.5 -91.5q0 -43 -29 -76q-13 -14 -29 -24q20 -9 36 -25q33 -34 33 -85
q0 -67 -47 -108.5t-123 -41.5q-55 0 -95 21t-58 49l61 45q14 -21 40.5 -33.5t57.5 -12.5q39 0 61.5 21.5t22.5 59.5q0 36 -22.5 55.5t-65.5 18.5l-85 -2v69zM293 -80l362 780h90l-362 -780h-90zM640 68h117v254z" />
    <glyph glyph-name="questiondown" unicode="&#xbf;" horiz-adv-x="525" 
d="M370 690q0 -31 -21.5 -53t-53.5 -22q-31 0 -53 22t-22 53q0 32 22 53.5t53 21.5q32 0 53.5 -21.5t21.5 -53.5zM190 100q0 -49 27.5 -74.5t77.5 -25.5q45 0 84 25t61 54l61 -69q-25 -40 -83.5 -70t-128.5 -30q-89 0 -149 49t-60 144q0 79 43 132.5t117 98.5l10 212h90
l10 -242q-160 -94 -160 -204z" />
    <glyph glyph-name="AE" unicode="&#xc6;" horiz-adv-x="960" 
d="M20 -80l397 780h499v-90h-314v-230h294v-90h-294v-280h334v-90h-444v215h-253l-109 -215h-110zM492 225v406l-207 -406h207z" />
    <glyph glyph-name="Eth" unicode="&#xd0;" horiz-adv-x="732" 
d="M80 700h211q125 0 215.5 -45.5t138 -131.5t47.5 -204q0 -120 -47 -210.5t-131 -139.5t-190 -49h-244v370h-60v90h60v320zM341 380v-90h-151v-280h107q91 0 155 38.5t97 107.5t33 160q0 137 -76 215.5t-213 78.5h-103v-230h151z" />
    <glyph glyph-name="multiply" unicode="&#xd7;" horiz-adv-x="600" 
d="M160 514l140 -140l140 140l74 -74l-140 -140l140 -140l-74 -74l-140 140l-140 -140l-74 74l140 140l-140 140z" />
    <glyph glyph-name="Oslash" unicode="&#xd8;" horiz-adv-x="872" 
d="M45 -20l75 75q-17 22 -30 46q-50 91 -50 208q0 118 50 209t140 141.5t206 50.5t206 -51q24 -14 46 -31l71 72l68 -60l-75 -76q16 -21 30 -46q50 -90 50 -207q0 -118 -50 -209t-140 -141.5t-206 -50.5t-206 51q-25 14 -47 31l-70 -72zM436 0q84 0 149 39.5t101 110.5
t36 163q0 90 -36 160q-4 8 -9 16l-424 -427q16 -13 34 -24q65 -38 149 -38zM585 581q-65 39 -149 39t-149 -39.5t-101 -110.5t-36 -163q0 -90 36 -160q4 -8 9 -16l423 427q-15 13 -33 23z" />
    <glyph glyph-name="Thorn" unicode="&#xde;" horiz-adv-x="600" 
d="M180 -70h-110v770h110v-130h126q122 0 199 -56t77 -167q0 -79 -33.5 -138t-92 -90t-130.5 -31h-146v-158zM326 178q64 0 105 44t41 120q0 75 -49 106.5t-127 31.5h-116v-302h146z" />
    <glyph glyph-name="germandbls" unicode="&#xdf;" horiz-adv-x="592" 
d="M428 150q0 59 -44.5 94t-128.5 39v90q77 8 112 42.5t35 89.5q0 49 -29 82t-84 33t-87 -32.5t-32 -89.5v-578h-110v578q0 68 31.5 116t83.5 72t114 24q69 0 119.5 -27t77 -71.5t26.5 -96.5q0 -43 -20 -82t-54 -65.5t-75 -34.5q42 -3 82.5 -26t66.5 -63.5t26 -92.5
q0 -121 -81.5 -176t-231.5 -55v90q106 0 154.5 34.5t48.5 105.5z" />
    <glyph glyph-name="ae" unicode="&#xe6;" horiz-adv-x="906" 
d="M649 -90q-78 0 -138 33q-39 22 -67 54q-24 -32 -76 -58q-55 -29 -128 -29q-77 0 -133.5 38.5t-56.5 117.5q0 98 94 142q93 44 241 45q-3 47 -36 70q-35 26 -97 26q-74 0 -152 -46l-30 80q39 23 95 40t106 17q108 0 166 -54q11 -10 19 -21q24 24 54 41q60 34 136 34
q72 0 122.5 -30t76 -80.5t25.5 -113.5q0 -21 -3.5 -40t-8.5 -30h-362q6 -61 41 -99q42 -45 119 -45q46 0 82 12.5t57 29.5l56 -70q-26 -29 -82 -46.5t-120 -17.5zM160 72q0 -37 24.5 -54.5t67.5 -17.5q55 0 93 22q36 21 56 49q-16 46 -16 103v1q-225 -1 -225 -103zM763 232
q0 47 -29.5 83.5t-89.5 36.5q-69 0 -109 -50q-24 -30 -34 -70h262z" />
    <glyph glyph-name="eth" unicode="&#xf0;" horiz-adv-x="600" 
d="M212 510l54 62q-41 31 -83 54l54 84q47 -24 97 -61l45 51l78 -50l-53 -60q64 -62 112 -151q56 -103 56 -231q0 -93 -35 -160.5t-95.5 -102.5t-137.5 -35q-76 0 -136 33t-94 93t-34 138q0 77 34.5 138t92 94.5t126.5 33.5q55 0 96.5 -23.5t64.5 -57.5l2 2q-30 68 -111 144
l-8 8l-47 -53zM304 0q45 0 81 22.5t56.5 63t20.5 92.5q0 78 -42.5 125t-111.5 47q-45 0 -81 -22.5t-56.5 -63t-20.5 -92.5q0 -78 42.5 -125t111.5 -47z" />
    <glyph glyph-name="divide" unicode="&#xf7;" horiz-adv-x="600" 
d="M550 346v-90h-500v90h500zM225 131q0 32 22 53.5t53 21.5q32 0 53.5 -21.5t21.5 -53.5q0 -31 -21.5 -53t-53.5 -22q-31 0 -53 22t-22 53zM225 481q0 32 22 53.5t53 21.5q32 0 53.5 -21.5t21.5 -53.5q0 -31 -21.5 -53t-53.5 -22q-31 0 -53 22t-22 53z" />
    <glyph glyph-name="oslash" unicode="&#xf8;" horiz-adv-x="600" 
d="M20 -30l59 57q-3 4 -5 9q-34 60 -34 138t35 138.5t96 94t137 33.5t136 -33q8 -5 15 -9l43 42l78 -60l-52 -51q5 -7 10 -15q34 -60 34 -138t-35 -138.5t-96 -94t-137 -33.5t-136 33q-12 7 -22 14l-48 -47zM304 0q45 0 81 22.5t56.5 63t20.5 92.5q0 42 -13 75l-233 -228
q37 -25 88 -25zM308 350q-45 0 -81 -22.5t-56.5 -63t-20.5 -92.5q0 -37 9 -67l229 224q-34 21 -80 21z" />
    <glyph glyph-name="thorn" unicode="&#xfe;" horiz-adv-x="600" 
d="M170 700v-324q20 22 58 41q47 23 99 23q67 0 123 -33t89 -93.5t33 -137.5q0 -78 -34.5 -138.5t-94 -94t-131.5 -33.5q-44 0 -87 14q-34 12 -55 26v-240h-110v990h110zM309 0q44 0 78.5 22.5t54.5 63t20 92.5q0 78 -41 125t-108 47q-48 0 -90 -27q-34 -22 -53 -46v-223
q56 -54 139 -54z" />
    <glyph glyph-name="dcroat" unicode="&#x111;" horiz-adv-x="612" 
d="M600 626v-90h-48v-616h-110v43q-19 -20 -55 -35q-45 -18 -104 -18q-66 0 -121.5 31t-88.5 90t-33 139t34.5 141t94 95t131.5 34q47 0 88 -12q33 -10 54 -23v131h-103v90h103v74h110v-74h48zM391 333q-36 17 -85 17q-69 0 -112.5 -50t-43.5 -133q0 -81 40.5 -124
t108.5 -43q52 0 93 22q32 17 50 38v241q-22 19 -51 32z" />
    <glyph glyph-name="Hbar" unicode="&#x126;" horiz-adv-x="760" 
d="M690 700v-120h50v-90h-50v-570h-110v370h-400v-370h-110v570h-50v90h50v120h110v-120h400v120h110zM180 380h400v110h-400v-110z" />
    <glyph glyph-name="hbar" unicode="&#x127;" horiz-adv-x="590" 
d="M331 440q95 0 152 -52.5t57 -145.5v-322h-110v312q0 61 -33 89t-90 28q-44 0 -84 -25q-34 -21 -53 -48v-356h-110v616h-60v90h60v74h110v-74h91v-90h-91v-162q17 24 56 43q46 23 105 23z" />
    <glyph glyph-name="dotlessi" unicode="&#x131;" horiz-adv-x="230" 
d="M170 430v-510h-110v510h110z" />
    <glyph glyph-name="IJ" unicode="&#x132;" horiz-adv-x="803" 
d="M180 700v-780h-110v780h110zM501 0q59 0 93 37.5t34 104.5v558h110v-523q0 -126 -63 -196.5t-179 -70.5q-100 0 -157.5 57.5t-78.5 138.5l91 33q18 -61 55 -100t95 -39z" />
    <glyph glyph-name="ij" unicode="&#x133;" horiz-adv-x="540" 
d="M60 635q0 32 22 53.5t53 21.5q32 0 53.5 -21.5t21.5 -53.5q0 -31 -21.5 -53t-53.5 -22q-31 0 -53 22t-22 53zM190 430v-510h-110v510h110zM330 635q0 32 22 53.5t53 21.5q32 0 53.5 -21.5t21.5 -53.5q0 -31 -21.5 -53t-53.5 -22q-31 0 -53 22t-22 53zM282 -200
q37 0 52.5 29t15.5 103v498h110v-453q0 -137 -44 -202t-142 -65q-62 0 -99.5 29t-52.5 67l86 53q27 -59 74 -59z" />
    <glyph glyph-name="kgreenlandic" unicode="&#x138;" horiz-adv-x="499" 
d="M395 440l69 -62l-192 -151l215 -262l-92 -55l-225 285v-275h-110v510h110v-176z" />
    <glyph glyph-name="Ldot" unicode="&#x13f;" horiz-adv-x="586" 
d="M180 700v-690h386v-90h-496v780h110zM323 301q0 32 22 53.5t53 21.5q32 0 53.5 -21.5t21.5 -53.5q0 -31 -21.5 -53t-53.5 -22q-31 0 -53 22t-22 53z" />
    <glyph glyph-name="ldot" unicode="&#x140;" horiz-adv-x="385" 
d="M60 700h110v-644q0 -47 60 -57l-30 -89q-57 1 -98.5 30.5t-41.5 95.5v664zM225 301q0 32 22 53.5t53 21.5q32 0 53.5 -21.5t21.5 -53.5q0 -31 -21.5 -53t-53.5 -22q-31 0 -53 22t-22 53z" />
    <glyph glyph-name="Lslash" unicode="&#x141;" horiz-adv-x="586" 
d="M371 380v-90l-191 -55v-225h386v-90h-496v284l-50 -14v90l50 14v406h110v-375z" />
    <glyph glyph-name="lslash" unicode="&#x142;" horiz-adv-x="385" 
d="M0 200l130 149v351h110v-225l57 65l78 -50l-135 -155v-279q0 -47 60 -57l-30 -89q-57 1 -98.5 30.5t-41.5 95.5v173l-52 -59z" />
    <glyph glyph-name="napostrophe" unicode="&#x149;" horiz-adv-x="645" 
d="M376 440q95 0 152 -52.5t57 -145.5v-322h-110v312q0 61 -33.5 89.5t-89.5 28.5q-44 0 -84 -25q-34 -22 -53 -49v-356h-110v510h110v-56q17 24 56 43q46 23 105 23zM83 755q34 0 55.5 -24.5t21.5 -73.5q0 -58 -30.5 -111t-77.5 -91l-47 61q21 16 40 42.5t24 49.5
q-22 3 -40.5 23t-18.5 49q0 32 21 53.5t52 21.5z" />
    <glyph glyph-name="Eng" unicode="&#x14a;" horiz-adv-x="730" 
d="M70 700h155l325 -581v581h110v-743q0 -247 -178 -247v90q39 0 53.5 29t14.5 91l-370 648v-648h-110v780z" />
    <glyph glyph-name="eng" unicode="&#x14b;" horiz-adv-x="600" 
d="M331 440q95 0 152 -52.5t57 -145.5v-265q0 -135 -43 -201t-135 -66v90q40 0 54 32.5t14 99.5v300q0 61 -33.5 89.5t-89.5 28.5q-44 0 -84 -25q-34 -22 -53 -49v-356h-110v510h110v-56q17 24 56 43q46 23 105 23z" />
    <glyph glyph-name="OE" unicode="&#x152;" horiz-adv-x="960" 
d="M356 710q96 0 167 -50q21 -15 39 -33v73h354v-90h-244v-230h224v-90h-224v-280h264v-90h-374v73q-18 -18 -39 -32q-71 -51 -167 -51t-167.5 50t-110 140.5t-38.5 208.5q0 119 38.5 209.5t110 141t167.5 50.5zM356 0q64 0 110.5 39t71 110t24.5 164q0 91 -24.5 160.5
t-71 108t-110.5 38.5t-110.5 -39t-71 -110t-24.5 -164q0 -91 24.5 -160.5t71 -108t110.5 -38.5z" />
    <glyph glyph-name="oe" unicode="&#x153;" horiz-adv-x="983" 
d="M308 440q76 0 136 -33q43 -24 72 -62q29 38 71 61q60 34 136 34q72 0 122.5 -30t76 -80.5t25.5 -113.5q0 -21 -3.5 -40t-8.5 -30h-362q6 -61 41 -99q42 -45 119 -45q46 0 82 12.5t57 29.5l56 -70q-26 -29 -82 -46.5t-120 -17.5q-78 0 -138 33q-44 24 -73 62
q-31 -37 -74 -61q-61 -34 -137 -34t-136 33t-94 93t-34 138t35 138.5t96 94t137 33.5zM304 0q45 0 81 22.5t56 62.5q20 39 21 89v4q0 78 -42.5 125t-111.5 47q-45 0 -81 -22.5t-56.5 -63t-20.5 -92.5q0 -78 42.5 -125t111.5 -47zM840 232q0 47 -29.5 83.5t-89.5 36.5
q-69 0 -109 -50q-24 -30 -34 -70h262z" />
    <glyph glyph-name="Tbar" unicode="&#x166;" horiz-adv-x="650" 
d="M118 295v90h152v225h-240v90h590v-90h-240v-225h152v-90h-152v-375h-110v375h-152z" />
    <glyph glyph-name="tbar" unicode="&#x167;" horiz-adv-x="452" 
d="M10 150v90h110v100h-110v90h110v170h110v-170h163v-90h-163v-100h163v-90h-163v-96q0 -25 16.5 -39.5t46.5 -14.5q42 0 78 31l51 -63q-19 -25 -54 -41.5t-80 -16.5q-74 0 -121 34t-47 102v104h-110z" />
    <glyph glyph-name="caron" unicode="&#x2c7;" horiz-adv-x="600" 
d="M236 743l-106 157l87 52l83 -129l83 129l87 -52l-106 -157h-128z" />
    <glyph glyph-name="uni02D0" unicode="&#x2d0;" horiz-adv-x="290" 
d="M220 586l-75 -150l-75 150h150zM145 166l75 -150h-150z" />
    <glyph glyph-name="breve" unicode="&#x2d8;" horiz-adv-x="600" 
d="M464 942q0 -199 -164 -199t-164 199h100q0 -66 16 -92.5t48 -26.5t48 26.5t16 92.5h100v0z" />
    <glyph glyph-name="dotaccent" unicode="&#x2d9;" horiz-adv-x="600" 
d="M225 845q0 32 22 53.5t53 21.5q32 0 53.5 -21.5t21.5 -53.5q0 -31 -21.5 -53t-53.5 -22q-31 0 -53 22t-22 53z" />
    <glyph glyph-name="ring" unicode="&#x2da;" horiz-adv-x="600" 
d="M170 845q0 50 37.5 85t92.5 35t92.5 -35t37.5 -85t-37.5 -85t-92.5 -35t-92.5 35t-37.5 85zM349 845q0 22 -14 36.5t-35 14.5t-35 -14.5t-14 -36.5t14 -36.5t35 -14.5t35 14.5t14 36.5z" />
    <glyph glyph-name="ogonek" unicode="&#x2db;" horiz-adv-x="600" 
d="M334 -290q-83 0 -128.5 25t-45.5 83q0 31 16.5 59t38.5 43h100q-45 -33 -45 -74q0 -46 64 -46q24 0 38 11l68 -70q-16 -13 -46.5 -22t-59.5 -9z" />
    <glyph glyph-name="tilde" unicode="&#x2dc;" horiz-adv-x="600" 
d="M377 757q-30 0 -51.5 12.5t-49.5 35.5q-18 16 -30.5 24t-26.5 8q-21 0 -32 -18.5t-11 -44.5h-90q0 36 17 69t48 53.5t72 20.5q30 0 51.5 -12.5t49.5 -35.5q18 -16 30.5 -24t26.5 -8q21 0 32 18.5t11 44.5h90q0 -36 -17 -69t-48 -53.5t-72 -20.5z" />
    <glyph glyph-name="hungarumlaut" unicode="&#x2dd;" horiz-adv-x="600" 
d="M275 953l-70 -220h-70l30 220h110zM465 953l-70 -220h-70l30 220h110z" />
    <glyph glyph-name="Alpha" unicode="&#x391;" horiz-adv-x="700" 
d="M415 700l265 -780h-110l-83 255h-275l-82 -255h-110l265 780h130zM241 265h217l-108 333z" />
    <glyph glyph-name="Beta" unicode="&#x392;" horiz-adv-x="660" 
d="M353 700q110 0 176.5 -48t66.5 -137q0 -66 -30 -108.5t-73 -62.5q-11 -5 -23 -9q15 -4 30 -10q47 -18 81.5 -60t34.5 -109q0 -108 -68.5 -172t-198.5 -64h-279v780h283zM333 10q173 0 173 146q0 69 -42 101.5t-108 32.5h-176v-280h153zM356 380q62 0 96 32t34 92
q0 56 -34 81t-107 25h-165v-230h176z" />
    <glyph glyph-name="Gamma" unicode="&#x393;" horiz-adv-x="570" 
d="M540 700v-90h-360v-690h-110v780h470z" />
    <glyph glyph-name="uni0394" unicode="&#x394;" horiz-adv-x="700" 
d="M542 10l-192 588l-192 -588h384zM50 10l235 690h130l235 -690v-90h-600v90z" />
    <glyph glyph-name="Epsilon" unicode="&#x395;" horiz-adv-x="610" 
d="M70 -80v780h496v-90h-386v-230h366v-90h-366v-280h406v-90h-516z" />
    <glyph glyph-name="Zeta" unicode="&#x396;" horiz-adv-x="622" 
d="M38 -10l401 620h-391v90h526v-70l-401 -620h411v-90h-546v70z" />
    <glyph glyph-name="Eta" unicode="&#x397;" horiz-adv-x="760" 
d="M690 700v-780h-110v370h-400v-370h-110v780h110v-320h400v320h110z" />
    <glyph glyph-name="Theta" unicode="&#x398;" horiz-adv-x="872" 
d="M240 275v90h393v-90h-393zM436 710q116 0 206 -50.5t140 -141t50 -207.5q0 -118 -50 -209t-140 -141.5t-206 -50.5t-206 50.5t-140 141t-50 207.5q0 118 50 209t140 141.5t206 50.5zM436 0q84 0 149 39.5t101 110.5t36 163q0 90 -36 160t-101 108.5t-149 38.5t-149 -39.5
t-101 -110.5t-36 -163q0 -90 36 -160t101 -108.5t149 -38.5z" />
    <glyph glyph-name="Iota" unicode="&#x399;" horiz-adv-x="250" 
d="M180 700v-780h-110v780h110z" />
    <glyph glyph-name="Kappa" unicode="&#x39a;" horiz-adv-x="660" 
d="M538 710l82 -62l-329 -295l349 -378l-85 -65l-375 413v-403h-110v780h110v-326z" />
    <glyph glyph-name="Lambda" unicode="&#x39b;" horiz-adv-x="700" 
d="M415 700l265 -780h-110l-220 678l-220 -678h-110l265 780h130z" />
    <glyph glyph-name="Mu" unicode="&#x39c;" horiz-adv-x="960" 
d="M70 700h172l236 -706l240 706h172v-780h-110v668l-219 -668h-166l-215 668v-668h-110v780z" />
    <glyph glyph-name="Nu" unicode="&#x39d;" horiz-adv-x="730" 
d="M70 700h155l325 -648v648h110v-780h-155l-325 648v-648h-110v780z" />
    <glyph glyph-name="Xi" unicode="&#x39e;" horiz-adv-x="650" 
d="M64 610v90h522v-90h-522zM84 290v90h482v-90h-482zM64 -80v90h522v-90h-522z" />
    <glyph glyph-name="Omicron" unicode="&#x39f;" horiz-adv-x="872" 
d="M436 710q116 0 206 -50.5t140 -141t50 -207.5q0 -118 -50 -209t-140 -141.5t-206 -50.5t-206 50.5t-140 141t-50 207.5q0 118 50 209t140 141.5t206 50.5zM436 0q84 0 149 39.5t101 110.5t36 163q0 90 -36 160t-101 108.5t-149 38.5t-149 -39.5t-101 -110.5t-36 -163
q0 -90 36 -160t101 -108.5t149 -38.5z" />
    <glyph glyph-name="Pi" unicode="&#x3a0;" horiz-adv-x="740" 
d="M670 700v-780h-110v690h-380v-690h-110v780h600z" />
    <glyph glyph-name="Rho" unicode="&#x3a1;" horiz-adv-x="620" 
d="M70 700h236q122 0 199 -56t77 -167q0 -79 -33.5 -138t-92 -90t-130.5 -31h-146v-288h-110v770zM326 308q64 0 105 44t41 120q0 75 -49 106.5t-127 31.5h-116v-302h146z" />
    <glyph glyph-name="Sigma" unicode="&#x3a3;" horiz-adv-x="650" 
d="M64 10l233 300l-233 300v90h522v-90h-392l239 -300l-239 -300h392v-90h-522v90z" />
    <glyph glyph-name="Tau" unicode="&#x3a4;" horiz-adv-x="650" 
d="M30 610v90h590v-90h-240v-690h-110v690h-240z" />
    <glyph glyph-name="Upsilon" unicode="&#x3a5;" horiz-adv-x="666" 
d="M16 700h123l194 -369l194 369h123l-262 -483v-307h-110v307z" />
    <glyph glyph-name="Phi" unicode="&#x3a6;" horiz-adv-x="860" 
d="M375 700h110v-87q82 -7 147 -35q86 -38 132 -107t46 -161t-45.5 -161t-131.5 -107q-65 -29 -148 -36v-86h-110v86q-83 7 -147 36q-86 38 -132 107t-46 161t45.5 161t130.5 107q65 29 149 35v87zM279 497q-60 -28 -89.5 -77t-29.5 -110t30 -110t91 -78q41 -19 94 -25v426
q-55 -6 -96 -26zM700 310q0 61 -30 110t-92 77q-40 19 -93 25v-426q54 7 96 26q60 29 89.5 78t29.5 110z" />
    <glyph glyph-name="Chi" unicode="&#x3a7;" horiz-adv-x="672" 
d="M20 -80l255 405l-232 375h126l169 -274l173 274h118l-232 -369l255 -411h-126l-193 310l-195 -310h-118z" />
    <glyph glyph-name="Psi" unicode="&#x3a8;" horiz-adv-x="788" 
d="M64 700h110v-294q0 -170 165 -193v487h110v-487q165 23 165 193v294h110v-274q0 -166 -91 -236q-73 -57 -184 -68v-202h-110v202q-111 11 -184 68q-91 70 -91 236v274z" />
    <glyph glyph-name="uni03A9" unicode="&#x3a9;" horiz-adv-x="872" 
d="M820 9v-90h-300v92q93 26 147.5 106.5t54.5 195.5q0 90 -36 160t-101 108.5t-149 38.5t-149 -39.5t-101 -110.5t-36 -163q0 -110 55 -189.5t146 -106.5v-92h-300v90h130q-31 23 -57 52q-84 97 -84 248q0 118 50 209t140 141.5t206 50.5t206 -50.5t140 -141t50 -207.5
q0 -153 -84 -250q-25 -29 -57 -52h129z" />
    <glyph glyph-name="alpha" unicode="&#x3b1;" horiz-adv-x="600" 
d="M513 430v-393q0 -17 8 -23.5t28 -6.5v-87q-22 -10 -50 -10q-41 0 -69 19q-24 17 -27 52q-18 -27 -54 -47q-40 -24 -95 -24q-60 0 -108.5 30.5t-77 87.5t-28.5 133q0 78 33 142t91 100.5t131 36.5q36 0 66 -11q26 -10 42 -20v21h110zM303 350q-44 0 -79 -25.5t-54.5 -69
t-19.5 -96.5q0 -75 33.5 -117t90.5 -42q44 0 78 22q31 19 51 56v232q-15 15 -39 26q-28 14 -61 14z" />
    <glyph glyph-name="beta" unicode="&#x3b2;" horiz-adv-x="600" 
d="M428 150q0 59 -44.5 94t-128.5 39v90q77 8 112 42.5t35 89.5q0 49 -29 82t-84 33t-87 -32.5t-32 -89.5v-788h-110v788q0 68 31.5 116t83.5 72t114 24q69 0 119.5 -27t77 -71.5t26.5 -96.5q0 -43 -20 -82t-54 -65.5t-75 -34.5q42 -3 82.5 -26t66.5 -63.5t26 -92.5
q0 -121 -81.5 -176t-231.5 -55v90q106 0 154.5 34.5t48.5 105.5z" />
    <glyph glyph-name="gamma" unicode="&#x3b3;" horiz-adv-x="480" 
d="M134 430l105 -406q54 69 80 180t26 226h115q-3 -112 -21.5 -195t-58.5 -159t-111 -166v-200h-104v196l-151 524h120z" />
    <glyph glyph-name="delta" unicode="&#x3b4;" horiz-adv-x="614" 
d="M171 420q-52 54 -52 125q0 48 26 85.5t72 58.5t104 21q50 0 103 -15.5t101 -43.5l-56 -78q-42 25 -76.5 36t-71.5 11q-44 0 -68 -19.5t-24 -55.5q0 -26 10.5 -47t39 -44t82.5 -54q63 -36 104.5 -66t73 -77.5t31.5 -109.5q0 -72 -32 -125.5t-91.5 -82.5t-139.5 -29
t-139.5 29t-91.5 82.5t-32 125.5q0 58 29.5 107.5t78.5 80.5q38 24 80 32q-34 25 -61 53zM154 147q0 -68 39.5 -107.5t113.5 -39.5t113.5 38t39.5 99q0 41 -14 70t-47 56q-30 24 -83 54q-43 -2 -79 -23q-38 -22 -60.5 -61t-22.5 -86z" />
    <glyph glyph-name="epsilon" unicode="&#x3b5;" horiz-adv-x="440" 
d="M146 71q0 -36 22 -53t71 -17q47 0 78 14.5t45 31.5l54 -64q-58 -73 -178 -73q-55 0 -99 19.5t-69.5 55t-25.5 82.5q0 52 32 86q25 25 57 34q-30 12 -51 34q-27 30 -27 80q0 62 49.5 100.5t133.5 38.5q106 0 154 -58l-51 -65q-17 19 -44 31t-62 12q-39 0 -57.5 -17
t-18.5 -44q0 -26 21 -47t63 -20l99 2v-99l-99 2q-51 1 -74 -16t-23 -50z" />
    <glyph glyph-name="zeta" unicode="&#x3b6;" horiz-adv-x="505" 
d="M350 -118q0 35 -23 53.5t-89 34.5q-60 15 -99 36.5t-61 61t-22 101.5q0 80 39.5 167.5t101.5 160.5t126 113h-244v90h392v-90q-66 -32 -137 -101.5t-119.5 -158.5t-48.5 -176q0 -37 17 -59.5t48 -36t84 -26.5q75 -19 110 -55.5t35 -84.5q0 -45 -12 -100.5t-29 -101.5h-97
q14 43 21 88.5t7 83.5z" />
    <glyph glyph-name="eta" unicode="&#x3b7;" horiz-adv-x="600" 
d="M331 440q95 0 152 -52.5t57 -145.5v-532h-110v522q0 61 -33.5 89.5t-89.5 28.5q-44 0 -84 -25q-34 -22 -53 -49v-356h-110v410q0 18 -6 38t-14 32l80 40q23 -10 36 -28q12 -17 14 -38q17 24 56 43q46 23 105 23z" />
    <glyph glyph-name="theta" unicode="&#x3b8;" horiz-adv-x="712" 
d="M356 710q96 0 167.5 -50t110 -140.5t38.5 -208.5q0 -119 -38.5 -209.5t-110 -141t-167.5 -50.5t-167.5 50t-110 140.5t-38.5 208.5q0 119 38.5 209.5t110 141t167.5 50.5zM356 0q64 0 110.5 39t70.5 110q20 56 24 126h-411q4 -72 24 -129q25 -69 71.5 -107.5t110.5 -38.5
zM537 473q-24 70 -70.5 108.5t-110.5 38.5t-110.5 -39t-71.5 -110q-16 -48 -22 -106h408q-5 59 -23 108z" />
    <glyph glyph-name="iota" unicode="&#x3b9;" horiz-adv-x="268" 
d="M60 430h110v-374q0 -47 60 -57l-30 -89q-57 1 -98.5 30.5t-41.5 95.5v394z" />
    <glyph glyph-name="kappa" unicode="&#x3ba;" horiz-adv-x="509" 
d="M170 430v-237l165 194q23 27 52.5 40t76.5 13v-85q-19 0 -37 -12.5t-39 -36.5l-89 -102l188 -284h-122l-131 210l-64 -74v-136h-110v510h110z" />
    <glyph glyph-name="lambda" unicode="&#x3bb;" horiz-adv-x="533" 
d="M14 -80l230 496l-48 170q-5 18 -13 26t-20 8q-24 0 -50 -39l-62 74q48 55 117 55q47 0 84 -28t50 -72l168 -591q5 -19 43 -19v-90q-63 0 -100.5 22t-48.5 63l-78 271l-159 -346h-113z" />
    <glyph glyph-name="uni03BC" unicode="&#x3bc;" horiz-adv-x="600" 
d="M64 430h110v-312q0 -61 33.5 -89.5t89.5 -28.5q39 0 74.5 20t58.5 49v371h110v-410q0 -18 6 -38t14 -32l-80 -40q-39 17 -48 53q-21 -26 -63.5 -44.5t-95.5 -18.5q-57 0 -99 19v-219h-110v720z" />
    <glyph glyph-name="nu" unicode="&#x3bd;" horiz-adv-x="516" 
d="M26 410l112 30l146 -382q40 75 68 188t28 194h110q0 -106 -40.5 -243.5t-127.5 -276.5h-100z" />
    <glyph glyph-name="xi" unicode="&#x3be;" horiz-adv-x="525" 
d="M60 700h411v-84q-141 -21 -211 -60t-70 -84q0 -31 32 -56t86 -38.5t115 -11.5v-88q-58 -2 -112 -18t-87.5 -43.5t-33.5 -61.5q0 -30 16.5 -51.5t40 -35t66.5 -32.5t68.5 -34t43.5 -38.5t18 -57.5q0 -46 -39 -93t-118 -103l-65 61q57 40 84.5 70.5t27.5 57.5
q0 25 -24 42.5t-73 40.5t-80 42.5t-53.5 51t-22.5 75.5q0 93 153 162q-71 21 -112 59t-41 85q0 62 59.5 104.5t143.5 53.5h-223v85z" />
    <glyph glyph-name="omicron" unicode="&#x3bf;" horiz-adv-x="581" 
d="M292 440q71 0 127.5 -33t89 -93t32.5 -138t-33.5 -138.5t-91 -94t-128.5 -33.5t-127.5 33t-88.5 93t-32 138t33 138.5t90.5 94t128.5 33.5zM288 0q40 0 73 22.5t51.5 63t18.5 92.5q0 78 -39 125t-100 47q-40 0 -72.5 -22.5t-51 -63t-18.5 -92.5q0 -78 38.5 -125t99.5 -47
z" />
    <glyph glyph-name="pi" unicode="&#x3c0;" horiz-adv-x="613" 
d="M120 -80v420h-100v90h573v-90h-100v-286q0 -29 14.5 -41.5t48.5 -12.5v-90q-85 0 -129 32.5t-44 103.5v294h-153v-420h-110z" />
    <glyph glyph-name="rho" unicode="&#x3c1;" horiz-adv-x="600" 
d="M150 -41v-249h-110v432q0 93 35 160.5t95.5 102.5t137.5 35q76 0 136 -33t94 -93t34 -138q0 -77 -34.5 -138t-92 -94.5t-126.5 -33.5q-57 0 -98.5 14t-62.5 37zM308 350q-45 0 -81 -22.5t-56.5 -63t-20.5 -92.5q0 -78 42.5 -125t111.5 -47q45 0 81 22.5t56.5 63
t20.5 92.5q0 78 -42.5 125t-111.5 47z" />
    <glyph glyph-name="sigma" unicode="&#x3c3;" horiz-adv-x="656" 
d="M308 430h338v-90h-140q66 -68 66 -169q0 -78 -35 -137t-96 -91.5t-137 -32.5t-136 32t-94 90.5t-34 136.5t35 137t96 91.5t137 32.5zM304 0q69 0 113.5 47.5t44.5 125.5t-42.5 122.5t-111.5 44.5t-113.5 -47.5t-44.5 -125.5t42.5 -122.5t111.5 -44.5z" />
    <glyph glyph-name="tau" unicode="&#x3c4;" horiz-adv-x="464" 
d="M20 340v90h424v-90h-157v-286q0 -29 14.5 -41.5t48.5 -12.5v-90q-85 0 -129 32.5t-44 103.5v294h-157z" />
    <glyph glyph-name="upsilon" unicode="&#x3c5;" horiz-adv-x="532" 
d="M40 440h110v-322q0 -61 33.5 -89.5t89.5 -28.5q50 0 75.5 25.5t33.5 72.5t8 126q0 119 -28 216h110q24 -89 24 -216q0 -149 -57 -231.5t-190 -82.5q-95 0 -152 52.5t-57 145.5v332z" />
    <glyph glyph-name="phi" unicode="&#x3c6;" horiz-adv-x="600" 
d="M299 600h110v-163q114 -11 181 -68q84 -70 84 -194t-83 -194q-67 -58 -182 -68v-203h-110v203q-64 7 -115 29q-72 32 -111 92t-39 141t38.5 141t110.5 92q51 23 116 29v163zM564 175q0 80 -51 127q-37 34 -104 44v-343q69 9 105 44q50 48 50 128zM196 301
q-52 -48 -52 -126t54 -127q38 -34 101 -44v342q-65 -9 -103 -45z" />
    <glyph glyph-name="chi" unicode="&#x3c7;" horiz-adv-x="526" 
d="M18 -80l183 262l-63 105q-23 39 -44.5 51t-52.5 12v90q63 0 101.5 -16t67.5 -63l54 -88l110 157h111l-169 -242l90 -146q14 -24 38 -32.5t64 -8.5v-90q-78 0 -123 20.5t-80 78.5l-53 87l-123 -177h-111z" />
    <glyph glyph-name="psi" unicode="&#x3c8;" horiz-adv-x="600" 
d="M243 600h110v-594q43 13 64 50q33 56 33 168q0 119 -28 216h110q24 -89 24 -216q0 -145 -68 -229q-48 -61 -135 -78v-207h-110v202q-86 9 -139 60q-64 62 -64 176v292h110v-282q0 -123 93 -151v593z" />
    <glyph glyph-name="omega" unicode="&#x3c9;" horiz-adv-x="790" 
d="M68 440h110q-28 -97 -28 -216q0 -78 7 -125t28 -73t62 -26q47 0 70 27.5t23 90.5v322h110v-322q0 -63 23 -90.5t70 -27.5q41 0 62 26t28 73t7 125q0 119 -28 216h110q24 -89 24 -216q0 -146 -52 -230t-165 -84q-86 0 -134 45q-48 -45 -134 -45q-113 0 -165 84t-52 230
q0 127 24 216z" />
    <glyph glyph-name="uni0401" unicode="&#x401;" horiz-adv-x="610" 
d="M70 -80v780h496v-90h-386v-230h366v-90h-366v-280h406v-90h-516zM115 845q0 32 22 53.5t53 21.5q32 0 53.5 -21.5t21.5 -53.5q0 -31 -21.5 -53t-53.5 -22q-31 0 -53 22t-22 53zM395 845q0 32 22 53.5t53 21.5q32 0 53.5 -21.5t21.5 -53.5q0 -31 -21.5 -53t-53.5 -22
q-31 0 -53 22t-22 53z" />
    <glyph glyph-name="uni0410" unicode="&#x410;" horiz-adv-x="700" 
d="M415 700l265 -780h-110l-83 255h-275l-82 -255h-110l265 780h130zM241 265h217l-108 333z" />
    <glyph glyph-name="uni0411" unicode="&#x411;" horiz-adv-x="660" 
d="M616 173q0 -71 -30 -128.5t-90.5 -91t-146.5 -33.5h-279v780h442v-90h-332v-210h176q83 0 141.5 -30.5t88.5 -82t30 -114.5zM333 10q91 0 132 45.5t41 114.5t-35.5 104.5t-114.5 35.5h-176v-300h153z" />
    <glyph glyph-name="uni0412" unicode="&#x412;" horiz-adv-x="660" 
d="M353 700q110 0 176.5 -48t66.5 -137q0 -66 -30 -108.5t-73 -62.5q-11 -5 -23 -9q15 -4 30 -10q47 -18 81.5 -60t34.5 -109q0 -108 -68.5 -172t-198.5 -64h-279v780h283zM333 10q173 0 173 146q0 69 -42 101.5t-108 32.5h-176v-280h153zM356 380q62 0 96 32t34 92
q0 56 -34 81t-107 25h-165v-230h176z" />
    <glyph glyph-name="uni0413" unicode="&#x413;" horiz-adv-x="570" 
d="M540 700v-90h-360v-690h-110v780h470z" />
    <glyph glyph-name="uni0414" unicode="&#x414;" horiz-adv-x="820" 
d="M40 10h95q49 55 54 152l31 538h490v-690h70v-230h-110v140h-520v-140h-110v230zM600 610h-280l-29 -448q-6 -96 -50 -152h359v600z" />
    <glyph glyph-name="uni0415" unicode="&#x415;" horiz-adv-x="610" 
d="M70 -80v780h496v-90h-386v-230h366v-90h-366v-280h406v-90h-516z" />
    <glyph glyph-name="uni0416" unicode="&#x416;" horiz-adv-x="960" 
d="M284 156q-24 -74 -44.5 -121t-53.5 -81t-80 -34h-76v90h55q26 0 44.5 21.5t31 53t30.5 88.5q22 72 41 117q13 29 30 50q-16 16 -28 38q-20 38 -43 99q-17 46 -29.5 72t-31.5 43.5t-45 17.5h-55v90h76q47 0 80 -27.5t53.5 -66.5t44.5 -99q24 -61 41.5 -89t42.5 -28h57v310
h110v-310h57q25 0 42.5 28t41.5 89q24 60 44.5 99t53.5 66.5t80 27.5h76v-90h-55q-26 0 -45 -17.5t-31.5 -43.5t-29.5 -72q-23 -61 -44 -99q-12 -22 -28 -38q18 -21 30 -50q20 -45 42 -117q18 -57 30.5 -88.5t31 -53t44.5 -21.5h55v-90h-76q-47 0 -80 34t-53.5 81t-44.5 121
q-25 76 -42 110t-42 34h-57v-380h-110v380h-57q-25 0 -42 -34t-42 -110z" />
    <glyph glyph-name="uni0417" unicode="&#x417;" horiz-adv-x="626" 
d="M138 377l152 -3q84 -1 123 34t39 97q0 52 -35 84.5t-100 32.5q-64 0 -111.5 -34t-66.5 -75l-89 49q34 61 102 104.5t165 43.5q72 0 127.5 -24.5t86.5 -70.5t31 -107q0 -67 -42 -116q-32 -37 -76 -56q28 -7 52 -23q39 -24 62.5 -66t23.5 -96q0 -72 -36.5 -126.5
t-103.5 -84.5t-156 -30q-97 0 -161 32.5t-101 79.5l83 61q68 -83 190 -83q86 0 130.5 43t44.5 113q0 62 -44 99t-138 35l-152 -3v90z" />
    <glyph glyph-name="uni0418" unicode="&#x418;" horiz-adv-x="730" 
d="M550 -80v648l-325 -648h-155v780h110v-648l325 648h155v-780h-110z" />
    <glyph glyph-name="uni0419" unicode="&#x419;" horiz-adv-x="730" 
d="M550 -80v648l-325 -648h-155v780h110v-648l325 648h155v-780h-110zM529 942q0 -199 -164 -199t-164 199h100q0 -66 16 -92.5t48 -26.5t48 26.5t16 92.5h100z" />
    <glyph glyph-name="uni041A" unicode="&#x41a;" horiz-adv-x="648" 
d="M180 700v-310h110q25 0 42.5 28t41.5 89q24 60 44.5 99t53.5 66.5t80 27.5h76v-90h-55q-26 0 -45 -17.5t-31.5 -43.5t-29.5 -72q-23 -61 -44 -99q-12 -22 -28 -38q18 -21 30 -50q20 -45 42 -117q18 -57 30.5 -88.5t31 -53t44.5 -21.5h55v-90h-76q-47 0 -80 34t-53.5 81
t-44.5 121q-25 76 -42 110t-42 34h-110v-380h-110v780h110z" />
    <glyph glyph-name="uni041B" unicode="&#x41b;" horiz-adv-x="760" 
d="M35 10h55q38 0 57.5 18.5t21.5 63.5l31 608h490v-780h-110v690h-280l-29 -518q-5 -78 -47.5 -125t-112.5 -47h-76v90z" />
    <glyph glyph-name="uni041C" unicode="&#x41c;" horiz-adv-x="960" 
d="M70 700h172l236 -706l240 706h172v-780h-110v668l-219 -668h-166l-215 668v-668h-110v780z" />
    <glyph glyph-name="uni041D" unicode="&#x41d;" horiz-adv-x="760" 
d="M690 700v-780h-110v370h-400v-370h-110v780h110v-320h400v320h110z" />
    <glyph glyph-name="uni041E" unicode="&#x41e;" horiz-adv-x="872" 
d="M436 710q116 0 206 -50.5t140 -141t50 -207.5q0 -118 -50 -209t-140 -141.5t-206 -50.5t-206 50.5t-140 141t-50 207.5q0 118 50 209t140 141.5t206 50.5zM436 0q84 0 149 39.5t101 110.5t36 163q0 90 -36 160t-101 108.5t-149 38.5t-149 -39.5t-101 -110.5t-36 -163
q0 -90 36 -160t101 -108.5t149 -38.5z" />
    <glyph glyph-name="uni041F" unicode="&#x41f;" horiz-adv-x="740" 
d="M670 700v-780h-110v690h-380v-690h-110v780h600z" />
    <glyph glyph-name="uni0420" unicode="&#x420;" horiz-adv-x="620" 
d="M70 700h236q123 0 199.5 -56t76.5 -168q0 -80 -35.5 -138.5t-100 -89t-150.5 -30.5h-116v-288h-110v770zM296 308q84 0 130 43.5t46 121.5q0 137 -176 137h-116v-302h116z" />
    <glyph glyph-name="uni0421" unicode="&#x421;" horiz-adv-x="747" 
d="M436 -90q-116 0 -206 50.5t-140 141t-50 207.5q0 118 50 209t140 141.5t206 50.5q82 0 152 -25.5t121 -73.5l-67 -67q-38 36 -91.5 56t-114.5 20q-84 0 -149 -39.5t-101 -110.5t-36 -163q0 -90 36 -159.5t101 -108t149 -38.5q69 0 124 25.5t91 72.5l72 -65
q-54 -61 -124.5 -92.5t-162.5 -31.5z" />
    <glyph glyph-name="uni0422" unicode="&#x422;" horiz-adv-x="650" 
d="M30 610v90h590v-90h-240v-690h-110v690h-240z" />
    <glyph glyph-name="uni0423" unicode="&#x423;" horiz-adv-x="666" 
d="M650 700l-273 -521q-54 -103 -89.5 -153.5t-83.5 -78t-126 -37.5v90q66 9 108 38t75 97l16 34l-261 531h120l195 -421l205 421h114z" />
    <glyph glyph-name="uni0424" unicode="&#x424;" horiz-adv-x="860" 
d="M375 700h110v-87q82 -7 147 -35q86 -38 132 -107t46 -161t-45.5 -161t-131.5 -107q-65 -29 -148 -36v-86h-110v86q-83 7 -147 36q-86 38 -132 107t-46 161t45.5 161t130.5 107q65 29 149 35v87zM279 497q-60 -28 -89.5 -77t-29.5 -110t30 -110t91 -78q41 -19 94 -25v426
q-55 -6 -96 -26zM700 310q0 61 -30 110t-92 77q-40 19 -93 25v-426q54 7 96 26q60 29 89.5 78t29.5 110z" />
    <glyph glyph-name="uni0425" unicode="&#x425;" horiz-adv-x="672" 
d="M20 -80l255 405l-232 375h126l169 -274l173 274h118l-232 -369l255 -411h-126l-193 310l-195 -310h-118z" />
    <glyph glyph-name="uni0426" unicode="&#x426;" horiz-adv-x="760" 
d="M70 700h110v-690h380v690h110v-690h70v-230h-110v140h-560v780z" />
    <glyph glyph-name="uni0427" unicode="&#x427;" horiz-adv-x="670" 
d="M490 -80v325q-18 -24 -61 -43q-51 -22 -130 -22q-115 0 -177 52t-62 146v322h110v-312q0 -63 38 -90t115 -27q64 0 108 24q39 20 59 49v356h110v-780h-110z" />
    <glyph glyph-name="uni0428" unicode="&#x428;" horiz-adv-x="910" 
d="M400 700h110v-690h220v690h110v-780h-770v780h110v-690h220v690z" />
    <glyph glyph-name="uni0429" unicode="&#x429;" horiz-adv-x="930" 
d="M70 700h110v-690h220v690h110v-690h220v690h110v-690h70v-230h-110v140h-730v780z" />
    <glyph glyph-name="uni042A" unicode="&#x42a;" horiz-adv-x="718" 
d="M674 173q0 -71 -30 -128.5t-90.5 -91t-146.5 -33.5h-279v690h-123v90h233v-300h176q83 0 141.5 -30.5t88.5 -82t30 -114.5zM391 10q91 0 132 45.5t41 114.5t-35.5 104.5t-114.5 35.5h-176v-300h153z" />
    <glyph glyph-name="uni042B" unicode="&#x42b;" horiz-adv-x="870" 
d="M616 173q0 -71 -30 -128.5t-90.5 -91t-146.5 -33.5h-279v780h110v-300h176q83 0 141.5 -30.5t88.5 -82t30 -114.5zM333 10q91 0 132 45.5t41 114.5t-35.5 104.5t-114.5 35.5h-176v-300h153zM800 700v-780h-110v780h110z" />
    <glyph glyph-name="uni042C" unicode="&#x42c;" horiz-adv-x="660" 
d="M616 173q0 -71 -30 -128.5t-90.5 -91t-146.5 -33.5h-279v780h110v-300h176q83 0 141.5 -30.5t88.5 -82t30 -114.5zM333 10q91 0 132 45.5t41 114.5t-35.5 104.5t-114.5 35.5h-176v-300h153z" />
    <glyph glyph-name="uni042D" unicode="&#x42d;" horiz-adv-x="747" 
d="M153 290v90h456q-8 55 -32 100q-35 68 -98 104t-144 36q-67 0 -121.5 -19.5t-92.5 -56.5l-67 67q51 48 121.5 73.5t157.5 25.5q114 0 202.5 -47t138 -134.5t49.5 -204.5q0 -118 -50 -212t-140 -148t-205 -54q-93 0 -163.5 31.5t-124.5 92.5l72 65q76 -98 224 -98
q79 0 142.5 42t98.5 115q29 60 35 132h-459z" />
    <glyph glyph-name="uni042E" unicode="&#x42e;" horiz-adv-x="952" 
d="M180 700v-320h103q9 76 35 138q39 91 110.5 141.5t167.5 50.5t167.5 -50t110 -140.5t38.5 -208.5q0 -119 -38.5 -209.5t-110 -141t-167.5 -50.5t-167.5 50t-110.5 140q-35 83 -38 190h-100v-370h-110v780h110zM596 0q64 0 110.5 39t71 110t24.5 164q0 91 -24.5 160.5
t-71 108t-110.5 38.5t-110.5 -39t-71 -110t-24.5 -164q0 -91 24.5 -160.5t71 -108t110.5 -38.5z" />
    <glyph glyph-name="uni042F" unicode="&#x42f;" horiz-adv-x="660" 
d="M251 126q-18 -65 -34 -106.5t-43.5 -70.5t-67.5 -29h-86v90h55q24 0 39.5 19t25 47.5t22.5 78.5q16 64 31 103q6 16 14 31q-3 1 -5 2q-56 28 -87.5 78t-31.5 115q0 106 73.5 161t192.5 55h241v-770h-110v334h-151h-5q-23 -3 -38 -34q-16 -33 -35 -104zM480 610h-121
q-75 0 -120.5 -29t-45.5 -96q0 -57 37 -94q35 -34 90 -37h160v256z" />
    <glyph glyph-name="uni0430" unicode="&#x430;" horiz-adv-x="555" 
d="M50 66q0 98 94 142q93 44 241 45q-3 47 -36 70q-35 26 -97 26q-74 0 -152 -46l-30 80q39 23 95 40t106 17q108 0 166 -53.5t58 -150.5v-316h-110v35q-18 -16 -52 -29q-39 -16 -93 -16q-77 0 -133.5 38.5t-56.5 117.5zM160 72q0 -37 24.5 -54.5t67.5 -17.5q50 0 85 14
q30 12 48 27v134q-225 -1 -225 -103z" />
    <glyph glyph-name="uni0431" unicode="&#x431;" horiz-adv-x="612" 
d="M304 350q-69 0 -111.5 -47t-42.5 -125q0 -52 20.5 -92.5t56.5 -63t81 -22.5q69 0 111.5 47t42.5 125q0 52 -20.5 92.5t-56.5 63t-81 22.5zM361 645q41 0 59.5 16.5t21.5 48.5h110q-3 -71 -39 -113t-122 -42q-76 0 -123 -32.5t-64.5 -63.5t-47.5 -98l2 -2q23 34 66.5 57.5
t103.5 23.5q65 0 121 -33.5t89.5 -94.5t33.5 -138q0 -78 -34 -138t-94 -93t-136 -33q-77 0 -137.5 35t-95.5 102.5t-35 160.5q0 118 39 218t112 159.5t170 59.5z" />
    <glyph glyph-name="uni0432" unicode="&#x432;" horiz-adv-x="512" 
d="M60 -80v510h171q103 0 163 -36.5t60 -99.5q0 -67 -53 -96q-19 -11 -40 -18q113 -21 113 -112q0 -75 -58 -111.5t-189 -36.5h-167zM241 6q76 0 101.5 19t25.5 54q0 33 -30.5 47.5t-93.5 14.5h-76v-135h73zM244 217q57 0 80.5 17t23.5 49t-24 46.5t-91 14.5h-65v-127h76z
" />
    <glyph glyph-name="uni0433" unicode="&#x433;" horiz-adv-x="470" 
d="M450 430v-90h-280v-420h-110v510h390z" />
    <glyph glyph-name="uni0434" unicode="&#x434;" horiz-adv-x="600" 
d="M40 10h54q19 23 33 60q16 41 22 92l31 268h340v-420h50v-230h-110v140h-310v-140h-110v230zM410 340h-130l-25 -178q-7 -52 -22 -93q-13 -36 -28 -59h205v330z" />
    <glyph glyph-name="uni0435" unicode="&#x435;" horiz-adv-x="570" 
d="M309 -90q-78 0 -139 33t-95.5 93t-34.5 138t34 138.5t95 94t137 33.5q73 0 124.5 -30t77.5 -81t26 -113q0 -21 -3.5 -40t-8.5 -30h-371q6 -61 43 -99q45 -45 122 -45q46 0 82 12.5t57 29.5l56 -70q-26 -29 -82 -46.5t-120 -17.5zM427 232q0 29 -13 56.5t-41 45.5t-69 18
q-69 0 -112 -51q-25 -30 -35 -69h270z" />
    <glyph glyph-name="uni0436" unicode="&#x436;" horiz-adv-x="770" 
d="M230 64q-9 -44 -19.5 -73.5t-35.5 -50t-69 -20.5h-76v90h55q22 0 34 9t17 23t11 42q7 42 20 73q8 20 24 38q-14 14 -21 28q-13 25 -22 59q-6 22 -11 33t-17 18t-35 7h-55v90h76q44 0 69 -16t35.5 -39t19.5 -57q11 -38 22 -55t36 -17h37v184h110v-184h37q26 0 38.5 18
t26.5 56q13 35 25.5 57t37 37.5t64.5 15.5h76v-90h-55q-22 0 -35.5 -8.5t-21.5 -21t-19 -37.5q-13 -31 -27 -54q-8 -12 -18 -23q11 -16 19 -32q13 -27 27 -68q15 -45 29.5 -65.5t45.5 -20.5h55v-90h-76q-40 0 -64.5 20t-37 48t-25.5 73q-14 49 -26.5 72t-38.5 23h-37v-236
h-110v236h-37q-25 0 -36 -22t-22 -70z" />
    <glyph glyph-name="uni0437" unicode="&#x437;" horiz-adv-x="441" 
d="M98 224l99 -2q50 -1 72 22t22 57q0 32 -21 50.5t-56 18.5q-36 0 -63.5 -20.5t-41.5 -45.5l-70 35q23 42 67 71.5t109 29.5q75 0 122.5 -39t47.5 -100q0 -50 -28 -80q-20 -22 -50 -34q32 -9 56 -34q33 -34 33 -86q0 -47 -25.5 -82.5t-69.5 -55t-99 -19.5q-120 0 -178 73
l54 57q15 -18 46 -33.5t77 -15.5q54 0 78.5 23.5t24.5 62.5q0 73 -107 70l-99 -2v79z" />
    <glyph glyph-name="uni0438" unicode="&#x438;" horiz-adv-x="546" 
d="M384 -80v393l-183 -393h-141v510h102v-394l182 394h142v-510h-102z" />
    <glyph glyph-name="uni0439" unicode="&#x439;" horiz-adv-x="546" 
d="M384 -80v393l-183 -393h-141v510h102v-394l182 394h142v-510h-102zM437 694q0 -199 -164 -199t-164 199h100q0 -66 16 -92.5t48 -26.5t48 26.5t16 92.5h100z" />
    <glyph glyph-name="uni043A" unicode="&#x43a;" horiz-adv-x="495" 
d="M60 430h110v-184h27q26 0 39.5 18t29.5 56q14 35 27.5 57t39.5 37.5t66 15.5h76v-90h-55q-22 0 -35.5 -8.5t-21.5 -21t-19 -37.5q-13 -31 -27 -54q-8 -12 -18 -23q11 -16 19 -32q13 -27 27 -68q15 -45 29.5 -65.5t45.5 -20.5h55v-90h-76q-40 0 -66 20t-39.5 48.5
t-27.5 72.5q-15 49 -29 72t-40 23h-27v-236h-110v510z" />
    <glyph glyph-name="uni043B" unicode="&#x43b;" horiz-adv-x="590" 
d="M35 10h35q38 0 55.5 18.5t19.5 63.5l19 338h366v-510h-110v420h-156l-17 -248q-5 -79 -45.5 -125.5t-110.5 -46.5h-56v90z" />
    <glyph glyph-name="uni043C" unicode="&#x43c;" horiz-adv-x="720" 
d="M60 430h172l126 -431l130 431h172v-510h-110v395l-109 -395h-166l-105 394v-394h-110v510z" />
    <glyph glyph-name="uni043D" unicode="&#x43d;" horiz-adv-x="550" 
d="M490 430v-510h-110v220h-210v-220h-110v510h110v-200h210v200h110z" />
    <glyph glyph-name="uni043E" unicode="&#x43e;" horiz-adv-x="612" 
d="M308 440q76 0 136 -33t94 -93t34 -138t-35 -138.5t-96 -94t-137 -33.5t-136 33t-94 93t-34 138t35 138.5t96 94t137 33.5zM304 0q45 0 81 22.5t56.5 63t20.5 92.5q0 78 -42.5 125t-111.5 47q-45 0 -81 -22.5t-56.5 -63t-20.5 -92.5q0 -78 42.5 -125t111.5 -47z" />
    <glyph glyph-name="uni043F" unicode="&#x43f;" horiz-adv-x="600" 
d="M540 430v-510h-110v420h-260v-420h-110v510h480z" />
    <glyph glyph-name="uni0440" unicode="&#x440;" horiz-adv-x="612" 
d="M170 430v-54q20 22 58 41q47 23 99 23q67 0 123 -33t89 -93.5t33 -137.5q0 -78 -34.5 -138.5t-94 -94t-131.5 -33.5q-44 0 -87 14q-34 12 -55 26v-240h-110v720h110zM309 0q44 0 78.5 22.5t54.5 63t20 92.5q0 78 -41 125t-108 47q-48 0 -90 -27q-34 -22 -53 -46v-223
q56 -54 139 -54z" />
    <glyph glyph-name="uni0441" unicode="&#x441;" horiz-adv-x="513" 
d="M304 -90q-76 0 -136 33t-94 93t-34 138t35 138.5t96 94t137 33.5q52 0 98.5 -16.5t79.5 -45.5l-56 -71q-20 18 -50 30.5t-66 12.5q-73 0 -118.5 -49.5t-45.5 -128.5q0 -78 42.5 -124t111.5 -46q75 0 127 52l62 -70q-30 -35 -82 -54.5t-107 -19.5z" />
    <glyph glyph-name="uni0442" unicode="&#x442;" horiz-adv-x="480" 
d="M20 340v90h440v-90h-165v-420h-110v420h-165z" />
    <glyph glyph-name="uni0443" unicode="&#x443;" horiz-adv-x="532" 
d="M516 430l-153 -411q-55 -147 -120.5 -220.5t-165.5 -88.5l-22 90q64 8 114 53q28 25 49 61l-202 516h121l132 -390l137 390h110z" />
    <glyph glyph-name="uni0444" unicode="&#x444;" horiz-adv-x="708" 
d="M299 600h110v-163q114 -11 181 -68q84 -70 84 -194t-83 -194q-67 -58 -182 -68v-203h-110v203q-64 7 -115 29q-72 32 -111 92t-39 141t38.5 141t110.5 92q51 23 116 29v163zM564 175q0 80 -51 127q-37 34 -104 44v-343q69 9 105 44q50 48 50 128zM196 301
q-52 -48 -52 -126t54 -127q38 -34 101 -44v342q-65 -9 -103 -45z" />
    <glyph glyph-name="uni0445" unicode="&#x445;" horiz-adv-x="516" 
d="M18 -80l182 260l-169 250h122l109 -161l112 161h111l-169 -242l182 -268h-122l-122 180l-125 -180h-111z" />
    <glyph glyph-name="uni0446" unicode="&#x446;" horiz-adv-x="554" 
d="M64 430h110v-420h180v420h110v-420h70v-230h-110v140h-360v510z" />
    <glyph glyph-name="uni0447" unicode="&#x447;" horiz-adv-x="580" 
d="M410 -80v205q-18 -24 -54 -43q-42 -22 -107 -22q-94 0 -146.5 52t-52.5 146v172h110v-162q0 -62 29 -89.5t84 -27.5q50 0 86 23q31 20 51 50v206h110v-510h-110z" />
    <glyph glyph-name="uni0448" unicode="&#x448;" horiz-adv-x="738" 
d="M314 430h110v-420h140v420h110v-510h-610v510h110v-420h140v420z" />
    <glyph glyph-name="uni0449" unicode="&#x449;" horiz-adv-x="764" 
d="M64 430h110v-420h140v420h110v-420h140v420h110v-420h70v-230h-110v140h-570v510z" />
    <glyph glyph-name="uni044A" unicode="&#x44a;" horiz-adv-x="600" 
d="M486 113q0 -90 -63 -141.5t-174 -51.5h-179v420h-65v90h175v-134h76q69 0 121.5 -24t80.5 -65.5t28 -93.5zM233 10q143 0 143 100q0 51 -30 73.5t-90 22.5h-76v-196h53z" />
    <glyph glyph-name="uni044B" unicode="&#x44b;" horiz-adv-x="710" 
d="M486 113q0 -90 -63 -141.5t-174 -51.5h-179v510h110v-134h76q69 0 121.5 -24t80.5 -65.5t28 -93.5zM640 430v-510h-110v510h110zM233 10q143 0 143 100q0 51 -30 73.5t-90 22.5h-76v-196h53z" />
    <glyph glyph-name="uni044C" unicode="&#x44c;" horiz-adv-x="530" 
d="M486 113q0 -90 -63 -141.5t-174 -51.5h-179v510h110v-134h76q69 0 121.5 -24t80.5 -65.5t28 -93.5zM233 10q143 0 143 100q0 51 -30 73.5t-90 22.5h-76v-196h53z" />
    <glyph glyph-name="uni044D" unicode="&#x44d;" horiz-adv-x="513" 
d="M78 140v90h280q-10 44 -39 74q-43 46 -110 46q-42 0 -74 -12t-52 -31l-56 71q33 29 81 45.5t106 16.5q72 0 131 -31t93.5 -89.5t34.5 -135.5q0 -78 -34 -140.5t-94.5 -98t-135.5 -35.5q-55 0 -107 19.5t-82 54.5l62 70q52 -52 127 -52q45 0 80 23t54 64q12 24 16 51h-281
z" />
    <glyph glyph-name="uni044E" unicode="&#x44e;" horiz-adv-x="772" 
d="M488 440q71 0 126.5 -33t86.5 -93t31 -138t-32 -138.5t-88.5 -94t-127.5 -33.5t-126.5 33t-86.5 93q-26 50 -31 114h-60v-230h-110v510h110v-190h66q8 39 26 72q32 61 88.5 94.5t127.5 33.5zM484 0q61 0 99.5 49.5t38.5 128.5t-36.5 125.5t-97.5 46.5t-99.5 -49.5
t-38.5 -128.5t36.5 -125.5t97.5 -46.5z" />
    <glyph glyph-name="uni044F" unicode="&#x44f;" horiz-adv-x="510" 
d="M185 36q-18 -56 -38 -86t-60 -30h-67v90h35q23 0 34.5 20t24.5 63q12 41 23 67q-37 20 -59 51q-25 37 -25 83q0 176 226 176h171v-540h-110v204h-81h-7q-24 -3 -37 -24q-14 -24 -30 -74zM340 380h-51q-62 0 -94 -19t-32 -61q0 -36 19 -56q18 -18 66 -20h92v156z" />
    <glyph glyph-name="uni0451" unicode="&#x451;" horiz-adv-x="570" 
d="M309 -90q-78 0 -139 33t-95.5 93t-34.5 138t34 138.5t95 94t137 33.5q73 0 124.5 -30t77.5 -81t26 -113q0 -21 -3.5 -40t-8.5 -30h-371q6 -61 43 -99q45 -45 122 -45q46 0 82 12.5t57 29.5l56 -70q-26 -29 -82 -46.5t-120 -17.5zM427 232q0 29 -13 56.5t-41 45.5t-69 18
q-69 0 -112 -51q-25 -30 -35 -69h270zM365 595q0 32 22 53.5t53 21.5q32 0 53.5 -21.5t21.5 -53.5q0 -31 -21.5 -53t-53.5 -22q-31 0 -53 22t-22 53zM85 595q0 32 22 53.5t53 21.5q32 0 53.5 -21.5t21.5 -53.5q0 -31 -21.5 -53t-53.5 -22q-31 0 -53 22t-22 53z" />
    <glyph glyph-name="uni2010" unicode="&#x2010;" horiz-adv-x="960" 
d="M50 346h860v-90h-860v90z" />
    <glyph glyph-name="endash" unicode="&#x2013;" horiz-adv-x="600" 
d="M550 346v-90h-500v90h500z" />
    <glyph glyph-name="emdash" unicode="&#x2014;" horiz-adv-x="960" 
d="M910 346v-90h-860v90h860z" />
    <glyph glyph-name="uni2015" unicode="&#x2015;" horiz-adv-x="960" 
d="M910 346v-90h-860v90h860z" />
    <glyph glyph-name="uni2016" unicode="&#x2016;" horiz-adv-x="670" 
d="M260 769v-880h-110v880h110zM520 769v-880h-110v880h110z" />
    <glyph glyph-name="quoteleft" unicode="&#x2018;" horiz-adv-x="280" 
d="M142 465q-33 0 -55 28.5t-22 77.5q0 57 30 107.5t78 86.5l47 -61q-21 -16 -40 -42.5t-24 -49.5q22 -2 40.5 -23t18.5 -50q0 -32 -21 -53t-52 -21z" />
    <glyph glyph-name="quoteright" unicode="&#x2019;" horiz-adv-x="280" 
d="M138 755q34 0 55.5 -24.5t21.5 -73.5q0 -58 -30.5 -111t-77.5 -91l-47 61q21 16 40 42.5t24 49.5q-22 3 -40.5 23t-18.5 49q0 32 21 53.5t52 21.5z" />
    <glyph glyph-name="quotedblleft" unicode="&#x201c;" horiz-adv-x="480" 
d="M142 465q-33 0 -55 28.5t-22 77.5q0 57 30 107.5t78 86.5l47 -61q-21 -16 -40 -42.5t-24 -49.5q22 -2 40.5 -23t18.5 -50q0 -32 -21 -53t-52 -21zM342 465q-33 0 -55 28.5t-22 77.5q0 57 30 107.5t78 86.5l47 -61q-21 -16 -40 -42.5t-24 -49.5q22 -2 40.5 -23t18.5 -50
q0 -32 -21 -53t-52 -21z" />
    <glyph glyph-name="quotedblright" unicode="&#x201d;" horiz-adv-x="480" 
d="M138 755q34 0 55.5 -24.5t21.5 -73.5q0 -58 -30.5 -111t-77.5 -91l-47 61q21 16 40 42.5t24 49.5q-22 3 -40.5 23t-18.5 49q0 32 21 53.5t52 21.5zM338 755q34 0 55.5 -24.5t21.5 -73.5q0 -58 -30.5 -111t-77.5 -91l-47 61q21 16 40 42.5t24 49.5q-22 3 -40.5 23
t-18.5 49q0 32 21 53.5t52 21.5z" />
    <glyph glyph-name="dagger" unicode="&#x2020;" horiz-adv-x="600" 
d="M355 760v-184h195v-90h-195v-326h-110v326h-195v90h195v184h110z" />
    <glyph glyph-name="daggerdbl" unicode="&#x2021;" horiz-adv-x="600" 
d="M550 326v-90h-195v-176h-110v176h-195v90h195v210h-195v90h195v134h110v-134h195v-90h-195v-210h195z" />
    <glyph glyph-name="bullet" unicode="&#x2022;" horiz-adv-x="600" 
d="M203 301q0 41 28 69t69 28t69 -28t28 -69t-28 -69t-69 -28t-69 28t-28 69z" />
    <glyph glyph-name="twodotenleader" unicode="&#x2025;" horiz-adv-x="560" 
d="M345 301q0 32 22 53.5t53 21.5q32 0 53.5 -21.5t21.5 -53.5q0 -31 -21.5 -53t-53.5 -22q-31 0 -53 22t-22 53zM65 301q0 32 22 53.5t53 21.5q32 0 53.5 -21.5t21.5 -53.5q0 -31 -21.5 -53t-53.5 -22q-31 0 -53 22t-22 53z" />
    <glyph glyph-name="ellipsis" unicode="&#x2026;" horiz-adv-x="840" 
d="M65 301q0 32 22 53.5t53 21.5q32 0 53.5 -21.5t21.5 -53.5q0 -31 -21.5 -53t-53.5 -22q-31 0 -53 22t-22 53zM345 301q0 32 22 53.5t53 21.5q32 0 53.5 -21.5t21.5 -53.5q0 -31 -21.5 -53t-53.5 -22q-31 0 -53 22t-22 53zM625 301q0 32 22 53.5t53 21.5q32 0 53.5 -21.5
t21.5 -53.5q0 -31 -21.5 -53t-53.5 -22q-31 0 -53 22t-22 53z" />
    <glyph glyph-name="perthousand" unicode="&#x2030;" horiz-adv-x="960" 
d="M40 -110l472 840h88l-472 -840h-88zM157 710q69 0 108 -58t39 -159t-39 -159.5t-108 -58.5q-42 0 -75.5 26.5t-52.5 76t-19 114.5t19.5 114.5t53 76.5t74.5 27zM157 341q35 0 53 41t18 112t-18 110t-53 39q-30 0 -50.5 -42t-20.5 -110t20.5 -109t50.5 -41zM483 345
q69 0 108 -58t39 -159t-39 -159.5t-108 -58.5q-42 0 -75.5 26.5t-52.5 76t-19 114.5t19.5 114.5t53 76.5t74.5 27zM483 -24q35 0 53 41t18 112t-18 110t-53 39q-30 0 -50.5 -42t-20.5 -110t20.5 -109t50.5 -41zM803 345q69 0 108 -58t39 -159t-39 -159.5t-108 -58.5
q-42 0 -75.5 26.5t-52.5 76t-19 114.5t19.5 114.5t53 76.5t74.5 27zM803 -24q35 0 53 41t18 112t-18 110t-53 39q-30 0 -50.5 -42t-20.5 -110t20.5 -109t50.5 -41z" />
    <glyph glyph-name="minute" unicode="&#x2032;" horiz-adv-x="300" 
d="M220 755l-70 -280h-70l30 280h110z" />
    <glyph glyph-name="second" unicode="&#x2033;" horiz-adv-x="500" 
d="M220 755l-70 -280h-70l30 280h110zM420 755l-70 -280h-70l30 280h110z" />
    <glyph glyph-name="uni203B" unicode="&#x203b;" horiz-adv-x="810" 
d="M94 50l257 265l-257 265l58 50l253 -260l253 260l58 -50l-258 -265l258 -265l-58 -50l-253 260l-253 -260zM340 585q0 27 19 46t46 19t46 -19t19 -46t-19 -46t-46 -19t-46 19t-19 46zM135 380q27 0 46 -19t19 -46t-19 -46t-46 -19t-46 19t-19 46t19 46t46 19zM675 380
q27 0 46 -19t19 -46t-19 -46t-46 -19t-46 19t-19 46t19 46t46 19zM340 45q0 27 19 46t46 19t46 -19t19 -46t-19 -46t-46 -19t-46 19t-19 46z" />
    <glyph glyph-name="uni2074" unicode="&#x2074;" horiz-adv-x="414" 
d="M392 377v-69h-62v-89h-81v89h-205v51l157 341h129v-323h62zM132 377h117v254z" />
    <glyph glyph-name="uni207F" unicode="&#x207f;" horiz-adv-x="410" 
d="M231 710q63 0 101 -35t38 -97v-214h-73v208q0 40 -22.5 59t-59.5 19q-30 0 -57 -17q-22 -14 -35 -33v-236h-73v340h73v-38q12 16 38 29q31 15 70 15z" />
    <glyph glyph-name="uni2081" unicode="&#x2081;" horiz-adv-x="305" 
d="M205 397v-487h-81v399l-51 -17l-23 68l92 37h63z" />
    <glyph glyph-name="uni2082" unicode="&#x2082;" horiz-adv-x="456" 
d="M232 391q65 0 105.5 -37t40.5 -98q0 -41 -19 -80t-46.5 -71t-72.5 -78l-49 -48h205v-69h-326v52l90 91q66 66 101.5 114t35.5 91q0 29 -17.5 46.5t-47.5 17.5q-55 0 -91 -72l-67 37q25 47 68 75.5t90 28.5z" />
    <glyph glyph-name="uni2083" unicode="&#x2083;" horiz-adv-x="431" 
d="M114 201l85 -2q37 -1 56.5 17t19.5 52q0 28 -18 44.5t-48 16.5q-27 0 -49 -16t-34 -45l-67 36q22 43 62.5 68t90.5 25q63 0 103.5 -35.5t40.5 -91.5q0 -43 -29 -76q-13 -14 -29 -24q20 -9 36 -25q33 -34 33 -85q0 -67 -47 -108.5t-123 -41.5q-55 0 -95 21t-58 49l61 45
q14 -21 40.5 -33.5t57.5 -12.5q39 0 61.5 21.5t22.5 59.5q0 36 -22.5 55.5t-65.5 18.5l-85 -2v69z" />
    <glyph glyph-name="uni2084" unicode="&#x2084;" horiz-adv-x="414" 
d="M392 68v-69h-62v-89h-81v89h-205v51l157 341h129v-323h62zM132 68h117v254z" />
    <glyph glyph-name="uni20A9" unicode="&#x20a9;" horiz-adv-x="960" 
d="M950 346v-85h-112l-79 -341h-148l-74 341h-113l-72 -341h-148l-81 341h-113v85h93l-83 354h110l79 -354h137l77 354h124l72 -354h136l78 354h107l-83 -354h93zM685 26l51 235h-99zM279 34l49 227h-100zM442 346h77l-39 180z" />
    <glyph glyph-name="Euro" unicode="&#x20ac;" horiz-adv-x="732" 
d="M610 446v-90h-368q-2 -24 -2 -49q0 -32 4 -61h366v-90h-339q3 -5 5 -9q36 -69 101 -107.5t149 -38.5q92 0 145 28l31 -79q-69 -40 -176 -40q-116 0 -206 50.5t-140 140.5q-15 26 -25 55h-145v90h123q-3 30 -3 63q0 24 2 47h-122v90h139q12 38 31 72q50 91 140 141.5
t206 50.5q106 0 174 -49l-48 -77q-23 17 -56 26.5t-70 9.5q-84 0 -149 -39.5t-101 -110.5q-6 -12 -11 -24h345z" />
    <glyph glyph-name="uni2103" unicode="&#x2103;" horiz-adv-x="947" 
d="M636 -90q-116 0 -206 50.5t-140 141t-50 207.5q0 118 50 209t140 141.5t206 50.5q82 0 152 -25.5t121 -73.5l-67 -67q-38 36 -91.5 56t-114.5 20q-84 0 -149 -39.5t-101 -110.5t-36 -163q0 -90 36 -159.5t101 -108t149 -38.5q69 0 124 25.5t91 72.5l72 -65
q-54 -61 -124.5 -92.5t-162.5 -31.5zM10 590q0 50 37.5 85t92.5 35t92.5 -35t37.5 -85t-37.5 -85t-92.5 -35t-92.5 35t-37.5 85zM189 590q0 22 -14 36.5t-35 14.5t-35 -14.5t-14 -36.5t14 -36.5t35 -14.5t35 14.5t14 36.5z" />
    <glyph glyph-name="uni2109" unicode="&#x2109;" horiz-adv-x="850" 
d="M320 -80v780h506v-90h-396v-250h376v-90h-376v-350h-110zM10 590q0 50 37.5 85t92.5 35t92.5 -35t37.5 -85t-37.5 -85t-92.5 -35t-92.5 35t-37.5 85zM189 590q0 22 -14 36.5t-35 14.5t-35 -14.5t-14 -36.5t14 -36.5t35 -14.5t35 14.5t14 36.5z" />
    <glyph glyph-name="uni2113" unicode="&#x2113;" horiz-adv-x="522" 
d="M306 -89q-72 0 -110.5 40t-38.5 109v33q-31 -22 -65 -42l-58 76q67 39 123 88v334q0 86 31.5 131.5t96.5 45.5q72 0 114.5 -54t42.5 -137q0 -79 -42.5 -167t-121.5 -171q-6 -5 -11 -11v-126q0 -32 10.5 -45.5t34.5 -13.5q19 0 38 15.5t34 43.5l82 -34
q-19 -50 -61.5 -82.5t-98.5 -32.5zM300 395q39 77 39 149q0 92 -39 92q-33 0 -33 -67v-231q18 28 33 57z" />
    <glyph glyph-name="uni2116" unicode="&#x2116;" horiz-adv-x="960" 
d="M70 700h155l295 -647v647h110v-780h-155l-295 647v-647h-110v780zM818 301q56 0 92 -34t36 -86q0 -53 -37 -87.5t-94 -34.5q-56 0 -92 34.5t-36 86.5t37 86.5t94 34.5zM946 10v-90h-259v90h259zM816 119q26 0 42.5 17.5t16.5 43.5t-16.5 43.5t-41.5 17.5
q-26 0 -42.5 -17.5t-16.5 -43.5t16.5 -43.5t41.5 -17.5z" />
    <glyph glyph-name="uni2121" unicode="&#x2121;" horiz-adv-x="960" 
d="M364 700h257v-78h-162v-56h154v-78h-154v-69h170v-77h-265v358zM25 622v78h297v-78h-100v-280h-96v280h-101zM693 700h96v-281h141v-77h-237v358z" />
    <glyph glyph-name="trademark" unicode="&#x2122;" horiz-adv-x="960" 
d="M435 700h165l57 -233l59 233h164v-358h-95v285l-73 -285h-110l-72 284v-284h-95v358zM70 623v77h331v-77h-118v-281h-95v281h-118z" />
    <glyph glyph-name="uni2126" unicode="&#x2126;" horiz-adv-x="872" 
d="M820 9v-90h-300v92q93 26 147.5 106.5t54.5 195.5q0 90 -36 160t-101 108.5t-149 38.5t-149 -39.5t-101 -110.5t-36 -163q0 -110 55 -189.5t146 -106.5v-92h-300v90h130q-31 23 -57 52q-84 97 -84 248q0 118 50 209t140 141.5t206 50.5t206 -50.5t140 -141t50 -207.5
q0 -153 -84 -250q-25 -29 -57 -52h129z" />
    <glyph glyph-name="uni212B" unicode="&#x212b;" horiz-adv-x="700" 
d="M415 700l265 -780h-110l-83 255h-275l-82 -255h-110l265 780h130zM220 845q0 50 37.5 85t92.5 35t92.5 -35t37.5 -85t-37.5 -85t-92.5 -35t-92.5 35t-37.5 85zM241 265h217l-108 333zM399 845q0 22 -14 36.5t-35 14.5t-35 -14.5t-14 -36.5t14 -36.5t35 -14.5t35 14.5
t14 36.5z" />
    <glyph glyph-name="uni2153" unicode="&#x2153;" horiz-adv-x="960" 
d="M627 201l85 -2q37 -1 56.5 17t19.5 52q0 28 -18 44.5t-48 16.5q-27 0 -49 -16t-34 -45l-67 36q22 43 62.5 68t90.5 25q63 0 103.5 -35.5t40.5 -91.5q0 -43 -29 -76q-13 -14 -29 -24q20 -9 36 -25q33 -34 33 -85q0 -67 -47 -108.5t-123 -41.5q-55 0 -95 21t-58 49l61 45
q14 -21 40.5 -33.5t57.5 -12.5q39 0 61.5 21.5t22.5 59.5q0 36 -22.5 55.5t-65.5 18.5l-85 -2v69zM202 -80l362 780h90l-362 -780h-90zM245 710v-487h-81v399l-51 -17l-23 68l92 37h63z" />
    <glyph glyph-name="uni2154" unicode="&#x2154;" horiz-adv-x="960" 
d="M222 710q65 0 105.5 -37t40.5 -98q0 -60 -36 -112t-102 -117l-49 -48h205v-69h-326v52l90 91q66 66 101.5 114t35.5 91q0 29 -17.5 46.5t-47.5 17.5q-55 0 -91 -72l-67 37q25 47 68 75.5t90 28.5zM647 201l85 -2q37 -1 56.5 17t19.5 52q0 28 -18 44.5t-48 16.5
q-27 0 -49 -16t-34 -45l-67 36q22 43 62.5 68t90.5 25q63 0 103.5 -35.5t40.5 -91.5q0 -43 -29 -76q-13 -14 -29 -24q20 -9 36 -25q33 -34 33 -85q0 -67 -47 -108.5t-123 -41.5q-55 0 -95 21t-58 49l61 45q14 -21 40.5 -33.5t57.5 -12.5q39 0 61.5 21.5t22.5 59.5
q0 36 -22.5 55.5t-65.5 18.5l-85 -2v69zM272 -80l362 780h90l-362 -780h-90z" />
    <glyph glyph-name="oneeighth" unicode="&#x215b;" horiz-adv-x="960" 
d="M562 265q0 58 41.5 95t106.5 37t106.5 -36t41.5 -92q0 -40 -25 -68q-16 -19 -48 -37q33 -18 52 -35q33 -29 33 -81q0 -39 -21 -70.5t-57.5 -49.5t-81.5 -18q-44 0 -81 17.5t-58 48.5t-21 68q0 48 26 81q16 21 44 37q-58 43 -58 103zM204 -80l362 780h90l-362 -780h-90z
M235 710v-487h-81v399l-51 -17l-23 68l92 37h63zM629 52q0 -32 23.5 -53t57.5 -21q35 0 57.5 19.5t22.5 49.5q0 25 -17.5 40t-70.5 34q-11 4 -21 8q-52 -31 -52 -77zM760 222q19 21 19 47q0 27 -19 44t-50 17t-50.5 -18t-19.5 -47q0 -22 19 -38q17 -13 62 -33q25 14 39 28z
" />
    <glyph glyph-name="threeeighths" unicode="&#x215c;" horiz-adv-x="960" 
d="M582 265q0 58 41.5 95t106.5 37t106.5 -36t41.5 -92q0 -40 -25 -68q-16 -19 -48 -37q33 -18 52 -35q33 -29 33 -81q0 -39 -21 -70.5t-57.5 -49.5t-81.5 -18q-44 0 -81 17.5t-58 48.5t-21 68q0 48 26 81q16 21 44 37q-58 43 -58 103zM120 514l85 -2q37 -1 56.5 17t19.5 52
q0 28 -18 44.5t-48 16.5q-27 0 -49 -16t-34 -45l-67 36q22 43 62.5 68t90.5 25q63 0 103.5 -35.5t40.5 -91.5q0 -43 -29 -76q-13 -14 -29 -24q20 -9 36 -25q33 -34 33 -85q0 -67 -47 -108.5t-123 -41.5q-55 0 -95 21t-58 49l61 45q14 -21 40.5 -33.5t57.5 -12.5
q39 0 61.5 21.5t22.5 59.5q0 36 -22.5 55.5t-65.5 18.5l-85 -2v69zM254 -80l362 780h90l-362 -780h-90zM649 52q0 -32 23.5 -53t57.5 -21q35 0 57.5 19.5t22.5 49.5q0 25 -17.5 40t-70.5 34q-11 4 -21 8q-52 -31 -52 -77zM780 222q19 21 19 47q0 27 -19 44t-50 17t-50.5 -18
t-19.5 -47q0 -22 19 -38q17 -13 62 -33q25 14 39 28z" />
    <glyph glyph-name="fiveeighths" unicode="&#x215d;" horiz-adv-x="960" 
d="M582 265q0 58 41.5 95t106.5 37t106.5 -36t41.5 -92q0 -40 -25 -68q-16 -19 -48 -37q33 -18 52 -35q33 -29 33 -81q0 -39 -21 -70.5t-57.5 -49.5t-81.5 -18q-44 0 -81 17.5t-58 48.5t-21 68q0 48 26 81q16 21 44 37q-58 43 -58 103zM206 289q37 0 60.5 26t23.5 66
q0 39 -20 60.5t-57 21.5q-25 0 -47 -11.5t-36 -31.5l-60 18l9 262h263v-69h-185l-5 -118l4 2q31 15 71 15q65 0 104.5 -40t39.5 -106q0 -46 -22 -84t-61 -59.5t-87 -21.5t-84 20t-57 60l66 41q11 -23 32 -37t48 -14zM254 -80l362 780h90l-362 -780h-90zM649 52
q0 -32 23.5 -53t57.5 -21q35 0 57.5 19.5t22.5 49.5q0 25 -17.5 40t-70.5 34q-11 4 -21 8q-52 -31 -52 -77zM780 222q19 21 19 47q0 27 -19 44t-50 17t-50.5 -18t-19.5 -47q0 -22 19 -38q17 -13 62 -33q25 14 39 28z" />
    <glyph glyph-name="seveneighths" unicode="&#x215e;" horiz-adv-x="960" 
d="M582 265q0 58 41.5 95t106.5 37t106.5 -36t41.5 -92q0 -40 -25 -68q-16 -19 -48 -37q33 -18 52 -35q33 -29 33 -81q0 -39 -21 -70.5t-57.5 -49.5t-81.5 -18q-44 0 -81 17.5t-58 48.5t-21 68q0 48 26 81q16 21 44 37q-58 43 -58 103zM201 -80l362 780h90l-362 -780h-90z
M226 225h-81q15 191 124 406h-219v69h309v-51q-116 -224 -133 -424zM649 52q0 -32 23.5 -53t57.5 -21q35 0 57.5 19.5t22.5 49.5q0 25 -17.5 40t-70.5 34q-11 4 -21 8q-52 -31 -52 -77zM780 222q19 21 19 47q0 27 -19 44t-50 17t-50.5 -18t-19.5 -47q0 -22 19 -38
q17 -13 62 -33q25 14 39 28z" />
    <glyph glyph-name="uni2160" unicode="&#x2160;" horiz-adv-x="250" 
d="M180 700v-780h-110v780h110z" />
    <glyph glyph-name="uni2161" unicode="&#x2161;" horiz-adv-x="500" 
d="M180 700v-780h-110v780h110zM430 700v-780h-110v780h110z" />
    <glyph glyph-name="uni2162" unicode="&#x2162;" horiz-adv-x="750" 
d="M180 700v-780h-110v780h110zM430 700v-780h-110v780h110zM680 700v-780h-110v780h110z" />
    <glyph glyph-name="uni2163" unicode="&#x2163;" horiz-adv-x="950" 
d="M270 700h110l220 -678l220 678h110l-265 -780h-130zM180 700v-780h-110v780h110z" />
    <glyph glyph-name="uni2164" unicode="&#x2164;" horiz-adv-x="700" 
d="M20 700h110l220 -678l220 678h110l-265 -780h-130z" />
    <glyph glyph-name="uni2165" unicode="&#x2165;" horiz-adv-x="950" 
d="M20 700h110l220 -678l220 678h110l-265 -780h-130zM880 700v-780h-110v780h110z" />
    <glyph glyph-name="uni2166" unicode="&#x2166;" horiz-adv-x="960" 
d="M20 700h110l120 -650l120 650h110l-165 -780h-130zM890 700v-780h-110v780h110zM660 700v-780h-110v780h110z" />
    <glyph glyph-name="uni2167" unicode="&#x2167;" horiz-adv-x="960" 
d="M20 700h106l80 -622l80 622h106l-121 -780h-130zM890 700v-780h-106v780h106zM711 700v-780h-106v780h106zM532 700v-780h-106v780h106z" />
    <glyph glyph-name="uni2168" unicode="&#x2168;" horiz-adv-x="922" 
d="M270 -80l255 405l-232 375h126l169 -274l173 274h118l-232 -369l255 -411h-126l-193 310l-195 -310h-118zM180 700v-780h-110v780h110z" />
    <glyph glyph-name="uni2169" unicode="&#x2169;" horiz-adv-x="672" 
d="M20 -80l255 405l-232 375h126l169 -274l173 274h118l-232 -369l255 -411h-126l-193 310l-195 -310h-118z" />
    <glyph glyph-name="uni2170" unicode="&#x2170;" horiz-adv-x="270" 
d="M60 635q0 32 22 53.5t53 21.5q32 0 53.5 -21.5t21.5 -53.5q0 -31 -21.5 -53t-53.5 -22q-31 0 -53 22t-22 53zM190 430v-510h-110v510h110z" />
    <glyph glyph-name="uni2171" unicode="&#x2171;" horiz-adv-x="540" 
d="M60 635q0 32 22 53.5t53 21.5q32 0 53.5 -21.5t21.5 -53.5q0 -31 -21.5 -53t-53.5 -22q-31 0 -53 22t-22 53zM190 430v-510h-110v510h110zM330 635q0 32 22 53.5t53 21.5q32 0 53.5 -21.5t21.5 -53.5q0 -31 -21.5 -53t-53.5 -22q-31 0 -53 22t-22 53zM460 430v-510h-110
v510h110z" />
    <glyph glyph-name="uni2172" unicode="&#x2172;" horiz-adv-x="810" 
d="M60 635q0 32 22 53.5t53 21.5q32 0 53.5 -21.5t21.5 -53.5q0 -31 -21.5 -53t-53.5 -22q-31 0 -53 22t-22 53zM190 430v-510h-110v510h110zM330 635q0 32 22 53.5t53 21.5q32 0 53.5 -21.5t21.5 -53.5q0 -31 -21.5 -53t-53.5 -22q-31 0 -53 22t-22 53zM460 430v-510h-110
v510h110zM600 635q0 32 22 53.5t53 21.5q32 0 53.5 -21.5t21.5 -53.5q0 -31 -21.5 -53t-53.5 -22q-31 0 -53 22t-22 53zM730 430v-510h-110v510h110z" />
    <glyph glyph-name="uni2173" unicode="&#x2173;" horiz-adv-x="802" 
d="M286 430h117l136 -403l140 403h107l-185 -510h-130zM190 430v-510h-110v510h110zM60 635q0 32 22 53.5t53 21.5q32 0 53.5 -21.5t21.5 -53.5q0 -31 -21.5 -53t-53.5 -22q-31 0 -53 22t-22 53z" />
    <glyph glyph-name="uni2174" unicode="&#x2174;" horiz-adv-x="532" 
d="M16 430h117l136 -403l140 403h107l-185 -510h-130z" />
    <glyph glyph-name="uni2175" unicode="&#x2175;" horiz-adv-x="802" 
d="M16 430h117l136 -403l140 403h107l-185 -510h-130zM722 430v-510h-110v510h110zM592 635q0 32 22 53.5t53 21.5q32 0 53.5 -21.5t21.5 -53.5q0 -31 -21.5 -53t-53.5 -22q-31 0 -53 22t-22 53z" />
    <glyph glyph-name="uni2176" unicode="&#x2176;" horiz-adv-x="960" 
d="M16 430h117l96 -388l100 388h107l-145 -510h-130zM632 430v-510h-110v510h110zM880 430v-510h-110v510h110zM502 635q0 32 22 53.5t53 21.5q32 0 53.5 -21.5t21.5 -53.5q0 -31 -21.5 -53t-53.5 -22q-31 0 -53 22t-22 53zM750 635q0 32 22 53.5t53 21.5q32 0 53.5 -21.5
t21.5 -53.5q0 -31 -21.5 -53t-53.5 -22q-31 0 -53 22t-22 53z" />
    <glyph glyph-name="uni2177" unicode="&#x2177;" horiz-adv-x="960" 
d="M16 430h115l67 -392l69 392h105l-103 -510h-150zM518 430v-510h-106v510h106zM878 430v-510h-106v510h106zM698 430v-510h-106v510h106zM570 635q0 32 22 53.5t53 21.5q32 0 53.5 -21.5t21.5 -53.5q0 -31 -21.5 -53t-53.5 -22q-31 0 -53 22t-22 53zM750 635q0 32 22 53.5
t53 21.5q32 0 53.5 -21.5t21.5 -53.5q0 -31 -21.5 -53t-53.5 -22q-31 0 -53 22t-22 53zM390 635q0 32 22 53.5t53 21.5q32 0 53.5 -21.5t21.5 -53.5q0 -31 -21.5 -53t-53.5 -22q-31 0 -53 22t-22 53z" />
    <glyph glyph-name="uni2178" unicode="&#x2178;" horiz-adv-x="786" 
d="M288 -80l182 260l-169 250h122l109 -161l112 161h111l-169 -242l182 -268h-122l-122 180l-125 -180h-111zM190 430v-510h-110v510h110zM60 635q0 32 22 53.5t53 21.5q32 0 53.5 -21.5t21.5 -53.5q0 -31 -21.5 -53t-53.5 -22q-31 0 -53 22t-22 53z" />
    <glyph glyph-name="uni2179" unicode="&#x2179;" horiz-adv-x="516" 
d="M18 -80l182 260l-169 250h122l109 -161l112 161h111l-169 -242l182 -268h-122l-122 180l-125 -180h-111z" />
    <glyph glyph-name="arrowleft" unicode="&#x2190;" horiz-adv-x="960" 
d="M439 543l-167 -166h597l1 -90h-596l165 -166l-63 -64l-276 276l276 274z" />
    <glyph glyph-name="arrowup" unicode="&#x2191;" horiz-adv-x="960" 
d="M691 393l-155 156l-1 -579h-109l-1 578l-156 -155l-64 63l276 276l274 -276z" />
    <glyph glyph-name="arrowright" unicode="&#x2192;" horiz-adv-x="960" 
d="M521 121l167 166h-597l-1 90h596l-165 166l63 64l276 -276l-276 -274z" />
    <glyph glyph-name="arrowdown" unicode="&#x2193;" horiz-adv-x="960" 
d="M481 -60l-276 276l64 63l156 -156l1 579h109l1 -579l155 156l64 -63z" />
    <glyph glyph-name="arrowboth" unicode="&#x2194;" horiz-adv-x="960" 
d="M634 607l276 -276l-276 -274l-63 64l167 166h-514l165 -166l-63 -64l-276 276l276 274l63 -64l-167 -166h514l-165 166z" />
    <glyph glyph-name="arrowupdn" unicode="&#x2195;" horiz-adv-x="960" 
d="M691 423l-156 156l1 -486l155 156l64 -63l-274 -276l-276 276l64 63l156 -156l1 486l-157 -156l-64 63l276 276l274 -276z" />
    <glyph glyph-name="uni2196" unicode="&#x2196;" horiz-adv-x="960" 
d="M194 621h389v-90h-231l414 -415l-67 -67l-415 414v-231h-90v389z" />
    <glyph glyph-name="uni2197" unicode="&#x2197;" horiz-adv-x="960" 
d="M194 116l414 415h-231v90h389v-389h-90v231l-415 -414z" />
    <glyph glyph-name="uni2198" unicode="&#x2198;" horiz-adv-x="960" 
d="M766 49h-389v90h231l-414 415l67 67l415 -414v231h90v-389z" />
    <glyph glyph-name="uni2199" unicode="&#x2199;" horiz-adv-x="960" 
d="M284 438v-231l415 414l67 -67l-414 -415h231v-90h-389v389h90z" />
    <glyph glyph-name="arrowdblright" unicode="&#x21d2;" horiz-adv-x="960" 
d="M107 467h561l-97 106l63 64l276 -306l-276 -304l-63 64l97 106h-561v90h644l41 44l-42 46h-643v90z" />
    <glyph glyph-name="arrowdblboth" unicode="&#x21d4;" horiz-adv-x="960" 
d="M581 91l97 106h-397l98 -106l-63 -64l-276 304l276 306l63 -64l-97 -106h396l-97 106l63 64l276 -306l-276 -304zM802 331l-42 46h-560l-42 -46l40 -44h563z" />
    <glyph glyph-name="universal" unicode="&#x2200;" horiz-adv-x="700" 
d="M20 500h110l70 -155h300l70 155h110l-265 -580h-130zM350 11l109 244h-219z" />
    <glyph glyph-name="partialdiff" unicode="&#x2202;" horiz-adv-x="600" 
d="M183 676l54 84q68 -33 145.5 -109t133.5 -190.5t56 -252.5q0 -93 -35 -160.5t-95.5 -102.5t-137.5 -35q-76 0 -136 33t-94 93t-34 138q0 77 34.5 138t92 94.5t126.5 33.5q55 0 96.5 -23.5t64.5 -57.5l2 2q-21 56 -65.5 119t-100.5 115.5t-107 80.5zM304 0q45 0 81 22.5
t56.5 63t20.5 92.5q0 78 -42.5 125t-111.5 47q-45 0 -81 -22.5t-56.5 -63t-20.5 -92.5q0 -78 42.5 -125t111.5 -47z" />
    <glyph glyph-name="existential" unicode="&#x2203;" horiz-adv-x="530" 
d="M50 96h290v160h-290v90h290v160h-290v90h400v-590h-400v90z" />
    <glyph glyph-name="gradient" unicode="&#x2207;" horiz-adv-x="600" 
d="M301 112l178 428h-356zM255 -10l-233 550v90h558v-90l-233 -550h-92z" />
    <glyph glyph-name="element" unicode="&#x2208;" horiz-adv-x="592" 
d="M225 140q55 -44 157 -44h160v-90h-190q-133 0 -212.5 76t-79.5 220q0 95 37 161.5t103 99.5t152 33h190v-90h-160q-102 0 -157 -44q-44 -35 -53 -116h370v-90h-370q9 -81 53 -116z" />
    <glyph glyph-name="suchthat" unicode="&#x220b;" horiz-adv-x="600" 
d="M60 256v90h370q-10 81 -53 116q-55 44 -157 44h-160v90h190q86 0 152 -33t103 -99.5t37 -161.5q0 -144 -79.5 -220t-212.5 -76h-190v90h160q102 0 157 44q43 35 53 116h-370z" />
    <glyph glyph-name="product" unicode="&#x220f;" horiz-adv-x="607" 
d="M30 610v90h547v-90h-89v-690h-110v690h-150v-690h-110v690h-88z" />
    <glyph glyph-name="summation" unicode="&#x2211;" horiz-adv-x="650" 
d="M64 -110l233 360l-233 360v90h522v-90h-392l239 -360l-239 -360h392v-90h-522v90z" />
    <glyph glyph-name="radical" unicode="&#x221a;" horiz-adv-x="600" 
d="M585 693h-85l-262 -893h-100l-128 457l106 24l73 -259l223 761h173v-90z" />
    <glyph glyph-name="proportional" unicode="&#x221d;" horiz-adv-x="609" 
d="M375 372q12 -12 25 -28q89 106 149 126l30 -85q-28 -17 -58 -47q-23 -24 -61 -72q38 -48 61 -72q30 -30 58 -47l-30 -85q-60 19 -149 126q-13 -16 -25 -29q-28 -31 -67.5 -54t-86.5 -23q-53 0 -97 24.5t-69 66.5t-25 93t25 93t69 66.5t97 24.5q47 0 86.5 -23t67.5 -55z
M275 193q23 22 64 73q-41 51 -64 72q-29 27 -54 27q-38 0 -62.5 -28t-24.5 -71t24.5 -71t62.5 -28q25 0 54 26z" />
    <glyph glyph-name="infinity" unicode="&#x221e;" horiz-adv-x="800" 
d="M375 159q-28 -31 -67.5 -54t-86.5 -23q-53 0 -97 24.5t-69 66.5t-25 93t25 93t69 66.5t97 24.5q47 0 86.5 -23t67.5 -55q12 -12 25 -28q13 16 24 28q29 32 68.5 55t86.5 23q53 0 97 -24.5t69 -66.5t25 -93t-25 -93t-69 -66.5t-97 -24.5q-47 0 -86.5 23t-68.5 54
q-11 13 -24 28q-13 -15 -25 -28zM666 266q0 43 -24.5 71t-62.5 28q-25 0 -54 -27q-24 -21 -64 -72q40 -51 64 -73q29 -26 54 -26q38 0 62.5 28t24.5 71zM275 338q-29 27 -54 27q-38 0 -62.5 -28t-24.5 -71t24.5 -71t62.5 -28q25 0 54 26q23 22 64 73q-41 51 -64 72z" />
    <glyph glyph-name="angle" unicode="&#x2220;" horiz-adv-x="503" 
d="M30 39l359 359l78 -64l-324 -324h340v-90h-453v119z" />
    <glyph glyph-name="uni2225" unicode="&#x2225;" horiz-adv-x="545" 
d="M240 769v-880h-90v880h90zM440 769v-880h-90v880h90z" />
    <glyph glyph-name="logicaland" unicode="&#x2227;" horiz-adv-x="600" 
d="M479 7l-179 372l-179 -372l-98 40l277 576l277 -576z" />
    <glyph glyph-name="logicalor" unicode="&#x2228;" horiz-adv-x="600" 
d="M300 7l-277 576l98 40l179 -372l179 372l98 -40z" />
    <glyph glyph-name="intersection" unicode="&#x2229;" horiz-adv-x="600" 
d="M299 475q-82 0 -118 -65t-36 -167v-243h-110v273q0 86 31.5 152t92 103t142.5 37q81 0 141 -37.5t91.5 -103.5t31.5 -151v-273h-110v243q0 102 -37 167t-119 65z" />
    <glyph glyph-name="union" unicode="&#x222a;" horiz-adv-x="600" 
d="M455 565h110v-273q0 -85 -31.5 -151t-91.5 -103.5t-141 -37.5q-82 0 -142.5 37t-92 103t-31.5 152v273h110v-243q0 -102 36 -167t118 -65t119 65t37 167v243z" />
    <glyph glyph-name="integral" unicode="&#x222b;" horiz-adv-x="600" 
d="M117 -200q23 0 36.5 21.5t15.5 62.5l30 655q2 48 24.5 87t60 61.5t84.5 22.5q29 0 54 -8.5t33 -18.5l-45 -77q-14 14 -37 14q-27 0 -44.5 -24t-19.5 -61l-30 -655q-4 -78 -47.5 -124t-114.5 -46q-24 0 -45.5 5t-33.5 14l38 84q18 -13 41 -13z" />
    <glyph glyph-name="uni222C" unicode="&#x222c;" horiz-adv-x="743" 
d="M117 -200q23 0 36.5 21.5t15.5 62.5l30 655q2 48 24.5 87t60 61.5t84.5 22.5q29 0 54 -8.5t33 -18.5l-45 -77q-14 14 -37 14q-27 0 -44.5 -24t-19.5 -61l-30 -655q-4 -78 -47.5 -124t-114.5 -46q-24 0 -45.5 5t-33.5 14l38 84q18 -13 41 -13zM367 -200q23 0 36.5 21.5
t15.5 62.5l30 655q2 48 24.5 87t60 61.5t84.5 22.5q29 0 54 -8.5t33 -18.5l-45 -77q-14 14 -37 14q-27 0 -44.5 -24t-19.5 -61l-30 -655q-4 -78 -47.5 -124t-114.5 -46q-24 0 -45.5 5t-33.5 14l38 84q18 -13 41 -13z" />
    <glyph glyph-name="uni222E" unicode="&#x222e;" horiz-adv-x="493" 
d="M56 210q0 49 25 89t68 63q20 11 42 16l8 161q2 48 24.5 87t60 61.5t84.5 22.5q29 0 54 -8.5t33 -18.5l-45 -77q-14 14 -37 14q-27 0 -44.5 -24t-19.5 -61l-8 -159q19 -5 36 -14q43 -23 68 -63t25 -89q0 -48 -25.5 -88t-68.5 -63q-24 -13 -50 -19l-7 -160
q-4 -78 -47.5 -124t-114.5 -46q-24 0 -45.5 5t-33.5 14l38 84q18 -13 41 -13t36.5 21.5t15.5 62.5l7 163q-13 5 -26 12q-43 23 -68.5 63t-25.5 88zM371 210q0 58 -36 94q-16 16 -36 25l-11 -241q27 8 47 29q36 36 36 93zM150 304q-35 -36 -35 -94q0 -57 35 -93
q13 -13 28 -22l11 235q-22 -9 -39 -26z" />
    <glyph glyph-name="therefore" unicode="&#x2234;" horiz-adv-x="600" 
d="M250 131q0 -31 -21.5 -53t-53.5 -22q-31 0 -53 22t-22 53q0 32 22 53.5t53 21.5q32 0 53.5 -21.5t21.5 -53.5zM556 131q0 -31 -21.5 -53t-53.5 -22q-31 0 -53 22t-22 53q0 32 22 53.5t53 21.5q32 0 53.5 -21.5t21.5 -53.5zM403 397q0 -31 -21.5 -53t-53.5 -22
q-31 0 -53 22t-22 53q0 32 22 53.5t53 21.5q32 0 53.5 -21.5t21.5 -53.5z" />
    <glyph glyph-name="uni2235" unicode="&#x2235;" horiz-adv-x="600" 
d="M100 397q0 32 22 53.5t53 21.5q32 0 53.5 -21.5t21.5 -53.5q0 -31 -21.5 -53t-53.5 -22q-31 0 -53 22t-22 53zM406 397q0 32 22 53.5t53 21.5q32 0 53.5 -21.5t21.5 -53.5q0 -31 -21.5 -53t-53.5 -22q-31 0 -53 22t-22 53zM253 131q0 32 22 53.5t53 21.5q32 0 53.5 -21.5
t21.5 -53.5q0 -31 -21.5 -53t-53.5 -22q-31 0 -53 22t-22 53z" />
    <glyph glyph-name="uni2236" unicode="&#x2236;" horiz-adv-x="450" 
d="M150 361q0 32 22 53.5t53 21.5q32 0 53.5 -21.5t21.5 -53.5q0 -31 -21.5 -53t-53.5 -22q-31 0 -53 22t-22 53zM150 -5q0 32 22 53.5t53 21.5q32 0 53.5 -21.5t21.5 -53.5t-21.5 -53.5t-53.5 -21.5q-31 0 -53 21.5t-22 53.5z" />
    <glyph glyph-name="similar" unicode="&#x223c;" horiz-adv-x="600" 
d="M410 214q-32 0 -60.5 13.5t-66.5 39.5q-29 20 -47 29t-34 9q-26 0 -41 -21.5t-18 -46.5l-96 26q5 31 25 62t51 50.5t67 19.5q32 0 60.5 -13.5t66.5 -39.5q29 -19 47 -28.5t34 -9.5q26 0 41 21.5t18 46.5l96 -26q-5 -31 -25 -62t-51 -50.5t-67 -19.5z" />
    <glyph glyph-name="uni223D" unicode="&#x223d;" horiz-adv-x="600" 
d="M202 304q16 0 34 9.5t47 28.5q38 26 66.5 39.5t60.5 13.5q36 0 67 -19.5t51 -50.5t25 -62l-96 -26q-3 25 -18 46.5t-41 21.5q-16 0 -34 -9t-47 -29q-38 -26 -66.5 -39.5t-60.5 -13.5q-36 0 -67 19.5t-51 50.5t-25 62l96 26q3 -25 18 -46.5t41 -21.5z" />
    <glyph glyph-name="uni2252" unicode="&#x2252;" horiz-adv-x="600" 
d="M550 446v-90h-500v90h500zM550 246v-90h-500v90h500zM380 31q0 32 22 53.5t53 21.5q32 0 53.5 -21.5t21.5 -53.5t-21.5 -53.5t-53.5 -21.5q-31 0 -53 21.5t-22 53.5zM70 571q0 32 22 53.5t53 21.5q32 0 53.5 -21.5t21.5 -53.5q0 -31 -21.5 -53t-53.5 -22q-31 0 -53 22
t-22 53z" />
    <glyph glyph-name="notequal" unicode="&#x2260;" horiz-adv-x="600" 
d="M550 246v-90h-276l-71 -146h-108l71 146h-116v90h160l53 110h-213v90h257l70 144h108l-70 -144h135v-90h-179l-53 -110h232z" />
    <glyph glyph-name="equivalence" unicode="&#x2261;" horiz-adv-x="600" 
d="M550 596v-90h-500v90h500zM550 346v-90h-500v90h500zM550 96v-90h-500v90h500z" />
    <glyph glyph-name="lessequal" unicode="&#x2264;" horiz-adv-x="600" 
d="M480 633l50 -80l-349 -183l349 -183l-50 -80l-400 206v114zM550 46v-90h-500v90h500z" />
    <glyph glyph-name="greaterequal" unicode="&#x2265;" horiz-adv-x="600" 
d="M530 313l-400 -206l-50 80l349 183l-349 183l50 80l400 -206v-114zM550 46v-90h-500v90h500z" />
    <glyph glyph-name="propersubset" unicode="&#x2282;" horiz-adv-x="600" 
d="M170 301q0 -117 55 -161t157 -44h160v-90h-190q-133 0 -212.5 76t-79.5 220q0 95 37 161.5t103 99.5t152 33h190v-90h-160q-102 0 -157 -44t-55 -161z" />
    <glyph glyph-name="propersuperset" unicode="&#x2283;" horiz-adv-x="600" 
d="M60 506v90h190q86 0 152 -33t103 -99.5t37 -161.5q0 -144 -79.5 -220t-212.5 -76h-190v90h160q102 0 157 44t55 161t-55 161t-157 44h-160z" />
    <glyph glyph-name="reflexsubset" unicode="&#x2286;" horiz-adv-x="600" 
d="M160 381q0 -96 55.5 -135.5t156.5 -39.5h160v-90h-190q-86 0 -152 31.5t-103 92t-37 142.5q0 81 37.5 141t103.5 91.5t151 31.5h190v-90h-160q-101 0 -156.5 -39.5t-55.5 -135.5zM550 46v-90h-500v90h500z" />
    <glyph glyph-name="reflexsuperset" unicode="&#x2287;" horiz-adv-x="600" 
d="M68 556v90h190q85 0 151 -31.5t103.5 -91.5t37.5 -141q0 -82 -37 -142.5t-103 -92t-152 -31.5h-190v90h160q101 0 156.5 39.5t55.5 135.5t-55.5 135.5t-156.5 39.5h-160zM550 -44h-500v90h500v-90z" />
    <glyph glyph-name="uni2299" unicode="&#x2299;" horiz-adv-x="960" 
d="M15 300q0 127 62 232.5t168.5 166.5t234.5 61t234.5 -61t168.5 -166.5t62 -232.5t-62 -232.5t-168.5 -166.5t-234.5 -61t-234.5 61t-168.5 166.5t-62 232.5zM859 300q0 111 -48.5 200t-135 139.5t-195.5 50.5t-195.5 -50.5t-135 -139.5t-48.5 -200t48.5 -200t135 -139.5
t195.5 -50.5t195.5 50.5t135 139.5t48.5 200zM405 300q0 32 22 53.5t53 21.5q32 0 53.5 -21.5t21.5 -53.5q0 -31 -21.5 -53t-53.5 -22q-31 0 -53 22t-22 53z" />
    <glyph glyph-name="uni22A5" unicode="&#x22a5;" horiz-adv-x="672" 
d="M391 622v-576h261v-90h-632v90h261v576h110z" />
    <glyph glyph-name="uni22EF" unicode="&#x22ef;" horiz-adv-x="840" 
d="M484 364v-128h-128v128h128zM764 364v-128h-128v128h128zM204 364v-128h-128v128h128z" />
    <glyph glyph-name="uni2312" unicode="&#x2312;" horiz-adv-x="600" 
d="M76 553q0 57 28 102t78.5 71t117.5 26t117.5 -26t78.5 -71t28 -102h-100q0 59 -34.5 89t-89.5 30t-89.5 -30t-34.5 -89h-100v0z" />
    <glyph glyph-name="uni2460" unicode="&#x2460;" horiz-adv-x="960" 
d="M525 567v-514h-71v439l-60 -19l-19 57l92 37h58zM15 300q0 127 62 232.5t168.5 166.5t234.5 61t234.5 -61t168.5 -166.5t62 -232.5t-62 -232.5t-168.5 -166.5t-234.5 -61t-234.5 61t-168.5 166.5t-62 232.5zM859 300q0 111 -48.5 200t-135 139.5t-195.5 50.5
t-195.5 -50.5t-135 -139.5t-48.5 -200t48.5 -200t135 -139.5t195.5 -50.5t195.5 50.5t135 139.5t48.5 200z" />
    <glyph glyph-name="uni2461" unicode="&#x2461;" horiz-adv-x="960" 
d="M15 300q0 127 62 232.5t168.5 166.5t234.5 61t234.5 -61t168.5 -166.5t62 -232.5t-62 -232.5t-168.5 -166.5t-234.5 -61t-234.5 61t-168.5 166.5t-62 232.5zM859 300q0 111 -48.5 200t-135 139.5t-195.5 50.5t-195.5 -50.5t-135 -139.5t-48.5 -200t48.5 -200t135 -139.5
t195.5 -50.5t195.5 50.5t135 139.5t48.5 200zM489 568q66 0 108 -37t42 -101q0 -44 -20.5 -84.5t-49.5 -74.5t-78 -83l-68 -69h235v-57h-336v45l95 96q71 70 111.5 125t40.5 105q0 37 -22.5 57.5t-57.5 20.5t-60 -22t-42 -53l-59 32q26 44 68.5 72t92.5 28z" />
    <glyph glyph-name="uni2462" unicode="&#x2462;" horiz-adv-x="960" 
d="M15 300q0 127 62 232.5t168.5 166.5t234.5 61t234.5 -61t168.5 -166.5t62 -232.5t-62 -232.5t-168.5 -166.5t-234.5 -61t-234.5 61t-168.5 166.5t-62 232.5zM859 300q0 111 -48.5 200t-135 139.5t-195.5 50.5t-195.5 -50.5t-135 -139.5t-48.5 -200t48.5 -200t135 -139.5
t195.5 -50.5t195.5 50.5t135 139.5t48.5 200zM397 353l85 -2q45 -1 68 22t23 62q0 33 -22 54t-59 21q-34 0 -58.5 -18.5t-35.5 -44.5l-57 31q21 38 61 63.5t94 25.5q64 0 105.5 -35.5t41.5 -94.5q0 -43 -27 -75q-20 -23 -48 -35q32 -9 56 -34q32 -33 32 -85
q0 -69 -49.5 -112t-127.5 -43q-54 0 -93 19t-62 47l54 39q14 -17 41.5 -31.5t66.5 -14.5q47 0 73.5 27t26.5 69t-26.5 66.5t-77.5 23.5l-85 -3v58z" />
    <glyph glyph-name="uni2463" unicode="&#x2463;" horiz-adv-x="960" 
d="M15 300q0 127 62 232.5t168.5 166.5t234.5 61t234.5 -61t168.5 -166.5t62 -232.5t-62 -232.5t-168.5 -166.5t-234.5 -61t-234.5 61t-168.5 166.5t-62 232.5zM859 300q0 111 -48.5 200t-135 139.5t-195.5 50.5t-195.5 -50.5t-135 -139.5t-48.5 -200t48.5 -200t135 -139.5
t195.5 -50.5t195.5 50.5t135 139.5t48.5 200zM661 206v-57h-68v-97h-71v97h-223v44l168 365h126v-352h68zM509 501l-135 -295h148v295h-13z" />
    <glyph glyph-name="uni2464" unicode="&#x2464;" horiz-adv-x="960" 
d="M15 300q0 127 62 232.5t168.5 166.5t234.5 61t234.5 -61t168.5 -166.5t62 -232.5t-62 -232.5t-168.5 -166.5t-234.5 -61t-234.5 61t-168.5 166.5t-62 232.5zM859 300q0 111 -48.5 200t-135 139.5t-195.5 50.5t-195.5 -50.5t-135 -139.5t-48.5 -200t48.5 -200t135 -139.5
t195.5 -50.5t195.5 50.5t135 139.5t48.5 200zM478 106q42 0 71 29.5t29 79.5q0 47 -25 72t-67 25q-31 0 -55 -12t-39 -33l-53 16l9 270h270v-57h-202l-6 -153q11 7 25 13q30 12 66 12q62 0 105 -39t43 -111q0 -49 -23 -88t-63 -61t-90 -22q-98 0 -142 74l56 37
q12 -21 35 -36.5t56 -15.5z" />
    <glyph glyph-name="uni2465" unicode="&#x2465;" horiz-adv-x="960" 
d="M15 300q0 127 62 232.5t168.5 166.5t234.5 61t234.5 -61t168.5 -166.5t62 -232.5t-62 -232.5t-168.5 -166.5t-234.5 -61t-234.5 61t-168.5 166.5t-62 232.5zM859 300q0 111 -48.5 200t-135 139.5t-195.5 50.5t-195.5 -50.5t-135 -139.5t-48.5 -200t48.5 -200t135 -139.5
t195.5 -50.5t195.5 50.5t135 139.5t48.5 200zM505 372q61 0 101 -40t40 -114q0 -46 -20 -83t-56.5 -59t-84.5 -22q-81 0 -126 56t-45 172q0 134 51 209t139 75q82 0 121 -68l-49 -35q-11 20 -30 33t-44 13q-56 0 -87 -61q-25 -49 -30 -130q12 17 41 33q37 21 79 21zM486 111
q42 0 67 28t25 76q0 47 -22.5 73t-60.5 26q-36 0 -69 -21q-27 -18 -42 -39q7 -143 102 -143z" />
    <glyph glyph-name="uni2466" unicode="&#x2466;" horiz-adv-x="960" 
d="M496 60h-70q17 209 139 442h-245v58h320v-45q-126 -246 -144 -455zM15 300q0 127 62 232.5t168.5 166.5t234.5 61t234.5 -61t168.5 -166.5t62 -232.5t-62 -232.5t-168.5 -166.5t-234.5 -61t-234.5 61t-168.5 166.5t-62 232.5zM859 300q0 111 -48.5 200t-135 139.5
t-195.5 50.5t-195.5 -50.5t-135 -139.5t-48.5 -200t48.5 -200t135 -139.5t195.5 -50.5t195.5 50.5t135 139.5t48.5 200z" />
    <glyph glyph-name="uni2467" unicode="&#x2467;" horiz-adv-x="960" 
d="M15 300q0 127 62 232.5t168.5 166.5t234.5 61t234.5 -61t168.5 -166.5t62 -232.5t-62 -232.5t-168.5 -166.5t-234.5 -61t-234.5 61t-168.5 166.5t-62 232.5zM859 300q0 111 -48.5 200t-135 139.5t-195.5 50.5t-195.5 -50.5t-135 -139.5t-48.5 -200t48.5 -200t135 -139.5
t195.5 -50.5t195.5 50.5t135 139.5t48.5 200zM368 341q-41 35 -41 91q0 58 42.5 96t110.5 38q66 0 109.5 -36t43.5 -94q0 -43 -27 -71q-22 -23 -63 -43q44 -22 68 -44q34 -30 34 -83q0 -62 -47 -101.5t-118 -39.5q-46 0 -83.5 18t-59.5 49t-22 70q0 54 28 86q21 25 54 42
q-15 10 -29 22zM383 199q0 -36 27.5 -62.5t69.5 -26.5q43 0 69.5 24.5t26.5 60.5q0 29 -21 47.5t-81 40.5q-14 5 -27 10q-64 -36 -64 -94zM543 382q20 23 20 54q0 33 -23.5 54t-59.5 21q-37 0 -61 -22t-24 -57q0 -28 23 -48q21 -17 74 -40q33 18 51 38z" />
    <glyph glyph-name="uni2468" unicode="&#x2468;" horiz-adv-x="960" 
d="M15 300q0 127 62 232.5t168.5 166.5t234.5 61t234.5 -61t168.5 -166.5t62 -232.5t-62 -232.5t-168.5 -166.5t-234.5 -61t-234.5 61t-168.5 166.5t-62 232.5zM859 300q0 111 -48.5 200t-135 139.5t-195.5 50.5t-195.5 -50.5t-135 -139.5t-48.5 -200t48.5 -200t135 -139.5
t195.5 -50.5t195.5 50.5t135 139.5t48.5 200zM465 254q-61 0 -101 38.5t-40 107.5q0 47 20 84.5t56.5 59.5t84.5 22q81 0 126 -58.5t45 -175.5q0 -138 -48.5 -208t-141.5 -70q-87 0 -126 68l49 35q11 -20 32 -33t47 -13q61 0 89 55q25 48 28 141q-12 -17 -42 -33
q-36 -20 -78 -20zM559 467q-26 42 -75 42q-41 0 -66.5 -28t-25.5 -75q0 -44 23 -69.5t60 -25.5q36 0 68 21q28 17 42 37q-4 64 -26 98z" />
    <glyph glyph-name="uni2469" unicode="&#x2469;" horiz-adv-x="960" 
d="M362 566v-512h-70v437l-60 -19l-19 58l91 36h58zM602 566q52 0 92.5 -32t62.5 -90t22 -133q0 -76 -22 -134t-62.5 -90.5t-92.5 -32.5t-92 32t-62.5 90t-22.5 133q0 76 22.5 134t62.5 90.5t92 32.5zM602 111q48 0 77.5 56t29.5 145q0 88 -29.5 142.5t-77.5 54.5
q-47 0 -76.5 -56t-29.5 -145q0 -88 29.5 -142.5t76.5 -54.5zM15 300q0 127 62 232.5t168.5 166.5t234.5 61t234.5 -61t168.5 -166.5t62 -232.5t-62 -232.5t-168.5 -166.5t-234.5 -61t-234.5 61t-168.5 166.5t-62 232.5zM859 300q0 111 -48.5 200t-135 139.5t-195.5 50.5
t-195.5 -50.5t-135 -139.5t-48.5 -200t48.5 -200t135 -139.5t195.5 -50.5t195.5 50.5t135 139.5t48.5 200z" />
    <glyph glyph-name="uni246A" unicode="&#x246a;" horiz-adv-x="960" 
d="M381 566v-512h-70v437l-60 -19l-19 58l91 36h58zM661 566v-512h-70v437l-60 -19l-19 58l91 36h58zM15 300q0 127 62 232.5t168.5 166.5t234.5 61t234.5 -61t168.5 -166.5t62 -232.5t-62 -232.5t-168.5 -166.5t-234.5 -61t-234.5 61t-168.5 166.5t-62 232.5zM859 300
q0 111 -48.5 200t-135 139.5t-195.5 50.5t-195.5 -50.5t-135 -139.5t-48.5 -200t48.5 -200t135 -139.5t195.5 -50.5t195.5 50.5t135 139.5t48.5 200z" />
    <glyph glyph-name="uni246B" unicode="&#x246b;" horiz-adv-x="960" 
d="M15 300q0 127 62 232.5t168.5 166.5t234.5 61t234.5 -61t168.5 -166.5t62 -232.5t-62 -232.5t-168.5 -166.5t-234.5 -61t-234.5 61t-168.5 166.5t-62 232.5zM859 300q0 111 -48.5 200t-135 139.5t-195.5 50.5t-195.5 -50.5t-135 -139.5t-48.5 -200t48.5 -200t135 -139.5
t195.5 -50.5t195.5 50.5t135 139.5t48.5 200zM604 567q64 0 103.5 -37t39.5 -102q0 -63 -36 -117.5t-106 -124.5l-69 -69h217v-57h-317v45l95 95q67 67 106 124t39 107q0 38 -19.5 57.5t-52.5 19.5q-62 0 -103 -75l-58 33q26 44 68.5 72.5t92.5 28.5zM352 566v-512h-70v437
l-60 -19l-19 58l92 36h57z" />
    <glyph glyph-name="uni246C" unicode="&#x246c;" horiz-adv-x="960" 
d="M15 300q0 127 62 232.5t168.5 166.5t234.5 61t234.5 -61t168.5 -166.5t62 -232.5t-62 -232.5t-168.5 -166.5t-234.5 -61t-234.5 61t-168.5 166.5t-62 232.5zM859 300q0 111 -48.5 200t-135 139.5t-195.5 50.5t-195.5 -50.5t-135 -139.5t-48.5 -200t48.5 -200t135 -139.5
t195.5 -50.5t195.5 50.5t135 139.5t48.5 200zM502 353l85 -2q45 -1 68 22t23 62q0 33 -22 54t-59 21q-34 0 -58.5 -18.5t-35.5 -44.5l-57 31q21 38 60.5 63t94.5 25q64 0 105.5 -35.5t41.5 -93.5q0 -43 -27 -75q-20 -23 -48 -35q32 -9 56 -34q32 -33 32 -85
q0 -69 -49.5 -111.5t-127.5 -42.5q-54 0 -93 18.5t-62 46.5l53 39q14 -18 42 -32.5t67 -14.5q47 0 73.5 27t26.5 70q0 42 -26.5 66t-77.5 23l-85 -2v58zM362 566v-512h-70v437l-60 -19l-19 58l91 36h58z" />
    <glyph glyph-name="uni246D" unicode="&#x246d;" horiz-adv-x="960" 
d="M15 300q0 127 62 232.5t168.5 166.5t234.5 61t234.5 -61t168.5 -166.5t62 -232.5t-62 -232.5t-168.5 -166.5t-234.5 -61t-234.5 61t-168.5 166.5t-62 232.5zM859 300q0 111 -48.5 200t-135 139.5t-195.5 50.5t-195.5 -50.5t-135 -139.5t-48.5 -200t48.5 -200t135 -139.5
t195.5 -50.5t195.5 50.5t135 139.5t48.5 200zM771 208v-58h-68v-96h-71v96h-223v45l168 365h126v-352h68zM362 566v-512h-70v437l-60 -19l-19 58l92 36h57zM619 502l-135 -294h148v294h-13z" />
    <glyph glyph-name="uni246E" unicode="&#x246e;" horiz-adv-x="960" 
d="M15 300q0 127 62 232.5t168.5 166.5t234.5 61t234.5 -61t168.5 -166.5t62 -232.5t-62 -232.5t-168.5 -166.5t-234.5 -61t-234.5 61t-168.5 166.5t-62 232.5zM859 300q0 111 -48.5 200t-135 139.5t-195.5 50.5t-195.5 -50.5t-135 -139.5t-48.5 -200t48.5 -200t135 -139.5
t195.5 -50.5t195.5 50.5t135 139.5t48.5 200zM592 110q42 0 71 29.5t29 79.5q0 47 -25.5 72t-67.5 25q-31 0 -55 -12.5t-39 -33.5l-53 17l10 270h269v-58h-202l-6 -153q12 8 26 14q30 12 65 12q62 0 105 -39t43 -111q0 -49 -23 -88t-63 -61t-90 -22q-99 0 -142 74l57 36
q11 -20 34.5 -35.5t56.5 -15.5zM362 566v-512h-70v437l-60 -19l-19 58l92 36h57z" />
    <glyph glyph-name="uni2474" unicode="&#x2474;" horiz-adv-x="960" 
d="M525 567v-514h-71v439l-60 -19l-19 57l92 37h58zM40 301q0 131 38.5 250.5t112.5 220.5l70 -42q-66 -88 -100.5 -198t-34.5 -231t34.5 -231t100.5 -198l-70 -42q-74 101 -112.5 220.5t-38.5 250.5zM834 301q0 121 -34.5 231t-100.5 198l70 42q74 -101 112.5 -220.5
t38.5 -250.5t-38.5 -250.5t-112.5 -220.5l-70 42q66 88 100.5 198t34.5 231z" />
    <glyph glyph-name="uni2475" unicode="&#x2475;" horiz-adv-x="960" 
d="M40 301q0 131 38.5 250.5t112.5 220.5l70 -42q-66 -88 -100.5 -198t-34.5 -231t34.5 -231t100.5 -198l-70 -42q-74 101 -112.5 220.5t-38.5 250.5zM834 301q0 121 -34.5 231t-100.5 198l70 42q74 -101 112.5 -220.5t38.5 -250.5t-38.5 -250.5t-112.5 -220.5l-70 42
q66 88 100.5 198t34.5 231zM489 568q66 0 108 -37t42 -101q0 -44 -20.5 -84.5t-49.5 -74.5t-78 -83l-68 -69h235v-57h-336v45l95 96q71 70 111.5 125t40.5 105q0 37 -22.5 57.5t-57.5 20.5t-60 -22t-42 -53l-59 32q26 44 68.5 72t92.5 28z" />
    <glyph glyph-name="uni2476" unicode="&#x2476;" horiz-adv-x="960" 
d="M40 301q0 131 38.5 250.5t112.5 220.5l70 -42q-66 -88 -100.5 -198t-34.5 -231t34.5 -231t100.5 -198l-70 -42q-74 101 -112.5 220.5t-38.5 250.5zM834 301q0 121 -34.5 231t-100.5 198l70 42q74 -101 112.5 -220.5t38.5 -250.5t-38.5 -250.5t-112.5 -220.5l-70 42
q66 88 100.5 198t34.5 231zM397 353l85 -2q45 -1 68 22t23 62q0 33 -22 54t-59 21q-34 0 -58.5 -18.5t-35.5 -44.5l-57 31q21 38 61 63.5t94 25.5q64 0 105.5 -35.5t41.5 -94.5q0 -43 -27 -75q-20 -23 -48 -35q32 -9 56 -34q32 -33 32 -85q0 -69 -49.5 -112t-127.5 -43
q-54 0 -93 19t-62 47l54 39q14 -17 41.5 -31.5t66.5 -14.5q47 0 73.5 27t26.5 69t-26.5 66.5t-77.5 23.5l-85 -3v58z" />
    <glyph glyph-name="uni2477" unicode="&#x2477;" horiz-adv-x="960" 
d="M661 206v-57h-68v-97h-71v97h-223v44l168 365h126v-352h68zM40 301q0 131 38.5 250.5t112.5 220.5l70 -42q-66 -88 -100.5 -198t-34.5 -231t34.5 -231t100.5 -198l-70 -42q-74 101 -112.5 220.5t-38.5 250.5zM834 301q0 121 -34.5 231t-100.5 198l70 42
q74 -101 112.5 -220.5t38.5 -250.5t-38.5 -250.5t-112.5 -220.5l-70 42q66 88 100.5 198t34.5 231zM509 501l-135 -295h148v295h-13z" />
    <glyph glyph-name="uni2478" unicode="&#x2478;" horiz-adv-x="960" 
d="M40 301q0 131 38.5 250.5t112.5 220.5l70 -42q-66 -88 -100.5 -198t-34.5 -231t34.5 -231t100.5 -198l-70 -42q-74 101 -112.5 220.5t-38.5 250.5zM834 301q0 121 -34.5 231t-100.5 198l70 42q74 -101 112.5 -220.5t38.5 -250.5t-38.5 -250.5t-112.5 -220.5l-70 42
q66 88 100.5 198t34.5 231zM478 106q42 0 71 29.5t29 79.5q0 47 -25 72t-67 25q-31 0 -55 -12t-39 -33l-53 16l9 270h270v-57h-202l-6 -153q11 7 25 13q30 12 66 12q62 0 105 -39t43 -111q0 -49 -23 -88t-63 -61t-90 -22q-98 0 -142 74l56 37q12 -21 35 -36.5t56 -15.5z" />
    <glyph glyph-name="uni2479" unicode="&#x2479;" horiz-adv-x="960" 
d="M505 372q61 0 101 -40t40 -114q0 -46 -20 -83t-56.5 -59t-84.5 -22q-81 0 -126 56t-45 172q0 134 51 209t139 75q82 0 121 -68l-49 -35q-11 20 -30 33t-44 13q-56 0 -87 -61q-25 -49 -30 -130q12 17 41 33q37 21 79 21zM40 301q0 131 38.5 250.5t112.5 220.5l70 -42
q-66 -88 -100.5 -198t-34.5 -231t34.5 -231t100.5 -198l-70 -42q-74 101 -112.5 220.5t-38.5 250.5zM834 301q0 121 -34.5 231t-100.5 198l70 42q74 -101 112.5 -220.5t38.5 -250.5t-38.5 -250.5t-112.5 -220.5l-70 42q66 88 100.5 198t34.5 231zM486 111q42 0 67 28t25 76
q0 47 -22.5 73t-60.5 26q-36 0 -69 -21q-27 -18 -42 -39q7 -143 102 -143z" />
    <glyph glyph-name="uni247A" unicode="&#x247a;" horiz-adv-x="960" 
d="M496 60h-70q17 209 139 442h-245v58h320v-45q-126 -246 -144 -455zM40 301q0 131 38.5 250.5t112.5 220.5l70 -42q-66 -88 -100.5 -198t-34.5 -231t34.5 -231t100.5 -198l-70 -42q-74 101 -112.5 220.5t-38.5 250.5zM834 301q0 121 -34.5 231t-100.5 198l70 42
q74 -101 112.5 -220.5t38.5 -250.5t-38.5 -250.5t-112.5 -220.5l-70 42q66 88 100.5 198t34.5 231z" />
    <glyph glyph-name="uni247B" unicode="&#x247b;" horiz-adv-x="960" 
d="M368 341q-41 35 -41 91q0 58 42.5 96t110.5 38q66 0 109.5 -36t43.5 -94q0 -43 -27 -71q-22 -23 -63 -43q44 -22 68 -44q34 -30 34 -83q0 -62 -47 -101.5t-118 -39.5q-46 0 -83.5 18t-59.5 49t-22 70q0 54 28 86q21 25 54 42q-15 10 -29 22zM40 301q0 131 38.5 250.5
t112.5 220.5l70 -42q-66 -88 -100.5 -198t-34.5 -231t34.5 -231t100.5 -198l-70 -42q-74 101 -112.5 220.5t-38.5 250.5zM834 301q0 121 -34.5 231t-100.5 198l70 42q74 -101 112.5 -220.5t38.5 -250.5t-38.5 -250.5t-112.5 -220.5l-70 42q66 88 100.5 198t34.5 231z
M383 199q0 -36 27.5 -62.5t69.5 -26.5q43 0 69.5 24.5t26.5 60.5q0 29 -21 47.5t-81 40.5q-14 5 -27 10q-64 -36 -64 -94zM543 382q20 23 20 54q0 33 -23.5 54t-59.5 21q-37 0 -61 -22t-24 -57q0 -28 23 -48q21 -17 74 -40q33 18 51 38z" />
    <glyph glyph-name="uni247C" unicode="&#x247c;" horiz-adv-x="960" 
d="M465 254q-61 0 -101 38.5t-40 107.5q0 47 20 84.5t56.5 59.5t84.5 22q81 0 126 -58.5t45 -175.5q0 -138 -48.5 -208t-141.5 -70q-87 0 -126 68l49 35q11 -20 32 -33t47 -13q61 0 89 55q25 48 28 141q-12 -17 -42 -33q-36 -20 -78 -20zM40 301q0 131 38.5 250.5
t112.5 220.5l70 -42q-66 -88 -100.5 -198t-34.5 -231t34.5 -231t100.5 -198l-70 -42q-74 101 -112.5 220.5t-38.5 250.5zM834 301q0 121 -34.5 231t-100.5 198l70 42q74 -101 112.5 -220.5t38.5 -250.5t-38.5 -250.5t-112.5 -220.5l-70 42q66 88 100.5 198t34.5 231z
M559 467q-26 42 -75 42q-41 0 -66.5 -28t-25.5 -75q0 -44 23 -69.5t60 -25.5q36 0 68 21q28 17 42 37q-4 64 -26 98z" />
    <glyph glyph-name="uni247D" unicode="&#x247d;" horiz-adv-x="960" 
d="M362 566v-512h-70v437l-60 -19l-19 58l91 36h58zM602 566q52 0 92.5 -32t62.5 -90t22 -133q0 -76 -22 -134t-62.5 -90.5t-92.5 -32.5t-92 32t-62.5 90t-22.5 133q0 76 22.5 134t62.5 90.5t92 32.5zM602 111q48 0 77.5 56t29.5 145q0 88 -29.5 142.5t-77.5 54.5
q-47 0 -76.5 -56t-29.5 -145q0 -88 29.5 -142.5t76.5 -54.5zM40 301q0 131 38.5 250.5t112.5 220.5l70 -42q-66 -88 -100.5 -198t-34.5 -231t34.5 -231t100.5 -198l-70 -42q-74 101 -112.5 220.5t-38.5 250.5zM834 301q0 121 -34.5 231t-100.5 198l70 42
q74 -101 112.5 -220.5t38.5 -250.5t-38.5 -250.5t-112.5 -220.5l-70 42q66 88 100.5 198t34.5 231z" />
    <glyph glyph-name="uni247E" unicode="&#x247e;" horiz-adv-x="960" 
d="M381 566v-512h-70v437l-60 -19l-19 58l91 36h58zM661 566v-512h-70v437l-60 -19l-19 58l91 36h58zM40 301q0 131 38.5 250.5t112.5 220.5l70 -42q-66 -88 -100.5 -198t-34.5 -231t34.5 -231t100.5 -198l-70 -42q-74 101 -112.5 220.5t-38.5 250.5zM834 301
q0 121 -34.5 231t-100.5 198l70 42q74 -101 112.5 -220.5t38.5 -250.5t-38.5 -250.5t-112.5 -220.5l-70 42q66 88 100.5 198t34.5 231z" />
    <glyph glyph-name="uni247F" unicode="&#x247f;" horiz-adv-x="960" 
d="M40 301q0 131 38.5 250.5t112.5 220.5l70 -42q-66 -88 -100.5 -198t-34.5 -231t34.5 -231t100.5 -198l-70 -42q-74 101 -112.5 220.5t-38.5 250.5zM834 301q0 121 -34.5 231t-100.5 198l70 42q74 -101 112.5 -220.5t38.5 -250.5t-38.5 -250.5t-112.5 -220.5l-70 42
q66 88 100.5 198t34.5 231zM604 567q64 0 103.5 -37t39.5 -102q0 -63 -36 -117.5t-106 -124.5l-69 -69h217v-57h-317v45l95 95q67 67 106 124t39 107q0 38 -19.5 57.5t-52.5 19.5q-62 0 -103 -75l-58 33q26 44 68.5 72.5t92.5 28.5zM352 566v-512h-70v437l-60 -19l-19 58
l92 36h57z" />
    <glyph glyph-name="uni2480" unicode="&#x2480;" horiz-adv-x="960" 
d="M40 301q0 131 38.5 250.5t112.5 220.5l70 -42q-66 -88 -100.5 -198t-34.5 -231t34.5 -231t100.5 -198l-70 -42q-74 101 -112.5 220.5t-38.5 250.5zM834 301q0 121 -34.5 231t-100.5 198l70 42q74 -101 112.5 -220.5t38.5 -250.5t-38.5 -250.5t-112.5 -220.5l-70 42
q66 88 100.5 198t34.5 231zM502 353l85 -2q45 -1 68 22t23 62q0 33 -22 54t-59 21q-34 0 -58.5 -18.5t-35.5 -44.5l-57 31q21 38 60.5 63t94.5 25q64 0 105.5 -35.5t41.5 -93.5q0 -43 -27 -75q-20 -23 -48 -35q32 -9 56 -34q32 -33 32 -85q0 -69 -49.5 -111.5t-127.5 -42.5
q-54 0 -93 18.5t-62 46.5l53 39q14 -18 42 -32.5t67 -14.5q47 0 73.5 27t26.5 70q0 42 -26.5 66t-77.5 23l-85 -2v58zM362 566v-512h-70v437l-60 -19l-19 58l91 36h58z" />
    <glyph glyph-name="uni2481" unicode="&#x2481;" horiz-adv-x="960" 
d="M771 208v-58h-68v-96h-71v96h-223v45l168 365h126v-352h68zM40 301q0 131 38.5 250.5t112.5 220.5l70 -42q-66 -88 -100.5 -198t-34.5 -231t34.5 -231t100.5 -198l-70 -42q-74 101 -112.5 220.5t-38.5 250.5zM834 301q0 121 -34.5 231t-100.5 198l70 42
q74 -101 112.5 -220.5t38.5 -250.5t-38.5 -250.5t-112.5 -220.5l-70 42q66 88 100.5 198t34.5 231zM362 566v-512h-70v437l-60 -19l-19 58l92 36h57zM619 502l-135 -294h148v294h-13z" />
    <glyph glyph-name="uni2482" unicode="&#x2482;" horiz-adv-x="960" 
d="M40 301q0 131 38.5 250.5t112.5 220.5l70 -42q-66 -88 -100.5 -198t-34.5 -231t34.5 -231t100.5 -198l-70 -42q-74 101 -112.5 220.5t-38.5 250.5zM834 301q0 121 -34.5 231t-100.5 198l70 42q74 -101 112.5 -220.5t38.5 -250.5t-38.5 -250.5t-112.5 -220.5l-70 42
q66 88 100.5 198t34.5 231zM592 110q42 0 71 29.5t29 79.5q0 47 -25.5 72t-67.5 25q-31 0 -55 -12.5t-39 -33.5l-53 17l10 270h269v-58h-202l-6 -153q12 8 26 14q30 12 65 12q62 0 105 -39t43 -111q0 -49 -23 -88t-63 -61t-90 -22q-99 0 -142 74l57 36q11 -20 34.5 -35.5
t56.5 -15.5zM362 566v-512h-70v437l-60 -19l-19 58l92 36h57z" />
    <glyph glyph-name="uni249C" unicode="&#x249c;" horiz-adv-x="960" 
d="M309 236q0 75 73 109q71 34 185 35q-2 35 -28 54q-27 20 -75 20q-55 0 -117 -36l-23 62q30 18 73.5 31t81.5 13q83 0 127.5 -41t44.5 -116v-243h-84v27q-13 -13 -40 -23q-30 -12 -72 -12q-59 0 -102.5 29.5t-43.5 90.5zM40 301q0 131 38.5 250.5t112.5 220.5l70 -42
q-66 -88 -100.5 -198t-34.5 -231t34.5 -231t100.5 -198l-70 -42q-74 101 -112.5 220.5t-38.5 250.5zM834 301q0 121 -34.5 231t-100.5 198l70 42q74 -101 112.5 -220.5t38.5 -250.5t-38.5 -250.5t-112.5 -220.5l-70 42q66 88 100.5 198t34.5 231zM394 241q0 -28 18.5 -42
t51.5 -14q39 0 66 11q23 9 37 22v102q-173 -1 -173 -79z" />
    <glyph glyph-name="uni249D" unicode="&#x249d;" horiz-adv-x="960" 
d="M398 614v-219q15 17 44 31q36 18 76 18q52 0 95 -25.5t68.5 -72t25.5 -105.5q0 -60 -26.5 -106.5t-72.5 -72.5t-101 -26q-34 0 -67 11q-26 9 -42 19v-22h-85v570h85zM40 301q0 131 38.5 250.5t112.5 220.5l70 -42q-66 -88 -100.5 -198t-34.5 -231t34.5 -231t100.5 -198
l-70 -42q-74 101 -112.5 220.5t-38.5 250.5zM834 301q0 121 -34.5 231t-100.5 198l70 42q74 -101 112.5 -220.5t38.5 -250.5t-38.5 -250.5t-112.5 -220.5l-70 42q66 88 100.5 198t34.5 231zM505 105q51 0 84 38.5t33 98.5t-31.5 96.5t-82.5 36.5q-37 0 -70 -21
q-25 -17 -40 -35v-173q45 -41 107 -41z" />
    <glyph glyph-name="uni249E" unicode="&#x249e;" horiz-adv-x="960" 
d="M509 116q-58 0 -104.5 25.5t-72.5 71.5t-26 106t27 107t74 72.5t105 25.5q40 0 76 -13t61 -35l-43 -54q-39 33 -89 33q-56 0 -91.5 -38.5t-35.5 -98.5t33 -95.5t86 -35.5q56 0 98 40l47 -54q-22 -27 -62.5 -42t-82.5 -15zM40 301q0 131 38.5 250.5t112.5 220.5l70 -42
q-66 -88 -100.5 -198t-34.5 -231t34.5 -231t100.5 -198l-70 -42q-74 101 -112.5 220.5t-38.5 250.5zM834 301q0 121 -34.5 231t-100.5 198l70 42q74 -101 112.5 -220.5t38.5 -250.5t-38.5 -250.5t-112.5 -220.5l-70 42q66 88 100.5 198t34.5 231z" />
    <glyph glyph-name="uni249F" unicode="&#x249f;" horiz-adv-x="960" 
d="M657 44h-85v32q-15 -15 -42 -26q-34 -14 -80 -14q-51 0 -94 24t-68 69.5t-25 106.5t26.5 108.5t72 73.5t101.5 26q35 0 67 -10q26 -7 42 -17v197h85v-570zM40 301q0 131 38.5 250.5t112.5 220.5l70 -42q-66 -88 -100.5 -198t-34.5 -231t34.5 -231t100.5 -198l-70 -42
q-74 101 -112.5 220.5t-38.5 250.5zM834 301q0 121 -34.5 231t-100.5 198l70 42q74 -101 112.5 -220.5t38.5 -250.5t-38.5 -250.5t-112.5 -220.5l-70 42q66 88 100.5 198t34.5 231zM468 375q-53 0 -86.5 -39t-33.5 -102q0 -62 31 -95.5t83 -33.5q40 0 71 17q25 13 39 30v185
q-42 38 -104 38z" />
    <glyph glyph-name="uni24A0" unicode="&#x24a0;" horiz-adv-x="960" 
d="M497 116q-60 0 -107 25.5t-73.5 71.5t-26.5 106q0 61 26.5 107.5t73 72t105.5 25.5q83 0 129 -49t46 -123q0 -31 -9 -54h-286q5 -47 34 -76q34 -35 93 -35q35 0 63 9.5t44 22.5l43 -54q-20 -22 -63 -35.5t-92 -13.5zM40 301q0 131 38.5 250.5t112.5 220.5l70 -42
q-66 -88 -100.5 -198t-34.5 -231t34.5 -231t100.5 -198l-70 -42q-74 101 -112.5 220.5t-38.5 250.5zM834 301q0 121 -34.5 231t-100.5 198l70 42q74 -101 112.5 -220.5t38.5 -250.5t-38.5 -250.5t-112.5 -220.5l-70 42q66 88 100.5 198t34.5 231zM588 364q0 36 -24 64
t-71 28q-53 0 -86 -39q-19 -22 -27 -53h208z" />
    <glyph glyph-name="uni24A1" unicode="&#x24a1;" horiz-adv-x="960" 
d="M40 301q0 131 38.5 250.5t112.5 220.5l70 -42q-66 -88 -100.5 -198t-34.5 -231t34.5 -231t100.5 -198l-70 -42q-74 101 -112.5 220.5t-38.5 250.5zM834 301q0 121 -34.5 231t-100.5 198l70 42q74 -101 112.5 -220.5t38.5 -250.5t-38.5 -250.5t-112.5 -220.5l-70 42
q66 88 100.5 198t34.5 231zM554 535q-25 0 -38.5 -22.5t-13.5 -64.5v-60h110v-69h-110v-323h-85v323h-77v69h77v39q0 92 36 134.5t97 42.5q44 0 70 -16l-27 -61q-19 8 -39 8z" />
    <glyph glyph-name="uni24A2" unicode="&#x24a2;" horiz-adv-x="960" 
d="M485 91q112 0 112 44q0 18 -24.5 24t-87.5 6q-171 0 -171 80q0 40 28 66q-39 42 -39 107q0 74 50.5 120t131.5 46q33 0 60 -8h132v-69l-37 2q26 -39 26 -91q0 -73 -50 -116.5t-131 -43.5q-44 0 -79 12q-3 -1 -5 -5t-2 -10q0 -12 18.5 -18t67.5 -6q101 0 149 -21.5
t48 -70.5q0 -54 -54 -85.5t-143 -31.5q-77 0 -124 15t-75 41l46 56q19 -16 58.5 -29.5t94.5 -13.5zM40 301q0 131 38.5 250.5t112.5 220.5l70 -42q-66 -88 -100.5 -198t-34.5 -231t34.5 -231t100.5 -198l-70 -42q-74 101 -112.5 220.5t-38.5 250.5zM834 301q0 121 -34.5 231
t-100.5 198l70 42q74 -101 112.5 -220.5t38.5 -250.5t-38.5 -250.5t-112.5 -220.5l-70 42q66 88 100.5 198t34.5 231zM485 322q43 0 70 26.5t27 69.5t-27 70t-70 27t-70 -27t-27 -70t27 -69.5t70 -26.5z" />
    <glyph glyph-name="uni24A3" unicode="&#x24a3;" horiz-adv-x="960" 
d="M524 420q73 0 117 -40.5t44 -111.5v-248h-85v240q0 47 -25.5 68.5t-69.5 21.5q-33 0 -64 -19q-26 -16 -41 -37v-274h-85v600h85v-251q14 19 43 33q36 18 81 18zM40 301q0 131 38.5 250.5t112.5 220.5l70 -42q-66 -88 -100.5 -198t-34.5 -231t34.5 -231t100.5 -198
l-70 -42q-74 101 -112.5 220.5t-38.5 250.5zM834 301q0 121 -34.5 231t-100.5 198l70 42q74 -101 112.5 -220.5t38.5 -250.5t-38.5 -250.5t-112.5 -220.5l-70 42q66 88 100.5 198t34.5 231z" />
    <glyph glyph-name="uni24A4" unicode="&#x24a4;" horiz-adv-x="960" 
d="M422 566q0 24 17 41t41 17t41 -17t17 -41t-17 -41t-41 -17t-41 17t-17 41zM522 408v-392h-84v392h84zM40 301q0 131 38.5 250.5t112.5 220.5l70 -42q-66 -88 -100.5 -198t-34.5 -231t34.5 -231t100.5 -198l-70 -42q-74 101 -112.5 220.5t-38.5 250.5zM834 301
q0 121 -34.5 231t-100.5 198l70 42q74 -101 112.5 -220.5t38.5 -250.5t-38.5 -250.5t-112.5 -220.5l-70 42q66 88 100.5 198t34.5 231z" />
    <glyph glyph-name="uni24A5" unicode="&#x24a5;" horiz-adv-x="960" 
d="M40 301q0 131 38.5 250.5t112.5 220.5l70 -42q-66 -88 -100.5 -198t-34.5 -231t34.5 -231t100.5 -198l-70 -42q-74 101 -112.5 220.5t-38.5 250.5zM834 301q0 121 -34.5 231t-100.5 198l70 42q74 -101 112.5 -220.5t38.5 -250.5t-38.5 -250.5t-112.5 -220.5l-70 42
q66 88 100.5 198t34.5 231zM502 580q0 24 17 41t41 17t41 -17t17 -41t-17 -41t-41 -17t-41 17t-17 41zM465 38q28 0 40.5 22t12.5 79v283h84v-248q0 -106 -33.5 -156t-109.5 -50q-47 0 -76 22t-41 52l66 41q22 -45 57 -45z" />
    <glyph glyph-name="uni24A6" unicode="&#x24a6;" horiz-adv-x="960" 
d="M603 424l54 -48l-148 -116l165 -202l-71 -42l-173 220v-212h-84v600h84v-344zM40 301q0 131 38.5 250.5t112.5 220.5l70 -42q-66 -88 -100.5 -198t-34.5 -231t34.5 -231t100.5 -198l-70 -42q-74 101 -112.5 220.5t-38.5 250.5zM834 301q0 121 -34.5 231t-100.5 198l70 42
q74 -101 112.5 -220.5t38.5 -250.5t-38.5 -250.5t-112.5 -220.5l-70 42q66 88 100.5 198t34.5 231z" />
    <glyph glyph-name="uni24A7" unicode="&#x24a7;" horiz-adv-x="960" 
d="M415 624h84v-496q0 -18 12 -29t34 -14l-23 -69q-43 1 -75 24t-32 73v511zM40 301q0 131 38.5 250.5t112.5 220.5l70 -42q-66 -88 -100.5 -198t-34.5 -231t34.5 -231t100.5 -198l-70 -42q-74 101 -112.5 220.5t-38.5 250.5zM834 301q0 121 -34.5 231t-100.5 198l70 42
q74 -101 112.5 -220.5t38.5 -250.5t-38.5 -250.5t-112.5 -220.5l-70 42q66 88 100.5 198t34.5 231z" />
    <glyph glyph-name="uni24A8" unicode="&#x24a8;" horiz-adv-x="960" 
d="M388 520q65 0 106 -40q13 -12 21 -26q14 24 44 43q37 23 85 23q68 0 111 -40.5t43 -111.5v-248h-85v240q0 46 -24.5 68.5t-61.5 22.5q-32 0 -61 -20q-19 -13 -32 -29q2 -13 2 -27v-255h-84v248q0 42 -22 62.5t-58 20.5q-34 0 -64 -20q-26 -16 -41 -38v-273h-85v392h85
v-43q13 19 42 33q34 18 79 18zM40 301q0 131 38.5 250.5t112.5 220.5l70 -42q-66 -88 -100.5 -198t-34.5 -231t34.5 -231t100.5 -198l-70 -42q-74 101 -112.5 220.5t-38.5 250.5zM834 301q0 121 -34.5 231t-100.5 198l70 42q74 -101 112.5 -220.5t38.5 -250.5t-38.5 -250.5
t-112.5 -220.5l-70 42q66 88 100.5 198t34.5 231z" />
    <glyph glyph-name="uni24A9" unicode="&#x24a9;" horiz-adv-x="960" 
d="M40 301q0 131 38.5 250.5t112.5 220.5l70 -42q-66 -88 -100.5 -198t-34.5 -231t34.5 -231t100.5 -198l-70 -42q-74 101 -112.5 220.5t-38.5 250.5zM834 301q0 121 -34.5 231t-100.5 198l70 42q74 -101 112.5 -220.5t38.5 -250.5t-38.5 -250.5t-112.5 -220.5l-70 42
q66 88 100.5 198t34.5 231zM504 520q73 0 117 -40.5t44 -111.5v-248h-85v240q0 47 -26 69t-69 22q-33 0 -64 -20q-26 -16 -41 -37v-274h-85v392h85v-43q14 19 43 33q36 18 81 18z" />
    <glyph glyph-name="uni24AA" unicode="&#x24aa;" horiz-adv-x="960" 
d="M482 524q58 0 104 -25.5t72.5 -71.5t26.5 -106t-27 -107t-74.5 -72.5t-105.5 -25.5t-104 25.5t-72.5 71.5t-26.5 106t27 107t74.5 72.5t105.5 25.5zM478 185q53 0 87.5 38.5t34.5 98.5t-32.5 96.5t-85.5 36.5t-87.5 -38.5t-34.5 -98.5t32.5 -96.5t85.5 -36.5zM40 301
q0 131 38.5 250.5t112.5 220.5l70 -42q-66 -88 -100.5 -198t-34.5 -231t34.5 -231t100.5 -198l-70 -42q-74 101 -112.5 220.5t-38.5 250.5zM834 301q0 121 -34.5 231t-100.5 198l70 42q74 -101 112.5 -220.5t38.5 -250.5t-38.5 -250.5t-112.5 -220.5l-70 42q66 88 100.5 198
t34.5 231z" />
    <glyph glyph-name="uni24AB" unicode="&#x24ab;" horiz-adv-x="960" 
d="M398 572v-41q15 17 44 31q36 18 76 18q52 0 95 -25.5t68.5 -72t25.5 -105.5q0 -60 -26.5 -106.5t-72.5 -72.5t-101 -26q-34 0 -67 11q-26 9 -42 19v-184h-85v554h85zM40 301q0 131 38.5 250.5t112.5 220.5l70 -42q-66 -88 -100.5 -198t-34.5 -231t34.5 -231t100.5 -198
l-70 -42q-74 101 -112.5 220.5t-38.5 250.5zM834 301q0 121 -34.5 231t-100.5 198l70 42q74 -101 112.5 -220.5t38.5 -250.5t-38.5 -250.5t-112.5 -220.5l-70 42q66 88 100.5 198t34.5 231zM505 241q51 0 84 38.5t33 98.5t-31.5 96.5t-82.5 36.5q-37 0 -70 -21
q-25 -17 -40 -35v-173q43 -41 107 -41z" />
    <glyph glyph-name="uni24AC" unicode="&#x24ac;" horiz-adv-x="960" 
d="M657 18h-85v195q-15 -16 -42 -27q-33 -14 -81 -14q-51 0 -93.5 24t-67.5 69.5t-25 108.5q0 60 26.5 107t72.5 73t101 26q36 0 68 -10q25 -7 41 -18v20h85v-554zM40 301q0 131 38.5 250.5t112.5 220.5l70 -42q-66 -88 -100.5 -198t-34.5 -231t34.5 -231t100.5 -198
l-70 -42q-74 101 -112.5 220.5t-38.5 250.5zM834 301q0 121 -34.5 231t-100.5 198l70 42q74 -101 112.5 -220.5t38.5 -250.5t-38.5 -250.5t-112.5 -220.5l-70 42q66 88 100.5 198t34.5 231zM468 511q-53 0 -86.5 -38t-33.5 -99q0 -65 31 -99t86 -34q41 0 70 17q23 13 37 31
v183q-43 39 -104 39z" />
    <glyph glyph-name="uni24AD" unicode="&#x24ad;" horiz-adv-x="960" 
d="M40 301q0 131 38.5 250.5t112.5 220.5l70 -42q-66 -88 -100.5 -198t-34.5 -231t34.5 -231t100.5 -198l-70 -42q-74 101 -112.5 220.5t-38.5 250.5zM834 301q0 121 -34.5 231t-100.5 198l70 42q74 -101 112.5 -220.5t38.5 -250.5t-38.5 -250.5t-112.5 -220.5l-70 42
q66 88 100.5 198t34.5 231zM630 520v-69q-122 0 -175 -67v-264h-85v392h85v-51q22 28 61 42q44 17 114 17z" />
    <glyph glyph-name="uni24AE" unicode="&#x24ae;" horiz-adv-x="960" 
d="M485 172q39 0 62 17t23 44q0 25 -19.5 38t-70.5 19q-72 8 -112 34t-40 71q0 54 46.5 86.5t112.5 32.5q50 0 87 -16t58 -43l-59 -40q-35 33 -86 33q-35 0 -56.5 -12.5t-21.5 -33.5q0 -18 17.5 -28t68.5 -16q78 -8 117.5 -35.5t39.5 -81.5q0 -59 -48 -97t-117 -38
q-62 0 -111.5 25t-67.5 66l70 38q14 -25 41 -44t66 -19zM40 301q0 131 38.5 250.5t112.5 220.5l70 -42q-66 -88 -100.5 -198t-34.5 -231t34.5 -231t100.5 -198l-70 -42q-74 101 -112.5 220.5t-38.5 250.5zM834 301q0 121 -34.5 231t-100.5 198l70 42q74 -101 112.5 -220.5
t38.5 -250.5t-38.5 -250.5t-112.5 -220.5l-70 42q66 88 100.5 198t34.5 231z" />
    <glyph glyph-name="uni24AF" unicode="&#x24af;" horiz-adv-x="960" 
d="M40 301q0 131 38.5 250.5t112.5 220.5l70 -42q-66 -88 -100.5 -198t-34.5 -231t34.5 -231t100.5 -198l-70 -42q-74 101 -112.5 220.5t-38.5 250.5zM834 301q0 121 -34.5 231t-100.5 198l70 42q74 -101 112.5 -220.5t38.5 -250.5t-38.5 -250.5t-112.5 -220.5l-70 42
q66 88 100.5 198t34.5 231zM322 385v70h84v130h85v-130h125v-70h-125v-220q0 -19 12.5 -30t35.5 -11q33 0 60 24l39 -49q-14 -19 -41 -31.5t-62 -12.5q-57 0 -93 26t-36 78v226h-84z" />
    <glyph glyph-name="uni24B0" unicode="&#x24b0;" horiz-adv-x="960" 
d="M40 301q0 131 38.5 250.5t112.5 220.5l70 -42q-66 -88 -100.5 -198t-34.5 -231t34.5 -231t100.5 -198l-70 -42q-74 101 -112.5 220.5t-38.5 250.5zM834 301q0 121 -34.5 231t-100.5 198l70 42q74 -101 112.5 -220.5t38.5 -250.5t-38.5 -250.5t-112.5 -220.5l-70 42
q66 88 100.5 198t34.5 231zM578 118v43q-13 -19 -43 -34q-34 -17 -79 -17q-73 0 -115.5 40.5t-42.5 111.5v248h84v-240q0 -90 93 -90q33 0 62 19q26 16 41 38v273h84v-392h-84z" />
    <glyph glyph-name="uni24B1" unicode="&#x24b1;" horiz-adv-x="960" 
d="M40 301q0 131 38.5 250.5t112.5 220.5l70 -42q-66 -88 -100.5 -198t-34.5 -231t34.5 -231t100.5 -198l-70 -42q-74 101 -112.5 220.5t-38.5 250.5zM834 301q0 121 -34.5 231t-100.5 198l70 42q74 -101 112.5 -220.5t38.5 -250.5t-38.5 -250.5t-112.5 -220.5l-70 42
q66 88 100.5 198t34.5 231zM288 506h90l105 -310l107 310h82l-142 -392h-100z" />
    <glyph glyph-name="uni24B2" unicode="&#x24b2;" horiz-adv-x="960" 
d="M255 496l92 -319l92 319h88l92 -319l93 319h81l-127 -392h-100l-86 272l-86 -272h-100l-127 392h88zM40 301q0 131 38.5 250.5t112.5 220.5l70 -42q-66 -88 -100.5 -198t-34.5 -231t34.5 -231t100.5 -198l-70 -42q-74 101 -112.5 220.5t-38.5 250.5zM834 301
q0 121 -34.5 231t-100.5 198l70 42q74 -101 112.5 -220.5t38.5 -250.5t-38.5 -250.5t-112.5 -220.5l-70 42q66 88 100.5 198t34.5 231z" />
    <glyph glyph-name="uni24B3" unicode="&#x24b3;" horiz-adv-x="960" 
d="M40 301q0 131 38.5 250.5t112.5 220.5l70 -42q-66 -88 -100.5 -198t-34.5 -231t34.5 -231t100.5 -198l-70 -42q-74 101 -112.5 220.5t-38.5 250.5zM834 301q0 121 -34.5 231t-100.5 198l70 42q74 -101 112.5 -220.5t38.5 -250.5t-38.5 -250.5t-112.5 -220.5l-70 42
q66 88 100.5 198t34.5 231zM295 114l140 200l-130 192h94l83 -124l87 124h86l-130 -186l140 -206h-94l-94 138l-96 -138h-86z" />
    <glyph glyph-name="uni24B4" unicode="&#x24b4;" horiz-adv-x="960" 
d="M40 301q0 131 38.5 250.5t112.5 220.5l70 -42q-66 -88 -100.5 -198t-34.5 -231t34.5 -231t100.5 -198l-70 -42q-74 101 -112.5 220.5t-38.5 250.5zM834 301q0 121 -34.5 231t-100.5 198l70 42q74 -101 112.5 -220.5t38.5 -250.5t-38.5 -250.5t-112.5 -220.5l-70 42
q66 88 100.5 198t34.5 231zM692 540l-117 -316q-43 -114 -93.5 -170.5t-126.5 -67.5l-17 69q49 7 87 41q22 19 38 46l-155 398h93l101 -302l106 302h84z" />
    <glyph glyph-name="uni24B5" unicode="&#x24b5;" horiz-adv-x="960" 
d="M328 158l195 269h-188v69h290v-54l-196 -269h203v-69h-304v54zM40 301q0 131 38.5 250.5t112.5 220.5l70 -42q-66 -88 -100.5 -198t-34.5 -231t34.5 -231t100.5 -198l-70 -42q-74 101 -112.5 220.5t-38.5 250.5zM834 301q0 121 -34.5 231t-100.5 198l70 42
q74 -101 112.5 -220.5t38.5 -250.5t-38.5 -250.5t-112.5 -220.5l-70 42q66 88 100.5 198t34.5 231z" />
    <glyph glyph-name="uni24D0" unicode="&#x24d0;" horiz-adv-x="960" 
d="M15 300q0 127 62 232.5t168.5 166.5t234.5 61t234.5 -61t168.5 -166.5t62 -232.5t-62 -232.5t-168.5 -166.5t-234.5 -61t-234.5 61t-168.5 166.5t-62 232.5zM859 300q0 111 -48.5 200t-135 139.5t-195.5 50.5t-195.5 -50.5t-135 -139.5t-48.5 -200t48.5 -200t135 -139.5
t195.5 -50.5t195.5 50.5t135 139.5t48.5 200zM309 236q0 75 73 109q71 34 185 35q-2 35 -28 54q-27 20 -75 20q-55 0 -117 -36l-23 62q30 18 73.5 31t81.5 13q83 0 127.5 -41t44.5 -116v-243h-84v27q-13 -13 -40 -23q-30 -12 -72 -12q-59 0 -102.5 29.5t-43.5 90.5zM394 241
q0 -28 18.5 -42t51.5 -14q39 0 66 11q23 9 37 22v102q-173 -1 -173 -79z" />
    <glyph glyph-name="uni24D1" unicode="&#x24d1;" horiz-adv-x="960" 
d="M15 300q0 127 62 232.5t168.5 166.5t234.5 61t234.5 -61t168.5 -166.5t62 -232.5t-62 -232.5t-168.5 -166.5t-234.5 -61t-234.5 61t-168.5 166.5t-62 232.5zM859 300q0 111 -48.5 200t-135 139.5t-195.5 50.5t-195.5 -50.5t-135 -139.5t-48.5 -200t48.5 -200t135 -139.5
t195.5 -50.5t195.5 50.5t135 139.5t48.5 200zM398 614v-219q15 17 44 31q36 18 76 18q52 0 95 -25.5t68.5 -72t25.5 -105.5q0 -60 -26.5 -106.5t-72.5 -72.5t-101 -26q-34 0 -67 11q-26 9 -42 19v-22h-85v570h85zM505 105q51 0 84 38.5t33 98.5t-31.5 96.5t-82.5 36.5
q-37 0 -70 -21q-25 -17 -40 -35v-173q45 -41 107 -41z" />
    <glyph glyph-name="uni24D2" unicode="&#x24d2;" horiz-adv-x="960" 
d="M509 116q-58 0 -104.5 25.5t-72.5 71.5t-26 106t27 107t74 72.5t105 25.5q40 0 76 -13t61 -35l-43 -54q-39 33 -89 33q-56 0 -91.5 -38.5t-35.5 -98.5t33 -95.5t86 -35.5q56 0 98 40l47 -54q-22 -27 -62.5 -42t-82.5 -15zM15 300q0 127 62 232.5t168.5 166.5t234.5 61
t234.5 -61t168.5 -166.5t62 -232.5t-62 -232.5t-168.5 -166.5t-234.5 -61t-234.5 61t-168.5 166.5t-62 232.5zM859 300q0 111 -48.5 200t-135 139.5t-195.5 50.5t-195.5 -50.5t-135 -139.5t-48.5 -200t48.5 -200t135 -139.5t195.5 -50.5t195.5 50.5t135 139.5t48.5 200z" />
    <glyph glyph-name="uni24D3" unicode="&#x24d3;" horiz-adv-x="960" 
d="M15 300q0 127 62 232.5t168.5 166.5t234.5 61t234.5 -61t168.5 -166.5t62 -232.5t-62 -232.5t-168.5 -166.5t-234.5 -61t-234.5 61t-168.5 166.5t-62 232.5zM859 300q0 111 -48.5 200t-135 139.5t-195.5 50.5t-195.5 -50.5t-135 -139.5t-48.5 -200t48.5 -200t135 -139.5
t195.5 -50.5t195.5 50.5t135 139.5t48.5 200zM657 44h-85v32q-15 -15 -42 -26q-34 -14 -80 -14q-51 0 -94 24t-68 69.5t-25 106.5t26.5 108.5t72 73.5t101.5 26q35 0 67 -10q26 -7 42 -17v197h85v-570zM468 375q-53 0 -86.5 -39t-33.5 -102q0 -62 31 -95.5t83 -33.5
q40 0 71 17q25 13 39 30v185q-42 38 -104 38z" />
    <glyph glyph-name="uni24D4" unicode="&#x24d4;" horiz-adv-x="960" 
d="M15 300q0 127 62 232.5t168.5 166.5t234.5 61t234.5 -61t168.5 -166.5t62 -232.5t-62 -232.5t-168.5 -166.5t-234.5 -61t-234.5 61t-168.5 166.5t-62 232.5zM859 300q0 111 -48.5 200t-135 139.5t-195.5 50.5t-195.5 -50.5t-135 -139.5t-48.5 -200t48.5 -200t135 -139.5
t195.5 -50.5t195.5 50.5t135 139.5t48.5 200zM497 116q-60 0 -107 25.5t-73.5 71.5t-26.5 106q0 61 26.5 107.5t73 72t105.5 25.5q83 0 129 -49t46 -123q0 -31 -9 -54h-286q5 -47 34 -76q34 -35 93 -35q35 0 63 9.5t44 22.5l43 -54q-20 -22 -63 -35.5t-92 -13.5zM588 364
q0 36 -24 64t-71 28q-53 0 -86 -39q-19 -22 -27 -53h208z" />
    <glyph glyph-name="uni24D5" unicode="&#x24d5;" horiz-adv-x="960" 
d="M15 300q0 127 62 232.5t168.5 166.5t234.5 61t234.5 -61t168.5 -166.5t62 -232.5t-62 -232.5t-168.5 -166.5t-234.5 -61t-234.5 61t-168.5 166.5t-62 232.5zM859 300q0 111 -48.5 200t-135 139.5t-195.5 50.5t-195.5 -50.5t-135 -139.5t-48.5 -200t48.5 -200t135 -139.5
t195.5 -50.5t195.5 50.5t135 139.5t48.5 200zM554 535q-25 0 -38.5 -22.5t-13.5 -64.5v-60h110v-69h-110v-323h-85v323h-77v69h77v39q0 92 36 134.5t97 42.5q44 0 70 -16l-27 -61q-19 8 -39 8z" />
    <glyph glyph-name="uni24D6" unicode="&#x24d6;" horiz-adv-x="960" 
d="M15 300q0 127 62 232.5t168.5 166.5t234.5 61t234.5 -61t168.5 -166.5t62 -232.5t-62 -232.5t-168.5 -166.5t-234.5 -61t-234.5 61t-168.5 166.5t-62 232.5zM859 300q0 111 -48.5 200t-135 139.5t-195.5 50.5t-195.5 -50.5t-135 -139.5t-48.5 -200t48.5 -200t135 -139.5
t195.5 -50.5t195.5 50.5t135 139.5t48.5 200zM485 91q112 0 112 44q0 18 -24.5 24t-87.5 6q-171 0 -171 80q0 40 28 66q-39 42 -39 107q0 74 50.5 120t131.5 46q33 0 60 -8h132v-69l-37 2q26 -39 26 -91q0 -73 -50 -116.5t-131 -43.5q-44 0 -79 12q-3 -1 -5 -5t-2 -10
q0 -12 18.5 -18t67.5 -6q101 0 149 -21.5t48 -70.5q0 -54 -54 -85.5t-143 -31.5q-77 0 -124 15t-75 41l46 56q19 -16 58.5 -29.5t94.5 -13.5zM485 322q43 0 70 26.5t27 69.5t-27 70t-70 27t-70 -27t-27 -70t27 -69.5t70 -26.5z" />
    <glyph glyph-name="uni24D7" unicode="&#x24d7;" horiz-adv-x="960" 
d="M15 300q0 127 62 232.5t168.5 166.5t234.5 61t234.5 -61t168.5 -166.5t62 -232.5t-62 -232.5t-168.5 -166.5t-234.5 -61t-234.5 61t-168.5 166.5t-62 232.5zM859 300q0 111 -48.5 200t-135 139.5t-195.5 50.5t-195.5 -50.5t-135 -139.5t-48.5 -200t48.5 -200t135 -139.5
t195.5 -50.5t195.5 50.5t135 139.5t48.5 200zM524 420q73 0 117 -40.5t44 -111.5v-248h-85v240q0 47 -25.5 68.5t-69.5 21.5q-33 0 -64 -19q-26 -16 -41 -37v-274h-85v600h85v-251q14 19 43 33q36 18 81 18z" />
    <glyph glyph-name="uni24D8" unicode="&#x24d8;" horiz-adv-x="960" 
d="M422 566q0 24 17 41t41 17t41 -17t17 -41t-17 -41t-41 -17t-41 17t-17 41zM522 408v-392h-84v392h84zM15 300q0 127 62 232.5t168.5 166.5t234.5 61t234.5 -61t168.5 -166.5t62 -232.5t-62 -232.5t-168.5 -166.5t-234.5 -61t-234.5 61t-168.5 166.5t-62 232.5zM859 300
q0 111 -48.5 200t-135 139.5t-195.5 50.5t-195.5 -50.5t-135 -139.5t-48.5 -200t48.5 -200t135 -139.5t195.5 -50.5t195.5 50.5t135 139.5t48.5 200z" />
    <glyph glyph-name="uni24D9" unicode="&#x24d9;" horiz-adv-x="960" 
d="M15 300q0 127 62 232.5t168.5 166.5t234.5 61t234.5 -61t168.5 -166.5t62 -232.5t-62 -232.5t-168.5 -166.5t-234.5 -61t-234.5 61t-168.5 166.5t-62 232.5zM859 300q0 111 -48.5 200t-135 139.5t-195.5 50.5t-195.5 -50.5t-135 -139.5t-48.5 -200t48.5 -200t135 -139.5
t195.5 -50.5t195.5 50.5t135 139.5t48.5 200zM502 580q0 24 17 41t41 17t41 -17t17 -41t-17 -41t-41 -17t-41 17t-17 41zM465 38q28 0 40.5 22t12.5 79v283h84v-248q0 -106 -33.5 -156t-109.5 -50q-47 0 -76 22t-41 52l66 41q22 -45 57 -45z" />
    <glyph glyph-name="uni24DA" unicode="&#x24da;" horiz-adv-x="960" 
d="M15 300q0 127 62 232.5t168.5 166.5t234.5 61t234.5 -61t168.5 -166.5t62 -232.5t-62 -232.5t-168.5 -166.5t-234.5 -61t-234.5 61t-168.5 166.5t-62 232.5zM859 300q0 111 -48.5 200t-135 139.5t-195.5 50.5t-195.5 -50.5t-135 -139.5t-48.5 -200t48.5 -200t135 -139.5
t195.5 -50.5t195.5 50.5t135 139.5t48.5 200zM603 424l54 -48l-148 -116l165 -202l-71 -42l-173 220v-212h-84v600h84v-344z" />
    <glyph glyph-name="uni24DB" unicode="&#x24db;" horiz-adv-x="960" 
d="M415 624h84v-496q0 -18 12 -29t34 -14l-23 -69q-43 1 -75 24t-32 73v511zM15 300q0 127 62 232.5t168.5 166.5t234.5 61t234.5 -61t168.5 -166.5t62 -232.5t-62 -232.5t-168.5 -166.5t-234.5 -61t-234.5 61t-168.5 166.5t-62 232.5zM859 300q0 111 -48.5 200t-135 139.5
t-195.5 50.5t-195.5 -50.5t-135 -139.5t-48.5 -200t48.5 -200t135 -139.5t195.5 -50.5t195.5 50.5t135 139.5t48.5 200z" />
    <glyph glyph-name="uni24DC" unicode="&#x24dc;" horiz-adv-x="960" 
d="M15 300q0 127 62 232.5t168.5 166.5t234.5 61t234.5 -61t168.5 -166.5t62 -232.5t-62 -232.5t-168.5 -166.5t-234.5 -61t-234.5 61t-168.5 166.5t-62 232.5zM859 300q0 111 -48.5 200t-135 139.5t-195.5 50.5t-195.5 -50.5t-135 -139.5t-48.5 -200t48.5 -200t135 -139.5
t195.5 -50.5t195.5 50.5t135 139.5t48.5 200zM388 520q65 0 106 -40q13 -12 21 -26q14 24 44 43q37 23 85 23q68 0 111 -40.5t43 -111.5v-248h-85v240q0 46 -24.5 68.5t-61.5 22.5q-32 0 -61 -20q-19 -13 -32 -29q2 -13 2 -27v-255h-84v248q0 42 -22 62.5t-58 20.5
q-34 0 -64 -20q-26 -16 -41 -38v-273h-85v392h85v-43q13 19 42 33q34 18 79 18z" />
    <glyph glyph-name="uni24DD" unicode="&#x24dd;" horiz-adv-x="960" 
d="M15 300q0 127 62 232.5t168.5 166.5t234.5 61t234.5 -61t168.5 -166.5t62 -232.5t-62 -232.5t-168.5 -166.5t-234.5 -61t-234.5 61t-168.5 166.5t-62 232.5zM859 300q0 111 -48.5 200t-135 139.5t-195.5 50.5t-195.5 -50.5t-135 -139.5t-48.5 -200t48.5 -200t135 -139.5
t195.5 -50.5t195.5 50.5t135 139.5t48.5 200zM504 520q73 0 117 -40.5t44 -111.5v-248h-85v240q0 47 -26 69t-69 22q-33 0 -64 -20q-26 -16 -41 -37v-274h-85v392h85v-43q14 19 43 33q36 18 81 18z" />
    <glyph glyph-name="uni24DE" unicode="&#x24de;" horiz-adv-x="960" 
d="M482 524q58 0 104 -25.5t72.5 -71.5t26.5 -106t-27 -107t-74.5 -72.5t-105.5 -25.5t-104 25.5t-72.5 71.5t-26.5 106t27 107t74.5 72.5t105.5 25.5zM478 185q53 0 87.5 38.5t34.5 98.5t-32.5 96.5t-85.5 36.5t-87.5 -38.5t-34.5 -98.5t32.5 -96.5t85.5 -36.5zM15 300
q0 127 62 232.5t168.5 166.5t234.5 61t234.5 -61t168.5 -166.5t62 -232.5t-62 -232.5t-168.5 -166.5t-234.5 -61t-234.5 61t-168.5 166.5t-62 232.5zM859 300q0 111 -48.5 200t-135 139.5t-195.5 50.5t-195.5 -50.5t-135 -139.5t-48.5 -200t48.5 -200t135 -139.5
t195.5 -50.5t195.5 50.5t135 139.5t48.5 200z" />
    <glyph glyph-name="uni24DF" unicode="&#x24df;" horiz-adv-x="960" 
d="M15 300q0 127 62 232.5t168.5 166.5t234.5 61t234.5 -61t168.5 -166.5t62 -232.5t-62 -232.5t-168.5 -166.5t-234.5 -61t-234.5 61t-168.5 166.5t-62 232.5zM859 300q0 111 -48.5 200t-135 139.5t-195.5 50.5t-195.5 -50.5t-135 -139.5t-48.5 -200t48.5 -200t135 -139.5
t195.5 -50.5t195.5 50.5t135 139.5t48.5 200zM398 572v-41q15 17 44 31q36 18 76 18q52 0 95 -25.5t68.5 -72t25.5 -105.5q0 -60 -26.5 -106.5t-72.5 -72.5t-101 -26q-34 0 -67 11q-26 9 -42 19v-184h-85v554h85zM505 241q51 0 84 38.5t33 98.5t-31.5 96.5t-82.5 36.5
q-37 0 -70 -21q-25 -17 -40 -35v-173q43 -41 107 -41z" />
    <glyph glyph-name="uni24E0" unicode="&#x24e0;" horiz-adv-x="960" 
d="M15 300q0 127 62 232.5t168.5 166.5t234.5 61t234.5 -61t168.5 -166.5t62 -232.5t-62 -232.5t-168.5 -166.5t-234.5 -61t-234.5 61t-168.5 166.5t-62 232.5zM859 300q0 111 -48.5 200t-135 139.5t-195.5 50.5t-195.5 -50.5t-135 -139.5t-48.5 -200t48.5 -200t135 -139.5
t195.5 -50.5t195.5 50.5t135 139.5t48.5 200zM657 18h-85v195q-15 -16 -42 -27q-33 -14 -81 -14q-51 0 -93.5 24t-67.5 69.5t-25 108.5q0 60 26.5 107t72.5 73t101 26q36 0 68 -10q25 -7 41 -18v20h85v-554zM468 511q-53 0 -86.5 -38t-33.5 -99q0 -65 31 -99t86 -34
q41 0 70 17q23 13 37 31v183q-43 39 -104 39z" />
    <glyph glyph-name="uni24E1" unicode="&#x24e1;" horiz-adv-x="960" 
d="M15 300q0 127 62 232.5t168.5 166.5t234.5 61t234.5 -61t168.5 -166.5t62 -232.5t-62 -232.5t-168.5 -166.5t-234.5 -61t-234.5 61t-168.5 166.5t-62 232.5zM859 300q0 111 -48.5 200t-135 139.5t-195.5 50.5t-195.5 -50.5t-135 -139.5t-48.5 -200t48.5 -200t135 -139.5
t195.5 -50.5t195.5 50.5t135 139.5t48.5 200zM630 520v-69q-122 0 -175 -67v-264h-85v392h85v-51q22 28 61 42q44 17 114 17z" />
    <glyph glyph-name="uni24E2" unicode="&#x24e2;" horiz-adv-x="960" 
d="M485 172q39 0 62 17t23 44q0 25 -19.5 38t-70.5 19q-72 8 -112 34t-40 71q0 54 46.5 86.5t112.5 32.5q50 0 87 -16t58 -43l-59 -40q-35 33 -86 33q-35 0 -56.5 -12.5t-21.5 -33.5q0 -18 17.5 -28t68.5 -16q78 -8 117.5 -35.5t39.5 -81.5q0 -59 -48 -97t-117 -38
q-62 0 -111.5 25t-67.5 66l70 38q14 -25 41 -44t66 -19zM15 300q0 127 62 232.5t168.5 166.5t234.5 61t234.5 -61t168.5 -166.5t62 -232.5t-62 -232.5t-168.5 -166.5t-234.5 -61t-234.5 61t-168.5 166.5t-62 232.5zM859 300q0 111 -48.5 200t-135 139.5t-195.5 50.5
t-195.5 -50.5t-135 -139.5t-48.5 -200t48.5 -200t135 -139.5t195.5 -50.5t195.5 50.5t135 139.5t48.5 200z" />
    <glyph glyph-name="uni24E3" unicode="&#x24e3;" horiz-adv-x="960" 
d="M15 300q0 127 62 232.5t168.5 166.5t234.5 61t234.5 -61t168.5 -166.5t62 -232.5t-62 -232.5t-168.5 -166.5t-234.5 -61t-234.5 61t-168.5 166.5t-62 232.5zM859 300q0 111 -48.5 200t-135 139.5t-195.5 50.5t-195.5 -50.5t-135 -139.5t-48.5 -200t48.5 -200t135 -139.5
t195.5 -50.5t195.5 50.5t135 139.5t48.5 200zM322 385v70h84v130h85v-130h125v-70h-125v-220q0 -19 12.5 -30t35.5 -11q33 0 60 24l39 -49q-14 -19 -41 -31.5t-62 -12.5q-57 0 -93 26t-36 78v226h-84z" />
    <glyph glyph-name="uni24E4" unicode="&#x24e4;" horiz-adv-x="960" 
d="M15 300q0 127 62 232.5t168.5 166.5t234.5 61t234.5 -61t168.5 -166.5t62 -232.5t-62 -232.5t-168.5 -166.5t-234.5 -61t-234.5 61t-168.5 166.5t-62 232.5zM859 300q0 111 -48.5 200t-135 139.5t-195.5 50.5t-195.5 -50.5t-135 -139.5t-48.5 -200t48.5 -200t135 -139.5
t195.5 -50.5t195.5 50.5t135 139.5t48.5 200zM578 118v43q-13 -19 -43 -34q-34 -17 -79 -17q-73 0 -115.5 40.5t-42.5 111.5v248h84v-240q0 -90 93 -90q33 0 62 19q26 16 41 38v273h84v-392h-84z" />
    <glyph glyph-name="uni24E5" unicode="&#x24e5;" horiz-adv-x="960" 
d="M15 300q0 127 62 232.5t168.5 166.5t234.5 61t234.5 -61t168.5 -166.5t62 -232.5t-62 -232.5t-168.5 -166.5t-234.5 -61t-234.5 61t-168.5 166.5t-62 232.5zM859 300q0 111 -48.5 200t-135 139.5t-195.5 50.5t-195.5 -50.5t-135 -139.5t-48.5 -200t48.5 -200t135 -139.5
t195.5 -50.5t195.5 50.5t135 139.5t48.5 200zM288 506h90l105 -310l107 310h82l-142 -392h-100z" />
    <glyph glyph-name="uni24E6" unicode="&#x24e6;" horiz-adv-x="960" 
d="M15 300q0 127 62 232.5t168.5 166.5t234.5 61t234.5 -61t168.5 -166.5t62 -232.5t-62 -232.5t-168.5 -166.5t-234.5 -61t-234.5 61t-168.5 166.5t-62 232.5zM859 300q0 111 -48.5 200t-135 139.5t-195.5 50.5t-195.5 -50.5t-135 -139.5t-48.5 -200t48.5 -200t135 -139.5
t195.5 -50.5t195.5 50.5t135 139.5t48.5 200zM255 496l92 -319l92 319h88l92 -319l93 319h81l-127 -392h-100l-86 272l-86 -272h-100l-127 392h88z" />
    <glyph glyph-name="uni24E7" unicode="&#x24e7;" horiz-adv-x="960" 
d="M15 300q0 127 62 232.5t168.5 166.5t234.5 61t234.5 -61t168.5 -166.5t62 -232.5t-62 -232.5t-168.5 -166.5t-234.5 -61t-234.5 61t-168.5 166.5t-62 232.5zM859 300q0 111 -48.5 200t-135 139.5t-195.5 50.5t-195.5 -50.5t-135 -139.5t-48.5 -200t48.5 -200t135 -139.5
t195.5 -50.5t195.5 50.5t135 139.5t48.5 200zM295 114l140 200l-130 192h94l83 -124l87 124h86l-130 -186l140 -206h-94l-94 138l-96 -138h-86z" />
    <glyph glyph-name="uni24E8" unicode="&#x24e8;" horiz-adv-x="960" 
d="M15 300q0 127 62 232.5t168.5 166.5t234.5 61t234.5 -61t168.5 -166.5t62 -232.5t-62 -232.5t-168.5 -166.5t-234.5 -61t-234.5 61t-168.5 166.5t-62 232.5zM859 300q0 111 -48.5 200t-135 139.5t-195.5 50.5t-195.5 -50.5t-135 -139.5t-48.5 -200t48.5 -200t135 -139.5
t195.5 -50.5t195.5 50.5t135 139.5t48.5 200zM692 540l-117 -316q-43 -114 -93.5 -170.5t-126.5 -67.5l-17 69q49 7 87 41q22 19 38 46l-155 398h93l101 -302l106 302h84z" />
    <glyph glyph-name="uni24E9" unicode="&#x24e9;" horiz-adv-x="960" 
d="M328 158l195 269h-188v69h290v-54l-196 -269h203v-69h-304v54zM15 300q0 127 62 232.5t168.5 166.5t234.5 61t234.5 -61t168.5 -166.5t62 -232.5t-62 -232.5t-168.5 -166.5t-234.5 -61t-234.5 61t-168.5 166.5t-62 232.5zM859 300q0 111 -48.5 200t-135 139.5
t-195.5 50.5t-195.5 -50.5t-135 -139.5t-48.5 -200t48.5 -200t135 -139.5t195.5 -50.5t195.5 50.5t135 139.5t48.5 200z" />
    <glyph glyph-name="uni2500" unicode="&#x2500;" horiz-adv-x="960" 
d="M0 274v50h960v-50h-960z" />
    <glyph glyph-name="uni2501" unicode="&#x2501;" horiz-adv-x="960" 
d="M960 345v-90h-960v90h960z" />
    <glyph glyph-name="uni2502" unicode="&#x2502;" horiz-adv-x="960" 
d="M505 300h-50v500h50v-500zM455 -201v500h50v-500h-50z" />
    <glyph glyph-name="uni2503" unicode="&#x2503;" horiz-adv-x="960" 
d="M525 -200h-90v1000h90v-1000z" />
    <glyph glyph-name="uni250C" unicode="&#x250c;" horiz-adv-x="960" 
d="M455 -201v526h505v-50h-455v-476h-50z" />
    <glyph glyph-name="uni250D" unicode="&#x250d;" horiz-adv-x="960" 
d="M960 345v-90h-455v-456h-50v546h505z" />
    <glyph glyph-name="uni250E" unicode="&#x250e;" horiz-adv-x="960" 
d="M525 -200h-90v525h525v-50h-435v-475z" />
    <glyph glyph-name="uni250F" unicode="&#x250f;" horiz-adv-x="960" 
d="M525 -200h-90v545h525v-90h-435v-455z" />
    <glyph glyph-name="uni2510" unicode="&#x2510;" horiz-adv-x="960" 
d="M0 325h505v-526h-50v476h-455v50z" />
    <glyph glyph-name="uni2511" unicode="&#x2511;" horiz-adv-x="960" 
d="M455 -201v456h-455v90h505v-546h-50z" />
    <glyph glyph-name="uni2512" unicode="&#x2512;" horiz-adv-x="960" 
d="M525 325v-525h-90v475h-435v50h525z" />
    <glyph glyph-name="uni2513" unicode="&#x2513;" horiz-adv-x="960" 
d="M525 345v-545h-90v455h-435v90h525z" />
    <glyph glyph-name="uni2514" unicode="&#x2514;" horiz-adv-x="960" 
d="M455 800h50v-476h455v-50h-505v526z" />
    <glyph glyph-name="uni2515" unicode="&#x2515;" horiz-adv-x="960" 
d="M435 345h20v455h50v-455h455v-90h-525v90z" />
    <glyph glyph-name="uni2516" unicode="&#x2516;" horiz-adv-x="960" 
d="M525 800v-475h435v-50h-505v24h-20v501h90z" />
    <glyph glyph-name="uni2517" unicode="&#x2517;" horiz-adv-x="960" 
d="M435 800h90v-455h435v-90h-525v545z" />
    <glyph glyph-name="uni2518" unicode="&#x2518;" horiz-adv-x="960" 
d="M505 800v-526h-505v50h455v476h50z" />
    <glyph glyph-name="uni2519" unicode="&#x2519;" horiz-adv-x="960" 
d="M505 255h-505v90h455v455h50v-545z" />
    <glyph glyph-name="uni251A" unicode="&#x251a;" horiz-adv-x="960" 
d="M0 274v50h435v476h90v-501h-20v-25h-505z" />
    <glyph glyph-name="uni251B" unicode="&#x251b;" horiz-adv-x="960" 
d="M0 255v90h435v455h90v-545h-525z" />
    <glyph glyph-name="uni251C" unicode="&#x251c;" horiz-adv-x="960" 
d="M960 325v-50h-455v-476h-50v1001h50v-475h455z" />
    <glyph glyph-name="uni251D" unicode="&#x251d;" horiz-adv-x="960" 
d="M455 -201v1001h50v-455h455v-90h-455v-456h-50z" />
    <glyph glyph-name="uni251E" unicode="&#x251e;" horiz-adv-x="960" 
d="M455 -201v500h-20v501h90v-475h435v-50h-455v-476h-50z" />
    <glyph glyph-name="uni251F" unicode="&#x251f;" horiz-adv-x="960" 
d="M525 -200h-90v525h20v475h50v-475h455v-50h-435v-475z" />
    <glyph glyph-name="uni2520" unicode="&#x2520;" horiz-adv-x="960" 
d="M525 800v-475h435v-50h-435v-475h-90v1000h90z" />
    <glyph glyph-name="uni2521" unicode="&#x2521;" horiz-adv-x="960" 
d="M525 -200h-90v525h20v475h50v-475h455v-50h-435v-475z" />
    <glyph glyph-name="uni2522" unicode="&#x2522;" horiz-adv-x="960" 
d="M435 345h20v455h50v-455h455v-90h-435v-455h-90v545z" />
    <glyph glyph-name="uni2523" unicode="&#x2523;" horiz-adv-x="960" 
d="M525 800v-455h435v-90h-435v-455h-90v1000h90z" />
    <glyph glyph-name="uni2524" unicode="&#x2524;" horiz-adv-x="960" 
d="M505 800v-1001h-50v475h-455v50h455v476h50z" />
    <glyph glyph-name="uni2525" unicode="&#x2525;" horiz-adv-x="960" 
d="M455 -201v456h-455v90h455v455h50v-1001h-50z" />
    <glyph glyph-name="uni2526" unicode="&#x2526;" horiz-adv-x="960" 
d="M0 274v50h435v476h90v-501h-20v-500h-50v475h-455z" />
    <glyph glyph-name="uni2527" unicode="&#x2527;" horiz-adv-x="960" 
d="M455 800h50v-475h20v-525h-90v475h-435v50h455v475z" />
    <glyph glyph-name="uni2528" unicode="&#x2528;" horiz-adv-x="960" 
d="M525 800v-1000h-90v474h-435v50h435v476h90z" />
    <glyph glyph-name="uni2529" unicode="&#x2529;" horiz-adv-x="960" 
d="M525 300h-20v-500h-50v456h-455v90h435v454h90v-500z" />
    <glyph glyph-name="uni252A" unicode="&#x252a;" horiz-adv-x="960" 
d="M525 345v-545h-90v455h-435v90h455v455h50v-455h20z" />
    <glyph glyph-name="uni252B" unicode="&#x252b;" horiz-adv-x="960" 
d="M525 800v-1000h-90v455h-435v90h435v455h90z" />
    <glyph glyph-name="uni252C" unicode="&#x252c;" horiz-adv-x="960" 
d="M960 325v-50h-455v-476h-50v476h-455v50h960z" />
    <glyph glyph-name="uni252D" unicode="&#x252d;" horiz-adv-x="960" 
d="M960 325v-50h-455v-476h-50v456h-455v90h505v-20h455z" />
    <glyph glyph-name="uni252E" unicode="&#x252e;" horiz-adv-x="960" 
d="M960 345v-90h-455v-456h-50v475h-455v50h455v21h505z" />
    <glyph glyph-name="uni252F" unicode="&#x252f;" horiz-adv-x="960" 
d="M455 -201v456h-455v90h960v-90h-455v-456h-50z" />
    <glyph glyph-name="uni2530" unicode="&#x2530;" horiz-adv-x="960" 
d="M960 325v-50h-435v-475h-90v475h-435v50h960z" />
    <glyph glyph-name="uni2531" unicode="&#x2531;" horiz-adv-x="960" 
d="M525 345v-21h435v-50h-435v-474h-90v455h-435v90h525z" />
    <glyph glyph-name="uni2532" unicode="&#x2532;" horiz-adv-x="960" 
d="M525 -200h-90v475h-435v50h435v20h525v-90h-435v-455z" />
    <glyph glyph-name="uni2533" unicode="&#x2533;" horiz-adv-x="960" 
d="M960 345v-90h-435v-455h-90v455h-435v90h960z" />
    <glyph glyph-name="uni2534" unicode="&#x2534;" horiz-adv-x="960" 
d="M505 800v-476h455v-50h-960v50h455v476h50z" />
    <glyph glyph-name="uni2535" unicode="&#x2535;" horiz-adv-x="960" 
d="M0 254v90h455v456h50v-476h455v-50h-455v-20h-505z" />
    <glyph glyph-name="uni2536" unicode="&#x2536;" horiz-adv-x="960" 
d="M505 800v-455h455v-90h-505v19h-455v50h455v476h50z" />
    <glyph glyph-name="uni2537" unicode="&#x2537;" horiz-adv-x="960" 
d="M0 345h455v455h50v-455h455v-90h-960v90z" />
    <glyph glyph-name="uni2538" unicode="&#x2538;" horiz-adv-x="960" 
d="M0 274v50h435v476h90v-475h435v-50h-455v-1h-505z" />
    <glyph glyph-name="uni2539" unicode="&#x2539;" horiz-adv-x="960" 
d="M435 800h90v-476h435v-50h-455v-19h-505v90h435v455z" />
    <glyph glyph-name="uni253A" unicode="&#x253a;" horiz-adv-x="960" 
d="M435 800h90v-455h435v-90h-525v20h-435v50h435v475z" />
    <glyph glyph-name="uni253B" unicode="&#x253b;" horiz-adv-x="960" 
d="M960 275h-960v50h455v475h50v-475h455v-50z" />
    <glyph glyph-name="uni253C" unicode="&#x253c;" horiz-adv-x="960" 
d="M455 -201v475h-20v1h-435v50h455v475h50v-475h20v-1h435v-50h-455v-475h-50z" />
    <glyph glyph-name="uni253D" unicode="&#x253d;" horiz-adv-x="960" 
d="M455 -201v455h-455v90h455v456h50v-476h455v-50h-455v-475h-50z" />
    <glyph glyph-name="uni253E" unicode="&#x253e;" horiz-adv-x="960" 
d="M505 800v-455h455v-90h-455v-456h-50v475h-455v50h455v476h50z" />
    <glyph glyph-name="uni253F" unicode="&#x253f;" horiz-adv-x="960" 
d="M455 -201v456h-455v90h455v455h50v-455h455v-90h-455v-456h-50z" />
    <glyph glyph-name="uni2540" unicode="&#x2540;" horiz-adv-x="960" 
d="M0 274v50h435v476h90v-475h435v-50h-455v-476h-50v475h-455z" />
    <glyph glyph-name="uni2541" unicode="&#x2541;" horiz-adv-x="960" 
d="M525 -200h-90v475h-435v50h455v475h50v-475h455v-50h-435v-475z" />
    <glyph glyph-name="uni2542" unicode="&#x2542;" horiz-adv-x="960" 
d="M525 800v-475h435v-50h-435v-475h-90v474h-435v50h435v476h90z" />
    <glyph glyph-name="uni2543" unicode="&#x2543;" horiz-adv-x="960" 
d="M525 800v-475h435v-50h-435v-20h-20v-456h-50v456h-455v90h435v455h90z" />
    <glyph glyph-name="uni2544" unicode="&#x2544;" horiz-adv-x="960" 
d="M455 -201v456h-20v20h-435v50h435v475h90v-455h435v-90h-455v-456h-50z" />
    <glyph glyph-name="uni2545" unicode="&#x2545;" horiz-adv-x="960" 
d="M525 345v-20h435v-50h-435v-475h-90v455h-435v90h455v455h50v-455h20z" />
    <glyph glyph-name="uni2546" unicode="&#x2546;" horiz-adv-x="960" 
d="M505 800v-455h455v-90h-435v-455h-90v474h-435v50h435v21h20v455h50z" />
    <glyph glyph-name="uni2547" unicode="&#x2547;" horiz-adv-x="960" 
d="M960 255h-455v-456h-50v456h-455v90h435v455h90v-455h435v-90z" />
    <glyph glyph-name="uni2548" unicode="&#x2548;" horiz-adv-x="960" 
d="M0 345h455v455h50v-455h455v-90h-435v-455h-90v455h-435v90z" />
    <glyph glyph-name="uni2549" unicode="&#x2549;" horiz-adv-x="960" 
d="M435 800h90v-476h435v-50h-435v-474h-90v455h-435v90h435v455z" />
    <glyph glyph-name="uni254A" unicode="&#x254a;" horiz-adv-x="960" 
d="M435 800h90v-455h435v-90h-435v-455h-90v475h-435v50h435v475z" />
    <glyph glyph-name="uni254B" unicode="&#x254b;" horiz-adv-x="960" 
d="M525 800v-455h435v-90h-435v-455h-90v455h-435v90h435v455h90z" />
    <glyph glyph-name="shade" unicode="&#x2592;" horiz-adv-x="960" 
d="M79 -81h802v802h-802v-802zM188 -12q0 -11 -8 -19.5t-19 -8.5t-19 8.5t-8 19.5t8 19t19 8t19 -8t8 -19zM279 -12q0 -11 -8 -19.5t-19 -8.5t-19 8.5t-8 19.5t8 19t19 8t19 -8t8 -19zM188 82q0 -11 -8 -19t-19 -8t-19 8t-8 19t8 19.5t19 8.5t19 -8.5t8 -19.5zM370 -12
q0 -11 -8 -19.5t-19 -8.5t-19 8.5t-8 19.5t8 19t19 8t19 -8t8 -19zM279 82q0 -11 -8 -19t-19 -8t-19 8t-8 19t8 19.5t19 8.5t19 -8.5t8 -19.5zM188 177q0 -11 -8 -19t-19 -8t-19 8t-8 19t8 19t19 8t19 -8t8 -19zM462 -12q0 -11 -8.5 -19.5t-19.5 -8.5t-19 8.5t-8 19.5t8 19
t19 8t19.5 -8t8.5 -19zM370 82q0 -11 -8 -19t-19 -8t-19 8t-8 19t8 19.5t19 8.5t19 -8.5t8 -19.5zM279 177q0 -11 -8 -19t-19 -8t-19 8t-8 19t8 19t19 8t19 -8t8 -19zM188 272q0 -11 -8 -19t-19 -8t-19 8t-8 19t8 19t19 8t19 -8t8 -19zM553 -12q0 -11 -8 -19.5t-19 -8.5
t-19.5 8.5t-8.5 19.5t8.5 19t19.5 8t19 -8t8 -19zM462 82q0 -11 -8.5 -19t-19.5 -8t-19 8t-8 19t8 19.5t19 8.5t19.5 -8.5t8.5 -19.5zM370 177q0 -11 -8 -19t-19 -8t-19 8t-8 19t8 19t19 8t19 -8t8 -19zM279 272q0 -11 -8 -19t-19 -8t-19 8t-8 19t8 19t19 8t19 -8t8 -19z
M188 367q0 -11 -8 -19t-19 -8t-19 8t-8 19t8 19t19 8t19 -8t8 -19zM644 -12q0 -11 -8 -19.5t-19 -8.5t-19 8.5t-8 19.5t8 19t19 8t19 -8t8 -19zM553 82q0 -11 -8 -19t-19 -8t-19.5 8t-8.5 19t8.5 19.5t19.5 8.5t19 -8.5t8 -19.5zM462 177q0 -11 -8.5 -19t-19.5 -8t-19 8
t-8 19t8 19t19 8t19.5 -8t8.5 -19zM370 272q0 -11 -8 -19t-19 -8t-19 8t-8 19t8 19t19 8t19 -8t8 -19zM279 367q0 -11 -8 -19t-19 -8t-19 8t-8 19t8 19t19 8t19 -8t8 -19zM188 462q0 -11 -8 -19t-19 -8t-19 8t-8 19t8 19t19 8t19 -8t8 -19zM735 -12q0 -11 -8 -19.5t-19 -8.5
t-19 8.5t-8 19.5t8 19t19 8t19 -8t8 -19zM644 82q0 -11 -8 -19t-19 -8t-19 8t-8 19t8 19.5t19 8.5t19 -8.5t8 -19.5zM553 177q0 -11 -8 -19t-19 -8t-19.5 8t-8.5 19t8.5 19t19.5 8t19 -8t8 -19zM462 272q0 -11 -8.5 -19t-19.5 -8t-19 8t-8 19t8 19t19 8t19.5 -8t8.5 -19z
M370 367q0 -11 -8 -19t-19 -8t-19 8t-8 19t8 19t19 8t19 -8t8 -19zM279 462q0 -11 -8 -19t-19 -8t-19 8t-8 19t8 19t19 8t19 -8t8 -19zM188 557q0 -11 -8 -19t-19 -8t-19 8t-8 19t8 19t19 8t19 -8t8 -19zM826 -12q0 -11 -8 -19.5t-19 -8.5t-19 8.5t-8 19.5t8 19t19 8t19 -8
t8 -19zM735 82q0 -11 -8 -19t-19 -8t-19 8t-8 19t8 19.5t19 8.5t19 -8.5t8 -19.5zM644 177q0 -11 -8 -19t-19 -8t-19 8t-8 19t8 19t19 8t19 -8t8 -19zM553 272q0 -11 -8 -19t-19 -8t-19.5 8t-8.5 19t8.5 19t19.5 8t19 -8t8 -19zM462 367q0 -11 -8.5 -19t-19.5 -8t-19 8
t-8 19t8 19t19 8t19.5 -8t8.5 -19zM370 462q0 -11 -8 -19t-19 -8t-19 8t-8 19t8 19t19 8t19 -8t8 -19zM279 557q0 -11 -8 -19t-19 -8t-19 8t-8 19t8 19t19 8t19 -8t8 -19zM188 652q0 -11 -8 -19t-19 -8t-19 8t-8 19t8 19t19 8t19 -8t8 -19zM826 82q0 -11 -8 -19t-19 -8
t-19 8t-8 19t8 19.5t19 8.5t19 -8.5t8 -19.5zM735 177q0 -11 -8 -19t-19 -8t-19 8t-8 19t8 19t19 8t19 -8t8 -19zM644 272q0 -11 -8 -19t-19 -8t-19 8t-8 19t8 19t19 8t19 -8t8 -19zM553 367q0 -11 -8 -19t-19 -8t-19.5 8t-8.5 19t8.5 19t19.5 8t19 -8t8 -19zM462 462
q0 -11 -8.5 -19t-19.5 -8t-19 8t-8 19t8 19t19 8t19.5 -8t8.5 -19zM370 557q0 -11 -8 -19t-19 -8t-19 8t-8 19t8 19t19 8t19 -8t8 -19zM279 652q0 -11 -8 -19t-19 -8t-19 8t-8 19t8 19t19 8t19 -8t8 -19zM826 177q0 -11 -8 -19t-19 -8t-19 8t-8 19t8 19t19 8t19 -8t8 -19z
M735 272q0 -11 -8 -19t-19 -8t-19 8t-8 19t8 19t19 8t19 -8t8 -19zM644 367q0 -11 -8 -19t-19 -8t-19 8t-8 19t8 19t19 8t19 -8t8 -19zM553 462q0 -11 -8 -19t-19 -8t-19.5 8t-8.5 19t8.5 19t19.5 8t19 -8t8 -19zM462 557q0 -11 -8.5 -19t-19.5 -8t-19 8t-8 19t8 19t19 8
t19.5 -8t8.5 -19zM370 652q0 -11 -8 -19t-19 -8t-19 8t-8 19t8 19t19 8t19 -8t8 -19zM826 272q0 -11 -8 -19t-19 -8t-19 8t-8 19t8 19t19 8t19 -8t8 -19zM735 367q0 -11 -8 -19t-19 -8t-19 8t-8 19t8 19t19 8t19 -8t8 -19zM644 462q0 -11 -8 -19t-19 -8t-19 8t-8 19t8 19
t19 8t19 -8t8 -19zM553 557q0 -11 -8 -19t-19 -8t-19.5 8t-8.5 19t8.5 19t19.5 8t19 -8t8 -19zM462 652q0 -11 -8.5 -19t-19.5 -8t-19 8t-8 19t8 19t19 8t19.5 -8t8.5 -19zM826 367q0 -11 -8 -19t-19 -8t-19 8t-8 19t8 19t19 8t19 -8t8 -19zM735 462q0 -11 -8 -19t-19 -8
t-19 8t-8 19t8 19t19 8t19 -8t8 -19zM644 557q0 -11 -8 -19t-19 -8t-19 8t-8 19t8 19t19 8t19 -8t8 -19zM553 652q0 -11 -8 -19t-19 -8t-19.5 8t-8.5 19t8.5 19t19.5 8t19 -8t8 -19zM826 462q0 -11 -8 -19t-19 -8t-19 8t-8 19t8 19t19 8t19 -8t8 -19zM735 557q0 -11 -8 -19
t-19 -8t-19 8t-8 19t8 19t19 8t19 -8t8 -19zM644 652q0 -11 -8 -19t-19 -8t-19 8t-8 19t8 19t19 8t19 -8t8 -19zM826 557q0 -11 -8 -19t-19 -8t-19 8t-8 19t8 19t19 8t19 -8t8 -19zM735 652q0 -11 -8 -19t-19 -8t-19 8t-8 19t8 19t19 8t19 -8t8 -19zM826 652q0 -11 -8 -19
t-19 -8t-19 8t-8 19t8 19t19 8t19 -8t8 -19zM50 -110v860h860v-860h-860z" />
    <glyph glyph-name="filledbox" unicode="&#x25a0;" horiz-adv-x="960" 
d="M910 7q0 -48 -34 -82t-82 -34h-628q-48 0 -82 34t-34 82v628q0 48 34 82t82 34h628q48 0 82 -34t34 -82v-628v0z" />
    <glyph glyph-name="uni25A1" unicode="&#x25a1;" horiz-adv-x="960" 
d="M50 7v628q0 48 34 82t82 34h628q48 0 82 -34t34 -82v-628q0 -48 -34 -82t-82 -34h-628q-48 0 -82 34t-34 82zM800 37v568q0 24 -13.5 40t-32.5 16h-548q-19 0 -32.5 -16t-13.5 -40v-568q0 -24 13.5 -40t32.5 -16h548q19 0 32.5 16t13.5 40z" />
    <glyph glyph-name="uni25A3" unicode="&#x25a3;" horiz-adv-x="960" 
d="M130 -30h700v700h-700v-700zM50 -110v860h860v-860h-860zM261 539h438v-438h-438v438z" />
    <glyph glyph-name="uni25A4" unicode="&#x25a4;" horiz-adv-x="960" 
d="M52 748h856v-856h-856v856zM830 -30v52h-701v-52h701zM830 99v53h-701v-53h701zM830 229v52h-701v-52h701zM830 359v51h-701v-51h701zM830 488v52h-701v-52h701zM830 618v53h-701v-53h701z" />
    <glyph glyph-name="uni25A5" unicode="&#x25a5;" horiz-adv-x="960" 
d="M52 748h856v-856h-856v856zM182 -31v701h-53v-701h53zM312 -31v701h-52v-701h52zM441 -31v701h-51v-701h51zM571 -31v701h-52v-701h52zM701 -31v701h-53v-701h53zM830 -31v701h-52v-701h52z" />
    <glyph glyph-name="uni25A6" unicode="&#x25a6;" horiz-adv-x="960" 
d="M52 748h856v-856h-856v856zM182 -31v53h-53v-53h53zM182 99v53h-53v-53h53zM182 229v52h-53v-52h53zM182 359v51h-53v-51h53zM182 488v52h-53v-52h53zM182 618v52h-53v-52h53zM312 -31v53h-52v-53h52zM312 99v53h-52v-53h52zM312 229v52h-52v-52h52zM312 359v51h-52v-51
h52zM312 488v52h-52v-52h52zM312 618v52h-52v-52h52zM441 -31v53h-51v-53h51zM441 99v53h-51v-53h51zM441 229v52h-51v-52h51zM441 359v51h-51v-51h51zM441 488v52h-51v-52h51zM441 618v52h-51v-52h51zM571 -31v53h-52v-53h52zM571 99v53h-52v-53h52zM571 229v52h-52v-52h52
zM571 359v51h-52v-51h52zM571 488v52h-52v-52h52zM571 618v52h-52v-52h52zM701 -31v53h-53v-53h53zM701 99v53h-53v-53h53zM701 229v52h-53v-52h53zM701 359v51h-53v-51h53zM701 488v52h-53v-52h53zM701 618v52h-53v-52h53zM830 -31v53h-52v-53h52zM830 99v53h-52v-53h52z
M830 229v52h-52v-52h52zM830 359v51h-52v-51h52zM830 488v52h-52v-52h52zM830 618v52h-52v-52h52z" />
    <glyph glyph-name="uni25A7" unicode="&#x25a7;" horiz-adv-x="960" 
d="M52 -108v856h856v-856h-856zM130 625l654 -655h46v46l-655 654h-45v-45zM285 670l545 -545v91l-455 454h-90zM130 425l455 -455h90l-545 545v-90zM486 670l344 -344v92l-253 252h-91zM130 223l253 -253h91l-344 344v-91zM686 670l144 -144v92l-53 52h-91zM183 -30h91
l-144 144v-91z" />
    <glyph glyph-name="uni25A8" unicode="&#x25a8;" horiz-adv-x="960" 
d="M52 748h856v-856h-856v856zM830 670h-45l-655 -654v-46h46l654 655v45zM130 125l545 545h-90l-455 -454v-91zM375 -30l455 455v90l-545 -545h90zM130 326l344 344h-91l-253 -252v-92zM577 -30l253 253v91l-344 -344h91zM130 526l144 144h-92l-52 -52v-92zM777 -30l53 53
v91l-144 -144h91z" />
    <glyph glyph-name="uni25A9" unicode="&#x25a9;" horiz-adv-x="960" 
d="M908 748v-856h-856v856h856zM681 566l-46 -45l46 -46l45 46zM781 575l45 46l-45 45l-46 -45zM725 320l-45 45l-45 -45l45 -45zM736 219l45 -45l45 45l-45 46zM280 275l45 45l-45 45l-45 -45zM179 265l-45 -46l45 -45l46 45zM225 420l-46 46l-45 -45l46 -46zM380 375
l45 45l-45 45l-45 -45zM335 220l45 -45l45 45l-45 45zM480 274l46 46l-46 45l-46 -45zM580 375l45 45l-45 45l-45 -45zM535 220l45 -45l45 45l-45 45zM781 375l45 46l-45 45l-45 -46zM626 621l-45 45l-46 -45l46 -46zM480 565l-45 -45l45 -45l45 45zM425 621l-46 45l-45 -45
l46 -46zM279 566l-45 -45l45 -46l46 46zM225 621l-46 45l-45 -45l45 -46zM134 19l45 -45l46 45l-46 46zM279 74l46 45l-46 46l-45 -46zM334 19l45 -45l46 45l-45 45zM480 75l45 45l-45 45l-45 -45zM536 19l45 -45l45 45l-45 45zM681 74l45 45l-45 46l-46 -46zM735 19l46 -45
l45 45l-45 46z" />
    <glyph glyph-name="triagup" unicode="&#x25b2;" horiz-adv-x="960" 
d="M480 696q14 0 26.5 -7t19.5 -20l354 -613q7 -11 7 -26q0 -22 -15 -37.5t-38 -15.5h-708q-23 0 -38 16t-15 37q0 15 7 26l354 613q8 13 20.5 20t25.5 7z" />
    <glyph glyph-name="uni25B3" unicode="&#x25b3;" horiz-adv-x="960" 
d="M480 736q25 0 46.5 -12t34.5 -35l354 -613q12 -22 12 -46q0 -38 -26.5 -65.5t-66.5 -27.5h-708q-40 0 -66.5 28t-26.5 66q0 23 12 45l354 613q13 23 35 35t46 12zM113 30q0 -5 4 -9t9 -4h708q7 0 11 6.5t0 12.5l-354 613q-3 7 -11 7q-7 0 -11 -7l-354 -613q-2 -4 -2 -6z
" />
    <glyph glyph-name="uni25B6" unicode="&#x25b6;" horiz-adv-x="960" 
d="M859 337q0 -14 -7 -26.5t-20 -19.5l-613 -354q-11 -7 -26 -7q-22 0 -37.5 15t-15.5 38v708q0 23 16 38t37 15q15 0 26 -7l613 -354q13 -7 20 -19.5t7 -26.5z" />
    <glyph glyph-name="uni25B7" unicode="&#x25b7;" horiz-adv-x="960" 
d="M899 337q0 -25 -12 -46.5t-35 -34.5l-613 -354q-22 -12 -46 -12q-38 0 -65.5 26.5t-27.5 66.5v708q0 40 28 66.5t66 26.5q23 0 45 -12l613 -354q23 -13 35 -35t12 -46zM193 704q-5 0 -9 -4t-4 -9v-708q0 -7 6.5 -11t12.5 0l613 354q7 4 7 11q0 8 -7 11l-613 354
q-4 2 -6 2z" />
    <glyph glyph-name="triagdn" unicode="&#x25bc;" horiz-adv-x="960" 
d="M73 643q0 21 15 37t38 16h708q23 0 38 -15.5t15 -37.5q0 -15 -7 -26l-354 -613q-7 -13 -19.5 -20t-26.5 -7q-13 0 -25.5 7t-20.5 20l-354 613q-7 11 -7 26z" />
    <glyph glyph-name="uni25BD" unicode="&#x25bd;" horiz-adv-x="960" 
d="M33 642q0 38 26.5 66t66.5 28h708q40 0 66.5 -27.5t26.5 -65.5q0 -23 -12 -46l-354 -613q-13 -23 -34.5 -35t-46.5 -12q-24 0 -46 12t-35 35l-354 613q-12 23 -12 45zM480 17q8 0 11 7l354 613q2 4 2 6q0 5 -3.5 9t-9.5 4h-708q-7 0 -11 -6.5t0 -12.5l354 -613
q5 -7 11 -7z" />
    <glyph glyph-name="uni25C0" unicode="&#x25c0;" horiz-adv-x="960" 
d="M766 744q21 0 37 -15t16 -38v-708q0 -23 -15.5 -38t-37.5 -15q-15 0 -26 7l-613 354q-13 7 -20 19.5t-7 26.5t7 26.5t20 19.5l613 354q11 7 26 7z" />
    <glyph glyph-name="uni25C1" unicode="&#x25c1;" horiz-adv-x="960" 
d="M765 784q38 0 66 -26.5t28 -66.5v-708q0 -40 -27.5 -66.5t-65.5 -26.5q-23 0 -46 12l-613 354q-23 13 -35 34.5t-12 46.5q0 24 12 46t35 35l613 354q23 12 45 12zM140 337q0 -6 7 -11l613 -354q4 -2 6 -2q5 0 9 3.5t4 9.5v708q0 7 -6.5 11t-12.5 0l-613 -354
q-7 -3 -7 -11z" />
    <glyph glyph-name="uni25C6" unicode="&#x25c6;" horiz-adv-x="960" 
d="M480 -137l-457 457l457 457l457 -457z" />
    <glyph glyph-name="uni25C7" unicode="&#x25c7;" horiz-adv-x="960" 
d="M799 320l-319 319l-319 -319l319 -319zM19 320l461 461l461 -461l-461 -461z" />
    <glyph glyph-name="uni25C8" unicode="&#x25c8;" horiz-adv-x="960" 
d="M799 320l-319 319l-319 -319l319 -319zM19 320l461 461l461 -461l-461 -461zM650 320l-170 170l-170 -170l170 -170z" />
    <glyph glyph-name="uni25C9" unicode="&#x25c9;" horiz-adv-x="960" 
d="M43 319q0 117 58.5 215t159 155t219.5 57t219.5 -57t159 -155t58.5 -215t-58.5 -215t-159 -155t-219.5 -57t-219.5 57t-159 155t-58.5 215zM807 319q0 92 -44 169.5t-119 122.5t-164 45t-164 -45t-119 -122.5t-44 -169.5t44 -169.5t119 -122.5t164 -45t164 45t119 122.5
t44 169.5zM661 319q0 51 -24.5 94t-66 68t-90.5 25t-90.5 -25t-66 -68t-24.5 -94t24.5 -94t66 -68t90.5 -25t90.5 25t66 68t24.5 94z" />
    <glyph glyph-name="circle" unicode="&#x25cb;" horiz-adv-x="960" 
d="M43 319q0 117 58.5 215t159 155t219.5 57t219.5 -57t159 -155t58.5 -215t-58.5 -215t-159 -155t-219.5 -57t-219.5 57t-159 155t-58.5 215zM807 319q0 92 -44 169.5t-119 122.5t-164 45t-164 -45t-119 -122.5t-44 -169.5t44 -169.5t119 -122.5t164 -45t164 45t119 122.5
t44 169.5z" />
    <glyph glyph-name="uni25CE" unicode="&#x25ce;" horiz-adv-x="960" 
d="M43 319q0 117 58.5 215t159 155t219.5 57t219.5 -57t159 -155t58.5 -215t-58.5 -215t-159 -155t-219.5 -57t-219.5 57t-159 155t-58.5 215zM807 319q0 92 -44 169.5t-119 122.5t-164 45t-164 -45t-119 -122.5t-44 -169.5t44 -169.5t119 -122.5t164 -45t164 45t119 122.5
t44 169.5zM606 319q0 39 -17 71.5t-46 51.5t-63 19t-63 -19t-46 -51.5t-17 -71.5t17 -71.5t46 -51.5t63 -19t63 19t46 51.5t17 71.5zM244 319q0 63 32 116.5t86 84.5t118 31t118 -31t86 -84.5t32 -116.5t-32 -116.5t-86 -84.5t-118 -31t-118 31t-86 84.5t-32 116.5z" />
    <glyph glyph-name="uni25CF" unicode="&#x25cf;" horiz-adv-x="960" 
d="M36 319q0 120 60 222t162 162t222 60t222 -60t162 -162t60 -222t-60 -222t-162 -162t-222 -60t-222 60t-162 162t-60 222z" />
    <glyph glyph-name="uni25D0" unicode="&#x25d0;" horiz-adv-x="960" 
d="M43 319q0 117 58.5 215t159 155t219.5 57t219.5 -57t159 -155t58.5 -215t-58.5 -215t-159 -155t-219.5 -57t-219.5 57t-159 155t-58.5 215zM807 319q0 92 -44 169.5t-119 122.5t-164 45v-674q89 0 164 45t119 122.5t44 169.5z" />
    <glyph glyph-name="uni25D1" unicode="&#x25d1;" horiz-adv-x="960" 
d="M43 319q0 117 58.5 215t159 155t219.5 57t219.5 -57t159 -155t58.5 -215t-58.5 -215t-159 -155t-219.5 -57t-219.5 57t-159 155t-58.5 215zM153 319q0 -92 44 -169.5t119 -122.5t164 -45v674q-89 0 -164 -45t-119 -122.5t-44 -169.5z" />
    <glyph glyph-name="uni2605" unicode="&#x2605;" horiz-adv-x="960" 
d="M480 731l131 -266l293 -43l-212 -206l50 -292l-262 138l-262 -138l50 292l-212 206l293 43z" />
    <glyph glyph-name="uni2606" unicode="&#x2606;" horiz-adv-x="960" 
d="M379 433l-235 -35l170 -165l-39 -229l205 109l205 -109l-39 229l170 165l-235 35l-101 206zM617 473l297 -45l-216 -209l53 -301l-271 143l-271 -143l53 301l-216 209l297 45l137 276z" />
    <glyph glyph-name="uni260E" unicode="&#x260e;" horiz-adv-x="960" 
d="M715 84q0 19 -12 30l-91 88q-9 9 -20 9q-18 0 -40 -22l-34 -33q-59 30 -106 78.5t-74 104.5l39 38q15 15 15 31q0 14 -12 27l-84 85q-11 11 -26 11q-17 0 -28 -11q-54 -58 -54 -122q0 -36 16 -75q24 -67 99 -146t163.5 -133.5t149.5 -54.5q25 0 48 15t37 37t14 43z
M16 290q0 125 62.5 231t169 168t232.5 62t232.5 -62t169 -168t62.5 -231t-62.5 -231t-169 -168t-232.5 -62t-232.5 62t-169 168t-62.5 231zM429 583v-30q95 0 165 -37t107 -107t37 -165h30q0 105 -41.5 181.5t-118 117t-179.5 40.5zM429 506v-30q109 0 170.5 -62.5
t61.5 -169.5h30q0 80 -31.5 139t-91 91t-139.5 32zM429 429v-30q74 0 114.5 -41.5t40.5 -113.5h30q0 84 -50.5 134.5t-134.5 50.5z" />
    <glyph glyph-name="uni260F" unicode="&#x260f;" horiz-adv-x="960" 
d="M715 84q0 19 -12 30l-91 88q-9 9 -20 9q-18 0 -40 -22l-34 -33q-59 30 -106 78.5t-74 104.5l39 38q15 15 15 31q0 14 -12 27l-84 85q-11 11 -26 11q-17 0 -28 -11q-54 -58 -54 -122q0 -36 16 -75q24 -67 99 -146t163.5 -133.5t149.5 -54.5q25 0 48 15t37 37t14 43z
M13 290q0 125 63 231.5t170.5 168.5t233.5 62t233.5 -62t170.5 -168.5t63 -231.5t-63 -231.5t-170.5 -168.5t-233.5 -62t-233.5 62t-170.5 168.5t-63 231.5zM897 290q0 113 -56 209t-152 152.5t-209 56.5t-209 -56.5t-152 -152.5t-56 -209t56 -209t152 -152.5t209 -56.5
t209 56.5t152 152.5t56 209zM429 583v-30q95 0 165 -37t107 -107t37 -165h30q0 105 -41.5 181.5t-118 117t-179.5 40.5zM429 506v-30q109 0 170.5 -62.5t61.5 -169.5h30q0 80 -31.5 139t-91 91t-139.5 32zM429 429v-30q74 0 114.5 -41.5t40.5 -113.5h30q0 84 -50.5 134.5
t-134.5 50.5z" />
    <glyph glyph-name="uni261C" unicode="&#x261c;" horiz-adv-x="960" 
d="M820 459v-318h-75v46h-30q-33 -38 -95.5 -57.5t-138.5 -19.5q-40 0 -62 17h-48q-33 0 -52 12t-19 34q0 19 14 28q-33 13 -33 41q0 14 11 27q-17 4 -27 15.5t-10 25.5q0 22 18.5 33.5t51.5 11.5h11q-9 11 -10 14q-50 -2 -95 -2q-68 0 -122 3q-33 3 -52 12t-19 29
q0 21 18.5 35t51.5 18q34 4 95.5 7t115.5 3q62 0 89 -4q19 8 32 8q88 0 152.5 -17t98.5 -51q18 -7 54 -9v58h75zM710 384q-11 -6 -18 -11q-20 41 -85 62t-169 21q-13 0 -35.5 -12.5t-39.5 -30t-17 -31.5q0 -10 7.5 -15.5t17.5 -5.5q16 0 43 12t46 26q14 -8 32 -8q28 0 56 14
v-20q-14 -10 -43 -15q18 -42 44 -66t55 -24q22 0 43 4.5t34 12.5v-22q-12 -7 -33.5 -11.5t-42.5 -4.5q-37 0 -71 30.5t-56 82.5q-12 2 -18 5q-12 -9 -43 -25q20 -5 31 -15.5t11 -26.5q0 -15 -12 -27q18 -5 28 -15.5t10 -25.5q0 -16 -14 -30q16 -4 24.5 -14.5t8.5 -24.5
q0 -28 -34 -41h11q80 0 146 24.5t89 65.5q3 -5 9 -9t12 -4h8v170q-22 2 -35 5zM373 451l-54 1q-56 0 -116 -2.5t-93 -6.5q-25 -4 -38 -12.5t-13 -19.5q0 -10 11 -13.5t39 -5.5q60 -3 133 -3q61 0 83 1q3 16 16 32t32 29zM798 437h-33v-274h33v274zM438 310q0 10 -14 16.5
t-37 6.5h-62q-23 0 -36 -6.5t-13 -16.5q0 -11 13 -17.5t36 -6.5h62q24 0 37.5 6.5t13.5 17.5zM464 242q0 10 -14 16.5t-36 6.5h-63q-22 0 -35.5 -6.5t-13.5 -16.5q0 -11 13 -17.5t36 -6.5h63q23 0 36.5 6.5t13.5 17.5zM371 149h62q23 0 36.5 6.5t13.5 17.5q0 10 -13.5 16.5
t-36.5 6.5h-62q-23 0 -36.5 -6.5t-13.5 -16.5q0 -11 13.5 -17.5t36.5 -6.5z" />
    <glyph glyph-name="uni261E" unicode="&#x261e;" horiz-adv-x="960" 
d="M269 410q34 34 98.5 51t152.5 17q13 0 32 -8q27 4 89 4q54 0 115.5 -3t95.5 -7q33 -4 51.5 -18t18.5 -35q0 -20 -19 -29t-52 -12q-54 -3 -122 -3q-45 0 -95 2q-1 -3 -10 -14h11q33 0 51.5 -11.5t18.5 -33.5q0 -14 -10 -25.5t-27 -15.5q11 -13 11 -27q0 -28 -33 -41
q14 -9 14 -28q0 -22 -19 -34t-52 -12h-48q-22 -17 -62 -17q-76 0 -138.5 19.5t-95.5 57.5h-30v-46h-75v318h75v-58q36 2 54 9zM244 222q23 -41 89 -65.5t146 -24.5h11q-34 13 -34 41q0 14 8.5 24.5t24.5 14.5q-14 14 -14 30q0 15 10 25.5t28 15.5q-12 12 -12 27
q0 16 11 26.5t31 15.5q-31 16 -43 25q-6 -3 -18 -5q-22 -52 -56 -82.5t-71 -30.5q-20 0 -42 4.5t-34 11.5v22q13 -8 34.5 -12.5t42.5 -4.5q29 0 55 24t44 66q-29 5 -43 15v20q28 -14 56 -14q18 0 32 8q19 -14 46 -26t43 -12q10 0 17.5 5.5t7.5 15.5q0 14 -17 31.5t-39.5 30
t-35.5 12.5q-104 0 -169 -21t-85 -62q-7 5 -18 11q-13 -3 -35 -5v-170h8q6 0 12 4t9 9zM718 389q73 0 133 3q28 2 39 5.5t11 13.5q0 11 -13 19.5t-38 12.5q-33 4 -93 6.5t-116 2.5l-54 -1q19 -13 32 -29t16 -32q22 -1 83 -1zM195 163v274h-33v-274h33zM684 310
q0 10 -13 16.5t-36 6.5h-62q-23 0 -37 -6.5t-14 -16.5q0 -11 13.5 -17.5t37.5 -6.5h62q23 0 36 6.5t13 17.5zM658 242q0 10 -13.5 16.5t-35.5 6.5h-63q-22 0 -36 -6.5t-14 -16.5q0 -11 13.5 -17.5t36.5 -6.5h63q23 0 36 6.5t13 17.5zM589 196h-62q-23 0 -36.5 -6.5
t-13.5 -16.5q0 -11 13.5 -17.5t36.5 -6.5h62q23 0 36.5 6.5t13.5 17.5q0 10 -13.5 16.5t-36.5 6.5z" />
    <glyph glyph-name="female" unicode="&#x2640;" horiz-adv-x="960" 
d="M638 24h-118v-131h-80v131h-117v64h117v141q-46 7 -86 30q-57 34 -90.5 90.5t-33.5 123.5t33.5 123.5t91 90t125.5 33.5t125.5 -33.5t91 -90t33.5 -123.5t-33.5 -123.5t-91.5 -90.5q-40 -23 -85 -30v-141h118v-64zM650 473q0 82 -47 132.5t-123 50.5t-123 -50.5
t-47 -132.5t47 -132.5t123 -50.5t123 50.5t47 132.5z" />
    <glyph glyph-name="male" unicode="&#x2642;" horiz-adv-x="960" 
d="M128 209q0 67 33.5 123.5t91 90t125.5 33.5t125 -34q12 -6 22 -14l174 174l-128 2v74l255 -3l2 -252h-80l-2 124l-169 -169q9 -12 17 -26q34 -56 34 -123t-33.5 -123.5t-91 -90t-125.5 -33.5t-125.5 33.5t-91 90t-33.5 123.5zM548 209q0 82 -47 132.5t-123 50.5
t-123 -50.5t-47 -132.5t47 -132.5t123 -50.5t123 50.5t47 132.5z" />
    <glyph glyph-name="spade" unicode="&#x2660;" horiz-adv-x="960" 
d="M480 665q75 -38 154 -111.5t132.5 -165.5t53.5 -181q0 -67 -43.5 -109t-116.5 -42q-48 0 -87.5 26t-51.5 59h-5v-38q0 -76 18.5 -118.5t46.5 -59.5v-10h-202v10q28 17 46.5 59.5t18.5 118.5v38h-5q-12 -33 -51.5 -59t-87.5 -26q-73 0 -116.5 42t-43.5 109q0 89 53.5 181
t132.5 165.5t154 111.5z" />
    <glyph glyph-name="uni2661" unicode="&#x2661;" horiz-adv-x="960" 
d="M333 636q47 0 90 -23q34 -17 57 -44q25 29 62 47q41 20 85 20q61 0 108.5 -28.5t74.5 -80t27 -116.5q0 -115 -88.5 -233.5t-254.5 -229.5h-28q-166 111 -254.5 229.5t-88.5 233.5q0 65 27 116.5t74.5 80t108.5 28.5zM480 -6q149 102 228 209t79 208q0 81 -44.5 131
t-115.5 50q-38 0 -70.5 -19.5t-53.5 -54.5h-46q-21 35 -53.5 54.5t-70.5 19.5q-71 0 -115.5 -50t-44.5 -131q0 -101 79 -208t228 -209z" />
    <glyph glyph-name="club" unicode="&#x2663;" horiz-adv-x="960" 
d="M271 430q51 0 93 -31l22 20q-29 21 -45.5 54t-16.5 71q0 43 21 79t56.5 57t78.5 21t78.5 -21t56.5 -57t21 -79q0 -38 -16.5 -71t-45.5 -54l22 -20q42 31 93 31q42 0 78 -21t57 -57t21 -79t-21 -78.5t-57 -56.5t-78 -21q-57 0 -100 35t-54 90l-31 -21q0 -149 57 -308v-5
h-162v5q57 159 57 308l-31 21q-11 -55 -54 -90t-100 -35q-42 0 -78 21t-57 56.5t-21 78.5t21 79t57 57t78 21z" />
    <glyph glyph-name="uni2664" unicode="&#x2664;" horiz-adv-x="960" 
d="M469 660h22q72 -37 149.5 -109t129.5 -162t52 -176q0 -73 -48.5 -118t-125.5 -45q-45 0 -87 22q-11 6 -21 13q3 -44 15 -75q16 -40 44 -47v-45h-238v31l12 19q23 14 35 52q9 27 12 65q-7 -4 -13 -8q-45 -27 -95 -27q-77 0 -125.5 45t-48.5 118q0 86 52 176t129.5 162
t149.5 109zM312 94q40 0 73.5 24t36.5 55h49v-58q0 -103 -38 -153h93q-37 50 -37 153v58h49q3 -32 37 -55.5t73 -23.5q57 0 90.5 32.5t33.5 86.5q0 77 -45 156t-112.5 144t-134.5 101q-67 -36 -134.5 -101t-112.5 -144t-45 -156q0 -54 33.5 -86.5t90.5 -32.5z" />
    <glyph glyph-name="heart" unicode="&#x2665;" horiz-adv-x="960" 
d="M480 -42q-129 87 -234.5 203.5t-105.5 252.5q0 61 24 108t67.5 73.5t98.5 26.5q42 0 79.5 -20t62.5 -56h16q25 36 62.5 56t79.5 20q55 0 98.5 -26.5t67.5 -73.5t24 -108q0 -136 -105.5 -252.5t-234.5 -203.5z" />
    <glyph glyph-name="uni2667" unicode="&#x2667;" horiz-adv-x="960" 
d="M275 449q29 0 56 -9q1 -1 3 -1q-11 16 -19 34q-13 32 -13 66q0 48 24 88.5t64.5 64t89.5 23.5t89.5 -23.5t64.5 -64t24 -88.5q0 -41 -19 -78q-5 -11 -12 -22q27 10 58 10q48 0 88.5 -23.5t64.5 -63.5t24 -88t-23.5 -88t-64 -63.5t-89.5 -23.5q-55 0 -100 29
q-37 24 -57 60q5 -126 56 -264v-30h-208v30q49 138 55 264q-20 -36 -56 -60q-45 -29 -100 -29q-49 0 -89.5 23.5t-64 63.5t-23.5 88t24 88t64.5 63.5t88.5 23.5zM275 143q35 0 65.5 19t48 46.5t16.5 52.5l75 -27l75 27q11 -50 47.5 -84t82.5 -34q53 0 90 38t37 93
q0 36 -17 66t-46.5 47.5t-63.5 17.5q-27 0 -49 -9.5t-43 -29.5l-60 55q31 13 53 49t22 69q0 36 -17 66.5t-46.5 48t-64.5 17.5t-64.5 -17.5t-46.5 -48t-17 -66.5q0 -39 20.5 -72t54.5 -46l-60 -55q-21 20 -43 29.5t-49 9.5q-34 0 -63.5 -17.5t-46.5 -47.5t-17 -66
q0 -55 37 -93t90 -38zM433 -62h94q-39 117 -47 228q-8 -111 -47 -228z" />
    <glyph glyph-name="uni2668" unicode="&#x2668;" horiz-adv-x="960" 
d="M439 222q16 29 23.5 49t7.5 45t-7 46.5t-21 55.5q-16 37 -23.5 61t-7.5 52t14.5 50t40.5 51q18 20 26 31t8 22h20q0 -17 -6.5 -31.5t-20.5 -34.5q-16 -27 -24 -45.5t-8 -42.5q0 -25 7 -46.5t21 -55.5q16 -37 23.5 -61t7.5 -52t-12.5 -50.5t-38.5 -55.5q-19 -24 -28.5 -40
t-9.5 -32h-20q0 21 7 38.5t21 45.5zM297 218q18 29 26.5 47t8.5 38q0 24 -8.5 45t-24.5 50q-18 31 -27 54.5t-9 50.5q0 26 15 48t41 48q18 19 25.5 28.5t7.5 18.5h20q0 -15 -7.5 -28.5t-23.5 -34.5q-18 -22 -28 -40t-10 -40q0 -23 8.5 -44t24.5 -50q18 -31 27 -55t9 -51
q0 -25 -13 -47t-38 -52q-19 -22 -28.5 -37t-9.5 -29h-20q0 19 8.5 37.5t25.5 42.5zM597 218q18 29 26.5 47t8.5 38q0 24 -8.5 45t-24.5 50q-18 31 -27 54.5t-9 50.5q0 26 15 48t41 48q18 19 25.5 28.5t7.5 18.5h20q0 -15 -7.5 -28.5t-23.5 -34.5q-18 -22 -28 -40t-10 -40
q0 -23 8.5 -44t24.5 -50q18 -31 27 -55t9 -51q0 -25 -13 -47t-38 -52q-19 -22 -28.5 -37t-9.5 -29h-20q0 19 8.5 37.5t25.5 42.5zM870 161q0 -66 -51.5 -120t-140.5 -85t-198 -31t-198 31t-140.5 85t-51.5 120q0 65 43 105t111 46l6 -20q-58 -10 -89 -37.5t-31 -63.5
q0 -49 43.5 -84t122.5 -53.5t184 -18.5t184 18.5t122.5 53.5t43.5 84q0 36 -31 63.5t-89 37.5l6 20q68 -6 111 -46t43 -105z" />
    <glyph glyph-name="uni2669" unicode="&#x2669;" horiz-adv-x="470" 
d="M250 175v525h90v-569q0 -38 -26.5 -78.5t-67.5 -67t-81 -26.5q-43 0 -69 22t-26 60t28 68.5t70 48t82 17.5z" />
    <glyph glyph-name="musicalnote" unicode="&#x266a;" horiz-adv-x="670" 
d="M250 175v525h90q24 -21 64 -51q54 -41 87 -71.5t56 -72.5t23 -95q0 -78 -48 -140t-117 -98l-9 8q58 45 86 89t28 105q0 43 -16 72t-39.5 47.5t-65.5 42.5q-37 21 -49 29v-434q0 -38 -26.5 -78.5t-67.5 -67t-81 -26.5q-43 0 -69 22t-26 60t28 68.5t70 48t82 17.5z" />
    <glyph glyph-name="uni266C" unicode="&#x266c;" horiz-adv-x="850" 
d="M250 155v515l470 50v-569q0 -38 -26.5 -78.5t-67.5 -67t-81 -26.5q-43 0 -69 22t-26 60t28 68.5t70 48t82 17.5v189l-290 -32v-241q0 -38 -26.5 -78.5t-67.5 -67t-81 -26.5q-43 0 -69 22t-26 60t28 68.5t70 48t82 17.5zM630 614l-290 -31v-135l290 32v134z" />
    <glyph glyph-name="uni266D" unicode="&#x266d;" horiz-adv-x="600" 
d="M534 251q0 -90 -47.5 -168.5t-127.5 -125.5t-173 -47h-90v800h90v-309q27 31 66.5 50t82.5 19q92 0 145.5 -58t53.5 -161zM444 249q0 64 -29.5 100t-85.5 36q-46 0 -85.5 -24t-57.5 -63v-313q73 0 132 37t92.5 97.5t33.5 129.5z" />
    <glyph glyph-name="uni3000" unicode="&#x3000;" horiz-adv-x="280" 
 />
    <glyph glyph-name="uni3001" unicode="&#x3001;" 
d="M50 90l64 74q118 -86 206 -217l-92 -50q-82 124 -178 193z" />
    <glyph glyph-name="uni3002" unicode="&#x3002;" 
d="M50 30q0 50 37.5 85t92.5 35t92.5 -35t37.5 -85t-37.5 -85t-92.5 -35t-92.5 35t-37.5 85zM229 30q0 22 -14 36.5t-35 14.5t-35 -14.5t-14 -36.5t14 -36.5t35 -14.5t35 14.5t14 36.5z" />
    <glyph glyph-name="uni3003" unicode="&#x3003;" horiz-adv-x="570" 
d="M260 440l-70 -280h-70l30 280h110zM450 440l-70 -280h-70l30 280h110z" />
    <glyph glyph-name="uni3008" unicode="&#x3008;" horiz-adv-x="406" 
d="M376 -82l-102 -29l-194 440l194 440l102 -29l-181 -411z" />
    <glyph glyph-name="uni3009" unicode="&#x3009;" horiz-adv-x="406" 
d="M30 740l102 29l194 -440l-194 -440l-102 29l181 411z" />
    <glyph glyph-name="uni300A" unicode="&#x300a;" horiz-adv-x="566" 
d="M366 -82l-92 -29l-194 440l194 440l92 -29l-181 -411zM536 -82l-92 -29l-194 440l194 440l92 -29l-181 -411z" />
    <glyph glyph-name="uni300B" unicode="&#x300b;" horiz-adv-x="566" 
d="M200 740l92 29l194 -440l-194 -440l-92 29l181 411zM30 740l92 29l194 -440l-194 -440l-92 29l181 411z" />
    <glyph glyph-name="uni300C" unicode="&#x300c;" horiz-adv-x="390" 
d="M100 301v468h260v-80h-150v-388h-110z" />
    <glyph glyph-name="uni300D" unicode="&#x300d;" horiz-adv-x="390" 
d="M290 357v-468h-260v80h150v388h110z" />
    <glyph glyph-name="uni300E" unicode="&#x300e;" horiz-adv-x="400" 
d="M80 269v500h300v-124h-150v-376h-150zM190 677h150v60h-220v-436h70v376z" />
    <glyph glyph-name="uni300F" unicode="&#x300f;" horiz-adv-x="400" 
d="M320 373v-500h-300v124h150v376h150zM210 -35h-150v-60h220v436h-70v-376z" />
    <glyph glyph-name="uni3010" unicode="&#x3010;" horiz-adv-x="418" 
d="M100 769h288v-3q-88 -74 -130.5 -182.5t-42.5 -254.5t42.5 -254.5t130.5 -182.5v-3h-288v880z" />
    <glyph glyph-name="uni3011" unicode="&#x3011;" horiz-adv-x="418" 
d="M30 -111v3q88 74 130.5 182.5t42.5 254.5t-42.5 254.5t-130.5 182.5v3h288v-880h-288z" />
    <glyph glyph-name="uni3013" unicode="&#x3013;" horiz-adv-x="800" 
d="M750 436v-70h-700v70h700zM750 236v-70h-700v70h700z" />
    <glyph glyph-name="uni3014" unicode="&#x3014;" horiz-adv-x="350" 
d="M100 607l145 162l75 -58l-110 -130v-504l110 -130l-75 -58l-145 162v556z" />
    <glyph glyph-name="uni3015" unicode="&#x3015;" horiz-adv-x="350" 
d="M105 -111l-75 58l110 130v504l-110 130l75 58l145 -162v-556z" />
    <glyph glyph-name="uni3041" unicode="&#x3041;" horiz-adv-x="920" 
d="M655 382l-12 -32q69 -23 108.5 -73.5t39.5 -117.5q0 -38 -13 -76t-43 -70t-78 -57t-117 -37l-54 87q55 6 93.5 21.5t62.5 37.5t35 49t11 55q0 32 -18.5 58.5t-54.5 40.5q-30 -75 -69 -130t-87 -95q4 -15 8 -29t9 -28l-96 -26l-8 27q-28 -13 -56 -20t-54 -7q-22 0 -42 5.5
t-35 18.5t-23.5 34t-8.5 53q0 38 14.5 74.5t39.5 69t58 59t71 45.5q1 25 3 47l4 44h-22q-15 0 -32.5 0.5t-35.5 1.5t-35 2t-30 2l-2 93q9 -2 26 -3.5t36.5 -3.5t39 -3t33.5 -1h32l4 40q1 11 1.5 24.5t0.5 22.5l111 -2q-7 -19 -11 -43l-8 -39q66 4 129.5 11.5t123.5 22.5
l1 -94q-53 -10 -124 -16.5t-142 -10.5l-2 -30q-1 -15 -3 -31q52 12 106 12h13q3 11 5 23t3 17zM351 77q-6 35 -10 71t-6 74q-37 -26 -62.5 -62t-25.5 -71q0 -34 34 -34q32 0 70 22zM527 283q-28 -1 -52 -5.5t-45 -11.5q0 -33 2 -62.5t6 -56.5q25 27 48 60t41 76z" />
    <glyph glyph-name="uni3042" unicode="&#x3042;" horiz-adv-x="920" 
d="M686 468l-16 -46q39 -13 71.5 -34.5t56 -50t36 -63.5t12.5 -75q0 -48 -15 -94.5t-50.5 -85t-92.5 -67t-141 -41.5l-60 96q65 7 111.5 26.5t76 46t43.5 59t14 65.5q0 42 -23 75.5t-70 50.5q-38 -93 -88.5 -161.5t-102.5 -113.5q5 -18 10 -34.5t11 -33.5l-105 -31l-12 37
q-32 -16 -68 -26t-72 -10q-25 0 -47.5 7.5t-39 24t-26.5 41.5t-10 60q0 43 17 86.5t47 83.5t70.5 73t87.5 55l9 113h-28q-18 0 -40 0.5t-43.5 1.5t-42 2.5t-36.5 2.5l-3 105q12 -2 32 -4t43.5 -4t47.5 -3t45 -1h36l5 49q1 12 2 27t0 27l119 -3q-4 -13 -6.5 -25.5t-5.5 -23.5
q-2 -11 -5 -23t-5 -25q84 2 159 11.5t150 27.5l1 -106q-67 -12 -152.5 -20t-169.5 -13q-3 -19 -4.5 -39.5t-3.5 -41.5q33 8 67.5 12.5t67.5 4.5h17q2 14 4.5 28.5t3.5 25.5zM329 98q-8 42 -13 87.5t-6 93.5q-51 -35 -82.5 -81.5t-31.5 -84.5q0 -23 9.5 -34t32.5 -11
q40 0 91 30zM411 325q0 -84 12 -151q32 33 61.5 75t52.5 97q-36 -1 -67.5 -6.5t-58.5 -13.5v-1z" />
    <glyph glyph-name="uni3043" unicode="&#x3043;" horiz-adv-x="920" 
d="M288 497q-1 -6 -2 -18.5t-2.5 -26.5t-2.5 -26.5t-1 -18.5v-39q0 -23 1 -50t2 -53.5t4 -46.5q8 -72 27 -115t45 -43q13 0 25.5 15.5t22 39t17 50t12.5 48.5l85 -98q-35 -98 -72.5 -141.5t-90.5 -43.5q-28 0 -56 12.5t-52.5 43.5t-43.5 82.5t-28 129.5q-2 25 -3.5 57.5
t-2.5 64.5t-1.5 59.5t-0.5 41.5q0 7 -0.5 18.5t-1.5 23t-2.5 21t-2.5 14.5zM663 479q31 -36 55.5 -86.5t43 -104t30 -103.5t16.5 -86l-114 -44q-5 40 -14.5 92.5t-25.5 106.5t-39.5 104t-56.5 86z" />
    <glyph glyph-name="uni3044" unicode="&#x3044;" horiz-adv-x="920" 
d="M242 619q-5 -25 -8 -58t-3 -53q-1 -44 0 -93.5t6 -98.5q4 -50 12 -90.5t19.5 -69.5t27.5 -45t38 -16q16 0 31 18t27 44.5t21.5 58t15.5 58.5l92 -111q-23 -59 -45 -100t-45.5 -66t-48 -36t-51.5 -11q-38 0 -72 18t-62 57.5t-48 103t-30 155.5q-4 31 -6 65.5t-3 67.5
t-1.5 62t-0.5 50q0 19 -1.5 45t-4.5 47zM697 599q32 -39 60 -95t50 -117t36.5 -122.5t19.5 -112.5l-123 -47q-7 55 -19 117t-30.5 123.5t-45.5 117t-64 97.5z" />
    <glyph glyph-name="uni3045" unicode="&#x3045;" horiz-adv-x="920" 
d="M503 287q-26 0 -53.5 -4t-54.5 -10t-50.5 -12.5t-40.5 -12.5q-16 -5 -36.5 -13t-32.5 -13l-32 116q19 2 39.5 4.5t36.5 6.5q20 4 48 10t59.5 11.5t65 9.5t64.5 4q47 0 86 -12.5t66.5 -36.5t42.5 -58.5t15 -79.5q0 -116 -93.5 -193t-270.5 -104l-59 103q71 8 128 23
t97.5 38.5t62 56.5t21.5 77q0 38 -27.5 63.5t-81.5 25.5zM315 566q36 -7 81.5 -13t92.5 -10.5t92 -7t80 -3.5l-15 -102q-32 2 -79 6t-96 9.5t-95 11.5t-77 12z" />
    <glyph glyph-name="uni3046" unicode="&#x3046;" horiz-adv-x="920" 
d="M495 376q-38 0 -73 -5t-65.5 -12.5t-55.5 -15t-42 -13.5q-20 -5 -44 -14t-44 -17l-34 131q23 2 49.5 6t48.5 9q25 6 56.5 13t66.5 13.5t73.5 11t78.5 4.5q54 0 99.5 -15t77.5 -44t50 -71t18 -95q0 -73 -32 -131.5t-89.5 -103t-137 -73.5t-174.5 -42l-65 113
q84 10 152.5 29t117 48.5t74.5 70t26 94.5q0 45 -33.5 77t-98.5 32zM270 704q40 -9 95 -16.5t113 -13t111.5 -9t89.5 -3.5l-18 -112q-40 3 -94.5 7.5t-111.5 10t-110.5 12t-92.5 13.5z" />
    <glyph glyph-name="uni3047" unicode="&#x3047;" horiz-adv-x="920" 
d="M666 322q-11 -8 -24.5 -18t-22.5 -18q-12 -10 -30 -26t-36 -33t-33.5 -32t-22.5 -22q15 -2 32 -10q14 -5 25 -21t16 -33l20 -66q7 -16 19.5 -22.5t32.5 -6.5q37 0 77 4.5t67 11.5l-6 -109q-11 -2 -31 -3.5t-42.5 -3t-44 -2.5t-36.5 -1q-29 0 -50 4.5t-35.5 12.5
t-23.5 19.5t-15 26.5q-7 17 -12 38t-10 34q-7 20 -15.5 31t-25.5 11q-11 0 -23.5 -9.5t-25.5 -23.5q-9 -9 -23.5 -24.5t-32 -36t-36.5 -44t-38 -47.5l-99 69q10 8 19.5 16t23.5 22q20 20 55 53.5t73.5 71t75 75t60.5 64.5q-14 -1 -36 -2.5t-47 -3.5t-48 -4t-38 -3
q-23 -2 -41.5 -5t-29.5 -5l-10 114q14 -2 34 -2t40 1q15 0 51 1.5t78 3.5t82 4t63 5q9 2 22 4.5t20 4.5zM324 565q28 -7 70.5 -13.5t88 -11.5t88 -9t70.5 -6l-15 -97q-27 2 -69.5 6.5t-88 10t-88.5 11.5t-72 12z" />
    <glyph glyph-name="uni3048" unicode="&#x3048;" horiz-adv-x="920" 
d="M288 706q38 -7 87.5 -14t101 -13t99.5 -10.5t84 -6.5l-16 -107q-36 3 -83.5 7.5t-98.5 10.5t-101 13t-90 14zM691 417q-18 -13 -32.5 -24.5t-26.5 -21.5q-15 -14 -37.5 -33.5t-44 -39.5t-40 -37.5t-26.5 -26.5q7 0 17 -2t17 -5q39 -11 55 -62q7 -18 13.5 -41.5
t12.5 -41.5q13 -41 64 -41q52 0 97.5 4.5t80.5 10.5l-7 -120q-14 -2 -37.5 -4.5t-49 -4t-50 -2.5t-42.5 -1q-64 0 -101 16.5t-53 61.5q-8 20 -15.5 47.5t-12.5 44.5q-8 24 -21 34t-27 10q-13 0 -27.5 -10.5t-31.5 -26.5q-12 -12 -30 -31t-39.5 -43.5t-45 -53t-46.5 -58.5
l-109 76q13 10 29 24.5t34 32.5q18 17 57.5 56.5t86.5 87t93.5 95t77.5 80.5q-24 -1 -54.5 -3t-61.5 -4.5t-59.5 -5t-47.5 -3.5q-24 -2 -44 -5t-35 -6l-11 126q17 -2 40 -2.5t47 -0.5q11 0 34 0.5t53 2t63.5 3.5t66 4t61 4t47.5 5q13 2 28.5 5t22.5 5z" />
    <glyph glyph-name="uni3049" unicode="&#x3049;" horiz-adv-x="920" 
d="M550 368q-52 -13 -140 -25q-1 -21 -1 -41v-39q35 9 71 14t69 5q46 0 85 -12t67.5 -34.5t44.5 -54.5t16 -72q0 -33 -10.5 -64t-33 -56t-58 -44t-86.5 -28q-25 -5 -48 -6l-37 -3l-36 106q25 0 47 1t40 4q46 8 79.5 30.5t33.5 60.5q0 39 -29 60t-78 21q-42 0 -74.5 -5.5
t-61.5 -14.5q2 -46 3 -88t1 -63q0 -64 -23.5 -89.5t-63.5 -25.5q-27 0 -59.5 11t-60.5 30.5t-47 45.5t-19 57q0 27 14 53.5t37 49.5t54 43.5t65 35.5v101q-11 -1 -21 -1h-21q-30 0 -54 1.5t-53 4.5l-2 107q31 -5 60 -7t49 -2h21q10 0 21 1v61q0 10 -0.5 20t-1 19t-1.5 14
h115q-1 -5 -2 -14t-2 -19.5t-2 -20.5t-1 -16l-2 -36q36 5 70.5 11t63.5 14zM637 491q21 -9 47.5 -23t52.5 -29t49 -29.5t38 -25.5l-54 -89q-13 12 -36.5 27.5t-50.5 31.5t-52.5 30t-42.5 22zM315 44q0 14 -0.5 37t-2.5 52q-32 -17 -51 -37.5t-19 -40.5q0 -8 5 -15.5
t12.5 -13.5t16.5 -9.5t16 -3.5q23 0 23 31z" />
    <glyph glyph-name="uni304A" unicode="&#x304a;" horiz-adv-x="920" 
d="M386 341q47 11 92 17.5t83 6.5q52 0 98 -13.5t80 -39t53.5 -62.5t19.5 -83q0 -82 -47 -140.5t-156 -86.5q-31 -6 -61 -8.5t-56 -4.5l-44 117q32 0 60.5 1t52.5 6q27 4 51 13.5t42 23.5t28.5 33.5t10.5 45.5q0 46 -37 71t-96 25q-88 0 -172 -25q2 -54 3.5 -101.5
t1.5 -71.5q0 -42 -7.5 -69.5t-20.5 -43.5t-32 -22.5t-41 -6.5q-33 0 -70.5 13.5t-69 36.5t-52.5 55t-21 68q0 29 16 59t44 57.5t64.5 51.5t78.5 42q-1 16 -1 32v107q-13 -1 -26 -1h-23q-30 0 -63 0.5t-64 3.5l-1 110q39 -5 69.5 -5.5t55.5 -0.5q12 0 25.5 0.5t27.5 1.5
q1 23 1 42v32q0 7 -0.5 18t-1.5 22.5t-2.5 22t-2.5 16.5h126l-8 -79l-3 -65q45 6 88.5 14.5t79.5 19.5l2 -114q-38 -9 -83.5 -16t-90.5 -12q-1 -21 -1 -42v-72zM661 609q26 -12 57.5 -29t62 -34.5t58 -34.5t45.5 -30l-54 -93q-17 14 -45 32.5t-59.5 37t-62.5 35t-53 27.5z
M287 86q0 17 -0.5 46t-2.5 66q-42 -23 -67 -49t-25 -50q0 -10 7 -19.5t17 -16.5t21.5 -11.5t20.5 -4.5q12 0 20.5 7.5t8.5 31.5z" />
    <glyph glyph-name="uni304B" unicode="&#x304b;" horiz-adv-x="920" 
d="M425 687l-16 -76q-5 -20 -9 -43.5t-10 -49.5q23 2 43 3t34 1q36 0 66 -9t52 -29t34 -53t12 -82q0 -41 -2.5 -87t-8.5 -90.5t-16 -85t-24 -70.5q-23 -48 -61 -65.5t-90 -17.5q-25 0 -55 3.5t-53 9.5l-20 121q13 -4 28.5 -7.5t31 -6t29 -4t22.5 -1.5q23 0 40.5 7.5
t27.5 30.5q10 19 17 48t11.5 62.5t6.5 69.5t2 69q0 27 -5.5 43.5t-17 25t-28 11.5t-38.5 3q-11 0 -26.5 -0.5t-34.5 -2.5q-14 -51 -33 -114.5t-42.5 -129t-51 -128.5t-58.5 -114l-120 48q33 45 61.5 99.5t51.5 111.5t41 112t30 101q-24 -2 -44.5 -4.5t-32.5 -4.5
q-10 -1 -23.5 -3t-27.5 -4t-27.5 -4.5t-23.5 -4.5l-10 125q24 -2 48 -1.5t48 1.5q22 1 52 3t65 4q11 52 15.5 101t3.5 91zM739 602q21 -30 44.5 -74.5t45.5 -92.5t40.5 -93.5t29.5 -78.5l-116 -53q-9 37 -25 84.5t-36.5 95.5t-44 91.5t-48.5 74.5z" />
    <glyph glyph-name="uni304C" unicode="&#x304c;" horiz-adv-x="920" 
d="M828 603q-15 29 -35 65t-39 62l73 30q9 -13 19.5 -30t20.5 -34t18.5 -33.5t14.5 -28.5zM418 680q-3 -18 -7.5 -38t-8.5 -37q-4 -20 -8.5 -44t-9.5 -49q23 1 42.5 2t33.5 1q36 0 66 -9t52 -29t34 -53t12 -82q0 -40 -2.5 -86t-8.5 -90.5t-16 -85t-24 -70.5q-23 -48 -60 -66
t-90 -18q-26 0 -55.5 4.5t-53.5 9.5l-19 120q13 -3 28.5 -6.5t31 -6.5t29 -4.5t22.5 -1.5q23 0 40 8.5t27 29.5q10 19 17 48t11.5 62.5t7 70t2.5 70.5q0 26 -5.5 42t-17 25t-28 12t-37.5 3q-11 0 -27 -1t-36 -3q-13 -51 -31.5 -114.5t-42 -129t-52 -128.5t-59.5 -114
l-119 48q33 45 61.5 99.5t51.5 111.5t41 112.5t30 102.5q-25 -3 -45.5 -6t-32.5 -5q-10 -1 -23 -3t-27 -4t-27.5 -4t-24.5 -3l-9 123q24 -2 47.5 -1.5t48.5 1.5q21 1 51.5 3t65.5 5q10 52 15 100.5t4 92.5zM744 572q20 -32 42 -74t42 -86t37 -85t27 -71l-116 -55
q-9 38 -25 85t-36 94.5t-44 90.5t-48 73l84 36q-14 26 -30 55.5t-32 52.5l72 30q9 -13 19 -29.5t20 -33.5t19 -33.5t16 -29.5z" />
    <glyph glyph-name="uni304D" unicode="&#x304d;" horiz-adv-x="920" 
d="M281 209q-5 -21 -9 -45.5t-4 -41.5q0 -21 8 -38.5t26.5 -29.5t48.5 -18.5t74 -6.5q128 0 226 21l-8 -117q-37 -7 -91.5 -12.5t-122.5 -5.5q-64 0 -115 10.5t-86.5 33t-54.5 56.5t-19 82q0 31 5.5 63.5t10.5 57.5zM793 378q-20 -9 -54.5 -21t-81.5 -23q18 -37 37.5 -75
t38.5 -74l-55 -68q-19 3 -43.5 7t-51 8t-53.5 7.5t-49 5.5l9 89q27 -3 53 -5.5t44 -4.5l-40 90q-38 -5 -78.5 -8t-84.5 -3q-42 0 -91 2t-104 7l-3 109q54 -8 104 -11.5t86 -3.5q34 0 65.5 2t60.5 6q-6 12 -10.5 23.5t-9.5 23.5l-18 39q-29 -3 -60 -5t-62 -2q-36 0 -80 3.5
t-95 11.5l-4 103q46 -9 91.5 -13t77.5 -4q22 0 44 1t44 3l-3 6q-12 25 -22.5 45t-23.5 39l131 25q5 -23 13 -48.5t18 -52.5q50 9 92.5 20.5t75.5 24.5l21 -100q-26 -10 -64 -20.5t-85 -20.5l13 -29q5 -11 11 -25t14 -30q53 11 93 25t64 26z" />
    <glyph glyph-name="uni304E" unicode="&#x304e;" horiz-adv-x="920" 
d="M757 370q-20 -10 -54.5 -22t-80.5 -23q18 -37 37.5 -75t37.5 -74l-54 -69q-19 4 -44 8t-52 8l-53 8q-26 4 -49 7l9 87q28 -3 53 -5.5t44 -4.5l-39 90q-38 -5 -79 -8t-84 -3q-42 0 -91.5 2.5t-104.5 7.5l-3 108q54 -8 104 -11.5t86 -3.5q34 0 65.5 1.5t62.5 5.5l-22 48
l-18 39q-29 -2 -59 -4t-62 -2q-36 0 -80.5 3t-95.5 11l-4 103q47 -9 92 -13t77 -4q23 0 45 1t43 3l-3 6q-12 25 -22 44.5t-24 38.5l132 25q5 -22 13 -47.5t18 -51.5q45 8 82.5 18t69.5 21l21 -100q-24 -9 -57.5 -18.5t-75.5 -17.5l12 -29q5 -11 11.5 -25t14.5 -31
q53 13 92.5 26.5t63.5 24.5zM245 200q-5 -21 -9 -45.5t-4 -41.5q0 -21 8 -38t26.5 -29t49 -18.5t74.5 -6.5q127 0 224 20l-7 -117q-36 -7 -91 -12t-123 -5q-64 0 -115 10.5t-86 32.5t-54 56t-19 82q0 31 5 63.5t10 58.5zM710 715q9 -12 19 -28t20 -33t19 -33.5t16 -30.5
l-70 -31q-17 38 -33 67t-38 60zM811 756q9 -12 19.5 -27.5t21 -32t20 -33t16.5 -29.5l-69 -32q-19 37 -35.5 65t-38.5 58z" />
    <glyph glyph-name="uni304F" unicode="&#x304f;" horiz-adv-x="920" 
d="M673 624q-21 -16 -42.5 -32.5t-37.5 -29.5q-22 -18 -53.5 -42.5t-65.5 -51.5t-66 -53t-54 -45q-18 -15 -27 -25.5t-9 -20.5t9.5 -20.5t28.5 -26.5q25 -22 67.5 -56.5t90.5 -74t94.5 -79.5t80.5 -73l-106 -98q-20 22 -40 43.5t-40 41.5q-19 19 -52 49.5t-71.5 64t-77.5 67
t-70 59.5q-34 29 -50 53.5t-14.5 48t19.5 48t52 52.5q27 22 61.5 50.5t70.5 58.5t69 58.5t56 51.5q20 19 39.5 39.5t30.5 37.5z" />
    <glyph glyph-name="uni3050" unicode="&#x3050;" horiz-adv-x="920" 
d="M658 624q-21 -16 -42.5 -32.5t-37.5 -29.5q-22 -18 -53.5 -42.5t-65 -51.5t-65.5 -53t-55 -45q-18 -15 -27 -25.5t-9 -20.5t9.5 -20.5t28.5 -26.5q25 -22 68 -56.5t90.5 -74t94 -79.5t80.5 -73l-106 -98q-20 22 -40 43.5t-40 41.5q-19 19 -52 49.5t-71 64t-77.5 67
t-70.5 59.5q-34 29 -50 53.5t-14.5 48t20 48t52.5 52.5q27 22 61.5 50.5t70.5 58.5t69 58.5t56 51.5q19 19 38.5 39.5t30.5 37.5zM602 496q9 -13 20 -31t21.5 -37.5t20 -37.5t15.5 -30l-76 -32l-16 32q-9 18 -19 37.5t-20 37.5t-19 32zM712 540q9 -13 20 -31t22 -37
t20.5 -37t16.5 -31l-75 -32q-8 14 -17 32t-19.5 37t-21 36.5t-20.5 30.5z" />
    <glyph glyph-name="uni3051" unicode="&#x3051;" horiz-adv-x="920" 
d="M844 402q-28 -3 -62.5 -5.5t-72.5 -4.5v-30q0 -81 -5.5 -147t-25.5 -121.5t-59.5 -103t-106.5 -90.5l-106 84q26 12 56.5 32t50.5 40q26 27 42 57t25 66.5t12.5 81.5t3.5 102v24q-25 -1 -50.5 -1.5t-50.5 -0.5q-29 0 -67 1.5t-73 3.5v116q34 -5 67.5 -7.5t70.5 -2.5
q24 0 49.5 0.5t51.5 1.5q-1 37 -1 69.5t-2 52.5q-2 14 -4.5 32t-5.5 30h132q-2 -15 -3 -31t-2 -31q-1 -16 -1 -47.5t1 -67.5q38 2 73 6t63 10v-119zM262 667q-7 -17 -13 -39t-9 -36q-8 -38 -17.5 -88.5t-15.5 -104t-6.5 -106t8.5 -94.5l43 104l58 -36q-10 -30 -19.5 -61
t-17.5 -60t-14.5 -55t-10.5 -45q-2 -11 -4 -24t-2 -20q0 -8 1 -18t1 -21l-101 -9q-8 20 -17 52.5t-16.5 72t-13 83.5t-5.5 86q0 112 10.5 204.5t19.5 148.5q3 19 4 40t2 38z" />
    <glyph glyph-name="uni3052" unicode="&#x3052;" horiz-adv-x="920" 
d="M686 666q-2 -16 -2.5 -31.5t-1.5 -29.5q-1 -16 -1 -48v-68q42 2 79.5 6.5t66.5 9.5v-118q-29 -4 -66 -7t-79 -5v-28q0 -81 -5.5 -147t-25.5 -121.5t-59.5 -102.5t-107.5 -90l-105 82q26 12 56.5 31.5t50.5 41.5q26 27 42.5 57t25.5 66t12.5 81t3.5 102v23q-23 -1 -46 -1
h-46q-30 0 -68 1.5t-72 3.5v117q33 -5 66.5 -8t70.5 -3q22 0 46 0.5t47 1.5q-1 37 -1.5 70t-2.5 52q-1 14 -4 32t-6 30h132zM244 651q-5 -17 -11 -38.5t-10 -35.5q-8 -38 -17 -88.5t-15 -104t-6.5 -106.5t8.5 -95q9 21 20 50.5t22 54.5l58 -37q-10 -29 -19.5 -60
t-17.5 -60.5t-14.5 -55.5t-10.5 -45q-2 -11 -4 -24t-1 -21q0 -6 0.5 -16.5t1.5 -20.5l-102 -10q-8 21 -17 53.5t-17 72t-13.5 83t-5.5 85.5q0 56 3 108t7.5 97t10 83t9.5 65q4 20 5 40.5t1 37.5zM747 551q-11 30 -22.5 66t-25.5 64l62 19q6 -14 13 -30.5t13.5 -34t12.5 -34
t10 -29.5zM856 729q6 -13 13.5 -29.5t14 -34t12.5 -34t11 -29.5l-63 -20q-11 29 -24 65t-27 63z" />
    <glyph glyph-name="uni3053" unicode="&#x3053;" horiz-adv-x="920" 
d="M281 246q-7 -25 -12 -47.5t-5 -45.5q0 -43 44 -71t142 -28q94 0 177 9t143 26v-128q-59 -14 -138.5 -22.5t-176.5 -8.5q-157 0 -234.5 50t-77.5 144q0 41 6 73.5t11 58.5zM203 630q51 -5 113 -8t134 -3q34 0 69.5 1t70 3t66.5 4t58 5v-122q-24 -2 -56 -4t-67 -3.5
t-71 -2.5t-69 -1q-72 0 -131.5 2.5t-116.5 7.5v121z" />
    <glyph glyph-name="uni3054" unicode="&#x3054;" horiz-adv-x="920" 
d="M261 236q-7 -26 -11 -47.5t-4 -44.5q0 -44 43.5 -72t141.5 -28q93 0 176 9t144 26l1 -128q-60 -14 -140 -22.5t-177 -8.5q-156 0 -234 50.5t-78 144.5q0 40 6.5 73t11.5 58zM721 717q9 -12 19 -28.5t19.5 -34t18.5 -34t16 -29.5l-73 -32l-13 25q-6 13 -14 26v-110
q-23 -2 -55 -4t-67 -3.5t-71.5 -2.5t-68.5 -1q-72 0 -132 2.5t-117 7.5v122q102 -12 248 -12q33 0 67 1t67.5 3t64.5 4t57 5q-9 18 -19 35t-20 31zM830 759q9 -13 19.5 -30t20.5 -34t19 -33.5t15 -28.5l-73 -31q-14 29 -34.5 65t-39.5 62z" />
    <glyph glyph-name="uni3055" unicode="&#x3055;" horiz-adv-x="920" 
d="M790 500q-31 -12 -69.5 -24t-80.5 -20q25 -54 54.5 -113t58.5 -110l-64 -69q-18 3 -43.5 7.5t-53.5 9t-57 8.5t-54 7l12 94q10 -1 24 -3l29 -3q15 -1 29 -2t24 -1q-15 32 -35 72.5t-38 82.5q-83 -12 -180 -12q-22 0 -48 1.5t-52.5 3.5t-50.5 4.5t-42 4.5l-6 120
q43 -9 93.5 -16.5t101.5 -7.5q38 0 70.5 1t65.5 5l-27 61q-12 27 -21 44.5t-24 41.5l130 26q12 -40 26.5 -77t31.5 -77q48 12 93 25.5t81 30.5zM283 235q-6 -19 -11.5 -45t-5.5 -45q0 -26 7 -46.5t25.5 -34.5t49.5 -22t79 -8q42 0 74 1.5t58.5 4.5t49.5 6.5t47 7.5l-4 -117
q-38 -8 -95.5 -12.5t-129.5 -4.5q-137 0 -208 48.5t-71 144.5q0 29 4.5 64t11.5 67z" />
    <glyph glyph-name="uni3056" unicode="&#x3056;" horiz-adv-x="920" 
d="M717 725q9 -12 19 -28.5t20 -33.5t19 -34t16 -29l-31 -14l18 -94q-31 -11 -69.5 -22t-80.5 -22q25 -54 55 -112.5t59 -110.5l-64 -69q-19 4 -44 8.5t-53 9t-56.5 9t-53.5 7.5l10 93q11 -1 25 -2.5t29 -3t29 -2.5t24 -2l-74 154q-41 -5 -86.5 -7t-93.5 -2q-21 0 -47.5 1
t-52.5 2.5t-50 4t-42 4.5l-7 121q43 -10 94 -17t101 -7q38 0 71.5 1t65.5 5l-27 60q-12 27 -21 45t-25 42l130 25q12 -40 27 -76.5t32 -75.5q33 7 64 16t60 19q-14 27 -30 56t-33 52zM271 228q-5 -19 -10 -45t-5 -46q0 -25 7 -45t25 -34t49 -21.5t79 -7.5q42 0 74 1t58 3.5
t49 6t47 8.5l-3 -119q-38 -8 -96 -11.5t-130 -3.5q-137 0 -208 48t-71 143q0 30 5 64.5t11 67.5zM826 765q9 -13 20 -29.5t21 -34t19 -33.5t15 -28l-73 -32q-14 29 -34 65t-40 62z" />
    <glyph glyph-name="uni3057" unicode="&#x3057;" horiz-adv-x="920" 
d="M343 679q-5 -29 -7.5 -61t-4.5 -59q-2 -37 -4 -88.5t-3.5 -107t-2.5 -109.5t-1 -96q0 -35 9.5 -58.5t26.5 -37.5t40 -20.5t49 -6.5q57 0 103 15.5t84 41t68.5 59t55.5 70.5l83 -100q-23 -33 -58 -69.5t-84 -67t-112 -51t-141 -20.5q-56 0 -101 12.5t-77 39.5t-49.5 68.5
t-17.5 99.5q0 46 1 107l3 122q2 61 3.5 114t1.5 83q0 33 -3 64t-10 58z" />
    <glyph glyph-name="uni3058" unicode="&#x3058;" horiz-adv-x="920" 
d="M329 674q-5 -29 -8 -61.5t-5 -59.5q-2 -37 -3.5 -88t-3 -106.5t-2.5 -110t-1 -96.5q0 -34 9.5 -57.5t26 -37.5t39.5 -20.5t49 -6.5q57 0 103.5 15.5t84.5 41t68.5 59t55.5 70.5l82 -101q-22 -32 -57.5 -68.5t-84.5 -67.5t-112 -51.5t-141 -20.5q-56 0 -101 12.5
t-76.5 39.5t-49 68.5t-17.5 99.5q0 46 1.5 107.5t3 122.5t3 114t1.5 82q0 33 -3 64.5t-10 57.5zM563 613q10 -14 22 -33t24 -39t23 -39.5t19 -35.5l-83 -36q-20 44 -39.5 79t-44.5 71zM687 664q10 -14 22.5 -32.5t25 -38t23.5 -39t19 -34.5l-81 -38q-22 43 -42 76.5
t-46 68.5z" />
    <glyph glyph-name="uni3059" unicode="&#x3059;" horiz-adv-x="920" 
d="M854 488q-42 2 -106.5 3t-156.5 1q1 -35 1 -69v-64q17 -26 25.5 -58.5t8.5 -68.5q0 -45 -14.5 -93t-48.5 -93t-90 -83t-139 -61l-75 107q65 14 115.5 35.5t84.5 56.5q-9 -2 -19.5 -3t-21.5 -1q-26 0 -54 10.5t-50.5 31.5t-37 52t-14.5 72q0 39 14.5 70.5t39.5 54t58 34.5
t70 12q18 0 35 -3l-1 60q-104 -1 -204.5 -5t-185.5 -9l-3 111q39 0 88 0.5t101 1.5t104.5 2t98.5 2l-2 29q-2 22 -4 44.5t-4 33.5h131q-1 -5 -2 -16t-1.5 -22.5t-1 -22.5t-0.5 -16q0 -6 -0.5 -13.5t-0.5 -15.5h263zM440 198q15 0 27.5 5.5t21.5 18.5t12 34t-2 52
q-19 29 -58 29q-26 0 -48 -18t-22 -53q0 -32 21 -50t48 -18z" />
    <glyph glyph-name="uni305A" unicode="&#x305a;" horiz-adv-x="920" 
d="M688 582h141l-2 -109q-41 2 -106 4t-157 2q1 -35 1 -70v-64q17 -26 25.5 -58.5t8.5 -68.5q0 -44 -14.5 -92.5t-48 -93.5t-89.5 -82.5t-139 -60.5l-76 106q66 14 116.5 36t84.5 57q-22 -5 -42 -5q-26 0 -54 10.5t-50.5 31.5t-37 52.5t-14.5 72.5q0 38 14.5 69.5t39.5 54
t58 34.5t70 12q9 0 18 -0.5t17 -1.5l-1 60q-103 -2 -204.5 -5.5t-185.5 -7.5l-3 110q39 0 88 0.5t101 1.5t104.5 2t98.5 2l-2 28q-1 23 -3 46t-5 34h132q-1 -6 -2 -17t-1.5 -23t-1.5 -22.5t-1 -16.5q0 -5 -0.5 -12.5t-0.5 -15.5h112q-14 27 -29 53.5t-32 52.5l76 31
q17 -25 34 -54t30 -55zM413 184q14 0 27 6t22 18.5t12 33t-1 50.5q-19 33 -59 33q-26 0 -48 -18.5t-22 -54.5q0 -31 21.5 -49.5t47.5 -18.5zM802 605q-14 29 -29.5 56t-34.5 53l78 30q17 -24 33.5 -52.5t30.5 -53.5z" />
    <glyph glyph-name="uni305B" unicode="&#x305b;" horiz-adv-x="920" 
d="M694 505q19 2 36 3t33 2q18 2 42 3t44 3v-112h-17q-10 0 -23 -0.5t-25.5 -1t-21.5 -0.5l-70 -4q-1 -26 -2.5 -52t-3 -50t-3.5 -44t-4 -35q-8 -36 -26.5 -47.5t-53.5 -11.5q-12 0 -30.5 1.5t-38 3.5t-38 4t-30.5 4l3 101q21 -5 45 -8t38 -3t20 3.5t8 17.5q3 18 5 47t3 62
q-61 -5 -125 -11.5t-122 -12.5q0 -31 -0.5 -61.5t-0.5 -57.5v-49q0 -22 1 -37q1 -33 4.5 -54.5t18 -33.5t43.5 -16.5t80 -4.5q33 0 70 2t73.5 5.5t69.5 7.5t58 9l-4 -124q-23 -3 -54 -6t-65.5 -5t-70.5 -3.5t-68 -1.5q-89 0 -141 10t-80 34t-37 64t-11 100q0 15 -0.5 37.5
t-0.5 50.5v122l-61 -6l-109 -16l-12 117q20 0 49.5 1.5t64.5 4.5l69 6v92q0 29 -2 53t-5 47h128q-2 -22 -3.5 -43.5t-1.5 -50.5v-38q0 -22 -1 -49q58 6 121.5 12t126.5 11v102q0 9 -0.5 20.5t-1.5 23.5t-3 22l-2 18h123q-1 -6 -2 -15.5t-1.5 -20.5t-1.5 -22t-1 -20z" />
    </font>
</defs>
</svg>
