<?xml version="1.0" standalone="no"?>
<!DOCTYPE svg PUBLIC "-//W3C//DTD SVG 1.1//EN" "http://www.w3.org/Graphics/SVG/1.1/DTD/svg11.dtd" >
<svg xmlns="http://www.w3.org/2000/svg" xmlns:xlink="http://www.w3.org/1999/xlink" version="1.1">
<metadata>
Created by FontForge 20170731 at Thu Sep 30 22:57:18 2021
 By Aleksey,,,
Copyright (c) 2021 by SANGJU CITY. All rights reserved.
</metadata>
<defs>
<font id="SANGJUDajungdagam" horiz-adv-x="1000" >
  <font-face 
    font-family="SANGJU Dajungdagam"
    font-weight="400"
    font-stretch="normal"
    units-per-em="1000"
    panose-1="2 11 6 0 0 1 1 1 1 1"
    ascent="750"
    descent="-250"
    x-height="412"
    cap-height="608"
    bbox="-25 -251 1010.86 767"
    underline-thickness="75"
    underline-position="-199"
    unicode-range="U+0020-FFE6"
  />
<missing-glyph horiz-adv-x="960" 
 />
    <glyph glyph-name=".notdef" horiz-adv-x="960" 
 />
    <glyph glyph-name=".null" horiz-adv-x="0" 
 />
    <glyph glyph-name="nonmarkingreturn" horiz-adv-x="333" 
 />
    <glyph glyph-name="space" unicode=" " horiz-adv-x="200" 
 />
    <glyph glyph-name="space" unicode="&#xa0;" horiz-adv-x="200" 
 />
    <glyph glyph-name="exclam" unicode="!" horiz-adv-x="190" 
d="M51 200v339q0 28 6 42t25 23l13 6q8 4 17 4q13 0 19 -10.5t6 -26.5v-339q0 -56 -31 -66l-13 -4q-8 -2 -12 -2q-13 0 -21.5 9.5t-8.5 24.5zM47 28v4q0 20 5.5 30t25.5 15l23 6q6 2 16 2q26 0 26 -35v-4q0 -14 -7 -22t-24 -12l-23 -6q-6 -2 -18 -2q-24 0 -24 24z" />
    <glyph glyph-name="quotedbl" unicode="&#x22;" horiz-adv-x="261" 
d="M149 478v101q0 32 3.5 44.5t21.5 20.5l13 6q8 4 16 4q20 0 20 -37v-101q0 -30 -5 -45.5t-20 -20.5l-13 -4q-8 -2 -11 -2q-12 0 -18.5 9t-6.5 25zM38 478v101q0 32 3.5 44.5t21.5 20.5l13 6q8 4 16 4q20 0 20 -37v-101q0 -30 -5 -45.5t-20 -20.5l-13 -4q-8 -2 -11 -2
q-12 0 -18.5 9t-6.5 25z" />
    <glyph glyph-name="numbersign" unicode="#" horiz-adv-x="514" 
d="M297 38v142h-11h-69v-93q0 -56 -31 -66l-13 -4q-8 -2 -12 -2q-13 0 -21.5 9.5t-8.5 24.5v130h-74q-32 0 -32 17q0 5 4 15l3 7q8 13 18 17t27 5q16 1 54 1v163h-74q-32 0 -32 17q0 5 4 15l3 7q8 13 18 17t27 5q16 1 54 1v73q0 28 6 42t25 23l13 6q8 4 17 4q13 0 19 -10.5
t6 -26.5v-110h45h35v85q0 28 6 42t25 23l13 6q8 4 17 4q13 0 19 -10.5t6 -26.5v-124q47 0 66 -1q20 -1 31.5 -5.5t8.5 -20.5l-1 -7q-2 -15 -17 -22t-30 -6q-11 0 -58 1v-164q47 0 66 -1q20 -1 31.5 -5.5t8.5 -20.5l-1 -7q-2 -15 -17 -22t-30 -6q-11 0 -58 1v-104
q0 -56 -31 -66l-13 -4q-8 -2 -12 -2q-13 0 -21.5 9.5t-8.5 24.5zM262 242h35v163h-11h-69v-163h45z" />
    <glyph glyph-name="dollar" unicode="$" horiz-adv-x="440" 
d="M185 44v29q-38 4 -69 22q-38 22 -61 50.5t-29 49.5q-2 4 -2 11q0 6 3 10.5t7 8t6 4.5l8 7q7 7 18 7q13 0 21 -14q29 -46 56 -67q17 -13 42 -18v171q-57 18 -84 42q-34 31 -34 84q0 63 40 100q31 29 78 35q1 18 3 26q4 13 22 21l13 6q8 4 16 4q20 0 20 -37v-21q3 -1 6 -1
q19 -4 44 -18q22 -12 34.5 -26t12.5 -26q0 -7 -5 -14l-12 -16q-6 -9 -17 -9t-28 14q-18 16 -35 24v-132l8 -2q62 -16 100.5 -56t38.5 -91q0 -67 -50 -108q-35 -29 -97 -38q-1 -26 -5 -40q-5 -15 -20 -20l-13 -4q-8 -2 -11 -2q-12 0 -18.5 9t-6.5 25zM300 161q29 20 29 59
q0 37 -29 54q-16 10 -41 19v-149q24 5 41 17zM164 496q-20 -17 -20 -46q0 -25 12 -40q12 -13 29 -20v117q-12 -4 -21 -11z" />
    <glyph glyph-name="percent" unicode="%" horiz-adv-x="482" 
d="M49 37q-22 2 -22 20q0 13 8 25l301 489q12 24 24 36t31 13l20 1q32 1 32 -17q0 -8 -6 -19l-304 -499q-17 -28 -29 -39.5t-28 -10.5zM281 142q0 42 20.5 64.5t71.5 22.5q40 0 61 -23t21 -60q0 -34 -26 -60t-68 -26q-38 0 -59 22.5t-21 59.5zM395 149q0 11 -8 19t-18 8
q-12 0 -19 -8.5t-7 -23.5q0 -11 5.5 -21.5t15.5 -10.5q31 0 31 37zM38 504q0 42 20.5 64.5t71.5 22.5q40 0 61 -23t21 -60q0 -34 -26 -60t-68 -26q-38 0 -59 22.5t-21 59.5zM152 511q0 11 -8 19.5t-18 8.5q-12 0 -19 -9t-7 -24q0 -11 5.5 -21.5t15.5 -10.5q31 0 31 37z" />
    <glyph glyph-name="ampersand" unicode="&#x26;" horiz-adv-x="489" 
d="M383 59l-32 34q-16 -12 -33 -23q-57 -35 -133 -35q-67 0 -114 34.5t-47 110.5q0 42 21 81t52 68q9 8 17 15l-24 27l-9 12q-31 42 -31 97q0 60 41 98q43 42 109 42t106.5 -31.5t40.5 -86.5q0 -54 -30 -97q-26 -38 -80 -73l117 -122q22 32 34 62q10 23 17 31.5t19 8.5
q8 0 12 -1l16 -4q17 -5 17 -26q0 -19 -15 -52q-12 -33 -45 -77l59 -61q12 -13 12 -24q0 -13 -17 -24l-13 -8q-10 -5 -18 -5q-23 0 -49 29zM139 259q-32 -36 -32 -78q0 -71 97 -71q41 0 78 26q8 6 17 12l-131 139q-16 -13 -29 -28zM237 429q29 27 29 57q0 27 -17.5 44
t-47.5 19q-29 0 -46.5 -19t-21.5 -43q-5 -36 15 -61l36 -38q31 21 53 41z" />
    <glyph glyph-name="quotesingle" unicode="'" horiz-adv-x="150" 
d="M38 478v101q0 32 3.5 44.5t21.5 20.5l13 6q8 4 16 4q20 0 20 -37v-101q0 -30 -5 -45.5t-20 -20.5l-13 -4q-8 -2 -11 -2q-12 0 -18.5 9t-6.5 25z" />
    <glyph glyph-name="parenleft" unicode="(" horiz-adv-x="260" 
d="M138 -16q-51 66 -77.5 161.5t-26.5 178.5q0 108 39.5 207.5t128.5 145.5q6 3 11 3q9 0 15.5 -6.5t6.5 -15.5q0 -14 -12 -23q-46 -38 -70.5 -99.5t-31.5 -119.5t-5 -96q4 -80 17.5 -159t52.5 -155q1 -2 9 -15.5t8 -24.5q0 -10 -7 -14q-5 -4 -12 -4q-17 0 -46 36z" />
    <glyph glyph-name="parenright" unicode=")" horiz-adv-x="260" 
d="M64 -48q-7 4 -7 14q0 11 8 24.5t9 15.5q39 76 52.5 155t17.5 159q2 38 -5 96t-31.5 119.5t-70.5 99.5q-12 9 -12 23q0 9 6.5 15.5t15.5 6.5q5 0 11 -3q89 -46 128.5 -145.5t39.5 -207.5q0 -83 -26.5 -178.5t-77.5 -161.5q-28 -36 -46 -36q-7 0 -12 4z" />
    <glyph glyph-name="asterisk" unicode="*" horiz-adv-x="449" 
d="M69 305q-32 0 -32 17q0 5 4 15l3 7q8 13 18 17t27 5q20 1 60 1l-59 67q-12 14 -12 28q0 19 24 19h14q19 0 31.5 -9.5t36.5 -36.5l40 -46l46 58q21 26 34.5 36t33.5 10h14q24 0 24 -18q0 -14 -12 -29l-62 -78q47 -1 70 -2q20 -1 31.5 -5.5t8.5 -20.5l-1 -7q-2 -15 -17 -22
t-30 -6q-13 0 -65 1l75 -83q10 -10 10 -23q0 -9 -5.5 -15.5t-15.5 -7.5l-12 -2l-8 -1q-14 0 -25.5 9t-22.5 21.5t-15 17.5l-50 55l-46 -58q-23 -28 -37 -39t-34 -8l-12 2q-10 1 -15.5 7t-5.5 15q0 11 10 24l68 85h-89z" />
    <glyph glyph-name="plus" unicode="+" horiz-adv-x="444" 
d="M180 182v124h-118q-32 0 -32 17q0 5 4 15l3 7q8 13 18 17t27 5q29 1 98 2v82q0 28 6 42t25 23l13 6q8 4 17 4q13 0 19 -10.5t6 -26.5v-120q77 -1 108 -2q20 -1 31.5 -5.5t8.5 -20.5l-1 -7q-2 -15 -17 -22t-30 -6q-17 1 -100 1v-87q0 -56 -31 -66l-13 -4q-8 -2 -12 -2
q-13 0 -21.5 9.5t-8.5 24.5z" />
    <glyph glyph-name="comma" unicode="," horiz-adv-x="155" 
d="M31 33q0 19 12 31.5t31 16.5q3 1 8 1q17 0 27 -14q5 -7 8 -16v-2q2 -6 2 -12q0 -31 -34 -41q1 6 1 12q0 18 -6 37l36 9q0 -2 1 -3v-2q6 -18 6 -39q0 -42 -23 -82q-10 -17 -21 -17q-6 0 -12 3q-9 4 -9 11q0 5 4 11.5t6 9.5q14 28 17 50q-5 -2 -11 -3q-3 -1 -9 -1
q-15 0 -24.5 10.5t-9.5 29.5z" />
    <glyph glyph-name="hyphen" unicode="-" horiz-adv-x="390" 
d="M68 305q-32 0 -32 17q0 5 4 15l3 7q8 13 18 17t27 5q38 2 112 2q75 0 113 -2q20 -1 31.5 -5.5t8.5 -20.5l-1 -7q-2 -15 -17 -22t-30 -6q-20 1 -98 1z" />
    <glyph glyph-name="period" unicode="." horiz-adv-x="150" 
d="M31 33q0 19 12 31.5t31 16.5q3 1 8 1q17 0 27 -13.5t10 -30.5q0 -35 -45 -44q-3 -1 -9 -1q-15 0 -24.5 10.5t-9.5 29.5z" />
    <glyph glyph-name="slash" unicode="/" horiz-adv-x="415" 
d="M59 37q-12 1 -18.5 7t-6.5 17q0 9 6 21l243 489q12 24 23.5 35.5t31.5 13.5l10 1q31 3 31 -17q0 -10 -5 -19l-246 -499q-14 -28 -25 -39.5t-27 -10.5z" />
    <glyph glyph-name="zero" unicode="0" horiz-adv-x="460" 
d="M100 105q-49 77 -49 213q0 156 50 228.5t129 72.5q91 0 133 -68q45 -72 45 -233q0 -139 -46 -215t-133 -76q-81 0 -129 78zM325 322q0 101 -25 168q-24 63 -71 63q-26 0 -48 -31.5t-35 -85t-13 -114.5q0 -84 25 -154t71 -70t71 68.5t25 155.5z" />
    <glyph glyph-name="one" unicode="1" horiz-adv-x="300" 
d="M83 24q-32 0 -32 17q0 5 4 15l3 7q8 13 18 17t27 5h8v452q0 28 6 42t25 23l13 6q8 4 17 4q13 0 19 -10.5t6 -26.5v-474q0 -8 -1 -16h17q20 -1 31.5 -5.5t8.5 -20.5l-1 -7q-2 -15 -17 -22t-30 -6q-16 1 -45 1zM88 533q-14 0 -23.5 4.5t-9.5 20.5q0 14 18 25l82 25l3 1
q2 1 6 1q9 0 9 -12v-65h-85z" />
    <glyph glyph-name="two" unicode="2" horiz-adv-x="460" 
d="M72 24q-32 0 -32 17q0 5 4 15l3 7q5 9 11 13q7 7 31 33q30 33 86 104q50 66 78 132t28 119q0 40 -15 61t-42 21q-25 -3 -41 -12t-30 -26q-7 -6 -19 -6q-8 0 -17 3l-15 5q-13 4 -13 16q0 16 23 42q48 51 120 51q143 0 138 -164q0 -49 -24.5 -109t-66.5 -123
q-36 -53 -81 -107q-13 -15 -25 -29h65q109 0 149 -2q20 -1 31.5 -5.5t8.5 -20.5l-1 -7q-2 -15 -17 -22t-30 -6q-17 1 -96 1z" />
    <glyph glyph-name="three" unicode="3" horiz-adv-x="430" 
d="M179 319l-8 4q-6 3 -6 9q0 18 12 26h-1q21 7 32 14t33 29q17 17 28.5 43t8.5 52q-2 21 -17 35t-37 14q-4 0 -14 -2q-26 -8 -51 -28q-19 -21 -34 -21q-7 0 -13 6l-9 9q-10 10 -10 22t8 21q65 66 129 66q59 0 92 -34.5t33 -100.5q0 -80 -67 -132q17 -8 35 -21
q42 -32 56 -91q6 -24 6 -62q0 -73 -44.5 -116.5t-124.5 -43.5q-54 0 -98.5 24.5t-65.5 50.5q-11 14 -11 26q0 9 6 18l8 11q10 7 20 7q12 0 21 -12q53 -49 116 -47q89 10 89 89q0 63 -40 97q-13 10 -36 21q-19 10 -30 13z" />
    <glyph glyph-name="four" unicode="4" horiz-adv-x="485" 
d="M275 48v200l-203 -1q-32 0 -32 17q0 4 3 12q0 2 1 4l72 239q8 26 18 37t31 15l15 3q5 1 12 1q22 0 22 -19q0 -7 -3 -16l-68 -227q-1 -2 -1 -4q44 1 119 1h14v230q0 28 6 42t25 23l13 6q8 4 17 4q13 0 19 -10.5t6 -26.5v-269q50 0 72 -1q20 -1 31.5 -5.5t8.5 -20.5l-1 -7
q-2 -15 -17 -22t-30 -6q-12 0 -64 1v-162q0 -56 -31 -66l-13 -4q-8 -2 -12 -2q-13 0 -21.5 9.5t-8.5 24.5z" />
    <glyph glyph-name="five" unicode="5" horiz-adv-x="410" 
d="M95 360v167v18h-9q-32 0 -32 17q0 5 4 15l3 7q8 13 18 17t27 5q38 2 120 2q83 0 123 -2q20 -1 31.5 -5.5t8.5 -20.5l-1 -7q-2 -15 -17 -22t-30 -6q-17 1 -81 1l-79 -1v-147v-11q77 -1 125 -48q49 -48 49 -143q0 -38 -14 -74q-15 -41 -55.5 -69t-95.5 -28q-105 0 -150 103
q-2 6 -2 9q0 12 12 22l9 8q8 8 18 8q18 0 32 -29q16 -29 34.5 -40.5t40.5 -11.5q42 0 67 31t25 83q0 57 -35 92q-16 15 -49 20.5t-66 5.5h-1q-13 0 -21.5 9.5t-8.5 24.5z" />
    <glyph glyph-name="six" unicode="6" horiz-adv-x="420" 
d="M50 307q0 77 23 147.5t67.5 115.5t107.5 45q34 0 53 -8.5t39 -23.5q7 -7 7 -15q0 -5 -5 -18q-7 -15 -14 -24q-6 -8 -14 -3q-26 18 -62 18q-22 0 -45 -15.5t-37 -43.5q-17 -33 -29 -81q-9 -36 -12 -77q10 8 21 15q32 19 76 19q43 -2 79 -22t57.5 -58t21.5 -90
q0 -50 -22.5 -87t-60 -56.5t-81.5 -19.5q-85 0 -129 69.5t-41 212.5zM131 213q3 -31 14 -55q14 -31 31 -48t43 -17q35 0 62 26.5t27 70.5q0 48 -26.5 75.5t-59.5 27.5t-56 -18t-35 -41q0 -1 -1 -2q1 -11 1 -19z" />
    <glyph glyph-name="seven" unicode="7" horiz-adv-x="420" 
d="M51 423v114q0 12 1 21v3q0 5 4 15l3 7q8 13 18 17t27 5q38 2 111 2t113 -2q20 -1 31.5 -5.5t8.5 -20.5l-1 -4v-8l-57 -481q-6 -54 -39 -61l-14 -3q-17 -4 -28 7t-9 30l57 471q1 8 2 15h-35l-107 -1v-83q0 -57 -31 -66l-13 -4q-8 -2 -12 -2q-13 0 -21.5 9.5t-8.5 24.5z
" />
    <glyph glyph-name="eight" unicode="8" horiz-adv-x="432" 
d="M68 471q0 37 22.5 71.5t58.5 55.5t74 21q67 0 100.5 -36t33.5 -101q0 -61 -40 -108q-19 -23 -44 -39q12 -7 23 -16q39 -29 61.5 -71.5t22.5 -89.5q0 -35 -19.5 -65t-57.5 -48.5t-93 -18.5q-70 0 -114.5 40.5t-44.5 107.5q0 58 43 109q25 29 59 49q-6 3 -12 8
q-34 24 -53.5 59t-19.5 72zM298 165q0 33 -15 60.5t-34.5 45t-32.5 21.5q-11 -3 -32 -20.5t-37 -42t-16 -46.5q0 -42 22 -63.5t61 -21.5q42 0 63 20t21 47zM287 481q0 61 -65 61q-31 0 -54.5 -23t-23.5 -53q0 -33 18 -54t51 -37q24 13 49 42t25 64z" />
    <glyph glyph-name="nine" unicode="9" horiz-adv-x="410" 
d="M51 472q0 60 38 105t125 45q52 0 85 -27t47 -66q12 -31 14 -61q1 -3 1 -5q1 -12 1 -35q0 -113 -35.5 -219.5t-92.5 -172.5q-25 -31 -50 -31q-4 0 -14 2l-13 4q-11 3 -17.5 11t-6.5 18q0 12 10 22q64 67 99 163q21 56 31 114q-28 -20 -76 -20q-66 0 -106 39t-40 114z
M278 499q-3 20 -18.5 37.5t-50.5 17.5q-81 0 -82 -79q4 -88 79 -88q34 0 54.5 18.5t20.5 57.5q-1 21 -3 36z" />
    <glyph glyph-name="colon" unicode=":" horiz-adv-x="150" 
d="M31 492q0 20 12.5 31.5t30.5 11.5q21 0 33 -12.5t12 -30.5q0 -20 -13 -32t-32 -12t-31 11t-12 33zM31 181q0 20 12.5 31.5t30.5 11.5q21 0 33 -12.5t12 -30.5q0 -20 -13 -32t-32 -12t-31 11t-12 33z" />
    <glyph glyph-name="semicolon" unicode=";" horiz-adv-x="155" 
d="M31 181q0 20 12.5 31.5t30.5 11.5q21 0 33 -13q6 -6 9 -13q8 -22 8 -47q0 -55 -40 -86q-15 -13 -24 -13q-7 0 -11 6q-5 6 -5 13q0 9 14 19q26 20 29 48q-6 -1 -13 -1q-19 0 -31 11t-12 33zM31 492q0 20 12.5 31.5t30.5 11.5q21 0 33 -12.5t12 -30.5q0 -20 -13 -32
t-32 -12t-31 11t-12 33z" />
    <glyph glyph-name="less" unicode="&#x3c;" horiz-adv-x="404" 
d="M330 34q-13 -2 -23.5 3t-22 17.5t-17.5 18.5l-221 226q-13 13 -13 25v1v2q1 11 13 23l221 226q6 6 16 17t20.5 17.5t26.5 4.5l20 -3q30 -4 30 -19q0 -8 -11 -21l-228 -243q-2 -3 -5 -5l5 -4l228 -243q11 -13 11 -21q0 -14 -30 -19z" />
    <glyph glyph-name="equal" unicode="=" horiz-adv-x="450" 
d="M65 390q-32 0 -32 17q0 5 4 15l3 7q8 13 18 17t27 5q38 2 145 2q109 0 147 -2q20 -1 31.5 -5.5t8.5 -20.5l-1 -7q-2 -15 -17 -22t-30 -6q-20 1 -124 1zM65 220q-32 0 -32 17q0 5 4 15l3 7q8 13 18 17t27 5q38 2 145 2q109 0 147 -2q20 -1 31.5 -5.5t8.5 -20.5l-1 -7
q-2 -15 -17 -22t-30 -6q-20 1 -124 1z" />
    <glyph glyph-name="greater" unicode="&#x3e;" horiz-adv-x="402" 
d="M63 37q-30 5 -30 19q0 8 11 21l228 243l4 4q-2 3 -4 5l-228 243q-11 13 -11 21q0 15 30 19l20 3q13 2 23.5 -3t22 -17.5t17.5 -18.5l221 -226q12 -12 13 -23v-2v-4q-2 -11 -13 -22l-221 -226q-6 -6 -16 -17t-20.5 -17.5t-26.5 -4.5z" />
    <glyph glyph-name="question" unicode="?" horiz-adv-x="300" 
d="M92 200v55q0 35 11 63t33 67q19 36 28.5 59t9.5 50q0 30 -8.5 42t-24.5 12q-11 0 -24 -9.5t-25 -25.5q-10 -15 -26 -15q-9 0 -17 6l-11 8q-7 6 -7 15q0 14 20 41q37 51 110 51q43 0 70.5 -32.5t27.5 -91.5q0 -40 -11.5 -71t-33.5 -67q-18 -32 -27 -54t-9 -48v-17
q0 -56 -31 -66l-13 -4q-8 -2 -12 -2q-13 0 -21.5 9.5t-8.5 24.5zM87 28v4q0 20 5.5 30t25.5 15l23 6q6 2 16 2q26 0 26 -35v-4q0 -14 -7 -22t-24 -12l-23 -6q-6 -2 -18 -2q-24 0 -24 24z" />
    <glyph glyph-name="at" unicode="@" horiz-adv-x="605" 
d="M170 228q-13 36 -13 73q9 159 137 170q27 0 44 -8q11 -6 19 -12q1 2 1 3q6 13 22 20l11 5q8 4 15 4q11 0 16 -9.5t5 -22.5v-41q0 -61 3.5 -99t15.5 -71q6 -19 17 -25l4 -1q14 -5 18 25.5t4 82.5q0 68 -23.5 120t-64 80.5t-89.5 28.5q-47 0 -92 -27t-74.5 -79t-29.5 -123
q0 -67 23 -118.5t63 -80t90 -28.5q33 0 70 7q32 4 42 4q20 0 28 -9l7 -11q4 -8 4 -12q0 -23 -44.5 -35t-106.5 -12q-90 0 -147.5 47t-83.5 114t-26 129q0 96 37.5 164t101 103t139.5 35q73 0 131.5 -36t92 -104.5t33.5 -161.5q0 -79 -28.5 -127t-76.5 -48q-19 0 -33.5 9
t-29.5 29q-3 2 -3 5q-11 16 -20 35q-8 -14 -19 -26q-34 -37 -93 -37q-39 0 -62.5 20.5t-34.5 50.5zM343 396q-11 12 -36 12q-77 -6 -83 -101q0 -43 13 -64t46 -21q18 1 36 13t29.5 34t10.5 51v-1q-2 26 -4 56v-1q0 10 -12 22z" />
    <glyph glyph-name="A" unicode="A" horiz-adv-x="570" 
d="M63 33q-14 1 -21.5 9t-7.5 21q0 8 3 15l170 473q9 25 20 37q8 8 20 11q8 3 21 3h6h12q18 -1 29 -12q13 -11 22 -35l196 -493q4 -9 3 -17q0 -11 -7 -19t-20 -10l-15 -2q-31 -4 -52 48l-75 188q-19 1 -64 1l-115 -1l-60 -168q-9 -26 -21 -38.5t-29 -11.5zM280 313
q35 0 62 -1l-69 175l-63 -175q30 1 70 1z" />
    <glyph glyph-name="B" unicode="B" horiz-adv-x="490" 
d="M70 57v480q0 28 6 42t25 23l13 6q8 4 17 4q13 0 19 -11q4 -8 6 -20q71 19 125 19q125 0 125 -112q0 -92 -74 -135q52 -16 83 -57t31 -101q0 -92 -65.5 -127t-183.5 -35q-20 0 -61 2q-5 -4 -11 -6l-13 -4q-8 -2 -12 -2q-13 0 -21.5 9.5t-8.5 24.5zM291 115q75 12 75 86
q0 39 -27.5 63.5t-65.5 32.5q-42 7 -80 7h-15q-11 -2 -22 -3v-196q73 0 135 10zM267 399q57 28 57 83q0 29 -30 45q-10 5 -28 5q-36 0 -110 -20v-139q68 6 111 26z" />
    <glyph glyph-name="C" unicode="C" horiz-adv-x="520" 
d="M81 156q-34 72 -34 136q0 143 62 221.5t176 89.5q24 2 36 2q49 0 99 -16q25 -8 39.5 -20.5t14.5 -25.5t-13 -23q-2 -2 -16 -12q-10 -7 -20 -7t-24 8q-19 10 -54 15t-58 2q-73 -8 -114.5 -67t-41.5 -158q0 -52 21.5 -98.5t64.5 -76t104 -29.5q42 0 68 7t65 22l8 2
q8 0 14.5 -5t6.5 -13t-8 -19q-52 -70 -176 -70q-84 0 -138.5 38t-81.5 97z" />
    <glyph glyph-name="D" unicode="D" horiz-adv-x="555" 
d="M70 57v480q0 28 6 42t25 23l13 6q8 4 17 4q13 0 19 -11q3 -5 4 -11q39 15 100 15q271 0 271 -209q-1 -161 -126 -256q-112 -85 -258 -101q-7 -7 -16 -10l-13 -4q-8 -2 -12 -2q-13 0 -21.5 9.5t-8.5 24.5zM327 183q56 32 85 85t29 117q0 65 -52.5 105.5t-131.5 40.5
q-19 0 -39 -3q-23 -3 -54 -11l-8 -2v-400q73 11 171 68z" />
    <glyph glyph-name="E" unicode="E" horiz-adv-x="470" 
d="M70 57v480q0 28 6 42t25 23l13 6q8 4 17 4q10 0 16 -7q3 1 7 1q38 2 114 2q78 0 116 -2q19 -1 30.5 -5.5t9.5 -20.5l-1 -7q-2 -15 -17 -22t-30 -6q-17 1 -78 1l-142 -1v-170q37 2 97 2q63 0 101 -2q20 -1 31.5 -5.5t8.5 -20.5l-1 -7q-2 -15 -17 -22t-30 -6q-17 1 -70 1
l-120 -1v-219q38 2 122 2q88 0 126 -2q20 -1 31.5 -5.5t8.5 -20.5l-1 -7q-2 -15 -17 -22t-30 -6q-17 1 -83 1l-178 -1q-5 -3 -10 -5l-13 -4q-8 -2 -12 -2q-13 0 -21.5 9.5t-8.5 24.5z" />
    <glyph glyph-name="F" unicode="F" horiz-adv-x="450" 
d="M70 57v480q0 28 6 42t25 23l13 6q8 4 17 4t14 -5q36 1 95 1q78 0 116 -2q19 -1 30.5 -5.5t9.5 -20.5l-1 -7q-2 -15 -17 -22t-30 -6q-17 1 -78 1l-114 -1v-170q37 2 104 2q78 0 116 -2q20 -1 31.5 -5.5t8.5 -20.5l-1 -7q-2 -15 -17 -22t-30 -6q-17 1 -78 1l-134 -1v-219
q0 -56 -31 -66l-13 -4q-8 -2 -12 -2q-13 0 -21.5 9.5t-8.5 24.5z" />
    <glyph glyph-name="G" unicode="G" horiz-adv-x="590" 
d="M71 189q-20 53 -24 118q-3 272 198 306q18 2 28 2q46 0 77 -16q50 -25 50 -48q0 -10 -10 -20l-12 -11q-8 -5 -17 -5q-14 0 -28 10q-12 9 -38 14t-45 3q-62 -11 -92.5 -69t-30.5 -157q0 -72 38 -121q17 -23 45 -36t55 -13q29 1 51 5.5t66 16.5l5 1q12 0 12 -16
q0 -6 -2 -12q-14 -34 -54.5 -52t-91.5 -18q-64 0 -111 32t-69 86zM270 314q-32 0 -32 17q0 5 4 15l3 7q8 13 18 17t27 5q38 2 119 2q83 0 121 -2q20 -1 31.5 -5.5t8.5 -20.5l-1 -7q-2 -15 -17 -22t-30 -6q-9 0 -30 1v-230q0 -56 -31 -66l-13 -4q-8 -2 -12 -2
q-13 0 -21.5 9.5t-8.5 24.5v250v18z" />
    <glyph glyph-name="H" unicode="H" horiz-adv-x="558" 
d="M402 57v268q-22 1 -71 1l-175 -1v-210q0 -56 -31 -66l-13 -4q-8 -2 -12 -2q-13 0 -21.5 9.5t-8.5 24.5v440q0 28 6 42t25 23l13 6q8 4 17 4q13 0 19 -10.5t6 -26.5v-169q39 2 133 2q73 0 113 -1v150q0 28 6 42t25 23l13 6q8 4 17 4q13 0 19 -10.5t6 -26.5v-480
q0 -56 -31 -66l-13 -4q-8 -2 -12 -2q-13 0 -21.5 9.5t-8.5 24.5z" />
    <glyph glyph-name="I" unicode="I" horiz-adv-x="370" 
d="M82 546q-32 0 -32 17q0 5 4 15l3 7q8 13 18 17t27 5q38 2 79 2q43 0 81 -2q20 -1 31.5 -5.5t8.5 -20.5l-1 -7q-2 -15 -17 -22t-30 -6q-10 0 -28 1v-432q0 -11 -1 -20q43 -1 71 -2q20 -1 31.5 -5.5t8.5 -20.5l-1 -7q-2 -15 -17 -22t-30 -6q-17 1 -72 1l-150 -1
q-32 0 -32 17q0 5 4 15l3 7q8 13 18 17t27 5q22 1 54 2v432q0 11 1 19h-59z" />
    <glyph glyph-name="J" unicode="J" horiz-adv-x="400" 
d="M89 546q-32 0 -32 17q0 5 4 15l3 7q8 13 18 17t27 5q38 2 109 2q73 0 111 -2q20 -1 31.5 -5.5t8.5 -20.5l-1 -7q-2 -15 -17 -22t-30 -6q-9 0 -36 1l4 -47q15 -172 15 -271q0 -41 -1 -62q0 -65 -35 -104t-105 -39q-65 0 -104 51q-25 36 -25 71q0 22 7 36q4 7 10 11.5
t12 4.5q10 0 13 -10q9 -39 31 -68q19 -24 50 -24q41 0 52 23.5t11 62.5l1 39q0 97 -16 284l-3 41h-113z" />
    <glyph glyph-name="K" unicode="K" horiz-adv-x="500" 
d="M70 57v480q0 28 6 42t25 23l13 6q8 4 17 4q13 0 19 -10.5t6 -26.5v-199l189 187q32 32 54 32q8 0 15 -4l13 -8q16 -10 16 -25q0 -14 -13 -27l-217 -215l234 -229q13 -12 13 -26q0 -16 -16 -26l-13 -8q-7 -4 -15 -4q-20 0 -54 32l-206 204v-1v-163q0 -56 -31 -66l-13 -4
q-8 -2 -12 -2q-13 0 -21.5 9.5t-8.5 24.5z" />
    <glyph glyph-name="L" unicode="L" horiz-adv-x="500" 
d="M111 43h-7h-4q-13 0 -21.5 9.5t-8.5 24.5v460q0 28 6 42t25 23l13 6q8 4 17 4q13 0 19 -10.5t6 -26.5v-460v-10q40 1 114 1q103 0 141 -2q20 -1 31.5 -5.5t8.5 -20.5l-1 -7q-2 -15 -17 -22t-30 -6q-17 1 -91 1z" />
    <glyph glyph-name="M" unicode="M" horiz-adv-x="638" 
d="M70 57v480q0 28 6 42t25 23l13 6q8 4 17 4q13 0 22 -7.5t25 -26.5l14 -17l137 -169l143 177q4 5 18 25t27 26l9 4q8 4 15 4q13 0 20 -11t7 -26v-496q0 -56 -31 -66l-13 -4q-8 -2 -12 -2q-13 0 -21.5 9.5t-8.5 24.5l3 418l-81 -110q-4 -5 -17 -22.5t-24.5 -26t-22.5 -8.5
h-15q-18 0 -29.5 10.5t-23.5 26.5l-18 24l-101 135l3 -409q0 -56 -31 -66l-13 -4q-8 -2 -12 -2q-13 0 -21.5 9.5t-8.5 24.5z" />
    <glyph glyph-name="N" unicode="N" horiz-adv-x="574" 
d="M70 57v480q0 28 6 42t25 23l13 6q8 4 17 4h3q2 0 5 -1q4 -2 7 -5q5 -4 10 -9q14 -14 25 -32l237 -382v371q0 28 6 42t25 23l13 6q8 4 17 4q13 0 19 -10.5t6 -26.5v-497q0 -56 -31 -66l-13 -4q-8 -2 -12 -2h-4h-3q-9 2 -15 9q-2 2 -3 5q-12 12 -26 35l-241 389v-366
q0 -56 -31 -66l-13 -4q-8 -2 -12 -2q-13 0 -21.5 9.5t-8.5 24.5z" />
    <glyph glyph-name="O" unicode="O" horiz-adv-x="549" 
d="M87 136q-40 78 -40 181q17 302 228 302q216 0 227 -302q0 -69 -22.5 -135t-74 -110.5t-131.5 -44.5q-67 0 -114 29.5t-73 79.5zM417 322q-1 106 -38 166.5t-105 60.5q-64 0 -99.5 -59.5t-42.5 -167.5q0 -53 16 -105t48 -86t78 -34q69 0 106 66t37 159z" />
    <glyph glyph-name="P" unicode="P" horiz-adv-x="470" 
d="M70 57v480q0 28 6 42t25 23l13 6q8 4 17 4q13 0 19 -11q3 -6 5 -14q31 2 45 2q104 0 154 -32q63 -39 63 -142q0 -84 -78 -127q-72 -40 -183 -43v-150q0 -56 -31 -66l-13 -4q-8 -2 -12 -2q-13 0 -21.5 9.5t-8.5 24.5zM277 335q32 11 49 33t17 53q0 53 -34.5 78.5
t-105.5 25.5q-24 0 -47 -2v-211q70 5 121 23z" />
    <glyph glyph-name="Q" unicode="Q" horiz-adv-x="580" 
d="M506 50l-67 57q-15 -19 -34 -36q-51 -44 -131 -44q-67 0 -114 29.5t-73 79.5q-40 78 -40 181q17 302 228 302q216 0 227 -302q0 -67 -22 -132l108 -91q15 -12 15 -27q0 -14 -15 -25l-12 -9q-8 -7 -20 -7q-23 0 -50 24zM417 322q-1 106 -38 166.5t-105 60.5
q-64 0 -99.5 -59.5t-42.5 -167.5q0 -53 16 -105t48 -86t78 -34q67 0 104 63l-115 99q-14 12 -14 22q0 12 21 23l13 8q12 6 23 6q21 0 47 -23l57 -49q7 35 7 76z" />
    <glyph glyph-name="R" unicode="R" horiz-adv-x="490" 
d="M70 57v480q0 28 6 42t25 23l13 6q8 4 17 4q13 0 19 -11q3 -5 4 -12q39 7 74 7q57 0 106 -17q82 -28 82 -119q0 -55 -38.5 -99.5t-103.5 -70.5l224 -197q14 -12 14 -26t-15 -26l-12 -9q-9 -6 -19 -6q-22 0 -51 26l-245 214l-14 -1v-170q0 -56 -31 -66l-13 -4q-8 -2 -12 -2
q-13 0 -21.5 9.5t-8.5 24.5zM197 341q43 11 74 28q30 17 48 42.5t18 54.5q0 26 -18.5 42.5t-49.5 20.5q-21 3 -44 3q-33 0 -69 -6v-192q21 2 41 7z" />
    <glyph glyph-name="S" unicode="S" horiz-adv-x="480" 
d="M124 61q-34 24 -53.5 52t-19.5 58q0 11 3 21q1 6 7.5 12.5t12.5 6.5t10 -5l16 -20q22 -28 34 -40t33 -24q34 -20 70 -20q49 0 80.5 32t31.5 73q0 50 -31 76.5t-90 41.5q-76 20 -111.5 55t-35.5 89q0 66 41.5 105.5t105.5 39.5q35 0 55 -4.5t46 -17.5q23 -11 35 -22.5
t12 -25.5q0 -5 -3 -13l-6 -15q-6 -14 -21 -14q-13 0 -27 10q-20 14 -43.5 24t-42.5 10q-32 0 -53.5 -20t-21.5 -51q0 -38 26 -54t57 -23.5t40 -10.5q63 -16 95 -48q21 -21 35.5 -53t14.5 -67q0 -86 -49 -138t-148 -52q-23 0 -54 8.5t-51 23.5z" />
    <glyph glyph-name="T" unicode="T" horiz-adv-x="554" 
d="M66 545q-32 0 -32 17q0 5 4 15l3 7q5 13 15.5 17t29.5 5q38 2 196 2q160 0 198 -2q20 -1 31.5 -5.5t8.5 -20.5l-1 -7q-2 -15 -17 -22t-30 -6q-17 1 -124 1h-9v-451q0 -56 -31 -66l-13 -4q-8 -2 -12 -2q-13 0 -21.5 9.5t-8.5 24.5v459q0 17 2 29h-189z" />
    <glyph glyph-name="U" unicode="U" horiz-adv-x="558" 
d="M402 277v250q0 28 6 42t25 23l13 6q8 4 17 4q13 0 19 -10.5t6 -26.5v-250v-8v-32q0 -254 -207 -254q-193 0 -211 236v290q0 28 6 42t25 23l13 6q8 4 17 4q13 0 19 -10.5t6 -26.5v-270v-10v-28q0 -182 132 -182q57 0 88 48q23 37 26 126v8z" />
    <glyph glyph-name="V" unicode="V" horiz-adv-x="547" 
d="M286 34q-24 0 -37 12t-24 39l-188 483q-3 8 -3 15q0 13 7.5 20.5t21.5 9.5l15 1q33 3 52 -50l157 -417l130 417q8 24 22.5 37t31.5 11l15 -2q13 -1 20 -9.5t7 -20.5q0 -7 -3 -16l-161 -483q-8 -24 -20.5 -35.5t-33.5 -11.5h-9z" />
    <glyph glyph-name="W" unicode="W" horiz-adv-x="720" 
d="M241 34q-45 0 -61 51l-148 471q-2 10 -2 14q0 13 7.5 21.5t20.5 9.5l12 1q17 1 30.5 -12t21.5 -38l120 -403l68 347q4 21 10 32t18 14l19 5q16 4 24.5 -9t17.5 -44l99 -345l98 415q6 25 20 38.5t34 9.5l12 -2q26 -4 26 -31q0 -5 -2 -15l-126 -483q-6 -23 -20.5 -35
t-33.5 -12h-9q-24 0 -39.5 13.5t-21.5 37.5l-74 251l-58 -255q-5 -23 -20 -35t-34 -12h-9z" />
    <glyph glyph-name="X" unicode="X" horiz-adv-x="530" 
d="M69 78q-12 1 -19.5 7.5t-7.5 16.5t8 21l159 217l-161 204q-9 11 -9 19t8.5 13t23.5 5h20q16 0 25.5 -8t19 -20t14.5 -19l105 -132l109 148q5 8 14.5 22t18.5 20.5t22 6.5l20 1q16 1 24.5 -3.5t8.5 -13.5t-7 -19l-161 -222l192 -240q8 -11 8 -21t-7.5 -16.5t-18.5 -8.5
l-15 -2q-17 -2 -28 6t-21.5 22t-15.5 20l-140 176l-110 -151l-13 -19q-12 -18 -19.5 -25t-19.5 -6z" />
    <glyph glyph-name="Y" unicode="Y" horiz-adv-x="520" 
d="M240 57v274q-5 5 -9 11q-11 14 -17 21l-176 211q-9 11 -9 20q0 8 8.5 12.5t23.5 4.5h20q15 0 24.5 -7t21.5 -24l13 -16l136 -159l103 159q3 5 12.5 20.5t19.5 22t23 6.5l20 1q33 2 33 -17q0 -7 -7 -19l-132 -209q-14 -22 -22 -34v-240q0 -56 -31 -66l-13 -4q-8 -2 -12 -2
q-13 0 -21.5 9.5t-8.5 24.5z" />
    <glyph glyph-name="Z" unicode="Z" horiz-adv-x="520" 
d="M69 540q-32 0 -32 17q0 5 4 15l3 7q8 13 18 17t27 5q38 2 149 2q90 0 132 -1h5q32 1 32 -17q0 -8 -6 -19l-251 -468q47 1 131 1q140 0 178 -2q20 -1 31.5 -5.5t8.5 -20.5l-1 -7q-2 -15 -17 -22t-30 -6q-17 1 -113 1l-238 -1h-16q-8 0 -13 1h-6q-12 1 -18.5 7t-6.5 17
q0 9 6 21l248 459h-24z" />
    <glyph glyph-name="bracketleft" unicode="[" horiz-adv-x="270" 
d="M114 -37h-6h-1q-7 0 -12 3l-2 1q-4 2 -8 6q-8 9 -8 24v605q0 30 10 50q5 9 12 14q5 4 10 6q10 4 27 5q26 1 48 0q20 -1 31.5 -5.5t8.5 -20.5l-1 -7q-2 -15 -16.5 -21.5t-30.5 -6.5h-13v-581v-10h9q25 0 33 -1q20 -1 31.5 -5.5t8.5 -20.5l-1 -7q-2 -15 -16.5 -21.5
t-30.5 -6.5h-83z" />
    <glyph glyph-name="backslash" unicode="\" horiz-adv-x="425" 
d="M338 36q-16 -1 -27 10.5t-25 39.5l-246 499q-5 9 -5 19q0 18 31 17l20 -1q19 -1 31 -13t24 -36l243 -489q6 -12 6 -21q0 -11 -6.5 -17t-18.5 -7z" />
    <glyph glyph-name="bracketright" unicode="]" horiz-adv-x="270" 
d="M97 616q-16 0 -30.5 6.5t-16.5 21.5l-1 7q-3 16 8.5 20.5t31.5 5.5q22 1 48 0q17 -1 27 -5q4 -2 8 -6q8 -5 13 -14q11 -20 11 -50v-605q0 -15 -9 -24v-1q-3 -4 -11 -7q-4 -2 -10 -2h-6h-84q-16 0 -30.5 6.5t-16.5 21.5l-1 7q-3 16 8.5 20.5t31.5 5.5q8 1 33 1h9v10v581
h-13z" />
    <glyph glyph-name="asciicircum" unicode="^" horiz-adv-x="298" 
d="M54 406q-28 0 -28 22q0 10 5 23l59 148q11 28 21 40.5t26 11.5l13 -1q13 -2 20 -7q5 -2 11 -12.5t10 -19t6 -13.5l71 -145q8 -16 8 -27q0 -20 -27 -20h-9q-22 0 -33.5 9.5t-22.5 36.5l-38 89l-31 -84q-10 -29 -20.5 -40t-31.5 -11h-9z" />
    <glyph glyph-name="underscore" unicode="_" horiz-adv-x="440" 
d="M58 23q-32 0 -32 17q0 5 4 15l3 7q8 13 18 17t27 5q38 2 146 2q109 0 147 -2q20 -1 31.5 -5.5t8.5 -20.5l-1 -7q-2 -15 -17 -22t-30 -6q-20 1 -124 1z" />
    <glyph glyph-name="grave" unicode="`" horiz-adv-x="210" 
d="M127 476q-16 -1 -26 12t-20 41l-34 95q-6 18 -6 25q0 23 28 19l14 -2q20 -3 28 -13t18 -39l35 -95q4 -12 4 -17q0 -23 -27 -25z" />
    <glyph glyph-name="a" unicode="a" horiz-adv-x="475" 
d="M392 28q-44 35 -67 83q-10 -23 -27 -41q-42 -46 -115 -46q-49 0 -78 25.5t-43 62.5q-14 39 -16 91q11 197 170 209q33 0 54 -10q17 -7 27 -17q6 12 24 21l13 6q8 4 17 4q13 0 19 -10.5t6 -26.5q0 -102 8.5 -163t41.5 -101q16 -18 22.5 -29.5t6.5 -21.5q0 -8 -4 -16
l-7 -14q-9 -17 -25 -17q-13 0 -27 11zM303 379l-12 -82q0 14 -12.5 29t-45.5 15q-100 -7 -108 -131q0 -56 17 -84t60 -28q23 1 45.5 16.5t36 44.5t12.5 66l1 -1q-7 54 -7 117q0 28 6 42q0 1 1 2z" />
    <glyph glyph-name="b" unicode="b" horiz-adv-x="460" 
d="M70 57v480q0 28 6 42t25 23l13 6q8 4 17 4q13 0 19 -10.5t6 -26.5l1 -167q20 4 47 4q96 0 148.5 -32.5t52.5 -109.5q0 -104 -94 -171q-83 -61 -191 -72l-8 -2q-8 -2 -12 -2q-13 0 -21.5 9.5t-8.5 24.5zM185 113q31 9 65 30q75 47 75 119q0 40 -32 62t-86 22q-9 0 -29 -2
q-11 -1 -21 -2l2 -235z" />
    <glyph glyph-name="c" unicode="c" horiz-adv-x="370" 
d="M60 113q-19 41 -24 90q5 188 170 209q7 1 24 1q47 0 72 -11q33 -14 33 -42q0 -14 -9 -25t-22 -11q-7 0 -14 4q-13 9 -32 11.5t-34 1.5q-101 -9 -108 -132q0 -52 30 -81.5t88 -33.5q42 -3 95 13h4q6 0 9.5 -3t3.5 -9t-3 -12q-26 -60 -126 -60q-110 0 -157 90z" />
    <glyph glyph-name="d" unicode="d" horiz-adv-x="460" 
d="M346 25q-12 1 -21 3l1 -1q-58 0 -109 17.5t-83 43.5q-44 38 -62.5 73t-18.5 99q0 24 11.5 50t37.5 47q64 53 202 55v125q0 28 6 42t25 23l13 6q8 4 17 4q13 0 19 -10.5t6 -26.5v-480q0 -31 -2 -46t-8.5 -20.5t-20.5 -4.5zM219 330q-41 -12 -65 -32.5t-24 -44.5
q0 -43 13 -66t43 -48q20 -18 54 -31q33 -13 64 -14v248q-46 -1 -85 -12z" />
    <glyph glyph-name="e" unicode="e" horiz-adv-x="400" 
d="M61 113q-21 43 -25 90q8 202 170 209q76 0 118 -43.5t42 -128.5v-14q2 -5 1 -13l-1 -7q-2 -15 -17 -22t-30 -6q-17 1 -77 1l-126 -1q7 -32 29 -54q31 -31 89 -33q49 0 100 13q3 1 8 1q11 0 11 -10q0 -7 -5 -15q-18 -34 -52 -45.5t-79 -11.5q-61 0 -97.5 24t-58.5 66z
M290 252q-10 84 -75 84q-88 0 -100 -97q37 2 99 2q45 0 76 -1v12z" />
    <glyph glyph-name="f" unicode="f" horiz-adv-x="455" 
d="M175 499q0 44 20.5 78t58.5 46q18 5 40 5q34 0 55 -12q22 -12 34 -27t7 -28l-10 -19q-6 -11 -17 -11q-7 0 -18 7q-6 4 -13.5 10.5t-14 10.5t-14.5 4q-4 0 -10 -2q-20 -6 -26 -23q-6 -16 -6 -38v-4v-101q97 -1 130 -2q20 -1 31.5 -5.5t8.5 -20.5l-1 -7q-2 -15 -17 -22
t-30 -6q-17 1 -102 1h-20v-238q0 -56 -31 -66l-13 -4q-8 -2 -12 -2q-13 0 -21.5 9.5t-8.5 24.5v275h-119q-32 0 -32 17q0 5 4 15l3 7q8 13 18 17t27 5q27 1 99 2v62v10v32z" />
    <glyph glyph-name="g" unicode="g" horiz-adv-x="390" 
d="M48 310q0 57 34 91.5t100 34.5q70 0 99 -50q26 -43 29 -102q1 -4 1 -9v-10v-146q31 3 66 3q9 0 16.5 -5.5t4.5 -18.5l-3 -14q-2 -11 -11.5 -18t-18.5 -7q-28 0 -54 -3v-48q0 -90 -28 -143t-109 -53q-63 0 -101.5 35.5t-38.5 93.5q0 43 22 76.5t59 52.5q48 24 110 37v100
q-26 -16 -61 -16q-56 0 -86 33.5t-30 85.5zM158 10q-24 -15 -34 -31.5t-10 -40.5q0 -26 11 -41.5t34 -15.5q33 0 47.5 23t16.5 47t2 69v19q-37 -11 -67 -29zM223 351q-15 24 -46 24q-29 0 -44.5 -17t-15.5 -45q0 -22 13 -41.5t37 -19.5q39 0 53 21t14 48q-4 18 -11 30z" />
    <glyph glyph-name="h" unicode="h" horiz-adv-x="470" 
d="M70 57v480q0 28 6 42t25 23l13 6q8 4 17 4q13 0 19 -10.5t6 -26.5v-210q15 19 43 31q36 16 72 16q55 0 93 -39.5t38 -117.5v-160q0 -56 -31 -66l-13 -4q-8 -2 -12 -2q-13 0 -21.5 9.5t-8.5 24.5v212q0 31 -17 51.5t-44 20.5q-20 0 -45 -13.5t-43 -35.5q-7 -8 -11 -17
v-180q0 -56 -31 -66l-13 -4q-8 -2 -12 -2q-13 0 -21.5 9.5t-8.5 24.5z" />
    <glyph glyph-name="i" unicode="i" horiz-adv-x="240" 
d="M77 57v284q0 28 6 42t25 23l13 6q8 4 17 4q13 0 19 -10.5t6 -26.5v-284q0 -56 -31 -66l-13 -4q-8 -2 -12 -2q-13 0 -21.5 9.5t-8.5 24.5zM67 542v4q0 21 6 31.5t25 13.5l33 6q10 2 14 2q15 0 21.5 -9t6.5 -26v-4q0 -15 -7 -23t-24 -11l-33 -6q-12 -2 -17 -2q-25 0 -25 24
z" />
    <glyph glyph-name="j" unicode="j" horiz-adv-x="250" 
d="M90 57v283q0 28 6 42t25 23l13 6q8 4 17 4q13 0 19 -10.5t6 -26.5v-283v-8v-43q0 -44 -12.5 -84.5t-40.5 -70.5q-17 -16 -41.5 -26.5t-48.5 -10.5q-27 0 -46 12q-12 7 -12 21q0 12 9 17q24 8 45.5 21t34.5 28q26 34 26 97v4v5zM77 542v4q0 21 6 31.5t25 13.5l33 6
q10 2 14 2q15 0 21.5 -9t6.5 -26v-4q0 -15 -7 -23t-24 -11l-33 -6q-12 -2 -17 -2q-25 0 -25 24z" />
    <glyph glyph-name="k" unicode="k" horiz-adv-x="450" 
d="M70 57v480q0 28 6 42t25 23l13 6q8 4 17 4q13 0 19 -10.5t6 -26.5v-261l132 91q5 4 25 17t36 20.5t26 7.5q7 0 11 -3l12 -8q9 -5 9 -17q0 -13 -18 -27l-185 -134l200 -191q11 -11 11 -23q0 -9 -6 -15.5t-16 -7.5l-12 -2q-15 -3 -25 3.5t-29 25.5l-17 18l-154 148v-122
q0 -56 -31 -66l-13 -4q-8 -2 -12 -2q-13 0 -21.5 9.5t-8.5 24.5z" />
    <glyph glyph-name="l" unicode="l" horiz-adv-x="220" 
d="M67 57v480q0 28 6 42t25 23l13 6q8 4 17 4q13 0 19 -10.5t6 -26.5v-480q0 -56 -31 -66l-13 -4q-8 -2 -12 -2q-13 0 -21.5 9.5t-8.5 24.5z" />
    <glyph glyph-name="m" unicode="m" horiz-adv-x="590" 
d="M249 57v222q0 30 -10.5 46t-30.5 16q-23 0 -42.5 -24.5t-19.5 -59.5v-162q0 -56 -31 -66l-13 -4q-8 -2 -12 -2q-13 0 -21.5 9.5t-8.5 24.5v284q0 28 6 42t25 23l13 6q8 4 17 4q13 0 19 -10.5t6 -26.5v-4q11 13 25 22q25 15 53 15q52 0 81 -39q5 -6 9 -13q36 52 102 52
q53 0 83 -38.5t30 -118.5v-134q0 -25 2 -39q1 -12 10 -17q13 -8 13 -18q0 -6 -5.5 -11t-15.5 -8q-12 -4 -41 -4q-12 0 -16 1q-32 6 -32 62v192q0 30 -12 46t-32 16q-25 0 -45 -27.5t-20 -56.5v-2v-160q0 -56 -31 -66l-13 -4q-8 -2 -12 -2q-13 0 -21.5 9.5t-8.5 24.5z" />
    <glyph glyph-name="n" unicode="n" horiz-adv-x="450" 
d="M59 57v284q0 28 6 42t25 23l13 6q8 4 17 4q13 0 19 -10.5t6 -26.5v-21q61 54 115 54q119 0 130 -137v-154q0 -25 2 -39q1 -12 10 -17q13 -8 13 -18q0 -6 -5.5 -11t-15.5 -8q-12 -4 -41 -4q-12 0 -16 1q-32 6 -32 62v192q0 62 -56 62q-48 0 -104 -68v-178q0 -56 -31 -66
l-13 -4q-8 -2 -12 -2q-13 0 -21.5 9.5t-8.5 24.5z" />
    <glyph glyph-name="o" unicode="o" horiz-adv-x="415" 
d="M38 203q5 207 170 209q161 0 169 -209q0 -75 -42 -127t-128 -52q-95 0 -132 55t-37 124zM300 209q-1 131 -93 137q-89 0 -92 -137q0 -48 25 -83.5t67 -35.5q44 0 68.5 33t24.5 86z" />
    <glyph glyph-name="p" unicode="p" horiz-adv-x="460" 
d="M70 -143v484q0 28 6 42t25 23l13 6q8 4 17 4q13 0 19 -11q4 -7 5 -16q37 8 69 8q62 0 109 -32q74 -51 74 -132q0 -108 -79 -159q-71 -47 -172 -51v-128q0 -56 -31 -66l-13 -4q-8 -2 -12 -2q-13 0 -21.5 9.5t-8.5 24.5zM327 238q0 39 -34 63t-93 24q-18 0 -44 -4v-220
q171 13 171 137z" />
    <glyph glyph-name="q" unicode="q" horiz-adv-x="460" 
d="M304 -143v167q-15 -1 -34 -1q-66 0 -115 24t-75 63t-26 83q0 100 65 150q64 49 135 49q31 0 54 -14q1 3 2 5q6 14 25 23l13 6q8 4 17 4q13 0 19 -10.5t6 -26.5v-484q0 -56 -31 -66l-13 -4q-8 -2 -12 -2q-13 0 -21.5 9.5t-8.5 24.5zM272 316q-62 0 -99 -34
q-39 -33 -39 -83q0 -42 40 -70.5t107 -28.5h23v210q-10 6 -32 6z" />
    <glyph glyph-name="r" unicode="r" horiz-adv-x="420" 
d="M70 57v284q0 28 6 42t25 23l13 6q8 4 17 4q13 0 19 -10.5t6 -26.5v-66q48 54 130 76q25 8 46 10l15 1q13 0 20 -4t11 -14l5 -13q1 -3 1 -8q0 -21 -28 -26q-26 -5 -52 -12q-68 -21 -108 -60q-29 -29 -40 -61v-107q0 -56 -31 -66l-13 -4q-8 -2 -12 -2q-13 0 -21.5 9.5
t-8.5 24.5z" />
    <glyph glyph-name="s" unicode="s" horiz-adv-x="350" 
d="M97 39q-23 15 -39.5 34t-16.5 52q0 21 13 21q6 0 10 -3q39 -36 77 -50q19 -7 33 -7q24 0 42.5 12.5t18.5 40.5q0 19 -13 32.5t-45 23.5q-59 12 -85.5 42t-26.5 72q0 53 30 80.5t88 27.5q35 0 63 -15q32 -17 32 -36q0 -4 -2 -10l-4 -12q-7 -16 -21 -16q-8 0 -20 7
q-24 13 -45 13q-49 0 -49 -38q0 -39 56 -50q117 -28 117 -126q-2 -50 -35 -84t-90 -34q-20 0 -46.5 6.5t-41.5 16.5z" />
    <glyph glyph-name="t" unicode="t" horiz-adv-x="440" 
d="M184 23h-8h-4q-13 0 -21.5 9.5t-8.5 24.5v285h-83q-32 0 -32 17q0 5 4 15l3 7q8 13 18 17t27 5q20 1 63 1v133q0 28 6 42t25 23l13 6q8 4 17 4q13 0 19 -10.5t6 -26.5v-170q107 0 145 -2q20 -1 31.5 -5.5t8.5 -20.5l-1 -7q-2 -15 -17 -22t-30 -6q-16 1 -94 1h-43v-248
v-10q28 1 60 1q47 0 85 -2q20 -1 31.5 -5.5t8.5 -20.5l-1 -7q-2 -15 -17 -22t-30 -6q-17 1 -61 1z" />
    <glyph glyph-name="u" unicode="u" horiz-adv-x="480" 
d="M370 40q-18 30 -30 65q-16 -31 -46 -52q-41 -29 -92 -29q-131 0 -132 203v114q0 28 6 42t25 23l13 6q8 4 17 4q13 0 19 -10.5t6 -26.5v-162q0 -108 45 -119q48 -4 80 46q29 49 34 175v22q0 28 6 42t25 23l13 6q8 4 17 4q13 0 19 -10.5t6 -26.5v-65q0 -68 6 -115t25 -89
q13 -26 13 -44q0 -16 -13 -28l-11 -10q-10 -9 -21 -9q-16 0 -30 21zM351 132l-1 -2z" />
    <glyph glyph-name="v" unicode="v" horiz-adv-x="440" 
d="M230 25q-13 2 -20 7q-8 4 -15 14t-17 31l-137 291q-6 16 -6 23q0 24 30 24h14q21 0 33 -10.5t23 -35.5l99 -227l73 218q9 26 20 38t32 13l14 1q32 1 32 -25q0 -6 -4 -20l-106 -291q-19 -55 -52 -52z" />
    <glyph glyph-name="w" unicode="w" horiz-adv-x="580" 
d="M195 25q-11 2 -17 5q-11 3 -19 14t-16 33l-103 291q-5 13 -5 23q0 24 29 24h11q22 0 35.5 -10.5t20.5 -35.5l69 -227l45 173q13 47 41 50l10 1h1q11 0 17 -3q23 -8 34 -48l48 -168l54 222q11 46 56 46h11q28 0 28 -24q0 -7 -4 -23l-85 -291q-7 -22 -15 -33t-20 -14
q-6 -3 -17 -5l-7 -1q-17 -2 -30.5 12t-21.5 40l-47 159l-44 -159q-7 -26 -21 -40t-31 -12z" />
    <glyph glyph-name="x" unicode="x" horiz-adv-x="436" 
d="M56 29q-10 1 -15.5 7t-5.5 15q0 11 10 24l129 163l-112 125q-13 13 -13 28q0 19 25 19h14q18 0 29.5 -8.5t23 -21t15.5 -16.5l62 -70l64 80q19 25 33.5 35.5t34.5 10.5h14q24 0 24 -18q0 -14 -12 -29l-107 -135l142 -158q10 -10 10 -23q0 -9 -5.5 -15.5t-15.5 -7.5
l-12 -2l-8 -1q-14 0 -25.5 9t-22.5 21.5t-15 17.5l-93 103l-85 -108q-23 -28 -37 -39t-34 -8z" />
    <glyph glyph-name="y" unicode="y" horiz-adv-x="473" 
d="M190 112l-144 261q-11 20 -11 31q0 16 23 16h14q43 0 68 -46l108 -196l86 196q20 46 68 46h14q22 0 22 -16q0 -11 -10 -31l-222 -504q-11 -25 -30 -38t-41 -9l-12 2q-18 3 -18 20q0 10 7 26l95 216q-9 11 -17 26z" />
    <glyph glyph-name="z" unicode="z" horiz-adv-x="408" 
d="M77 349q-32 0 -32 17q0 5 4 15l3 7q8 13 18 17t27 5q38 2 94 2q57 0 95 -2q20 -1 31 -6q5 -2 7 -6q4 -4 4 -10q0 -8 -5 -17v-2q-2 -5 -6 -11l-168 -275h65q91 0 129 -2q20 -1 31.5 -5.5t8.5 -20.5l-1 -7q-2 -15 -17 -22t-30 -6q-17 1 -85 1l-183 -1q-32 0 -32 17
q0 4 3 13q2 10 9 20l170 280h-6z" />
    <glyph glyph-name="braceleft" unicode="{" horiz-adv-x="270" 
d="M114 -37h-5h-2q-7 0 -12 3l-2 1q-3 1 -5 3q-1 0 -2 2l-1 1q-8 9 -8 24v301l-29 10q-1 1 -9.5 5t-8.5 16v3v2v1v2q0 12 8.5 16t9.5 5l29 10v234q0 30 10 50q5 9 12 14q5 4 10 6q10 4 27 5q26 1 48 0q20 -1 31.5 -5.5t8.5 -20.5l-1 -7q-2 -15 -16.5 -21.5t-30.5 -6.5h-13
v-581v-10h9q25 0 33 -1q20 -1 31.5 -5.5t8.5 -20.5l-1 -7q-2 -15 -16.5 -21.5t-30.5 -6.5h-83z" />
    <glyph glyph-name="bar" unicode="|" horiz-adv-x="156" 
d="M39 7v585q0 32 3.5 44.5t21.5 20.5l13 6q8 4 16 4q20 0 20 -37v-585q0 -30 -5 -45.5t-20 -20.5l-13 -4q-8 -2 -11 -2q-12 0 -18.5 9t-6.5 25z" />
    <glyph glyph-name="braceright" unicode="}" horiz-adv-x="270" 
d="M97 616q-16 0 -30.5 6.5t-16.5 21.5l-1 7q-3 16 8.5 20.5t31.5 5.5q22 1 48 0q17 -1 27 -5q4 -2 8 -6q8 -5 13 -14q11 -20 11 -50v-234l29 -10q1 -1 9.5 -5t8.5 -16v-5v-1v-2q0 -12 -8.5 -16t-9.5 -5l-29 -10v-301q0 -15 -9 -24v-1q-3 -4 -11 -7q-4 -2 -10 -2h-3h-3h-84
q-16 0 -30.5 6.5t-16.5 21.5l-1 7q-3 16 8.5 20.5t31.5 5.5q8 1 33 1h9v10v581h-13z" />
    <glyph glyph-name="asciitilde" unicode="~" horiz-adv-x="503" 
d="M324 245q-32 0 -53 14t-39 40q-4 6 -15 21t-23 23t-26 8q-19 0 -31.5 -16t-18.5 -43q-3 -18 -7.5 -24.5t-13.5 -6.5q-2 0 -14 2l-30 6q-17 6 -17 24q0 17 12.5 47t43 55t80.5 25q33 0 56.5 -15t44.5 -45q15 -25 27.5 -36t27.5 -11q44 0 56 59q3 18 7.5 24.5t13.5 6.5
q2 0 14 -2l30 -6q17 -6 18 -24q-6 -42 -33.5 -80t-95.5 -45z" />
    <glyph glyph-name="exclamdown" unicode="&#xa1;" horiz-adv-x="190" 
d="M95 8l-13 6q-19 9 -25 23t-6 42v339q0 15 8.5 24.5t21.5 9.5q4 0 12 -2l13 -4q31 -10 31 -66v-339q0 -16 -6 -26.5t-19 -10.5q-9 0 -17 4zM101 535l-23 6q-20 5 -25.5 15t-5.5 30v4q0 24 24 24q12 0 18 -2l23 -6q17 -4 24 -12t7 -22v-4q0 -35 -26 -35q-10 0 -16 2z" />
    <glyph glyph-name="cent" unicode="&#xa2;" horiz-adv-x="450" 
d="M201 17v62q-35 8 -61 26q-44 31 -67 80q-24 52 -27 111q11 210 155 247v24q0 28 6 42t25 23l13 6q8 4 17 4q13 0 19 -10.5t6 -26.5v-54q31 -2 64 -12q22 -8 34.5 -19t12.5 -23q0 -10 -12 -21q-2 -3 -7 -6l-7 -5q-9 -6 -18 -6q-11 0 -22 7q-11 6 -32 9q-6 1 -13 2v-332
q22 1 36 5q20 5 53 18l8 2q9 0 15.5 -5.5t6.5 -14.5q0 -8 -7 -18q-37 -48 -112 -56v-21q0 -56 -31 -66l-13 -4q-8 -2 -12 -2q-13 0 -21.5 9.5t-8.5 24.5zM163 433q-34 -45 -38 -130q0 -41 16.5 -77t49.5 -59l10 -6v304q-22 -11 -38 -32z" />
    <glyph glyph-name="sterling" unicode="&#xa3;" horiz-adv-x="470" 
d="M56 305q-32 0 -32 17q0 5 4 15l3 7q8 13 18 17t27 5q16 1 45 1q0 5 -1 10q-4 29 -4 53q0 123 110 166q29 11 65 11q26 0 50 -5.5t38 -12.5q22 -12 34 -27t7 -28l-10 -19q-5 -11 -16 -11t-19 7q-12 9 -36 18t-48 9q-14 0 -26 -4q-28 -8 -45.5 -34.5t-17.5 -73.5
q0 -24 3 -58h23q115 0 153 -2q20 -1 31.5 -5.5t8.5 -20.5l-1 -7q-2 -15 -17 -22t-30 -6q-17 1 -98 1h-62q4 -41 4 -66q0 -58 -19 -105q-11 -27 -32 -49h77q122 0 160 -2q20 -1 31.5 -5.5t8.5 -20.5l-1 -7q-2 -15 -17 -22t-30 -6q-17 1 -103 1l-228 -1q-32 0 -32 17q0 5 4 15
l1 2l2 5q8 13 18 17q4 2 10 3q31 30 46 62q22 46 22 100q0 23 -5 61h-74z" />
    <glyph glyph-name="currency" unicode="&#xa4;" horiz-adv-x="505" 
d="M56 490q-13 15 -13 28q0 19 25 19h14q20 0 32.5 -10t35.5 -36l4 -6q39 23 94 24q46 0 81 -17l7 9q20 25 34 35.5t34 10.5h14q24 0 24 -18q0 -14 -12 -29l-45 -55q38 -53 42 -145q0 -47 -20 -88l-1 -1l59 -64q11 -13 11 -24q0 -8 -6 -14.5t-16 -7.5l-12 -2l-8 -1
q-14 0 -25.5 9t-22.5 21.5t-15 17.5l-10 10q-7 -5 -15 -10q-40 -25 -99 -25q-66 0 -106 28l-1 1l-7 -9q-22 -28 -36.5 -39t-34.5 -8l-12 2q-10 1 -15.5 7t-5.5 15q0 11 10 24l52 63q-4 7 -7 14q-16 41 -16 81q1 85 34 136zM350 306q-1 64 -28.5 99t-74.5 38q-46 0 -73.5 -35
t-28.5 -102q0 -47 29.5 -83t72.5 -36q45 0 74 34t29 85z" />
    <glyph glyph-name="yen" unicode="&#xa5;" horiz-adv-x="520" 
d="M240 57v81h-115q-32 0 -32 17q0 5 4 15l3 7q8 13 18 17t27 5q29 1 95 2v73h-115q-32 0 -32 17q0 5 4 15l3 7q8 13 18 17t27 5q27 1 89 2q-1 2 -3 5q-11 14 -17 21l-176 211q-9 11 -9 20q0 8 8.5 12.5t23.5 4.5h20q15 0 24.5 -7t21.5 -24l13 -16l136 -159l103 159
q3 5 12.5 20.5t19.5 22t23 6.5l20 1q33 2 33 -17q0 -7 -7 -19l-132 -209q-13 -21 -21 -32q69 -1 98 -2q20 -1 31.5 -5.5t8.5 -20.5l-1 -7q-2 -15 -17 -22t-30 -6q-17 1 -91 1v-74q69 -1 99 -2q20 -1 31.5 -5.5t8.5 -20.5l-1 -7q-2 -15 -17 -22t-30 -6q-17 1 -91 1v-44
q0 -56 -31 -66l-13 -4q-8 -2 -12 -2q-13 0 -21.5 9.5t-8.5 24.5z" />
    <glyph glyph-name="section" unicode="&#xa7;" horiz-adv-x="460" 
d="M51 -12q0 13 3 26q2 9 8 15.5t11 6.5q7 0 11 -8q25 -48 58 -76t85 -28q47 0 74.5 22.5t27.5 50.5q0 29 -15 45t-34.5 23t-71.5 20q-67 17 -97.5 57.5t-30.5 90.5q0 33 12 63q6 16 15 29q-7 5 -12 11q-34 39 -34 108q0 63 41.5 101.5t105.5 38.5q35 0 55 -4.5t46 -17.5
q23 -11 35 -22.5t12 -25.5q0 -5 -3 -13l-6 -15q-6 -14 -21 -14q-13 0 -27 10q-20 14 -43.5 24t-42.5 10q-33 0 -54 -17.5t-21 -48.5q0 -37 12.5 -57t31 -28.5t50.5 -16.5l29 -8q66 -20 95.5 -55.5t29.5 -107.5q0 -48 -15 -84q35 -34 35 -84q0 -72 -45 -115t-142 -43
q-44 0 -83 19t-62 51t-23 67zM161 242q0 -32 26 -57t74 -38q24 -6 45 -14q5 21 5 41q0 45 -27.5 68.5t-75.5 35.5q-19 5 -35 10q-12 -23 -12 -46z" />
    <glyph glyph-name="dieresis" unicode="&#xa8;" horiz-adv-x="350" 
d="M231 614q0 19 12 31.5t31 16.5q3 1 8 1q17 0 27 -13.5t10 -30.5q0 -35 -45 -44q-3 -1 -9 -1q-15 0 -24.5 10.5t-9.5 29.5zM31 614q0 19 12 31.5t31 16.5q3 1 8 1q17 0 27 -13.5t10 -30.5q0 -35 -45 -44q-3 -1 -9 -1q-15 0 -24.5 10.5t-9.5 29.5z" />
    <glyph glyph-name="copyright" unicode="&#xa9;" horiz-adv-x="880" 
d="M64 302q0 110 48.5 198.5t134 138.5t192.5 50q108 0 193.5 -50t134 -138.5t48.5 -198.5t-48.5 -198.5t-134 -138.5t-193.5 -50q-107 0 -192.5 50t-134 138.5t-48.5 198.5zM286 191q-21 40 -26 96q4 199 181 223q7 1 26 1q51 0 78 -11q34 -15 34 -46q0 -15 -9.5 -27
t-22.5 -12q-8 0 -16 5q-14 9 -33.5 12t-35.5 2q-56 -5 -84.5 -40t-32.5 -102q0 -55 31.5 -86.5t94.5 -36.5q51 -2 102 14h4q14 0 14 -13q0 -4 -3 -12q-16 -37 -51 -51t-84 -14q-117 0 -167 98zM739 302q0 88 -38.5 159t-106.5 111t-155 40q-86 0 -154 -40t-106.5 -111
t-38.5 -159t38.5 -159t106.5 -111t154 -40q87 0 155 40t106.5 111t38.5 159z" />
    <glyph glyph-name="ordfeminine" unicode="&#xaa;" horiz-adv-x="375" 
d="M305 317q-32 26 -50 60q-7 -15 -18 -28q-32 -35 -87 -35q-38 0 -61 19.5t-33 47.5q-10 30 -12 69q7 150 130 159q25 0 42 -8q11 -5 18 -11q5 9 17 15l10 4q7 4 14 4q11 0 16 -9t5 -22q0 -76 6 -121.5t31 -75.5q12 -14 17 -23t5 -17q0 -6 -3 -12l-5 -10q-8 -14 -21 -14
q-10 0 -21 8zM219 541q-9 11 -33 11q-73 -6 -79 -96q0 -42 12 -62t44 -20q17 1 34 13t27 34q9 21 8 48q-4 27 -5 57q-2 8 -8 15z" />
    <glyph glyph-name="guillemotleft" unicode="&#xab;" horiz-adv-x="465" 
d="M393 142q-15 -1 -30.5 11t-41.5 39l-121 124q-9 9 -9 18v2q0 11 10 21l118 114q23 23 39.5 35.5t35.5 13.5l15 1q16 1 25.5 -4.5t9.5 -14.5q0 -8 -9 -17q-86 -78 -147 -144q-5 -6 -9 -10q6 -6 15 -14q65 -65 140 -129q11 -10 11 -20t-9 -17t-21 -8zM233 142
q-15 -1 -30.5 11t-41.5 39l-121 124q-9 9 -9 18v2q0 11 10 21l118 114q23 23 39.5 35.5t35.5 13.5l15 1q16 1 25.5 -4.5t9.5 -14.5q0 -8 -9 -17q-86 -78 -147 -144q-5 -6 -9 -10q6 -6 15 -14q65 -65 140 -129q11 -10 11 -20t-9 -17t-21 -8z" />
    <glyph glyph-name="uni00AD" unicode="&#xad;" horiz-adv-x="390" 
d="M68 305q-32 0 -32 17q0 5 4 15l3 7q8 13 18 17t27 5q38 2 112 2q75 0 113 -2q20 -1 31.5 -5.5t8.5 -20.5l-1 -7q-2 -15 -17 -22t-30 -6q-20 1 -98 1z" />
    <glyph glyph-name="registered" unicode="&#xae;" horiz-adv-x="560" 
d="M62 465q0 64 28 115t77.5 80t112.5 29t112.5 -29t77.5 -80t28 -115t-28 -115.5t-77.5 -80.5t-112.5 -29t-112.5 29t-77.5 80.5t-28 115.5zM437 465q0 71 -44 117t-113 46t-113.5 -46t-44.5 -117q0 -72 44.5 -118t113.5 -46t113 46t44 118zM349 357l-96 84v-62
q0 -26 -16 -32l-6 -1q-2 -1 -6 -1q-7 0 -11.5 5t-4.5 13v192q0 13 3 20t12 10l5 3l9 2q10 0 13 -9q15 3 27 3q20 0 43 -7q36 -12 36 -52q0 -36 -36 -60q-8 -6 -17 -10l84 -73q7 -7 7 -14q0 -9 -8 -15l-4 -4q-4 -3 -10 -3q-13 0 -24 11zM292 492q23 14 23 35q0 17 -23 20
q-6 1 -17 1q-12 0 -22 -1v-68q22 4 39 13z" />
    <glyph glyph-name="degree" unicode="&#xb0;" horiz-adv-x="280" 
d="M31 504q0 53 26 81.5t90 28.5q50 0 77 -29t27 -75q0 -28 -15 -53t-42 -40.5t-62 -15.5q-49 0 -75 28.5t-26 74.5zM188 516q0 19 -14.5 34t-31.5 15q-21 0 -33.5 -16.5t-12.5 -41.5q0 -19 9.5 -38t27.5 -19q33 0 44 19t11 47z" />
    <glyph glyph-name="plusminus" unicode="&#xb1;" horiz-adv-x="440" 
d="M178 253v102h-110q-32 0 -32 17q0 5 4 15l3 7q8 13 18 17t27 5q28 1 90 2v59q0 28 6 42t25 23l13 6q8 4 17 4q13 0 19 -10.5t6 -26.5v-97q69 -1 99 -2q20 -1 31.5 -5.5t8.5 -20.5l-1 -7q-2 -15 -17 -22t-30 -6q-17 1 -91 1v-65q0 -56 -31 -66l-13 -4q-8 -2 -12 -2
q-13 0 -21.5 9.5t-8.5 24.5zM68 115q-32 0 -32 17q0 5 4 15l3 7q8 13 18 17t27 5q38 2 137 2q100 0 138 -2q20 -1 31.5 -5.5t8.5 -20.5l-1 -7q-2 -15 -17 -22t-30 -6q-20 1 -118 1z" />
    <glyph glyph-name="uni00B2" unicode="&#xb2;" horiz-adv-x="350" 
d="M63 215q-28 0 -28 18q0 11 10 24q8 11 13.5 17.5t7.5 9.5q39 44 63 74q35 47 54 91.5t19 80.5q0 50 -33 50q-16 -1 -26 -7t-20 -17q-6 -6 -18 -6q-4 0 -14 2l-11 3q-14 4 -14 16q0 15 19 36q35 38 89 38q53 0 79.5 -31t24.5 -90q0 -69 -65 -167q-41 -57 -65 -84
q118 0 135 -1q18 -2 28.5 -6t6.5 -21l-1 -4q-3 -14 -14 -20t-23 -6h-217z" />
    <glyph glyph-name="uni00B3" unicode="&#xb3;" horiz-adv-x="320" 
d="M43 263q-9 11 -9 23q0 9 5 15l7 9q5 8 15 8q11 0 23 -12q29 -30 72 -30q60 0 60 56q0 40 -25 61q-9 7 -24 14.5t-21 8.5q-25 8 -25 19v2q0 18 11 23q5 2 13 5.5t14.5 8t16.5 14.5t17 24.5t7 29.5t-8 25t-21 10q-2 0 -10 -2q-20 -6 -33 -17q-17 -17 -29 -17q-7 0 -13 6
l-6 6q-10 10 -10 23q0 10 7 17q46 47 94 49q45 0 71 -26t26 -76q0 -54 -42 -91q8 -4 16 -10q34 -25 43 -69q4 -26 4 -45q0 -53 -33.5 -85.5t-92.5 -32.5q-40 0 -72.5 18.5t-47.5 37.5z" />
    <glyph glyph-name="acute" unicode="&#xb4;" horiz-adv-x="210" 
d="M69 477q-26 1 -26 25q0 8 3 17l35 95q11 30 18.5 40.5t27.5 11.5l14 2q28 1 28 -19q0 -7 -6 -25l-34 -95q-10 -28 -20 -41t-26 -12z" />
    <glyph glyph-name="paragraph" unicode="&#xb6;" horiz-adv-x="540" 
d="M202 -26v364q-56 9 -95 33q-59 37 -59 113q0 86 41.5 120t122.5 34h5q7 5 16 10l13 6q8 4 17 4q13 0 19 -10.5t6 -26.5v-609q0 -56 -31 -66l-13 -4q-8 -2 -12 -2q-13 0 -21.5 9.5t-8.5 24.5zM384 -26v609q0 28 6 42t25 23l13 6q8 4 17 4q13 0 19 -10.5t6 -26.5v-609
q0 -56 -31 -66l-13 -4q-8 -2 -12 -2q-13 0 -21.5 9.5t-8.5 24.5z" />
    <glyph glyph-name="periodcentered" unicode="&#xb7;" horiz-adv-x="150" 
d="M31 327q0 19 12 31.5t31 16.5q3 1 8 1q17 0 27 -13.5t10 -30.5q0 -35 -45 -44q-3 -1 -9 -1q-15 0 -24.5 10.5t-9.5 29.5z" />
    <glyph glyph-name="cedilla" unicode="&#xb8;" horiz-adv-x="200" 
d="M50 -72q-19 1 -19 16q0 9 10 29l21 40q8 15 14.5 21.5t19.5 6.5h20q24 0 24 -12q0 -5 -3.5 -13t-4.5 -11l-13 -28l-5 -10q21 -5 34 -20q22 -25 22 -60q0 -41 -25.5 -64.5t-74.5 -23.5q-11 0 -20 5t-9 19q0 11 7.5 18t22.5 7q42 0 42 45q0 34 -34 34h-2h-1z" />
    <glyph glyph-name="uni00B9" unicode="&#xb9;" horiz-adv-x="243" 
d="M73 216q-30 0 -30 19q0 8 4 13l3 5q7 10 18 15t18 5v299h-9q-27 0 -30 20l-1 5q0 9 5 14.5t10 7.5l60 20q9 3 14 3q13 0 19 -9.5t6 -23.5v-336q20 -1 29.5 -5.5t9.5 -20.5v-4q0 -13 -12 -20t-25 -7h-89z" />
    <glyph glyph-name="ordmasculine" unicode="&#xba;" horiz-adv-x="330" 
d="M36 456q2 79 34.5 119.5t95.5 41.5q62 0 95 -42t33 -124q0 -55 -32.5 -94t-96.5 -39q-72 0 -100.5 43t-28.5 95zM233 461q-2 99 -68 103q-65 0 -67 -103q0 -36 18 -62.5t49 -26.5q32 0 50 25t18 64z" />
    <glyph glyph-name="guillemotright" unicode="&#xbb;" horiz-adv-x="465" 
d="M210 143q-12 1 -21 8t-9 17t11 20q75 64 140 129l14 14q-3 5 -8 10q-61 66 -147 144q-9 9 -9 17q0 9 9.5 14.5t25.5 4.5l15 -1q19 -1 35.5 -13.5t39.5 -35.5l118 -114q10 -10 10 -21v-3q0 -8 -9 -17l-121 -124q-26 -27 -41.5 -39t-30.5 -11zM50 143q-12 1 -21 8t-9 17
t11 20q75 64 140 129l14 14q-3 5 -8 10q-61 66 -147 144q-9 9 -9 17q0 9 9.5 14.5t25.5 4.5l15 -1q19 -1 35.5 -13.5t39.5 -35.5l118 -114q10 -10 10 -21v-2q0 -9 -9 -18l-121 -124q-26 -27 -41.5 -39t-30.5 -11z" />
    <glyph glyph-name="onequarter" unicode="&#xbc;" horiz-adv-x="700" 
d="M541 38v133l-136 -1q-29 0 -29 19q0 8 3 15l50 166q6 19 15 28.5t26 12.5l10 2q3 1 9 1q23 0 23 -22q0 -4 -2 -12l-46 -152h77v154q0 21 5 32.5t20 20.5l9 4q7 4 15 4q12 0 18.5 -10.5t6.5 -23.5v-181l43 -1q17 -2 27.5 -6t7.5 -20l-1 -5q-2 -14 -14.5 -20.5t-24.5 -5.5
l-38 1v-107q0 -20 -7 -34.5t-19 -18.5l-10 -3q-3 -1 -9 -1q-13 0 -21 8.5t-8 22.5zM180 37q-12 1 -18.5 7t-6.5 17q0 9 6 21l243 489q12 24 23.5 35.5t31.5 13.5l10 1q31 3 31 -17q0 -10 -5 -19l-246 -499q-14 -28 -25 -39.5t-27 -10.5zM73 217q-30 0 -30 19q0 8 4 13l3 5
q7 10 18 15t18 5v299h-9q-27 0 -30 20l-1 5q0 9 5 14.5t10 7.5l60 20q9 3 14 3q13 0 19 -9.5t6 -23.5v-336q20 -1 29.5 -5.5t9.5 -20.5v-4q0 -13 -12 -20t-25 -7h-89z" />
    <glyph glyph-name="onehalf" unicode="&#xbd;" horiz-adv-x="730" 
d="M429 17q-28 0 -28 18q0 11 10 24q8 11 13.5 17.5t7.5 9.5q39 44 63 74q35 47 54 91.5t19 80.5q0 50 -33 50q-16 -1 -26 -7t-20 -17q-6 -6 -18 -6q-4 0 -14 2l-11 3q-14 4 -14 16q0 15 19 36q35 38 89 38q53 0 79.5 -31t24.5 -90q0 -69 -65 -167q-41 -57 -65 -84
q118 0 135 -1q18 -2 28.5 -6t6.5 -21l-1 -4q-3 -14 -14 -20t-23 -6h-217zM180 37q-12 1 -18.5 7t-6.5 17q0 9 6 21l243 489q12 24 23.5 35.5t31.5 13.5l10 1q31 3 31 -17q0 -10 -5 -19l-246 -499q-14 -28 -25 -39.5t-27 -10.5zM73 217q-30 0 -30 19q0 8 4 13l3 5q7 10 18 15
t18 5v299h-9q-27 0 -30 20l-1 5q0 9 5 14.5t10 7.5l60 20q9 3 14 3q13 0 19 -9.5t6 -23.5v-336q20 -1 29.5 -5.5t9.5 -20.5v-4q0 -13 -12 -20t-25 -7h-89z" />
    <glyph glyph-name="threequarters" unicode="&#xbe;" horiz-adv-x="770" 
d="M250 37q-12 1 -18.5 7t-6.5 17q0 9 6 21l243 489q12 24 23.5 35.5t31.5 13.5l10 1q31 3 31 -17q0 -10 -5 -19l-246 -499q-14 -28 -25 -39.5t-27 -10.5zM44 266q-9 11 -9 23q0 9 5 15l7 9q5 8 15 8q11 0 23 -12q29 -30 72 -30q60 0 60 56q0 40 -25 61q-9 7 -24 14.5
t-21 8.5q-25 8 -25 19v2q0 18 11 23q5 2 13 5.5t14.5 8t16.5 14.5t17 24.5t7 29.5t-8 25t-21 10q-2 0 -10 -2q-20 -6 -33 -17q-17 -17 -29 -17q-7 0 -13 6l-6 6q-10 10 -10 23q0 10 7 17q46 47 94 49q45 0 71 -26t26 -76q0 -54 -42 -91q8 -4 16 -10q34 -25 43 -69
q4 -26 4 -45q0 -53 -33.5 -85.5t-92.5 -32.5q-40 0 -72.5 18.5t-47.5 37.5zM611 38v133l-136 -1q-29 0 -29 19q0 8 3 15l50 166q6 19 15 28t26 13l10 2q4 1 10 1q11 0 16.5 -6t5.5 -16q0 -4 -2 -12l-46 -152h77v154q0 22 5 34t20 19l9 4q8 3 14 3q13 0 19.5 -10t6.5 -23
v-181l43 -1q40 0 35 -26l-1 -5q-3 -14 -15 -20t-24 -6l-38 1v-107q0 -20 -7 -34.5t-19 -18.5l-10 -3q-3 -1 -10 -1q-12 0 -20 8.5t-8 22.5z" />
    <glyph glyph-name="questiondown" unicode="&#xbf;" horiz-adv-x="300" 
d="M122 193q0 56 31 66l13 4q8 2 12 2q13 0 21.5 -9.5t8.5 -24.5v-55q0 -35 -11 -63t-33 -67q-19 -36 -28.5 -59t-9.5 -50q0 -30 8.5 -42t24.5 -12q11 0 24 9.5t25 25.5q11 15 26 15q10 0 17 -6l11 -8q7 -6 7 -15q0 -14 -20 -41q-37 -51 -110 -51q-43 0 -70.5 32.5
t-27.5 91.5q0 40 11.5 71t33.5 67q18 32 27 54t9 48v17zM117 381v4q0 14 7 22t24 12l23 6q6 2 18 2q24 0 24 -24v-4q0 -20 -5.5 -30t-25.5 -15l-23 -6q-6 -2 -16 -2q-26 0 -26 35z" />
    <glyph glyph-name="AE" unicode="&#xc6;" horiz-adv-x="750" 
d="M253 541q-31 0 -31 17q0 5 4 15l3 7q8 13 18 17t27 5h5q35 2 59 2q19 0 44 -1l11 5q8 4 17 4q10 0 16 -7q3 1 7 1q38 2 114 2q78 0 116 -2q19 -1 30.5 -5.5t9.5 -20.5l-1 -7q-2 -14 -15.5 -21t-28.5 -7l-103 1l-120 -1v-170q37 2 97 2q63 0 101 -2q20 -1 31.5 -5.5
t8.5 -20.5l-1 -7q-2 -14 -15.5 -21t-28.5 -7l-92 1l-101 -1v-219q38 2 122 2q88 0 126 -2q20 -1 31.5 -5.5t8.5 -20.5l-1 -7q-2 -14 -15.5 -21t-28.5 -7l-111 1l-153 -1q-5 -3 -10 -5l-13 -4q-8 -2 -12 -2q-13 0 -21.5 9.5t-8.5 24.5v193l-65 1l-96 -1l-60 -168
q-9 -26 -21 -38.5t-29 -11.5l-15 1q-14 2 -21.5 9.5t-7.5 20.5q0 8 3 15l170 473q10 25 21 37t31 13h9l6 1h5q13 0 19 -4q7 -4 7 -14t-4 -19l-9 -24h-39zM280 313q39 0 69 -1v225v5h-15l-42 -1l-82 -229q30 1 70 1z" />
    <glyph glyph-name="Eth" unicode="&#xd0;" horiz-adv-x="600" 
d="M110 57v254h-53q-32 0 -32 17q0 5 4 15l3 7q8 13 18 17t27 5q14 1 33 1v164q0 28 6 42t25 23l13 6q8 4 17 4q13 0 19 -11q3 -5 4 -11q39 15 100 15q271 0 271 -209q-1 -161 -126 -256q-112 -85 -258 -101q-7 -7 -16 -10l-13 -4q-8 -2 -12 -2q-13 0 -21.5 9.5t-8.5 24.5z
M367 183q56 32 85 85t29 117q0 65 -52.5 105.5t-131.5 40.5q-19 0 -39 -3q-23 -3 -54 -11l-8 -2v-141q61 0 96 -2q20 -1 31.5 -5.5t8.5 -20.5l-1 -7q-2 -15 -17 -22t-30 -6q-17 1 -74 1h-14v-197q73 11 171 68z" />
    <glyph glyph-name="multiply" unicode="&#xd7;" horiz-adv-x="430" 
d="M56 148q-10 1 -15.5 7t-5.5 15q0 11 10 24l116 148l-99 110q-12 14 -12 28q0 19 24 19h14q20 0 31.5 -9.5t36.5 -36.5l49 -55l52 65q20 25 34 35.5t34 10.5h14q24 0 24 -18q0 -14 -12 -29l-95 -120l130 -143q10 -10 10 -23q0 -9 -5.5 -15.5t-15.5 -7.5l-12 -2l-8 -1
q-14 0 -25.5 9t-22.5 21.5t-15 17.5l-80 88l-73 -93q-23 -28 -37 -39t-34 -8z" />
    <glyph glyph-name="Oslash" unicode="&#xd8;" horiz-adv-x="540" 
d="M48 29q-12 1 -19.5 7.5t-7.5 16.5t8 21l53 71q-35 75 -35 172q17 302 228 302q80 0 132 -42l9 13q9 13 18 20.5t24 8.5l20 1q17 1 26.5 -4.5t9.5 -14.5t-7 -17l-50 -68q40 -73 45 -199q0 -69 -22.5 -135t-74 -110.5t-131.5 -44.5q-67 0 -114 29q-16 10 -30 22
q-6 -8 -15.5 -21.5t-18 -21.5t-21.5 -7zM417 322q-1 69 -17 119l-218 -294q6 -8 14 -16q32 -34 78 -34q69 0 106 66t37 159zM274 549q-64 0 -99.5 -59.5t-42.5 -167.5q0 -48 12 -95l216 286q-34 36 -86 36z" />
    <glyph glyph-name="Thorn" unicode="&#xde;" horiz-adv-x="470" 
d="M70 57v480q0 28 6 42t25 23l13 6q8 4 17 4q13 0 19 -10.5t6 -26.5v-82q30 2 44 2q104 0 154 -32q63 -39 63 -142q0 -84 -78 -127q-72 -40 -183 -43v-56q0 -56 -31 -66l-13 -4q-8 -2 -12 -2q-13 0 -21.5 9.5t-8.5 24.5zM277 241q32 11 49 33t17 53q0 53 -34.5 78.5
t-105.5 25.5q-24 0 -47 -2v-211q70 5 121 23z" />
    <glyph glyph-name="germandbls" unicode="&#xdf;" horiz-adv-x="480" 
d="M70 57v481q0 28 6 42t25 23l13 6q8 4 17 4q13 0 19 -11q3 -6 5 -14q37 9 70 9q54 0 95.5 -19.5t64 -52.5t22.5 -72q0 -45 -25 -82q-13 -19 -39 -37q34 -13 55 -36q39 -42 39 -103q0 -54 -38.5 -92.5t-115.5 -50.5q-10 -3 -32 -3q-14 0 -21 1q-21 2 -31.5 12t-10.5 24
q0 15 11.5 27t27.5 12q36 0 55 5q43 11 61 28t18 42q0 36 -40 59.5t-95 28.5q-18 0 -28 10t-10 24q0 13 8 24t22 15q31 7 50 19q38 20 48.5 36t10.5 42q0 69 -107 69q-31 0 -64 -5v-427q0 -56 -31 -66l-13 -4q-8 -2 -12 -2q-13 0 -21.5 9.5t-8.5 24.5z" />
    <glyph glyph-name="ae" unicode="&#xe6;" horiz-adv-x="680" 
d="M62 112q-14 39 -16 91q11 197 170 209q33 0 54 -10q17 -7 27 -17q6 12 24 21l13 6q8 4 17 4q13 0 19 -10.5t6 -26.5v-1q39 31 101 34q76 0 118 -43.5t42 -128.5v-14q2 -5 1 -13l-1 -7q-2 -15 -17 -22t-30 -6q-17 1 -77 1l-126 -1q7 -32 29 -54q31 -31 89 -33q49 0 100 13
q3 1 8 1q11 0 11 -10q0 -7 -5 -15q-18 -34 -52 -45.5t-79 -11.5q-61 0 -97.5 24t-58.5 66q-2 3 -3 6q-11 -28 -31 -49q-42 -46 -115 -46q-49 0 -78 25.5t-43 62.5zM278 326q-12 15 -45 15q-100 -7 -108 -131q0 -56 17 -84t60 -28q23 1 45.5 16.5t36 44.5t12.5 65
q-5 36 -6 79q-2 11 -12 23zM561 252q-10 84 -75 84q-88 0 -100 -97q37 2 99 2q45 0 76 -1v12z" />
    <glyph glyph-name="eth" unicode="&#xf0;" horiz-adv-x="480" 
d="M304 427q0 29 -5 51q-57 -21 -92 -35q-12 -5 -24 -5q-10 0 -13.5 6.5t-2.5 18.5v7q3 15 10.5 22t24.5 14q18 8 65 25q-23 16 -63 18q-24 0 -43 -3t-47 -10q-3 -1 -8 -1q-10 0 -10 10q0 9 4 15q18 34 51 45.5t78 11.5q60 0 91 -23q17 -13 32 -32q34 12 52 18q18 5 26 5
q16 0 20 -16l2 -7q3 -15 -9 -26.5t-26 -15.5q-14 -5 -35 -12q3 -13 5 -28q3 -29 3 -53v-332q0 -31 -2 -46t-8.5 -20.5t-20.5 -4.5l-13 1q-12 1 -21 3l1 -1q-58 0 -109 17.5t-83 43.5q-44 38 -62.5 73t-18.5 99q0 24 11.5 50t37.5 47q64 53 202 55v15zM219 330
q-41 -12 -65 -32.5t-24 -44.5q0 -43 13 -66t43 -48q20 -18 54 -31q33 -13 64 -14v248q-46 -1 -85 -12z" />
    <glyph glyph-name="divide" unicode="&#xf7;" horiz-adv-x="440" 
d="M68 305q-32 0 -32 17q0 5 4 15l3 7q8 13 18 17t27 5q38 2 137 2q100 0 138 -2q20 -1 31.5 -5.5t8.5 -20.5l-1 -7q-2 -15 -17 -22t-30 -6q-20 1 -118 1zM183 185q0 19 12 31.5t31 16.5q3 1 8 1q17 0 27 -13.5t10 -30.5q0 -35 -45 -44q-3 -1 -9 -1q-15 0 -24.5 10.5
t-9.5 29.5zM183 482q0 19 12 31.5t31 16.5q3 1 8 1q17 0 27 -13.5t10 -30.5q0 -35 -45 -44q-3 -1 -9 -1q-15 0 -24.5 10.5t-9.5 29.5z" />
    <glyph glyph-name="oslash" unicode="&#xf8;" horiz-adv-x="440" 
d="M48 203q5 207 170 209q62 0 101 -32q9 11 17 16q11 9 27 10l20 1q16 1 25 -4t9 -14q0 -8 -8 -18l-45 -51q20 -46 23 -117q0 -75 -42 -127t-128 -52q-60 0 -97 21q-10 -11 -19 -18t-22 -6l-27 1q-11 1 -18 6t-7 14q0 12 12 25l32 35q-23 46 -23 101zM217 346
q-89 0 -92 -137q0 -22 5 -41l141 157q-21 19 -54 21zM310 209q0 25 -4 46l-135 -152q19 -13 46 -13q44 0 68.5 33t24.5 86z" />
    <glyph glyph-name="thorn" unicode="&#xfe;" horiz-adv-x="450" 
d="M70 -143v680q0 28 6 42t25 23l13 6q8 4 17 4q13 0 19 -10.5t6 -26.5v-186q36 8 68 8q62 0 109 -32q74 -51 74 -132q0 -108 -79 -159q-71 -47 -172 -51v-128q0 -56 -31 -66l-13 -4q-8 -2 -12 -2q-13 0 -21.5 9.5t-8.5 24.5zM327 238q0 39 -34 63t-93 24q-18 0 -44 -4v-220
q171 13 171 137z" />
    <glyph glyph-name="dcroat" unicode="&#x111;" horiz-adv-x="490" 
d="M186 472q-32 0 -32 17q0 5 4 15l3 7q8 13 18 17t27 5q35 2 98 2v2q0 28 6 42t25 23l13 6q8 4 17 4q13 0 19 -10.5t6 -26.5v-41q17 -1 31 -1q20 -1 31.5 -5.5t8.5 -20.5l-1 -7q-2 -15 -17 -22t-30 -6q-7 0 -23 1v-378q0 -31 -2 -46t-8.5 -20.5t-20.5 -4.5l-13 1
q-12 1 -21 3l1 -1q-58 0 -109 17.5t-83 43.5q-44 38 -62.5 73t-18.5 99q0 24 11.5 50t37.5 47q64 53 202 55v61zM219 330q-41 -12 -65 -32.5t-24 -44.5q0 -43 13 -66t43 -48q20 -18 54 -31q33 -13 64 -14v248q-46 -1 -85 -12z" />
    <glyph glyph-name="Hbar" unicode="&#x126;" horiz-adv-x="560" 
d="M413 57v218q-28 1 -99 1l-147 -1v-160q0 -56 -31 -66l-13 -4q-8 -2 -12 -2q-13 0 -21.5 9.5t-8.5 24.5v359h-24q-32 0 -32 17q0 5 4 15l3 7q8 13 18 17t27 5h4v20q0 28 6 42t25 23l13 6q8 4 17 4q13 0 19 -10.5t6 -26.5v-57q50 1 129 1h117v38q0 28 6 42t25 23l13 6
q8 4 17 4q13 0 19 -10.5t6 -26.5v-78h17q20 -1 31.5 -5.5t8.5 -20.5l-1 -7q-2 -15 -17 -22t-30 -6h-9v-341q0 -56 -31 -66l-13 -4q-8 -2 -12 -2q-13 0 -21.5 9.5t-8.5 24.5zM300 338q73 0 113 -1v100h-44l-202 -1v-100q39 2 133 2z" />
    <glyph glyph-name="hbar" unicode="&#x127;" horiz-adv-x="490" 
d="M90 57v415h-33q-32 0 -32 17q0 5 4 15l3 7q8 13 18 17t27 5h13v4q0 28 6 42t25 23l13 6q8 4 17 4q13 0 19 -10.5t6 -26.5v-40h8q70 0 108 -2q20 -1 31.5 -5.5t8.5 -20.5l-1 -7q-2 -15 -17 -22t-30 -6q-17 1 -74 1l-34 -1v-107q15 19 43 31q36 16 72 16q55 0 93 -39.5
t38 -117.5v-160q0 -56 -31 -66l-13 -4q-8 -2 -12 -2q-13 0 -21.5 9.5t-8.5 24.5v212q0 31 -17 51.5t-44 20.5q-20 0 -45 -13.5t-43 -35.5q-7 -8 -11 -17v-180q0 -56 -31 -66l-13 -4q-8 -2 -12 -2q-13 0 -21.5 9.5t-8.5 24.5z" />
    <glyph glyph-name="dotlessi" unicode="&#x131;" horiz-adv-x="220" 
d="M67 57v284q0 28 6 42t25 23l13 6q8 4 17 4q13 0 19 -10.5t6 -26.5v-284q0 -56 -31 -66l-13 -4q-8 -2 -12 -2q-13 0 -21.5 9.5t-8.5 24.5z" />
    <glyph glyph-name="IJ" unicode="&#x132;" horiz-adv-x="740" 
d="M424 546q-32 0 -32 17q0 5 4 15l3 7q8 13 18 17t27 5q38 2 109 2q73 0 111 -2q20 -1 31.5 -5.5t8.5 -20.5l-1 -7q-2 -15 -17 -22t-30 -6q-10 0 -36 1l4 -47q15 -172 15 -271q0 -41 -1 -62q0 -65 -35 -104t-105 -39q-65 0 -104 51q-25 36 -25 71q0 22 7 36q4 7 10 11.5
t12 4.5q10 0 13 -10q9 -39 31 -68q19 -24 50 -24q41 0 52 23.5t11 62.5l1 39q0 97 -16 284l-3 42zM82 546q-32 0 -32 17q0 5 4 15l3 7q8 13 18 17t27 5q38 2 79 2q43 0 81 -2q20 -1 31.5 -5.5t8.5 -20.5l-1 -7q-2 -15 -17 -22t-30 -6q-10 0 -28 1v-432q0 -11 -1 -20
q43 -1 71 -2q20 -1 31.5 -5.5t8.5 -20.5l-1 -7q-2 -15 -17 -22t-30 -6q-20 1 -93 1l-129 -1q-32 0 -32 17q0 5 4 15l3 7q8 13 18 17t27 5q22 1 54 2v432q0 11 1 19h-59z" />
    <glyph glyph-name="ij" unicode="&#x133;" horiz-adv-x="460" 
d="M197 -136q-12 7 -12 21q0 12 9 17q24 8 45.5 21t34.5 28q26 34 26 97v4v5v283q0 28 6 42t25 23l13 6q8 4 17 4q13 0 19 -10.5t6 -26.5v-283v-8v-43q0 -44 -12.5 -84.5t-40.5 -70.5q-17 -16 -41.5 -26.5t-48.5 -10.5q-27 0 -46 12zM77 57v284q0 28 6 42t25 23l13 6
q8 4 17 4q13 0 19 -10.5t6 -26.5v-284q0 -56 -31 -66l-13 -4q-8 -2 -12 -2q-13 0 -21.5 9.5t-8.5 24.5zM67 542v4q0 21 6 31.5t25 13.5l33 6q10 2 14 2q15 0 21.5 -9t6.5 -26v-4q0 -15 -7 -23t-24 -11l-33 -6q-12 -2 -17 -2q-25 0 -25 24zM287 542v4q0 21 6 31.5t25 13.5
l33 6q10 2 14 2q15 0 21.5 -9t6.5 -26v-4q0 -15 -7 -23t-24 -11l-33 -6q-12 -2 -17 -2q-25 0 -25 24z" />
    <glyph glyph-name="kgreenlandic" unicode="&#x138;" horiz-adv-x="415" 
d="M341 22q-21 0 -35 6.5t-38 27.5l-115 99v-60q0 -56 -31 -66l-13 -4q-8 -2 -12 -2q-13 0 -21.5 9.5t-8.5 24.5v284q0 28 6 42t25 23l13 6q8 4 17 4q13 0 19 -10.5t6 -26.5v-90l95 76q23 19 46.5 32t39.5 13q8 0 12 -3l12 -8q9 -5 9 -16q0 -14 -18 -28l-168 -134l178 -151
q18 -16 18 -30q0 -8 -6 -13t-16 -5h-14z" />
    <glyph glyph-name="Ldot" unicode="&#x13f;" horiz-adv-x="490" 
d="M111 43h-7h-4q-13 0 -21.5 9.5t-8.5 24.5v460q0 28 6 42t25 23l13 6q8 4 17 4q13 0 19 -10.5t6 -26.5v-460v-10q40 1 114 1q103 0 141 -2q20 -1 31.5 -5.5t8.5 -20.5l-1 -7q-2 -15 -17 -22t-30 -6q-20 1 -119 1zM316 349v4q0 21 6 31.5t25 13.5l33 6q10 2 14 2
q15 0 21.5 -9t6.5 -26v-4q0 -15 -7 -23t-24 -11l-33 -6q-12 -2 -17 -2q-25 0 -25 24z" />
    <glyph glyph-name="ldot" unicode="&#x140;" horiz-adv-x="390" 
d="M67 57v480q0 28 6 42t25 23l13 6q8 4 17 4q13 0 19 -10.5t6 -26.5v-480q0 -56 -31 -66l-13 -4q-8 -2 -12 -2q-13 0 -21.5 9.5t-8.5 24.5zM236 326v4q0 21 6 31.5t25 13.5l33 6q10 2 14 2q15 0 21.5 -9t6.5 -26v-4q0 -15 -7 -23t-24 -11l-33 -6q-12 -2 -17 -2
q-25 0 -25 24z" />
    <glyph glyph-name="Lslash" unicode="&#x141;" horiz-adv-x="526" 
d="M150 43h-7h-3q-13 0 -21.5 9.5t-8.5 24.5v117q-6 -4 -9 -7q-9 -7 -22 -6l-27 1q-12 1 -18.5 6t-6.5 14q0 12 12 25l71 78v232q0 28 6 42t25 23l13 6q8 4 17 4q13 0 19 -10.5t6 -26.5v-176l52 57q5 5 13 15q15 19 26 27.5t27 9.5l20 1q16 1 25 -4t9 -14q0 -8 -8 -18
l-164 -182v-176v-10q40 1 114 1q103 0 141 -2q20 -1 31.5 -5.5t8.5 -20.5l-1 -7q-2 -14 -15.5 -21t-28.5 -7l-96 1z" />
    <glyph glyph-name="lslash" unicode="&#x142;" horiz-adv-x="375" 
d="M117 57v155q-18 -18 -26 -25q-9 -7 -22 -6l-27 1q-12 1 -18.5 6t-6.5 14q0 12 12 25l88 96v214q0 28 6 42t25 23l13 6q8 4 17 4q13 0 19 -10.5t6 -26.5v-158l35 39q5 5 13 15q15 19 26 27.5t27 9.5l20 1q16 1 25 -4t9 -14q0 -8 -8 -18l-147 -163v-215q0 -56 -31 -66
l-13 -4q-8 -2 -12 -2q-13 0 -21.5 9.5t-8.5 24.5z" />
    <glyph glyph-name="napostrophe" unicode="&#x149;" horiz-adv-x="450" 
d="M59 57v284q0 28 6 42t25 23l13 6q8 4 17 4q13 0 19 -10.5t6 -26.5v-21q61 54 115 54q119 0 130 -137v-154q0 -25 2 -39q1 -12 10 -17q13 -8 13 -18q0 -6 -5.5 -11t-15.5 -8q-12 -4 -41 -4q-12 0 -16 1q-32 6 -32 62v192q0 62 -56 62q-48 0 -104 -68v-178q0 -56 -31 -66
l-13 -4q-8 -2 -12 -2q-13 0 -21.5 9.5t-8.5 24.5zM31 566q0 19 12 31.5t31 16.5q3 1 8 1q17 0 27 -14q5 -7 8 -16v-2q1 -1 1 -2q5 -17 5 -37q0 -42 -23 -82q-10 -17 -21 -17q-6 0 -12 3q-9 4 -9 11q0 5 4 11.5t6 9.5q14 28 17 50q-5 -2 -11 -3q-3 -1 -9 -1q-15 0 -24.5 10.5
t-9.5 29.5z" />
    <glyph glyph-name="Eng" unicode="&#x14a;" horiz-adv-x="580" 
d="M70 57v480q0 28 6 42t25 23l13 6q8 4 17 4h3q2 0 5 -1q4 -2 7 -5q5 -4 10 -9q14 -14 25 -32l237 -382v371q0 28 6 42t25 23l13 6q8 4 17 4q13 0 19 -10.5t6 -26.5v-597q0 -65 -35.5 -104t-105.5 -39h-26q-34 0 -34 16q0 4 4 16l7 18q5 14 15 18t28 4h4q57 0 57 86v32
q-10 12 -21 30l-241 389v-366q0 -56 -31 -66l-13 -4q-8 -2 -12 -2q-13 0 -21.5 9.5t-8.5 24.5z" />
    <glyph glyph-name="eng" unicode="&#x14b;" horiz-adv-x="445" 
d="M59 57v284q0 28 6 42t25 23l13 6q8 4 17 4q13 0 19 -10.5t6 -26.5v-21q61 54 115 54q119 0 130 -137v-231q0 -44 -12.5 -84.5t-40.5 -70.5q-16 -17 -39.5 -27.5t-48.5 -10.5t-47 13q-12 7 -12 21q0 12 9 17q24 8 45.5 21t34.5 28q26 34 26 97v231q0 62 -56 62
q-48 0 -104 -68v-178q0 -56 -31 -66l-13 -4q-8 -2 -12 -2q-13 0 -21.5 9.5t-8.5 24.5z" />
    <glyph glyph-name="OE" unicode="&#x152;" horiz-adv-x="750" 
d="M87 136q-40 78 -40 181q17 302 228 302q56 0 98 -21q3 2 7 4l13 6q8 4 17 4q10 0 16 -7q3 1 7 1q38 2 114 2q78 0 116 -2q19 -1 30.5 -5.5t9.5 -20.5l-1 -7q-2 -14 -15.5 -21t-28.5 -7l-103 1l-120 -1v-170q37 2 97 2q63 0 101 -2q20 -1 31.5 -5.5t8.5 -20.5l-1 -7
q-2 -14 -15.5 -21t-28.5 -7l-92 1l-101 -1v-219q38 2 122 2q88 0 126 -2q20 -1 31.5 -5.5t8.5 -20.5l-1 -7q-2 -14 -15.5 -21t-28.5 -7l-111 1l-153 -1q-5 -3 -10 -5l-13 -4q-8 -2 -12 -2q-13 0 -22 9q-3 4 -5 8q-36 -13 -78 -13q-67 0 -114 29.5t-73 79.5zM274 549
q-64 0 -99.5 -59.5t-42.5 -167.5q0 -53 16 -105t48 -86t78 -34q35 0 62 18q7 5 13 10v398q-32 26 -75 26z" />
    <glyph glyph-name="oe" unicode="&#x153;" horiz-adv-x="680" 
d="M40 203q5 207 170 209q89 0 131 -65q43 61 131 65q76 0 118 -43.5t42 -128.5v-14q2 -5 1 -13l-1 -7q-2 -15 -17 -22t-30 -6q-17 1 -77 1l-126 -1q7 -32 29 -54q31 -31 89 -33q49 0 100 13q3 1 8 1q11 0 11 -10q0 -7 -5 -15q-18 -34 -52 -45.5t-79 -11.5q-61 0 -98 24
q-23 15 -41 38q-3 -5 -7 -9q-42 -52 -128 -52q-95 0 -132 55t-37 124zM302 209q-1 131 -93 137q-89 0 -92 -137q0 -48 25 -83.5t67 -35.5q44 0 68.5 33t24.5 86zM556 252q-10 84 -75 84q-88 0 -100 -97q37 2 99 2q45 0 76 -1v12z" />
    <glyph glyph-name="Tbar" unicode="&#x166;" horiz-adv-x="550" 
d="M34 562q0 5 4 15l3 7q5 13 15.5 17t29.5 5q38 2 196 2q160 0 198 -2q20 -1 31.5 -5.5t8.5 -20.5l-1 -7q-2 -15 -17 -22t-30 -6q-18 1 -133 1v-157q91 -1 121 -2q20 -1 31.5 -5.5t8.5 -20.5l-1 -7q-2 -15 -17 -22t-30 -6q-17 1 -113 1v-232q0 -56 -31 -66l-13 -4
q-8 -2 -12 -2q-13 0 -21.5 9.5t-8.5 24.5v270q-145 0 -164 -1q-35 -1 -35 17q0 5 4 15l3 7q5 13 15.5 17t29.5 5q33 2 147 2v127q0 18 2 30q-167 0 -186 -1q-35 -1 -35 17z" />
    <glyph glyph-name="tbar" unicode="&#x167;" horiz-adv-x="440" 
d="M184 23h-8h-4q-13 0 -21.5 9.5t-8.5 24.5v215h-83q-32 0 -32 17q0 5 4 15l3 7q8 13 18 17t27 5q20 1 63 1v108h-85q-32 0 -32 17q0 5 4 15l3 7q8 13 18 17t27 5q22 1 65 2v32q0 28 6 42t25 23l13 6q8 4 17 4q13 0 19 -10.5t6 -26.5v-70q80 0 114 -2q20 -1 31.5 -5.5
t8.5 -20.5l-1 -7q-2 -15 -17 -22t-30 -6q-17 1 -87 1h-19v-108q107 0 145 -2q20 -1 31.5 -5.5t8.5 -20.5l-1 -7q-2 -15 -17 -22t-30 -6q-16 1 -94 1h-43v-178v-10q28 1 60 1q47 0 85 -2q20 -1 31.5 -5.5t8.5 -20.5l-1 -7q-2 -15 -17 -22t-30 -6q-17 1 -61 1z" />
    <glyph glyph-name="caron" unicode="&#x2c7;" horiz-adv-x="360" 
d="M134 477q-18 -1 -30 11t-22 39l-41 114q-4 9 -4 19q0 9 6.5 13.5t23.5 3.5l20 -1q20 -1 33 -13t22 -36l38 -104h1l38 104q9 24 22 36t33 13l20 1q17 1 23.5 -3.5t6.5 -13.5q0 -10 -4 -19l-41 -114q-10 -27 -22 -39t-30 -11h-81h-12z" />
    <glyph glyph-name="uni02D0" unicode="&#x2d0;" horiz-adv-x="290" 
d="M70 564h150l-75 -150zM145 224l75 -150h-150z" />
    <glyph glyph-name="breve" unicode="&#x2d8;" horiz-adv-x="320" 
d="M145 474q-53 0 -78 43t-25 111q0 25 10 37t32 12q25 0 33 -13t8 -35l-1 -35q0 -24 6.5 -36.5t25.5 -12.5h8q19 0 25.5 12.5t6.5 36.5l-1 35q0 22 8 35t33 13q22 0 32 -12t10 -37q0 -68 -25 -111t-78 -43h-30z" />
    <glyph glyph-name="dotaccent" unicode="&#x2d9;" horiz-adv-x="150" 
d="M31 614q0 19 12 31.5t31 16.5q3 1 8 1q17 0 27 -13.5t10 -30.5q0 -35 -45 -44q-3 -1 -9 -1q-15 0 -24.5 10.5t-9.5 29.5z" />
    <glyph glyph-name="ring" unicode="&#x2da;" horiz-adv-x="250" 
d="M16 570q0 43 26.5 73t90.5 30q51 0 76 -28.5t25 -69.5q0 -47 -30 -74.5t-86 -27.5q-50 0 -76 27t-26 70zM168 582q0 40 -40 40q-22 0 -33 -14t-11 -35q0 -19 9 -31t26 -12q49 0 49 52z" />
    <glyph glyph-name="ogonek" unicode="&#x2db;" horiz-adv-x="200" 
d="M30 -113q0 35 21.5 59.5t65.5 24.5q30 0 30 -22q0 -12 -8.5 -17t-17.5 -5q-34 0 -34 -34q0 -45 42 -45q15 0 22.5 -7t7.5 -18q0 -14 -9 -19t-20 -5q-49 0 -74.5 23.5t-25.5 64.5z" />
    <glyph glyph-name="tilde" unicode="&#x2dc;" horiz-adv-x="500" 
d="M322 486q-32 0 -53 14t-39 40q-4 6 -15 21t-23 23t-26 8q-19 0 -31.5 -16t-18.5 -43q-3 -18 -7.5 -24.5t-13.5 -6.5q-2 0 -14 2l-30 6q-17 6 -17 24q0 17 12.5 47t43 55t80.5 25q33 0 56.5 -15t44.5 -45q15 -25 27.5 -36t27.5 -11q44 0 56 59q3 18 7.5 24.5t13.5 6.5
q2 0 14 -2l30 -6q17 -6 18 -24q-6 -42 -33.5 -80t-95.5 -45z" />
    <glyph glyph-name="hungarumlaut" unicode="&#x2dd;" horiz-adv-x="350" 
d="M69 477q-27 2 -27 25q0 5 4 17l35 95q10 29 18 39t28 13l14 2q28 4 28 -19q0 -7 -6 -25l-34 -95q-10 -28 -20 -41t-26 -12zM206 477q-26 1 -26 25q0 8 3 17l35 95q11 30 18.5 40.5t27.5 11.5l14 2q28 1 28 -19q0 -7 -6 -25l-34 -95q-10 -28 -20 -41t-26 -12z" />
    <glyph glyph-name="Alpha" unicode="&#x391;" horiz-adv-x="570" 
d="M63 33q-14 1 -21.5 9t-7.5 21q0 8 3 15l170 473q9 25 20 37q8 8 20 11q8 3 21 3h6h12q18 -1 29 -12q13 -11 22 -35l196 -493q4 -9 3 -17q0 -11 -7 -19t-20 -10l-15 -2q-31 -4 -52 48l-75 188q-19 1 -64 1l-115 -1l-60 -168q-9 -26 -21 -38.5t-29 -11.5zM280 313
q35 0 62 -1l-69 175l-63 -175q30 1 70 1z" />
    <glyph glyph-name="Beta" unicode="&#x392;" horiz-adv-x="490" 
d="M70 57v480q0 28 6 42t25 23l13 6q8 4 17 4q13 0 19 -11q4 -8 6 -20q71 19 125 19q125 0 125 -112q0 -92 -74 -135q52 -16 83 -57t31 -101q0 -92 -65.5 -127t-183.5 -35q-20 0 -61 2q-5 -4 -11 -6l-13 -4q-8 -2 -12 -2q-13 0 -21.5 9.5t-8.5 24.5zM291 115q75 12 75 86
q0 39 -27.5 63.5t-65.5 32.5q-42 7 -80 7h-15q-11 -2 -22 -3v-196q73 0 135 10zM267 399q57 28 57 83q0 29 -30 45q-10 5 -28 5q-36 0 -110 -20v-139q68 6 111 26z" />
    <glyph glyph-name="Gamma" unicode="&#x393;" horiz-adv-x="460" 
d="M70 57v480q0 28 6 42t25 23l13 6q8 4 17 4q10 0 16 -7q3 1 7 1q38 2 114 2q78 0 116 -2q19 -1 30.5 -5.5t9.5 -20.5l-1 -7q-2 -15 -17 -22t-30 -6q-20 1 -100 1l-120 -1v-450q0 -56 -31 -66l-13 -4q-8 -2 -12 -2q-13 0 -21.5 9.5t-8.5 24.5z" />
    <glyph glyph-name="uni0394" unicode="&#x394;" horiz-adv-x="560" 
d="M63 33q-14 2 -21.5 9.5t-7.5 20.5q0 8 3 15l170 473q10 25 21 37q8 9 21 11q7 3 19 3h6h12q18 -1 29 -12q13 -11 22 -35l187 -471q3 -9 3 -17q0 -11 -7 -19.5t-20 -9.5l-15 -2q-6 -1 -11 0l-159 1l-218 -1q-9 -5 -19 -4zM291 99q87 0 136 -1l-154 389l-140 -389
q50 1 158 1z" />
    <glyph glyph-name="Epsilon" unicode="&#x395;" horiz-adv-x="470" 
d="M70 57v480q0 28 6 42t25 23l13 6q8 4 17 4q10 0 16 -7q3 1 7 1q38 2 114 2q78 0 116 -2q19 -1 30.5 -5.5t9.5 -20.5l-1 -7q-2 -15 -17 -22t-30 -6q-17 1 -78 1l-142 -1v-170q37 2 97 2q63 0 101 -2q20 -1 31.5 -5.5t8.5 -20.5l-1 -7q-2 -15 -17 -22t-30 -6q-17 1 -70 1
l-120 -1v-219q38 2 122 2q88 0 126 -2q20 -1 31.5 -5.5t8.5 -20.5l-1 -7q-2 -15 -17 -22t-30 -6q-17 1 -83 1l-178 -1q-5 -3 -10 -5l-13 -4q-8 -2 -12 -2q-13 0 -21.5 9.5t-8.5 24.5z" />
    <glyph glyph-name="Zeta" unicode="&#x396;" horiz-adv-x="520" 
d="M69 540q-32 0 -32 17q0 5 4 15l3 7q8 13 18 17t27 5q38 2 149 2q90 0 132 -1h5q32 1 32 -17q0 -8 -6 -19l-251 -468q47 1 131 1q140 0 178 -2q20 -1 31.5 -5.5t8.5 -20.5l-1 -7q-2 -15 -17 -22t-30 -6q-17 1 -113 1l-238 -1h-16q-8 0 -13 1h-6q-12 1 -18.5 7t-6.5 17
q0 9 6 21l248 459h-24z" />
    <glyph glyph-name="Eta" unicode="&#x397;" horiz-adv-x="558" 
d="M402 57v268q-22 1 -71 1l-175 -1v-210q0 -56 -31 -66l-13 -4q-8 -2 -12 -2q-13 0 -21.5 9.5t-8.5 24.5v440q0 28 6 42t25 23l13 6q8 4 17 4q13 0 19 -10.5t6 -26.5v-169q39 2 133 2q73 0 113 -1v150q0 28 6 42t25 23l13 6q8 4 17 4q13 0 19 -10.5t6 -26.5v-480
q0 -56 -31 -66l-13 -4q-8 -2 -12 -2q-13 0 -21.5 9.5t-8.5 24.5z" />
    <glyph glyph-name="Theta" unicode="&#x398;" horiz-adv-x="550" 
d="M87 136q-40 78 -40 181q17 302 228 302q216 0 227 -302q0 -69 -22.5 -135t-74 -110.5t-131.5 -44.5q-67 0 -114 29.5t-73 79.5zM417 322q-1 106 -38 166.5t-105 60.5q-64 0 -99.5 -59.5t-42.5 -167.5q0 -53 16 -105t48 -86t78 -34q69 0 106 66t37 159zM205 293
q-31 0 -31 17q0 5 4 15l3 7q8 13 18 17t27 5q38 2 54 2q18 0 56 -2q19 -1 30.5 -5.5t9.5 -20.5l-1 -7q-2 -14 -15.5 -21t-28.5 -7l-57 1z" />
    <glyph glyph-name="Iota" unicode="&#x399;" horiz-adv-x="230" 
d="M70 57v480q0 28 6 42t25 23l13 6q8 4 17 4q13 0 19 -10.5t6 -26.5v-480q0 -56 -31 -66l-13 -4q-8 -2 -12 -2q-13 0 -21.5 9.5t-8.5 24.5z" />
    <glyph glyph-name="Kappa" unicode="&#x39a;" horiz-adv-x="500" 
d="M70 57v480q0 28 6 42t25 23l13 6q8 4 17 4q13 0 19 -10.5t6 -26.5v-199l189 187q32 32 54 32q8 0 15 -4l13 -8q16 -10 16 -25q0 -14 -13 -27l-217 -215l234 -229q13 -12 13 -26q0 -16 -16 -26l-13 -8q-7 -4 -15 -4q-20 0 -54 32l-206 204v-1v-163q0 -56 -31 -66l-13 -4
q-8 -2 -12 -2q-13 0 -21.5 9.5t-8.5 24.5z" />
    <glyph glyph-name="Lambda" unicode="&#x39b;" horiz-adv-x="570" 
d="M63 33q-14 2 -21.5 9.5t-7.5 20.5q0 8 3 15l170 473q10 25 21 37q7 8 19 11q8 3 21 3h15q20 0 32.5 -11.5t21.5 -35.5l196 -493q3 -9 3 -17q0 -11 -7 -19.5t-20 -9.5l-15 -2q-31 -4 -52 48l-169 425l-145 -405q-9 -26 -21 -38.5t-29 -11.5z" />
    <glyph glyph-name="Mu" unicode="&#x39c;" horiz-adv-x="640" 
d="M70 57v480q0 28 6 42t25 23l13 6q8 4 17 4q13 0 22 -7.5t25 -26.5l14 -17l137 -169l143 177q4 5 18 25t27 26l9 4q8 4 15 4q13 0 20 -11t7 -26v-496q0 -56 -31 -66l-13 -4q-8 -2 -12 -2q-13 0 -21.5 9.5t-8.5 24.5l3 418l-81 -110q-4 -5 -17 -22.5t-24.5 -26t-22.5 -8.5
h-15q-18 0 -29.5 10.5t-23.5 26.5l-18 24l-101 135l3 -409q0 -56 -31 -66l-13 -4q-8 -2 -12 -2q-13 0 -21.5 9.5t-8.5 24.5z" />
    <glyph glyph-name="Nu" unicode="&#x39d;" horiz-adv-x="580" 
d="M70 57v480q0 28 6 42t25 23l13 6q8 4 17 4h3q2 0 5 -1q4 -2 7 -5q5 -4 10 -9q14 -14 25 -32l237 -382v371q0 28 6 42t25 23l13 6q8 4 17 4q13 0 19 -10.5t6 -26.5v-497q0 -56 -31 -66l-13 -4q-8 -2 -12 -2h-4h-3q-9 2 -15 9q-2 2 -3 5q-12 12 -26 35l-241 389v-366
q0 -56 -31 -66l-13 -4q-8 -2 -12 -2q-13 0 -21.5 9.5t-8.5 24.5z" />
    <glyph glyph-name="Xi" unicode="&#x39e;" horiz-adv-x="510" 
d="M104 34q-32 0 -32 17q0 5 4 15l3 7q8 13 18 17t27 5q38 2 149 2q113 0 151 -2q20 -1 31.5 -5.5t8.5 -20.5l-1 -7q-2 -15 -17 -22t-30 -6q-20 1 -127 1zM104 314q-32 0 -32 17q0 5 4 15l3 7q8 13 18 17t27 5q38 2 139 2q103 0 141 -2q20 -1 31.5 -5.5t8.5 -20.5l-1 -7
q-2 -15 -17 -22t-30 -6q-20 1 -119 1zM104 545q-32 0 -32 17q0 5 4 15l3 7q8 13 18 17t27 5q38 2 139 2q103 0 141 -2q19 -1 30.5 -5.5t9.5 -20.5l-1 -7q-2 -15 -17 -22t-30 -6q-20 1 -119 1z" />
    <glyph glyph-name="Omicron" unicode="&#x39f;" horiz-adv-x="550" 
d="M87 136q-40 78 -40 181q17 302 228 302q216 0 227 -302q0 -69 -22.5 -135t-74 -110.5t-131.5 -44.5q-67 0 -114 29.5t-73 79.5zM417 322q-1 106 -38 166.5t-105 60.5q-64 0 -99.5 -59.5t-42.5 -167.5q0 -53 16 -105t48 -86t78 -34q69 0 106 66t37 159z" />
    <glyph glyph-name="Pi" unicode="&#x3a0;" horiz-adv-x="560" 
d="M70 77v450q0 16 2 27q-2 3 -2 8t4 15l3 7q5 13 15.5 17t29.5 5q38 2 158 2q122 0 160 -2q19 -1 30 -5q8 -3 12 -10q6 -10 6 -26v-470q0 -56 -31 -66l-13 -4q-8 -2 -12 -2q-13 0 -21.5 9.5t-8.5 24.5v470v18q-30 1 -104 1h-142v-431q0 -56 -31 -66l-13 -4q-8 -2 -12 -2
q-13 0 -21.5 9.5t-8.5 24.5z" />
    <glyph glyph-name="Rho" unicode="&#x3a1;" horiz-adv-x="470" 
d="M70 57v480q0 28 6 42t25 23l13 6q8 4 17 4q13 0 19 -11q3 -6 5 -14q31 2 45 2q104 0 154 -32q63 -39 63 -142q0 -84 -78 -127q-72 -40 -183 -43v-150q0 -56 -31 -66l-13 -4q-8 -2 -12 -2q-13 0 -21.5 9.5t-8.5 24.5zM277 335q32 11 49 33t17 53q0 53 -34.5 78.5
t-105.5 25.5q-24 0 -47 -2v-211q70 5 121 23z" />
    <glyph glyph-name="Sigma" unicode="&#x3a3;" horiz-adv-x="510" 
d="M261 291q-11 -1 -20 5t-19 22l-1 1q4 5 7 8q10 11 29 12l15 1q33 1 33 -18q0 -8 -6 -19l-120 -207q37 1 94 1q113 0 151 -2q20 -1 31.5 -5.5t8.5 -20.5l-1 -7q-2 -14 -15.5 -21t-28.5 -7l-101 1l-215 -1q-31 0 -31 17q0 5 4 15l1 2q1 7 5 13l121 208q11 19 18 30l-12 20
l-130 202q-7 12 -7 18v2v1q0 5 4 15l3 7q8 13 18 17t27 5q38 2 139 2q103 0 141 -2q19 -1 30.5 -5.5t9.5 -20.5l-1 -7q-2 -14 -15.5 -21t-28.5 -7l-96 1l-139 -1q7 -10 10 -14l126 -192q5 -7 5 -17q0 -11 -8 -19.5t-21 -9.5z" />
    <glyph glyph-name="Tau" unicode="&#x3a4;" horiz-adv-x="550" 
d="M34 562q0 5 4 15l3 7q5 13 15.5 17t29.5 5q38 2 196 2q160 0 198 -2q20 -1 31.5 -5.5t8.5 -20.5l-1 -7q-2 -15 -17 -22t-30 -6q-18 1 -133 1v-451q0 -56 -31 -66l-13 -4q-8 -2 -12 -2q-13 0 -21.5 9.5t-8.5 24.5v459q0 18 2 30q-167 0 -186 -1q-35 -1 -35 17z" />
    <glyph glyph-name="Upsilon" unicode="&#x3a5;" horiz-adv-x="520" 
d="M240 57v274q-5 5 -9 11q-11 14 -17 21l-176 211q-9 11 -9 20q0 8 8.5 12.5t23.5 4.5h20q15 0 24.5 -7t21.5 -24l13 -16l136 -159l103 159q3 5 12.5 20.5t19.5 22t23 6.5l20 1q33 2 33 -17q0 -7 -7 -19l-132 -209q-14 -22 -22 -34v-240q0 -56 -31 -66l-13 -4q-8 -2 -12 -2
q-13 0 -21.5 9.5t-8.5 24.5z" />
    <glyph glyph-name="Phi" unicode="&#x3a6;" horiz-adv-x="550" 
d="M230 8v41q-88 12 -131 71q-52 74 -52 197q8 148 64 215q43 52 119 64v2q0 28 6 42t25 23l13 6q8 4 17 4q13 0 19 -10.5t6 -26.5v-40q80 -10 125 -64q56 -67 61 -215q0 -68 -22.5 -129t-73.5 -101q-37 -29 -90 -37v-4q0 -56 -31 -66l-13 -4q-8 -2 -12 -2q-13 0 -21.5 9.5
t-8.5 24.5zM417 322q-1 104 -38 155q-24 35 -63 46v-400q40 12 64 51q37 57 37 148zM174 478q-35 -50 -42 -156q0 -52 16 -99t48 -77q15 -14 34 -21v397q-34 -12 -56 -44z" />
    <glyph glyph-name="Chi" unicode="&#x3a7;" horiz-adv-x="530" 
d="M69 78q-12 1 -19.5 7.5t-7.5 16.5t8 21l159 217l-161 204q-9 11 -9 19t8.5 13t23.5 5h20q13 0 23 -6t20.5 -20t15.5 -21l105 -132l109 148q5 8 13.5 20.5t17.5 20t24 8.5l20 1q16 1 24.5 -3.5t8.5 -13.5t-7 -19l-161 -222l192 -240q8 -11 8 -21t-7.5 -16.5t-18.5 -8.5
l-15 -2q-14 -2 -25 4t-23 22t-17 22l-140 176l-110 -151l-13 -19q-12 -18 -19.5 -25t-19.5 -6z" />
    <glyph glyph-name="Psi" unicode="&#x3a8;" horiz-adv-x="560" 
d="M402 437v90q0 28 6 42t25 23l13 6q8 4 17 4q13 0 19 -10.5t6 -26.5v-90v-8v-32q0 -126 -51 -185q-40 -46 -111 -56v-99q0 -56 -31 -66l-13 -4q-8 -2 -12 -2q-13 0 -21.5 9.5t-8.5 24.5v136q-69 10 -109 52q-52 55 -61 172v130q0 28 6 42t25 23l13 6q8 4 17 4
q13 0 19 -10.5t6 -26.5v-148q0 -87 32 -130q19 -26 52 -36v276q0 28 6 42t25 23l13 6q8 4 17 4q13 0 19 -10.5t6 -26.5v-317q8 2 14 5q21 8 36 30q23 37 26 126v8z" />
    <glyph glyph-name="uni03A9" unicode="&#x3a9;" horiz-adv-x="590" 
d="M63 34q-31 0 -31 17q0 5 4 15l3 7q8 13 18 17t27 5q21 1 42 1q-31 39 -52 93q-27 68 -27 138q0 91 32 157t88.5 100.5t127.5 34.5q122 0 184.5 -75.5t62.5 -216.5q0 -75 -21 -142q-16 -52 -45 -89q20 0 42 -1q20 -1 31.5 -5.5t8.5 -20.5l-1 -7q-2 -14 -15.5 -21t-28.5 -7
l-56 1l-87 -1h-9h-4q-31 0 -31 17q0 5 4 15l3 7q8 13 18 17q3 1 7 2v1q25 9 48 42.5t37 85t14 111.5q0 98 -41.5 157.5t-121.5 59.5q-43 0 -80.5 -28t-59.5 -78t-22 -111q0 -60 20 -113.5t49 -87t54 -38.5v-1q6 -1 10 -3q12 -4 9 -20l-1 -7q-2 -14 -15.5 -21t-28.5 -7h-3h-8
l-48 1z" />
    <glyph glyph-name="alpha" unicode="&#x3b1;" horiz-adv-x="475" 
d="M392 28q-44 35 -67 83q-10 -23 -27 -41q-42 -46 -115 -46q-49 0 -78 25.5t-43 62.5q-14 39 -16 91q11 197 170 209q33 0 54 -10q17 -7 27 -17q6 12 24 21l13 6q8 4 17 4q13 0 19 -10.5t6 -26.5q0 -102 8.5 -163t41.5 -101q16 -18 22.5 -29.5t6.5 -21.5q0 -8 -4 -16
l-7 -14q-9 -17 -25 -17q-13 0 -27 11zM303 379l-12 -82q0 14 -12.5 29t-45.5 15q-100 -7 -108 -131q0 -56 17 -84t60 -28q23 1 45.5 16.5t36 44.5t12.5 66l1 -1q-7 54 -7 117q0 28 6 42q0 1 1 2z" />
    <glyph glyph-name="beta" unicode="&#x3b2;" horiz-adv-x="480" 
d="M68 -143v529v19q0 99 44 151t127 53q79 0 124 -47.5t45 -126.5q0 -36 -16 -70q-11 -24 -32 -42q23 -11 40 -27q43 -41 43 -118q0 -39 -18.5 -75.5t-59.5 -60.5t-103 -24q-81 0 -114 39v-162q0 -29 -5.5 -45t-21.5 -21l-13 -4q-8 -2 -11 -2q-13 0 -21 9t-8 25zM199 314
l-1 7q-3 16 9.5 21t30.5 5q42 0 67.5 27.5t25.5 64.5q0 45 -24 73t-69 31q-45 0 -67 -32q-21 -30 -23 -90v-319h2q53 -16 95 -13q62 5 90 25.5t28 69.5q0 46 -28 71.5t-80 30.5h-9q-16 0 -30.5 6.5t-16.5 21.5z" />
    <glyph glyph-name="gamma" unicode="&#x3b3;" horiz-adv-x="440" 
d="M193 -131v180q-7 12 -15 28l-137 291q-6 16 -6 23q0 24 30 24h14q21 0 33 -10.5t23 -35.5l103 -236q37 41 50.5 99t18.5 128q3 48 52 51l14 1q17 1 23 -6t6 -21q0 -12 -1 -18q-14 -188 -106 -298q-3 -4 -15 -18q-1 -1 -2 -3v-153q0 -20 -9 -35t-25 -19l-11 -3
q-3 -1 -10 -1q-12 0 -21 9t-9 23z" />
    <glyph glyph-name="delta" unicode="&#x3b4;" horiz-adv-x="415" 
d="M38 207q3 128 67 177q-1 2 -3 3q-41 30 -41 82q0 66 41.5 105.5t105.5 39.5q35 0 55 -4.5t46 -17.5q23 -11 35 -22.5t12 -25.5q0 -5 -3 -13l-6 -15q-6 -14 -21 -14q-13 0 -27 10q-20 14 -43.5 24t-42.5 10q-32 0 -53.5 -20t-21.5 -51q0 -40 22 -49.5t48 -9.5
q161 0 169 -209q2 -47 -16 -88t-56.5 -66t-97.5 -25q-95 0 -132.5 55.5t-36.5 123.5zM300 213q-1 131 -93 137q-89 0 -92 -137q0 -48 25 -83.5t67 -35.5q44 0 68.5 33t24.5 86z" />
    <glyph glyph-name="epsilon" unicode="&#x3b5;" horiz-adv-x="360" 
d="M40 133q0 27 4 46t15 38.5t29 31.5q5 4 11 8q-38 36 -38 90q0 51 32 79t80 28q26 -1 57.5 -14t53.5 -36q9 -12 9 -24q0 -13 -10 -24l-7 -6q-9 -7 -17 -7q-15 0 -33 18q-24 19 -44 19q-18 0 -30 -6.5t-13 -18.5q-3 -25 23 -56q15 -17 38 -27q18 -8 18 -30q0 -5 -3.5 -10
t-8.5 -7q-7 -3 -18 -6q-8 -3 -19 -8q-13 -7 -22 -14q-14 -11 -19.5 -26t-4.5 -37q0 -21 18 -33.5t48 -12.5q22 0 44 7t37 22q14 14 29 14q11 0 17 -10l6 -10q6 -10 6 -20q0 -14 -10 -25q-14 -18 -55 -37.5t-82 -19.5q-63 0 -102 34.5t-39 89.5z" />
    <glyph glyph-name="zeta" unicode="&#x3b6;" horiz-adv-x="435" 
d="M34 562q0 5 4 15l3 7q5 13 15.5 17t29.5 5q38 2 136 2q100 0 138 -2q20 -1 31.5 -5.5t8.5 -20.5l-1 -7q-2 -15 -17 -22q-12 -6 -23 -6q-46 -5 -99 -54.5t-90 -113t-37 -106.5q0 -71 35.5 -97.5t110.5 -26.5q63 0 93.5 -20t30.5 -63v-20q0 -44 -12.5 -84.5t-40.5 -70.5
q-17 -16 -41.5 -26.5t-48.5 -10.5q-27 0 -46 12q-12 7 -12 21q0 12 9 17q24 8 45.5 21t34.5 28q26 34 26 94q0 13 -8 20.5t-21 7.5h-26q-109 0 -162 51t-53 138q0 78 45 155t116 129q-119 0 -139 -1q-35 -1 -35 17z" />
    <glyph glyph-name="eta" unicode="&#x3b7;" horiz-adv-x="450" 
d="M59 57v284q0 28 6 42t25 23l13 6q8 4 17 4q13 0 19 -10.5t6 -26.5v-21q61 54 115 54q119 0 130 -137v-380q0 -20 -9 -35t-25 -19l-11 -3q-3 -1 -10 -1q-12 0 -21 9t-9 23v410q0 62 -56 62q-48 0 -104 -68v-178q0 -56 -31 -66l-13 -4q-8 -2 -12 -2q-13 0 -21.5 9.5
t-8.5 24.5z" />
    <glyph glyph-name="theta" unicode="&#x3b8;" horiz-adv-x="550" 
d="M87 136q-40 78 -40 181q0 148 60 225t168 77q109 0 168 -76.5t59 -225.5q0 -69 -22.5 -135t-74 -110.5t-131.5 -44.5q-67 0 -114 29.5t-73 79.5zM148 217q16 -52 48 -86t78 -34q69 0 106 66q31 55 36 130l-109 1l-174 -1q3 -39 15 -76zM379 488q-37 61 -105 61
q-65 0 -104 -61q-32 -52 -37 -134h3q38 2 154 2q82 0 125 -1q-5 83 -36 133z" />
    <glyph glyph-name="iota" unicode="&#x3b9;" horiz-adv-x="268" 
d="M67 57v283q0 28 6 42t25 23l13 6q8 4 17 4q13 0 19 -10.5t6 -26.5v-330q0 -63 26 -97q13 -15 34.5 -28t45.5 -21q9 -5 9 -17q0 -14 -12 -21q-19 -12 -46 -12q-24 0 -48.5 10.5t-41.5 26.5q-28 30 -40.5 70.5t-12.5 84.5v8v5z" />
    <glyph glyph-name="kappa" unicode="&#x3ba;" horiz-adv-x="415" 
d="M341 22q-21 0 -35 6.5t-38 27.5l-115 99v-60q0 -56 -31 -66l-13 -4q-8 -2 -12 -2q-13 0 -21.5 9.5t-8.5 24.5v284q0 28 6 42t25 23l13 6q8 4 17 4q13 0 19 -10.5t6 -26.5v-90l95 76q23 19 46.5 32t39.5 13q8 0 12 -3l12 -8q9 -5 9 -16q0 -14 -18 -28l-168 -134l178 -151
q18 -16 18 -30q0 -8 -6 -13t-16 -5h-14z" />
    <glyph glyph-name="lambda" unicode="&#x3bb;" horiz-adv-x="533" 
d="M58 19q-23 0 -23 16q0 11 11 31l144 261q8 14 17 25l-77 176q-12 28 -58 28q-12 0 -24 -2h-6q-11 0 -11 9q0 4 2 9t5 8q21 23 41 31t46 8t49 -15t35 -41l196 -446q14 -33 64 -33q15 0 20 1h6q11 0 11 -9q0 -4 -2 -9t-5 -8q-21 -23 -41 -31t-46 -8t-49.5 15t-34.5 41
l-81 184l-107 -195q-25 -46 -68 -46h-14z" />
    <glyph glyph-name="uni03BC" unicode="&#x3bc;" horiz-adv-x="480" 
d="M370 40q-18 30 -30 65q-16 -31 -46 -52q-41 -29 -92 -29q-26 0 -46 8v-137q0 -21 -9.5 -35t-25.5 -19l-11 -3q-3 -1 -10 -1q-12 0 -21 9t-9 23v352v10v10v100q0 28 6 42t25 23l13 6q8 4 17 4q13 0 19 -10.5t6 -26.5v-162q0 -108 45 -119q48 -4 80 46q29 49 34 175v22
q0 28 6 42t25 23l13 6q8 4 17 4q13 0 19 -10.5t6 -26.5v-65q0 -68 6 -115t25 -89q13 -26 13 -44q0 -16 -13 -28l-11 -10q-10 -9 -21 -9q-16 0 -30 21zM351 132l-1 -2z" />
    <glyph glyph-name="nu" unicode="&#x3bd;" horiz-adv-x="436" 
d="M224 25q-14 1 -24 14.5t-22 37.5l-137 291q-6 16 -6 23q0 24 30 24h14q21 0 33 -10.5t23 -35.5l103 -236q37 41 50.5 99t18.5 128q3 48 52 51l14 1q17 1 23 -6t6 -21q0 -12 -1 -18q-14 -188 -106 -298q-3 -4 -14.5 -17.5t-22.5 -21t-21 -6.5z" />
    <glyph glyph-name="xi" unicode="&#x3be;" horiz-adv-x="435" 
d="M66 545q-32 0 -32 17q0 5 4 15l3 7q5 13 15.5 17t29.5 5q38 2 136 2q100 0 138 -2h1q19 -1 30.5 -5.5t8.5 -20.5l-1 -7q-2 -15 -17 -22t-30 -6h-13q-8 0 -22.5 0.5t-21.5 -0.5q-66 -6 -117 -27.5t-51 -63.5q0 -46 70 -64t143 -18q18 0 30.5 -5t9.5 -21l-1 -7
q-2 -15 -16.5 -21.5t-30.5 -6.5h-42q-37 0 -73.5 -11t-60 -31.5t-23.5 -47.5q0 -42 35.5 -58t110.5 -16q63 0 93.5 -20t30.5 -63v-20q0 -44 -12.5 -84.5t-40.5 -70.5q-17 -16 -41.5 -26.5t-48.5 -10.5q-27 0 -46 12q-12 7 -12 21q0 12 9 17q24 8 45.5 21t34.5 28
q26 34 26 94q0 13 -8 20.5t-21 7.5h-26q-109 0 -162 38t-53 101q0 81 71 117q7 4 14 7q-28 13 -52 34q-33 30 -33 78q0 61 47 97h-28z" />
    <glyph glyph-name="omicron" unicode="&#x3bf;" horiz-adv-x="415" 
d="M38 207q5 207 170 209q161 0 169 -209q2 -47 -16 -88t-56.5 -66t-97.5 -25q-95 0 -132.5 55.5t-36.5 123.5zM300 213q-1 131 -93 137q-89 0 -92 -137q0 -48 25 -83.5t67 -35.5q44 0 68.5 33t24.5 86z" />
    <glyph glyph-name="pi" unicode="&#x3c0;" horiz-adv-x="520" 
d="M125 47v301v9q-59 -1 -66 -1q-37 0 -37 24q0 8 4 16l2 4q7 13 17 17.5t24 5.5q28 2 194 2t194 -2q18 -2 28.5 -7.5t10.5 -23.5v-5q-3 -16 -17 -23.5t-28 -7.5q-10 0 -81 1v-121v-8v-17q0 -63 26 -97q13 -15 34.5 -28t45.5 -21q9 -3 9 -17t-12 -21q-19 -12 -46 -12
q-24 0 -48 10.5t-41 26.5q-28 30 -40.5 70.5t-12.5 84.5v3v138v9h-75v-284q0 -22 -7.5 -38t-22.5 -20l-10 -3q-8 -2 -11 -2q-14 0 -24 10.5t-10 26.5z" />
    <glyph glyph-name="rho" unicode="&#x3c1;" horiz-adv-x="450" 
d="M68 -143v329v11v11q0 99 44 151t127 53q81 0 125 -52t44 -152q0 -77 -41.5 -125.5t-128.5 -48.5q-55 0 -90 16v-155q0 -29 -5.5 -45t-21.5 -21l-13 -4q-8 -2 -11 -2q-13 0 -21 9t-8 25zM331 214q-1 65 -24 97t-69 35q-45 0 -67 -32q-21 -30 -23 -90v-10q0 -48 24 -81
t66 -33q44 0 68.5 31t24.5 83z" />
    <glyph glyph-name="sigma" unicode="&#x3c3;" horiz-adv-x="466" 
d="M38 201q0 104 43 157t127 54q4 0 9 1q28 2 99 2t99 -2q18 -2 28.5 -7.5t10.5 -23.5v-5q-3 -16 -17 -23.5t-28 -7.5q-12 1 -69 1q33 -51 37 -139q2 -74 -40.5 -124t-129.5 -50q-93 0 -131 51t-38 116zM300 214q-1 65 -24 97t-69 35h-7q-40 -3 -61 -32q-23 -32 -24 -100
q0 -48 25 -81t67 -33q44 0 68.5 31t24.5 83z" />
    <glyph glyph-name="tau" unicode="&#x3c4;" horiz-adv-x="410" 
d="M175 210v138v9q-104 0 -116 -1q-37 0 -37 24q0 8 4 16l2 4q7 13 17 17.5t24 5.5q28 2 139 2t139 -2q18 -2 28.5 -7.5t10.5 -23.5v-5q-3 -16 -17 -23.5t-28 -7.5q-11 1 -81 1v-121v-8v-17q0 -63 26 -97q13 -15 34.5 -28t45.5 -21q9 -3 9 -17t-12 -21q-19 -12 -46 -12
q-24 0 -48 10.5t-41 26.5q-28 30 -40.5 70.5t-12.5 84.5v3z" />
    <glyph glyph-name="upsilon" unicode="&#x3c5;" horiz-adv-x="470" 
d="M70 227v114q0 28 6 42t25 23l13 6q8 4 17 4q13 0 19 -10.5t6 -26.5v-162q0 -52 15.5 -83t39.5 -36q16 -2 22 -2q25 0 43 9.5t28 24.5q31 40 31 104q0 55 -20 111q-4 11 -4 21q0 28 35 44l13 6q8 4 16 4q11 0 15.5 -9t9.5 -28q20 -78 20 -148q0 -53 -14 -93h1l-3 -8
q-15 -39 -43 -65q-11 -11 -24 -19q-44 -27 -107 -27q-20 0 -30 1q-61 5 -96 58q-34 52 -34 145z" />
    <glyph glyph-name="phi" unicode="&#x3c6;" horiz-adv-x="415" 
d="M164 -153v184q-61 10 -90 52q-37 56 -36 124q4 177 126 204v126q0 28 6 42t25 23l13 6q8 4 17 4q13 0 19 -10.5t6 -26.5v-163q120 -26 127 -205q2 -47 -16 -88t-57 -66q-23 -15 -54 -21v-147q0 -56 -31 -66l-13 -4q-8 -2 -12 -2q-13 0 -21.5 9.5t-8.5 24.5zM300 213
q-1 95 -50 124v-233q14 8 25 23q25 33 25 86zM115 213q0 -48 25 -84q10 -15 24 -24v234q-47 -28 -49 -126z" />
    <glyph glyph-name="chi" unicode="&#x3c7;" horiz-adv-x="485" 
d="M93 27l-12 2q-10 1 -15.5 7t-5.5 15q0 11 10 24l130 164q-2 5 -4 9q-13 28 -24 43q-18 26 -30.5 40t-24.5 19q-17 7 -36 7q-8 0 -26 -2q-17 -3 -17 9q0 4 2 9t5 8q21 23 41 31t46 8t48.5 -15t35.5 -41l32 -65l59 75q19 25 33.5 35.5t34.5 10.5h14q24 0 24 -18
q0 -14 -12 -29l-117 -148l32 -65q9 -18 25 -36t30 -23q18 -7 36 -7q8 0 26 2q17 3 17 -9q0 -4 -2 -9t-5 -8q-21 -23 -41 -31t-46 -8q-24 0 -46 15.5t-38 40.5q-16 24 -39 75l-69 -88q-22 -26 -34.5 -37t-28.5 -11z" />
    <glyph glyph-name="psi" unicode="&#x3c8;" horiz-adv-x="500" 
d="M70 227v114q0 28 6 42t25 23l13 6q8 4 17 4q13 0 19 -10.5t6 -26.5v-162q0 -50 22 -83q17 -25 36 -33v436q0 28 6 42t25 23l13 6q8 4 17 4q13 0 19 -10.5t6 -26.5v-470l2 1q22 10 32 24q31 40 31 104q0 55 -20 111q-4 11 -4 21q0 28 35 44l13 6q8 4 16 4q11 0 15.5 -9
t9.5 -28q20 -78 20 -148q0 -53 -14 -93h1q-2 -4 -3 -8q-15 -39 -43 -65q-12 -11 -26 -19q-28 -17 -65 -23v-142q0 -56 -31 -66l-13 -4q-8 -2 -12 -2q-13 0 -21.5 9.5t-8.5 24.5v177q-63 5 -103 59q-40 53 -41 144z" />
    <glyph glyph-name="omega" unicode="&#x3c9;" horiz-adv-x="690" 
d="M528 130q31 40 31 104q0 55 -20 111q-4 11 -4 21q0 28 35 44l13 6q8 4 16 4q11 0 15.5 -9t9.5 -28q20 -78 20 -148q0 -53 -14 -93h1q-2 -3 -3 -7q-14 -40 -43 -66q-11 -11 -23 -19q-43 -27 -101 -27q-18 0 -27 1q-54 5 -87 46q-33 -42 -87 -46q-10 -1 -30 -1
q-60 0 -101 27q-21 14 -39 39q-40 53 -40 146q0 70 20 148q5 19 9.5 28t15.5 9q8 0 16 -4l13 -6q35 -16 35 -44q0 -10 -4 -21q-20 -56 -20 -111q0 -64 31 -104q11 -16 25 -25t36 -9q6 0 22 2q24 5 39 36q14 28 16 72v55q0 28 6 42t25 23l13 6q8 4 17 4q13 0 19 -10.5
t6 -26.5v-82q0 -52 15.5 -83t39.5 -36q16 -2 22 -2q22 0 36 9t25 25z" />
    <glyph glyph-name="uni0401" unicode="&#x401;" horiz-adv-x="470" 
d="M70 57v480q0 28 6 42t25 23l13 6q8 4 17 4q10 0 16 -7q3 1 7 1q38 2 114 2q78 0 116 -2q19 -1 30.5 -5.5t9.5 -20.5l-1 -7q-2 -15 -17 -22t-30 -6q-20 1 -100 1l-120 -1v-170q37 2 97 2q63 0 101 -2q20 -1 31.5 -5.5t8.5 -20.5l-1 -7q-2 -15 -17 -22t-30 -6q-20 1 -89 1
l-101 -1v-219q38 2 122 2q88 0 126 -2q20 -1 31.5 -5.5t8.5 -20.5l-1 -7q-2 -15 -17 -22t-30 -6q-20 1 -108 1l-153 -1q-5 -3 -10 -5l-13 -4q-8 -2 -12 -2q-13 0 -21.5 9.5t-8.5 24.5zM113 685v4q0 21 6 31.5t25 13.5l33 6q10 2 14 2q15 0 21.5 -9t6.5 -26v-4q0 -15 -7 -23
t-24 -11l-33 -6q-12 -2 -17 -2q-25 0 -25 24zM279 685v4q0 21 6 31.5t25 13.5l33 6q10 2 14 2q15 0 21.5 -9t6.5 -26v-4q0 -15 -7 -23t-24 -11l-33 -6q-12 -2 -17 -2q-25 0 -25 24z" />
    <glyph glyph-name="uni0410" unicode="&#x410;" horiz-adv-x="570" 
d="M63 33q-14 1 -21.5 9t-7.5 21q0 8 3 15l170 473q9 25 20 37q8 8 20 11q8 3 21 3h6h12q18 -1 29 -12q13 -11 22 -35l196 -493q4 -9 3 -17q0 -11 -7 -19t-20 -10l-15 -2q-31 -4 -52 48l-75 188q-19 1 -64 1l-115 -1l-60 -168q-9 -26 -21 -38.5t-29 -11.5zM280 313
q35 0 62 -1l-69 175l-63 -175q30 1 70 1z" />
    <glyph glyph-name="uni0411" unicode="&#x411;" horiz-adv-x="490" 
d="M70 57v480q0 28 6 42t25 23l13 6q8 4 17 4q10 0 16 -7q3 1 7 1q38 2 94 2q58 0 96 -2q19 -1 30.5 -5.5t9.5 -20.5l-1 -7q-2 -15 -17 -22t-30 -6q-20 1 -85 1l-95 -1v-175q33 3 54 3q31 0 58 -4.5t62 -14.5q53 -16 84.5 -58t31.5 -101q0 -92 -65.5 -127t-183.5 -35
q-20 0 -61 2q-5 -4 -11 -6l-13 -4q-8 -2 -12 -2q-13 0 -21.5 9.5t-8.5 24.5zM291 115q75 12 75 86q0 39 -27.5 63.5t-65.5 32.5q-42 7 -80 7q-20 0 -37 -2v-197q73 0 135 10z" />
    <glyph glyph-name="uni0412" unicode="&#x412;" horiz-adv-x="490" 
d="M70 57v480q0 28 6 42t25 23l13 6q8 4 17 4q13 0 19 -11q4 -8 6 -20q71 19 125 19q125 0 125 -112q0 -92 -74 -135q52 -16 83 -57t31 -101q0 -92 -65.5 -127t-183.5 -35q-20 0 -61 2q-5 -4 -11 -6l-13 -4q-8 -2 -12 -2q-13 0 -21.5 9.5t-8.5 24.5zM291 115q75 12 75 86
q0 39 -27.5 63.5t-65.5 32.5q-42 7 -80 7h-15q-11 -2 -22 -3v-196q73 0 135 10zM267 399q57 28 57 83q0 29 -30 45q-10 5 -28 5q-36 0 -110 -20v-139q68 6 111 26z" />
    <glyph glyph-name="uni0413" unicode="&#x413;" horiz-adv-x="460" 
d="M70 57v480q0 28 6 42t25 23l13 6q8 4 17 4q10 0 16 -7q3 1 7 1q38 2 114 2q78 0 116 -2q19 -1 30.5 -5.5t9.5 -20.5l-1 -7q-2 -15 -17 -22t-30 -6q-20 1 -100 1l-120 -1v-450q0 -56 -31 -66l-13 -4q-8 -2 -12 -2q-13 0 -21.5 9.5t-8.5 24.5z" />
    <glyph glyph-name="uni0414" unicode="&#x414;" horiz-adv-x="630" 
d="M175 562q0 5 4 15l3 7q5 13 15.5 17t29.5 5q38 2 133 2q97 0 135 -2q19 -1 30 -5q8 -3 12 -10q6 -10 6 -26v-450v-12q14 -1 22 -5q4 -1 6 -3q4 -3 7 -8q6 -10 6 -26v-89q0 -56 -31 -66l-13 -4q-8 -2 -12 -2q-13 0 -21.5 9.5t-8.5 24.5v89q0 11 1 20h-6h-6
q-13 0 -21.5 9.5t-8.5 24.5v28q57 0 77 -1q5 0 9 -1q-1 -5 -2 -9h1q8 4 17 4q7 0 12 -3q5 -6 3 -17l-1 -7q-2 -14 -15.5 -21t-28.5 -7h-30v2l-6 -2h-12l-109 1q-114 0 -200 -1h-41v-71q0 -56 -31 -66l-13 -4q-8 -2 -12 -2q-13 0 -21.5 9.5t-8.5 24.5v89q0 23 4 36v1
q0 5 4 15l3 7q8 13 18 17q6 2 14 3v2q23 0 34.5 15.5t15 33.5t7.5 50l30 324q1 15 3 25q-3 4 -3 10zM210 106h107q88 0 140 -1v422v19h-85h-113l-28 -358q-2 -49 -21 -82zM504 65q6 14 25 23l12 6q-5 -37 -29 -45l-13 -4q1 12 5 20z" />
    <glyph glyph-name="uni0415" unicode="&#x415;" horiz-adv-x="470" 
d="M70 57v480q0 28 6 42t25 23l13 6q8 4 17 4q10 0 16 -7q3 1 7 1q38 2 114 2q78 0 116 -2q19 -1 30.5 -5.5t9.5 -20.5l-1 -7q-2 -15 -17 -22t-30 -6q-17 1 -78 1l-142 -1v-170q37 2 97 2q63 0 101 -2q20 -1 31.5 -5.5t8.5 -20.5l-1 -7q-2 -15 -17 -22t-30 -6q-17 1 -70 1
l-120 -1v-219q38 2 122 2q88 0 126 -2q20 -1 31.5 -5.5t8.5 -20.5l-1 -7q-2 -15 -17 -22t-30 -6q-17 1 -83 1l-178 -1q-5 -3 -10 -5l-13 -4q-8 -2 -12 -2q-13 0 -21.5 9.5t-8.5 24.5z" />
    <glyph glyph-name="uni0416" unicode="&#x416;" horiz-adv-x="650" 
d="M568 35q-16 -1 -29 11.5t-31 38.5l-139 207v-197q0 -56 -31 -66l-13 -4q-8 -2 -12 -2q-13 0 -21.5 9.5t-8.5 24.5v237l-140 -209q-18 -26 -31 -38.5t-29 -11.5l-15 1q-11 1 -17.5 7t-6.5 16q0 11 8 22l141 208q5 7 13 20q3 5 6 9q-10 16 -13 21l-150 232q-6 11 -6 18
q0 19 32 19h15q13 0 22.5 -6t18.5 -20.5t13 -20.5l139 -212v188q0 28 6 42t25 23l13 6q8 4 17 4q13 0 19 -10.5t6 -26.5v-224l138 210q4 6 12 18.5t17 20.5t25 8h15q32 0 32 -19q0 -7 -6 -18l-150 -232q-3 -5 -12 -19q-1 -1 -1 -2q2 -4 5 -8q9 -14 14 -21l141 -208
q8 -11 8 -22q0 -10 -6.5 -16t-17.5 -7z" />
    <glyph glyph-name="uni0417" unicode="&#x417;" horiz-adv-x="460" 
d="M214 319l-8 4q-6 3 -6 9q0 18 12 26h-1q21 7 32 14t33 29q17 17 28.5 43t8.5 52q-2 20 -22.5 34.5t-45.5 14.5q-5 0 -15 -2q-4 -1 -30 -8.5t-41 -19.5q-19 -21 -34 -21q-7 0 -13 6l-9 9q-10 10 -10 22t8 21q30 31 72.5 48.5t76.5 17.5q61 0 100.5 -35t39.5 -100
q0 -80 -67 -132q17 -8 35 -21q42 -32 56 -91q6 -23 6 -61q0 -71 -51 -116t-133 -45q-38 0 -76.5 13t-67.5 30.5t-40 31.5t-11 26q0 9 6 18l8 11q10 7 20 7q12 0 21 -12q25 -23 64 -35.5t72 -11.5q46 6 74.5 27.5t29.5 56.5q1 66 -40 102q-13 10 -35.5 21.5t-33.5 13.5l56 45
q19 0 40 -10q-2 -1 -3 -2q-25 -19 -39 -26t-32 -9q-16 0 -35 5z" />
    <glyph glyph-name="uni0418" unicode="&#x418;" horiz-adv-x="580" 
d="M70 57v480q0 28 6 42t25 23l13 6q8 4 17 4h3q2 0 5 -1q4 -2 7 -5q5 -4 10 -9q14 -14 25 -32l237 -382v371q0 28 6 42t25 23l13 6q8 4 17 4q13 0 19 -10.5t6 -26.5v-497q0 -56 -31 -66l-13 -4q-8 -2 -12 -2h-4h-3q-9 2 -15 9q-2 2 -3 5q-12 12 -26 35l-241 389v-366
q0 -56 -31 -66l-13 -4q-8 -2 -12 -2q-13 0 -21.5 9.5t-8.5 24.5z" />
    <glyph glyph-name="uni0419" unicode="&#x419;" horiz-adv-x="580" 
d="M70 57v460q0 28 6 42t25 23l13 6q8 4 17 4h3q2 0 4 -1q7 -2 11 -8q3 -2 6 -5q13 -14 26 -33l237 -365v354q0 28 6 42t25 23l13 6q8 4 17 4q13 0 19 -10.5t6 -26.5v-477q0 -56 -31 -66l-13 -4q-8 -2 -12 -2h-3h-4q-9 2 -15 9q-2 2 -3 5q-12 12 -26 35l-241 371v-348
q0 -56 -31 -66l-13 -4q-8 -2 -12 -2q-13 0 -21.5 9.5t-8.5 24.5zM261 611q-52 0 -80 26t-28 60q0 19 9 34q7 11 20 11q12 0 14 -8q6 -25 21 -38t45 -13h43q30 0 45 13t21 38q1 4 5 6t9 2q13 0 20 -11q9 -15 9 -34q0 -34 -28 -60t-80 -26h-45z" />
    <glyph glyph-name="uni041A" unicode="&#x41a;" horiz-adv-x="500" 
d="M70 57v480q0 28 6 42t25 23l13 6q8 4 17 4q13 0 19 -10.5t6 -26.5v-199l189 187q32 32 54 32q8 0 15 -4l13 -8q16 -10 16 -25q0 -14 -13 -27l-217 -215l234 -229q13 -12 13 -26q0 -16 -16 -26l-13 -8q-7 -4 -15 -4q-20 0 -54 32l-206 204v-1v-163q0 -56 -31 -66l-13 -4
q-8 -2 -12 -2q-13 0 -21.5 9.5t-8.5 24.5z" />
    <glyph glyph-name="uni041B" unicode="&#x41b;" horiz-adv-x="630" 
d="M170 562q0 5 4 15l3 7q5 13 15.5 17t29.5 5q38 2 143 2q107 0 145 -2q18 -1 29 -5q8 -2 13 -10q6 -10 6 -26v-470q0 -56 -31 -66l-13 -4q-8 -2 -12 -2q-13 0 -21.5 9.5t-8.5 24.5v470v18q-28 1 -93 1h-125l-28 -378q-4 -66 -38 -104.5t-103 -38.5h-26q-34 0 -34 16
q0 4 4 16l7 18q5 14 15 18t28 4h4q23 0 34.5 13t15 27t7.5 46l30 344q1 15 3 25q-3 4 -3 10z" />
    <glyph glyph-name="uni041C" unicode="&#x41c;" horiz-adv-x="638" 
d="M70 57v480q0 28 6 42t25 23l13 6q8 4 17 4q13 0 22 -7.5t25 -26.5l14 -17l137 -169l143 177q4 5 18 25t27 26l9 4q8 4 15 4q13 0 20 -11t7 -26v-496q0 -56 -31 -66l-13 -4q-8 -2 -12 -2q-13 0 -21.5 9.5t-8.5 24.5l3 418l-81 -110q-4 -5 -17 -22.5t-24.5 -26t-22.5 -8.5
h-15q-18 0 -29.5 10.5t-23.5 26.5l-18 24l-101 135l3 -409q0 -56 -31 -66l-13 -4q-8 -2 -12 -2q-13 0 -21.5 9.5t-8.5 24.5z" />
    <glyph glyph-name="uni041D" unicode="&#x41d;" horiz-adv-x="558" 
d="M402 57v268q-22 1 -71 1l-175 -1v-210q0 -56 -31 -66l-13 -4q-8 -2 -12 -2q-13 0 -21.5 9.5t-8.5 24.5v440q0 28 6 42t25 23l13 6q8 4 17 4q13 0 19 -10.5t6 -26.5v-169q39 2 133 2q73 0 113 -1v150q0 28 6 42t25 23l13 6q8 4 17 4q13 0 19 -10.5t6 -26.5v-480
q0 -56 -31 -66l-13 -4q-8 -2 -12 -2q-13 0 -21.5 9.5t-8.5 24.5z" />
    <glyph glyph-name="uni041E" unicode="&#x41e;" horiz-adv-x="549" 
d="M87 136q-40 78 -40 181q17 302 228 302q216 0 227 -302q0 -69 -22.5 -135t-74 -110.5t-131.5 -44.5q-67 0 -114 29.5t-73 79.5zM417 322q-1 106 -38 166.5t-105 60.5q-64 0 -99.5 -59.5t-42.5 -167.5q0 -53 16 -105t48 -86t78 -34q69 0 106 66t37 159z" />
    <glyph glyph-name="uni041F" unicode="&#x41f;" horiz-adv-x="560" 
d="M70 77v450q0 16 2 27q-2 3 -2 8t4 15l3 7q5 13 15.5 17t29.5 5q38 2 158 2q122 0 160 -2q19 -1 30 -5q8 -3 12 -10q6 -10 6 -26v-470q0 -56 -31 -66l-13 -4q-8 -2 -12 -2q-13 0 -21.5 9.5t-8.5 24.5v470v18q-30 1 -104 1h-142v-431q0 -56 -31 -66l-13 -4q-8 -2 -12 -2
q-13 0 -21.5 9.5t-8.5 24.5z" />
    <glyph glyph-name="uni0420" unicode="&#x420;" horiz-adv-x="470" 
d="M70 57v480q0 28 6 42t25 23l13 6q8 4 17 4q13 0 19 -11q3 -6 5 -14q31 2 45 2q104 0 154 -32q63 -39 63 -142q0 -84 -78 -127q-72 -40 -183 -43v-150q0 -56 -31 -66l-13 -4q-8 -2 -12 -2q-13 0 -21.5 9.5t-8.5 24.5zM277 335q32 11 49 33t17 53q0 53 -34.5 78.5
t-105.5 25.5q-24 0 -47 -2v-211q70 5 121 23z" />
    <glyph glyph-name="uni0421" unicode="&#x421;" horiz-adv-x="520" 
d="M81 156q-34 72 -34 136q0 143 62 221.5t176 89.5q24 2 36 2q49 0 99 -16q25 -8 39.5 -20.5t14.5 -25.5t-13 -23q-2 -2 -16 -12q-10 -7 -20 -7t-24 8q-19 10 -54 15t-58 2q-73 -8 -114.5 -67t-41.5 -158q0 -52 21.5 -98.5t64.5 -76t104 -29.5q42 0 68 7t65 22l8 2
q8 0 14.5 -5t6.5 -13t-8 -19q-52 -70 -176 -70q-84 0 -138.5 38t-81.5 97z" />
    <glyph glyph-name="uni0422" unicode="&#x422;" horiz-adv-x="554" 
d="M66 545q-32 0 -32 17q0 5 4 15l3 7q5 13 15.5 17t29.5 5q38 2 196 2q160 0 198 -2q20 -1 31.5 -5.5t8.5 -20.5l-1 -7q-2 -15 -17 -22t-30 -6q-17 1 -124 1h-9v-451q0 -56 -31 -66l-13 -4q-8 -2 -12 -2q-13 0 -21.5 9.5t-8.5 24.5v459q0 17 2 29h-189z" />
    <glyph glyph-name="uni0423" unicode="&#x423;" horiz-adv-x="580" 
d="M184 25q-34 0 -34 16q0 4 4 16l7 18q5 14 15 18t28 4h4q33 0 52 23q8 11 17 25l-240 423q-5 10 -5 17q0 11 9 18.5t22 9.5l15 1q16 1 25.5 -9.5t26.5 -40.5l186 -327l130 327q21 52 54 48l15 -2q13 -2 20.5 -9.5t7.5 -19.5q0 -9 -4 -17l-162 -396q-27 -70 -63.5 -106.5
t-103.5 -36.5h-26z" />
    <glyph glyph-name="uni0424" unicode="&#x424;" horiz-adv-x="550" 
d="M230 8v41q-88 12 -131 71q-52 74 -52 197q8 148 64 215q43 52 119 64v2q0 28 6 42t25 23l13 6q8 4 17 4q13 0 19 -10.5t6 -26.5v-40q80 -10 125 -64q56 -67 61 -215q0 -68 -22.5 -129t-73.5 -101q-37 -29 -90 -37v-4q0 -56 -31 -66l-13 -4q-8 -2 -12 -2q-13 0 -21.5 9.5
t-8.5 24.5zM417 322q-1 104 -38 155q-24 35 -63 46v-400q40 12 64 51q37 57 37 148zM174 478q-35 -50 -42 -156q0 -52 16 -99t48 -77q15 -14 34 -21v397q-34 -12 -56 -44z" />
    <glyph glyph-name="uni0425" unicode="&#x425;" horiz-adv-x="530" 
d="M69 78q-12 1 -19.5 7.5t-7.5 16.5t8 21l159 217l-161 204q-9 11 -9 19t8.5 13t23.5 5h20q16 0 25.5 -8t19 -20t14.5 -19l105 -132l109 148q5 8 14.5 22t18.5 20.5t22 6.5l20 1q16 1 24.5 -3.5t8.5 -13.5t-7 -19l-161 -222l192 -240q8 -11 8 -21t-7.5 -16.5t-18.5 -8.5
l-15 -2q-17 -2 -28 6t-21.5 22t-15.5 20l-140 176l-110 -151l-13 -19q-12 -18 -19.5 -25t-19.5 -6z" />
    <glyph glyph-name="uni0426" unicode="&#x426;" horiz-adv-x="650" 
d="M513 -66v89q0 11 1 20l-123 1q-110 0 -192.5 -0.5t-88.5 -0.5h-7h-3q-13 0 -21.5 9.5t-8.5 24.5v440q0 28 6 42t25 23l13 6q8 4 17 4q13 0 19 -10.5t6 -26.5v-440v-10q52 1 183 1h63v431q0 28 6 42t25 23l13 6q8 4 17 4q13 0 19 -10.5t6 -26.5v-456q0 -7 -1 -14
q45 0 62 -1q20 -1 31 -6q4 -1 6 -3q4 -3 7 -8q6 -10 6 -26v-89q0 -56 -31 -66l-13 -4q-8 -2 -12 -2q-13 0 -21.5 9.5t-8.5 24.5z" />
    <glyph glyph-name="uni0427" unicode="&#x427;" horiz-adv-x="560" 
d="M70 547q0 28 6 42t25 23l13 6q8 4 17 4q13 0 19 -10.5t6 -26.5v-88q0 -91 32 -136.5t100 -45.5q65 0 89.5 58t24.5 143v11q0 28 6 42t25 23l13 6q8 4 17 4q13 0 19 -10.5t6 -26.5v-70q0 -10 -1 -20h1v-380q0 -56 -31 -66l-13 -4q-8 -2 -12 -2q-13 0 -21.5 9.5t-8.5 24.5
v215q-47 -31 -121 -31q-97 0 -149.5 57.5t-61.5 178.5v70z" />
    <glyph glyph-name="uni0428" unicode="&#x428;" horiz-adv-x="680" 
d="M70 77v440q0 28 6 42t25 23l13 6q8 4 17 4q13 0 19 -10.5t6 -26.5v-440v-10q43 0 145 1v423q0 28 6 42t25 23l13 6q8 4 17 4q13 0 19 -10.5t6 -26.5v-448q0 -7 -1 -13q94 0 140 -1v432q0 28 6 42t25 23l13 6q8 4 17 4q13 0 19 -10.5t6 -26.5v-456q0 -17 -3 -30
q1 -4 0 -11l-1 -7q-2 -14 -15.5 -21t-28.5 -7l-159 1q-115 0 -201.5 -0.5t-93.5 -0.5h-7h-3q-13 0 -21.5 9.5t-8.5 24.5z" />
    <glyph glyph-name="uni0429" unicode="&#x429;" horiz-adv-x="780" 
d="M637 -66v89q0 11 1 20h-16q-39 1 -139 1l-373 -1h-7h-3q-13 0 -21.5 9.5t-8.5 24.5v440q0 28 6 42t25 23l13 6q8 4 17 4q13 0 19 -10.5t6 -26.5v-440v-10q41 0 145 1v423q0 28 6 42t25 23l13 6q8 4 17 4q13 0 19 -10.5t6 -26.5v-448q0 -7 -1 -13h16h124v431q0 28 6 42
t25 23l13 6q8 4 17 4q13 0 19 -10.5t6 -26.5v-456q0 -7 -1 -14q48 0 63 -1q20 -1 31 -6q4 -1 6 -4q3 -3 6 -7q6 -10 6 -26v-89q0 -56 -31 -66l-13 -4q-8 -2 -12 -2q-13 0 -21.5 9.5t-8.5 24.5z" />
    <glyph glyph-name="uni042A" unicode="&#x42a;" horiz-adv-x="545" 
d="M125 57v480v9h-15l-53 -1q-32 0 -32 17q0 5 4 15l3 7q8 12 17.5 16t27.5 6q22 2 36 2q11 0 49 -2h2l5 2q8 4 17 4q13 0 19 -10.5t6 -26.5v-205q33 3 54 3q31 0 58 -4.5t62 -14.5q53 -16 84.5 -58t31.5 -101q0 -92 -65.5 -127t-183.5 -35q-20 0 -61 2q-5 -4 -11 -6l-13 -4
q-8 -2 -12 -2q-13 0 -21.5 9.5t-8.5 24.5zM346 115q75 12 75 86q0 39 -27.5 63.5t-65.5 32.5q-42 7 -80 7q-20 0 -37 -2v-197q73 0 135 10z" />
    <glyph glyph-name="uni042B" unicode="&#x42b;" horiz-adv-x="675" 
d="M70 57v480q0 28 6 42t25 23l13 6q8 4 17 4q13 0 19 -10.5t6 -26.5v-205q33 3 54 3q31 0 58 -4.5t62 -14.5q53 -16 84.5 -58t31.5 -101q0 -92 -65.5 -127t-183.5 -35q-20 0 -61 2q-5 -4 -11 -6l-13 -4q-8 -2 -12 -2q-13 0 -21.5 9.5t-8.5 24.5zM521 57v480q0 28 6 42
t25 23l13 6q8 4 17 4q13 0 19 -10.5t6 -26.5v-480q0 -56 -31 -66l-13 -4q-8 -2 -12 -2q-13 0 -21.5 9.5t-8.5 24.5zM291 115q75 12 75 86q0 39 -27.5 63.5t-65.5 32.5q-42 7 -80 7q-20 0 -37 -2v-197q73 0 135 10z" />
    <glyph glyph-name="uni042C" unicode="&#x42c;" horiz-adv-x="490" 
d="M70 57v480q0 28 6 42t25 23l13 6q8 4 17 4q13 0 19 -10.5t6 -26.5v-205q33 3 54 3q31 0 58 -4.5t62 -14.5q53 -16 84.5 -58t31.5 -101q0 -92 -65.5 -127t-183.5 -35q-20 0 -61 2q-5 -4 -11 -6l-13 -4q-8 -2 -12 -2q-13 0 -21.5 9.5t-8.5 24.5zM291 115q75 12 75 86
q0 39 -27.5 63.5t-65.5 32.5q-42 7 -80 7q-20 0 -37 -2v-197q73 0 135 10z" />
    <glyph glyph-name="uni042D" unicode="&#x42d;" horiz-adv-x="530" 
d="M117 282q-32 0 -32 17q0 5 4 15l3 7q8 13 18 17t27 5q38 2 147 2q71 0 112 -1q-8 69 -40 115q-41 59 -114 67q-5 1 -18 1q-24 0 -51.5 -5t-42.5 -13q-14 -8 -24 -8q-9 0 -20 7q-14 10 -16 12q-13 10 -13 23t14.5 25.5t39.5 20.5q50 16 99 16q12 0 36 -2
q114 -11 176 -89.5t62 -221.5q0 -64 -34 -136q-27 -59 -81.5 -97t-138.5 -38q-124 0 -176 70q-7 10 -7 19q0 8 6 13t14 5q2 0 8 -2q39 -15 65 -22t68 -7q61 0 104 29.5t64 75.5q18 39 21 81h-69z" />
    <glyph glyph-name="uni042E" unicode="&#x42e;" horiz-adv-x="750" 
d="M70 57v480q0 28 6 42t25 23l13 6q8 4 17 4q13 0 19 -10.5t6 -26.5v-189q34 2 58 2q19 0 43 -1q36 232 221 232q216 0 227 -302q0 -69 -22.5 -135t-74 -110.5t-131.5 -44.5q-67 0 -114 29.5t-73 79.5q-40 78 -40 181v8l-29 1l-65 -1v-230q0 -56 -31 -66l-13 -4
q-8 -2 -12 -2q-13 0 -21.5 9.5t-8.5 24.5zM620 322q-1 106 -38 166.5t-105 60.5q-64 0 -99.5 -59.5t-42.5 -167.5q0 -53 16 -105t48 -86t78 -34q69 0 106 66t37 159z" />
    <glyph glyph-name="uni042F" unicode="&#x42f;" horiz-adv-x="530" 
d="M410 25l-13 4q-31 10 -31 66v170l-14 1l-245 -214q-29 -26 -51 -26q-10 0 -19 6l-12 9q-15 12 -15 26t14 26l224 197q-65 26 -103.5 70.5t-38.5 99.5q0 91 82 119q49 17 106 17q35 0 73 -7q2 7 5 12q6 11 19 11q9 0 17 -4l13 -6q19 -9 25 -23t6 -42v-480
q0 -15 -8.5 -24.5t-21.5 -9.5q-4 0 -12 2zM297 532q-23 0 -44 -3q-31 -4 -49.5 -20.5t-18.5 -42.5q0 -29 18 -54.5t48 -42.5q31 -17 74 -28q20 -5 41 -7v192q-36 6 -69 6z" />
    <glyph glyph-name="uni0430" unicode="&#x430;" horiz-adv-x="475" 
d="M392 28q-44 35 -67 83q-10 -23 -27 -41q-42 -46 -115 -46q-49 0 -78 25.5t-43 62.5q-14 39 -16 91q11 197 170 209q33 0 54 -10q17 -7 27 -17q6 12 24 21l13 6q8 4 17 4q13 0 19 -10.5t6 -26.5q0 -102 8.5 -163t41.5 -101q16 -18 22.5 -29.5t6.5 -21.5q0 -8 -4 -16
l-7 -14q-9 -17 -25 -17q-13 0 -27 11zM303 379l-12 -82q0 14 -12.5 29t-45.5 15q-100 -7 -108 -131q0 -56 17 -84t60 -28q23 1 45.5 16.5t36 44.5t12.5 66l1 -1q-7 54 -7 117q0 28 6 42q0 1 1 2z" />
    <glyph glyph-name="uni0431" unicode="&#x431;" horiz-adv-x="410" 
d="M38 203v4v220q0 24 3 53t12 47q23 44 55 67t92 23q63 0 114 13q3 1 8 1q11 0 11 -10q0 -7 -5 -15q-18 -34 -51 -45.5t-78 -11.5t-64.5 -31t-19.5 -91v-40q37 24 93 25q161 0 169 -209q0 -75 -42 -127t-128 -52q-95 0 -132 55t-37 124zM300 209q-1 131 -93 137
q-89 0 -92 -137q0 -48 25 -83.5t67 -35.5q44 0 68.5 33t24.5 86z" />
    <glyph glyph-name="uni0432" unicode="&#x432;" horiz-adv-x="385" 
d="M58 47v336q0 22 6 35.5t22 20.5l9 5q8 4 17 4q15 0 22 -12q3 -4 4 -8q45 11 79 11q100 0 100 -91q0 -56 -39 -91q26 -13 43 -36q24 -32 24 -78q0 -72 -51.5 -98.5t-142.5 -26.5h-32l-7 -3l-10 -3q-3 -1 -9 -1q-15 0 -25 10t-10 26zM223 99q23 4 32.5 15.5t9.5 33.5
q0 23 -15.5 36.5t-39.5 18.5q-28 5 -56 5h-1q-6 -1 -11 -2v-113q46 1 81 6zM236 344q0 7 -3.5 11.5t-11.5 9.5q-4 3 -16 3q-19 0 -63 -12v-76q94 10 94 64z" />
    <glyph glyph-name="uni0433" unicode="&#x433;" horiz-adv-x="362" 
d="M58 47v336q0 21 6.5 34t21.5 22l9 5q9 5 18 5t16 -6q28 2 80 2q54 0 82 -2q21 -2 32 -8t7 -24l-1 -5q-3 -15 -17 -22.5t-28 -7.5q-14 1 -70 1h-72v-304q0 -48 -30 -58l-10 -3q-8 -2 -11 -2q-15 0 -24 11t-9 26z" />
    <glyph glyph-name="uni0434" unicode="&#x434;" horiz-adv-x="480" 
d="M364 -36v62v3h-99l-148 -1v-38q0 -48 -30 -58l-10 -3q-8 -2 -11 -2q-15 0 -24 11t-9 26v62q0 15 3 26q0 6 4 16l2 5q5 13 16 17q6 2 13 3q15 6 20 17q8 16 10.5 32.5t3.5 23.5l82 -14q0 -13 -1 -24l-84 14l1 17l21 221q0 8 1 14q-1 4 -1 9q0 6 4 16l2 5q9 22 42 22
q26 2 101 2t101 -2q7 0 13 -1h4q13 0 21 -12t8 -27v-315q2 0 4 -1q10 -2 16 -11q8 -12 8 -26v-63q0 -48 -29 -58l-10 -3q-8 -2 -11 -2q-14 0 -24 10.5t-10 26.5zM335 379v1h-129l-20 -252q-3 -17 -8 -32h64h93v283z" />
    <glyph glyph-name="uni0435" unicode="&#x435;" horiz-adv-x="400" 
d="M61 113q-21 43 -25 90q8 202 170 209q76 0 118 -43.5t42 -128.5v-14q2 -5 1 -13l-1 -7q-2 -15 -17 -22t-30 -6q-17 1 -77 1l-126 -1q7 -32 29 -54q31 -31 89 -33q49 0 100 13q3 1 8 1q11 0 11 -10q0 -7 -5 -15q-18 -34 -52 -45.5t-79 -11.5q-61 0 -97.5 24t-58.5 66z
M290 252q-10 84 -75 84q-88 0 -100 -97q37 2 99 2q45 0 76 -1v12z" />
    <glyph glyph-name="uni0436" unicode="&#x436;" horiz-adv-x="480" 
d="M411 19q-15 -1 -25.5 8.5t-27.5 31.5l-75 113v-99q0 -47 -31 -58l-9 -3q-3 -1 -9 -1q-15 0 -25 10t-10 26v126l-76 -113q-14 -20 -26 -31t-27 -10l-11 1q-13 1 -20 9.5t-7 19.5q0 12 7 22l99 144l6 9l3 5q-2 2 -5 9l-105 163q-7 11 -7 19q0 11 9 18t26 7h11q16 0 25 -8
t15 -18t8 -13l75 -114v91q0 23 6 36t23 20l8 5q8 4 17 4q15 0 22.5 -12t7.5 -27v-117l75 114q12 21 20.5 30t26.5 9h11q17 0 26 -7t9 -18q0 -8 -7 -19l-105 -163q-3 -5 -5 -9q1 -2 3 -4l6 -10l99 -144q7 -10 7 -22q0 -11 -7 -19.5t-20 -9.5z" />
    <glyph glyph-name="uni0437" unicode="&#x437;" horiz-adv-x="360" 
d="M152 225q-5 2 -8.5 7t-3.5 10q0 22 18 30q23 10 38 27q23 27 23 50q0 15 -11.5 23t-31.5 8t-44 -19q-18 -18 -33 -18q-8 0 -17 7l-7 6q-10 11 -10 24q0 12 9 24q22 23 53.5 36t57.5 14q48 0 80 -28t32 -79q0 -54 -38 -90q6 -4 11 -8q18 -12 29 -31.5t15 -38.5t4 -46
q0 -55 -39 -89.5t-102 -34.5q-41 0 -82 19.5t-55 37.5q-10 11 -10 25q0 10 6 20l6 10q6 10 17 10q15 0 29 -14q15 -15 37 -22t44 -7q30 0 48 12.5t18 33.5q1 22 -4.5 37t-19.5 26q-9 7 -23 14q-10 5 -19 8q-10 3 -17 6z" />
    <glyph glyph-name="uni0438" unicode="&#x438;" horiz-adv-x="450" 
d="M62 47v336q0 21 5.5 32.5t20.5 19.5l9 5q10 5 16 5q12 0 18 -11l2 -2q13 -12 22 -26l151 -244v233q0 21 5 33t21 19l9 4q8 4 16 4q12 0 18.5 -10t6.5 -24v-348q0 -45 -28 -54l-9 -3q-6 -2 -10 -2q-12 0 -21 9l-4 5q-8 10 -18 25l-154 249v-229q0 -46 -27 -54l-10 -3
q-8 -2 -10 -2q-13 0 -21 9.5t-8 23.5z" />
    <glyph glyph-name="uni0439" unicode="&#x439;" horiz-adv-x="460" 
d="M62 47v322q0 21 5.5 32.5t20.5 19.5l9 5q10 5 16 5q12 0 18 -11l1 -1q12 -11 23 -27l151 -233v222q0 21 5 33t21 19l9 4q8 4 16 4q12 0 18.5 -10t6.5 -24v-334q0 -45 -28 -54l-9 -3q-6 -2 -10 -2q-12 0 -21 9l-4 5q-8 10 -18 25l-154 238v-218q0 -46 -27 -54l-10 -3
q-8 -2 -10 -2q-13 0 -21 9.5t-8 23.5zM204 447q-40 0 -62 21t-22 48q0 16 7 27q9 12 22 12q6 0 11 -3.5t6 -9.5q3 -15 11 -22t27 -7h31q19 0 27 7t11 23q1 5 6.5 8t11.5 3q13 0 21 -11q7 -11 7 -27q0 -27 -22 -48t-62 -21h-31z" />
    <glyph glyph-name="uni043A" unicode="&#x43a;" horiz-adv-x="415" 
d="M341 22q-21 0 -35 6.5t-38 27.5l-115 99v-60q0 -56 -31 -66l-13 -4q-8 -2 -12 -2q-13 0 -21.5 9.5t-8.5 24.5v284q0 28 6 42t25 23l13 6q8 4 17 4q13 0 19 -10.5t6 -26.5v-90l95 76q23 19 46.5 32t39.5 13q8 0 12 -3l12 -8q9 -5 9 -16q0 -14 -18 -28l-168 -134l178 -151
q18 -16 18 -30q0 -8 -6 -13t-16 -5h-14z" />
    <glyph glyph-name="uni043B" unicode="&#x43b;" horiz-adv-x="480" 
d="M49 12q-36 0 -36 23q0 7 4 17l5 11q5 15 15.5 19.5t25.5 4.5h3q15 0 19.5 10.5t6.5 33.5l1 6l21 240q1 9 2 16q-1 4 -1 8q0 9 3 15l2 5q6 13 16 17t26 5q28 2 101 2q74 0 102 -2q8 -1 14 -2h1q15 0 22.5 -12t7.5 -27v-329q0 -47 -31 -58l-9 -3q-3 -1 -9 -1q-15 0 -25 10
t-10 26v329v1h-53h-76l-20 -266h-1q-5 -39 -26 -65q-26 -34 -83 -34h-18z" />
    <glyph glyph-name="uni043C" unicode="&#x43c;" horiz-adv-x="490" 
d="M58 47v336q0 22 6 35.5t22 20.5l9 5q13 5 27 3q12 -4 19.5 -12t22.5 -28l87 -107l91 113l5 5q0 1 2 3q15 24 29 31l6 3q12 4 16 4q14 0 22.5 -11.5t8.5 -26.5v-348q0 -21 -7.5 -36.5t-22.5 -21.5l-10 -3q-3 -1 -9 -1q-15 0 -25.5 10t-10.5 26l2 256l-35 -48
q-17 -23 -28 -33.5t-26 -10.5h-10q-17 0 -28 9.5t-19.5 21.5t-11.5 16l-50 66l2 -251q0 -47 -30 -58l-10 -3q-3 -1 -9 -1q-15 0 -25 10t-10 26z" />
    <glyph glyph-name="uni043D" unicode="&#x43d;" horiz-adv-x="440" 
d="M290 47v176h-57h-91v-136q0 -47 -30 -58l-10 -3q-3 -1 -9 -1q-15 0 -25 10t-10 26v308q0 22 6 35.5t22 20.5l9 5q8 4 17 4q15 0 22.5 -12t7.5 -27v-105q29 1 82 1q40 0 66 -1v93q0 22 6 35.5t22 20.5l9 5q8 4 17 4q15 0 23 -11.5t8 -27.5v-336q0 -21 -7.5 -36.5
t-22.5 -21.5l-10 -3q-3 -1 -9 -1q-15 0 -25.5 10t-10.5 26z" />
    <glyph glyph-name="uni043E" unicode="&#x43e;" horiz-adv-x="415" 
d="M38 203q5 207 170 209q161 0 169 -209q0 -75 -42 -127t-128 -52q-95 0 -132 55t-37 124zM300 209q-1 131 -93 137q-89 0 -92 -137q0 -48 25 -83.5t67 -35.5q44 0 68.5 33t24.5 86z" />
    <glyph glyph-name="uni043F" unicode="&#x43f;" horiz-adv-x="435" 
d="M58 56v315q0 10 1 19v5q0 9 3 16l2 5q6 13 16 17t25 5q28 2 112 2q85 0 113 -2q7 -1 13 -2h1q12 0 19 -8l2 -2l2 -2q8 -11 8 -27v-329q0 -21 -7.5 -36.5t-22.5 -21.5l-10 -3q-3 -1 -9 -1q-15 0 -25.5 10t-10.5 26v329v1h-60h-88v-290q0 -47 -30 -58l-10 -3q-3 -1 -9 -1
q-15 0 -25 10t-10 26z" />
    <glyph glyph-name="uni0440" unicode="&#x440;" horiz-adv-x="460" 
d="M70 -143v484q0 28 6 42t25 23l13 6q8 4 17 4q13 0 19 -11q4 -7 5 -16q37 8 69 8q62 0 109 -32q74 -51 74 -132q0 -108 -79 -159q-71 -47 -172 -51v-128q0 -56 -31 -66l-13 -4q-8 -2 -12 -2q-13 0 -21.5 9.5t-8.5 24.5zM327 238q0 39 -34 63t-93 24q-18 0 -44 -4v-220
q171 13 171 137z" />
    <glyph glyph-name="uni0441" unicode="&#x441;" horiz-adv-x="370" 
d="M60 113q-19 41 -24 90q5 188 170 209q7 1 24 1q47 0 72 -11q33 -14 33 -42q0 -14 -9 -25t-22 -11q-7 0 -14 4q-13 9 -32 11.5t-34 1.5q-101 -9 -108 -132q0 -52 30 -81.5t88 -33.5q42 -3 95 13h4q6 0 9.5 -3t3.5 -9t-3 -12q-26 -60 -126 -60q-110 0 -157 90z" />
    <glyph glyph-name="uni0442" unicode="&#x442;" horiz-adv-x="410" 
d="M23 400q0 9 3 16l2 5q6 13 16 17t25 5q28 2 139 2t139 -2q20 -2 31 -7.5t8 -23.5v-5q-3 -16 -17 -23.5t-28 -7.5q-11 1 -81 1v-304q0 -21 -7.5 -36.5t-22.5 -21.5l-10 -3q-3 -1 -9 -1q-15 0 -25.5 10t-10.5 26v321v9q-104 0 -116 -1q-36 0 -36 24z" />
    <glyph glyph-name="uni0443" unicode="&#x443;" horiz-adv-x="473" 
d="M190 112l-144 261q-11 20 -11 31q0 16 23 16h14q43 0 68 -46l108 -196l86 196q20 46 68 46h14q22 0 22 -16q0 -11 -10 -31l-222 -504q-11 -25 -30 -38t-41 -9l-12 2q-18 3 -18 20q0 10 7 26l95 216q-9 11 -17 26z" />
    <glyph glyph-name="uni0444" unicode="&#x444;" horiz-adv-x="410" 
d="M166 -22v48q-63 10 -91 53q-37 55 -37 124q4 179 128 204v21q0 28 6 42t25 23l13 6q8 4 17 4q13 0 19 -10.5t6 -26.5v-59q118 -26 125 -204q0 -75 -42 -127q-30 -38 -83 -48v-12q0 -56 -31 -66l-13 -4q-8 -2 -12 -2q-13 0 -21.5 9.5t-8.5 24.5zM115 209q0 -48 25 -84
q11 -16 26 -25v236q-49 -26 -51 -127zM300 209q-1 93 -48 123v-231q13 8 23 22q25 33 25 86z" />
    <glyph glyph-name="uni0445" unicode="&#x445;" horiz-adv-x="436" 
d="M56 29q-10 1 -15.5 7t-5.5 15q0 11 10 24l129 163l-112 125q-13 13 -13 28q0 19 25 19h14q18 0 29.5 -8.5t23 -21t15.5 -16.5l62 -70l64 80q19 25 33.5 35.5t34.5 10.5h14q24 0 24 -18q0 -14 -12 -29l-107 -135l142 -158q10 -10 10 -23q0 -9 -5.5 -15.5t-15.5 -7.5
l-12 -2l-8 -1q-14 0 -25.5 9t-22.5 21.5t-15 17.5l-93 103l-85 -108q-23 -28 -37 -39t-34 -8z" />
    <glyph glyph-name="uni0446" unicode="&#x446;" horiz-adv-x="480" 
d="M368 -31v62v3h-89l-180 -1q-16 0 -25 5q-3 2 -6 5q-10 9 -10 26v308q0 21 6.5 34t21.5 22l9 5q9 5 18 5q14 0 21.5 -12t7.5 -27v-304q31 1 117 1h31v290q0 21 6.5 34t21.5 22l9 4q11 6 19 6q13 0 21 -12t8 -27v-318h30q14 -2 23 -5q10 -2 16 -11q8 -12 8 -26v-63
q0 -48 -29 -58l-10 -3q-8 -2 -11 -2q-14 0 -24 10.5t-10 26.5z" />
    <glyph glyph-name="uni0447" unicode="&#x447;" horiz-adv-x="440" 
d="M62 390q0 22 5.5 34t20.5 18l9 5q8 4 16 4q12 0 18.5 -10.5t6.5 -24.5v-61q0 -62 20 -91t65 -29q42 0 57 40t14 101q0 22 5.5 34t20.5 18l9 5q9 3 15 3q13 0 20 -10t7 -24v-49v-6v-274q0 -43 -27 -54l-10 -3q-3 -1 -9 -1q-13 0 -22 8.5t-9 23.5v136q-32 -15 -76 -15
q-144 0 -156 173v49z" />
    <glyph glyph-name="uni0448" unicode="&#x448;" horiz-adv-x="520" 
d="M101 31h-2q-6 -1 -8 -1q-14 0 -23.5 10.5t-9.5 26.5v308q0 22 6.5 35.5t22.5 20.5l9 4q12 5 18 5q13 0 20.5 -12t7.5 -27v-303q20 1 78 1v284q0 21 6 35t22 22l10 4q10 5 17 5q14 0 21.5 -12.5t7.5 -26.5v-311h73v290q0 22 6.5 35.5t22.5 20.5l9 4q12 5 18 5
q13 0 20.5 -12t7.5 -27v-319q0 -13 -2 -24v-6v-3q-2 -16 -15.5 -24t-27.5 -8h-315z" />
    <glyph glyph-name="uni0449" unicode="&#x449;" horiz-adv-x="570" 
d="M455 -31v62v2q-33 1 -122 1q-91 0 -158 -0.5t-76 -0.5q-13 0 -21 3q-6 3 -10 7q-10 9 -10 26v308q0 21 6.5 34t21.5 22l9 5q9 5 18 5q14 0 21.5 -12t7.5 -27v-304q19 0 78 1v284q0 23 5.5 36.5t23.5 20.5l9 4q9 3 16 3q14 0 22 -11.5t8 -25.5v-311h73v290q0 21 6.5 34
t21.5 22l9 5q9 5 18 5q14 0 21.5 -12t7.5 -27v-318h33q21 -2 32 -8q6 -4 7 -12q6 -10 6 -22v-63q0 -48 -29 -58l-10 -3q-8 -2 -11 -2q-14 0 -24 10.5t-10 26.5z" />
    <glyph glyph-name="uni044A" unicode="&#x44a;" horiz-adv-x="410" 
d="M83 42v330h-19q-4 -1 -14 -1q-36 0 -36 24q0 9 3 15l2 7q13 19 41 21q18 2 27 2q6 0 31 -2l2 1q9 5 18 5q14 0 21.5 -12.5t7.5 -27.5v-130q11 1 22 1q42 0 91 -13q42 -13 66 -45.5t24 -78.5q0 -72 -51.5 -98.5t-142.5 -26.5h-32q-4 -2 -7 -3l-10 -3q-8 -2 -11 -2
q-15 0 -24 11t-9 26zM248 94q23 4 32.5 15.5t9.5 33.5q0 23 -15.5 36.5t-39.5 18.5q-28 5 -56 5h-12v-115q46 1 81 6z" />
    <glyph glyph-name="uni044B" unicode="&#x44b;" horiz-adv-x="520" 
d="M58 42v336q0 22 6 35.5t22 20.5l9 5q8 4 17 4q15 0 22.5 -12t7.5 -27v-130q11 1 22 1q42 0 91 -13q42 -13 66 -45.5t24 -78.5q0 -72 -51.5 -98.5t-142.5 -26.5h-32l-7 -3l-10 -3q-3 -1 -9 -1q-15 0 -25 10t-10 26zM374 42v336q0 23 5.5 36t22.5 20l10 5q8 4 16 4
q15 0 22.5 -12t7.5 -27v-336q0 -47 -31 -58l-9 -3q-3 -1 -9 -1q-15 0 -25 10t-10 26zM223 94q23 4 32.5 15.5t9.5 33.5q0 23 -15.5 36.5t-39.5 18.5q-28 5 -56 5h-12v-115q46 1 81 6z" />
    <glyph glyph-name="uni044C" unicode="&#x44c;" horiz-adv-x="385" 
d="M58 52v336q0 21 6.5 34t21.5 22l9 5q9 5 18 5q14 0 21.5 -12.5t7.5 -27.5v-130q11 1 22 1q42 0 91 -13q42 -13 66 -45.5t24 -78.5q0 -72 -51.5 -98.5t-142.5 -26.5h-32q-4 -2 -7 -3l-10 -3q-8 -2 -11 -2q-15 0 -24 11t-9 26zM223 104q23 4 32.5 15.5t9.5 33.5
q0 23 -15.5 36.5t-39.5 18.5q-28 5 -56 5h-12v-115q46 1 81 6z" />
    <glyph glyph-name="uni044D" unicode="&#x44d;" horiz-adv-x="400" 
d="M96 192q-34 0 -34 24q0 8 3 14l2 7q13 21 43 21q26 2 103 2q39 0 65 -1q-6 37 -23 61q-25 37 -73 43q-15 2 -37.5 -1.5t-33.5 -9.5q-10 -6 -23 -6q-11 0 -20 6q-10 6 -13 9q-13 12 -13 24q0 13 12.5 25.5t33.5 20.5q33 11 71 11q96 0 151 -59t55 -172q0 -46 -25 -100
q-21 -44 -61.5 -73t-103.5 -29q-46 0 -79.5 13.5t-52.5 40.5q-8 11 -8 21t8 17t18 7q3 0 9 -2q5 -2 21 -8t33 -9t36 -3q59 0 90 38q23 29 29 68h-183z" />
    <glyph glyph-name="uni044E" unicode="&#x44e;" horiz-adv-x="570" 
d="M58 47v336q0 22 6 35.5t22 20.5l9 5q8 4 17 4q15 0 22.5 -12t7.5 -27v-119q17 1 29 1q9 0 20 -1q12 66 42 105q44 57 123 57q80 0 123.5 -56.5t47.5 -166.5q0 -50 -17.5 -99t-56 -82.5t-98.5 -33.5q-50 0 -86 22.5t-56 59.5q-28 55 -29 127h-16h-26v-150q0 -47 -30 -58
l-10 -3q-3 -1 -9 -1q-15 0 -25 10t-10 26zM443 232q-1 72 -23 109.5t-65 37.5q-78 0 -87 -147q0 -56 23 -100.5t64 -44.5q43 0 65.5 41.5t22.5 103.5z" />
    <glyph glyph-name="uni044F" unicode="&#x44f;" horiz-adv-x="405" 
d="M288 16l-9 3q-28 9 -28 54v111l-168 -147q-23 -20 -42 -20q-9 0 -17 6l-9 7q-13 10 -13 23q0 15 13 25l146 130q-38 17 -63 45q-29 34 -29 76q0 70 63 91q35 12 76 12q24 0 47 -4q1 3 3 5q7 10 20 10q6 0 15 -3l9 -5q15 -6 20 -18.5t5 -33.5v-336q0 -14 -8.5 -23
t-21.5 -9q-6 0 -9 1zM212 371q-11 0 -31 -2q-41 -5 -41 -36q0 -37 43 -61q23 -13 55 -20q6 -1 13 -2v118q-21 3 -39 3z" />
    <glyph glyph-name="uni0451" unicode="&#x451;" horiz-adv-x="400" 
d="M61 113q-21 43 -25 90q8 202 170 209q76 0 118 -43.5t42 -128.5v-14q2 -5 1 -13l-1 -7q-2 -15 -17 -22t-30 -6q-17 1 -77 1l-126 -1q7 -32 29 -54q31 -31 89 -33q49 0 100 13q3 1 8 1q11 0 11 -10q0 -7 -5 -15q-18 -34 -52 -45.5t-79 -11.5q-61 0 -97.5 24t-58.5 66z
M290 252q-10 84 -75 84q-88 0 -100 -97q37 2 99 2q45 0 76 -1v12zM90 490v3q0 16 5.5 26t23.5 13l22 4q4 1 11 1q28 0 28 -32v-3q0 -26 -28 -31l-24 -5q-8 -2 -13 -2q-25 0 -25 26zM226 490v3q0 16 5.5 26t23.5 13l22 4q4 1 11 1q28 0 28 -32v-3q0 -12 -6.5 -19.5
t-21.5 -11.5l-23 -5q-10 -2 -13 -2q-26 0 -26 26z" />
    <glyph glyph-name="uni2010" unicode="&#x2010;" horiz-adv-x="460" 
d="M68 305q-32 0 -32 17q0 5 4 15l3 7q8 13 18 17t27 5q38 2 147 2q110 0 148 -2q20 -1 31.5 -5.5t8.5 -20.5l-1 -7q-2 -15 -17 -22t-30 -6q-20 1 -125 1z" />
    <glyph glyph-name="endash" unicode="&#x2013;" horiz-adv-x="440" 
d="M68 305q-32 0 -32 17q0 5 4 15l3 7q8 13 18 17t27 5q38 2 137 2q100 0 138 -2q20 -1 31.5 -5.5t8.5 -20.5l-1 -7q-2 -15 -17 -22t-30 -6q-20 1 -118 1z" />
    <glyph glyph-name="emdash" unicode="&#x2014;" horiz-adv-x="590" 
d="M68 305q-32 0 -32 17q0 5 4 15l3 7q8 13 18 17t27 5q38 2 212 2q175 0 213 -2q20 -1 31.5 -5.5t8.5 -20.5l-1 -7q-2 -15 -17 -22t-30 -6q-20 1 -175 1z" />
    <glyph glyph-name="uni2015" unicode="&#x2015;" horiz-adv-x="590" 
d="M68 305q-32 0 -32 17q0 5 4 15l3 7q8 13 18 17t27 5q38 2 212 2q175 0 213 -2q20 -1 31.5 -5.5t8.5 -20.5l-1 -7q-2 -15 -17 -22t-30 -6q-20 1 -175 1z" />
    <glyph glyph-name="uni2016" unicode="&#x2016;" horiz-adv-x="520" 
d="M323 -26v609q0 28 6 42t25 23l13 6q8 4 17 4q13 0 19 -10.5t6 -26.5v-609q0 -56 -31 -66l-13 -4q-8 -2 -12 -2q-13 0 -21.5 9.5t-8.5 24.5zM111 -26v609q0 28 6 42t25 23l13 6q8 4 17 4q13 0 19 -10.5t6 -26.5v-609q0 -56 -31 -66l-13 -4q-8 -2 -12 -2q-13 0 -21.5 9.5
t-8.5 24.5z" />
    <glyph glyph-name="quoteleft" unicode="&#x2018;" horiz-adv-x="250" 
d="M146 461q-16 -1 -26 12t-20 41l-34 95q-6 18 -6 25q0 20 28 19l14 -2q20 -1 27.5 -11.5t18.5 -40.5l35 -95q3 -9 3 -17q0 -24 -26 -25z" />
    <glyph glyph-name="quoteright" unicode="&#x2019;" horiz-adv-x="250" 
d="M86 462q-26 1 -26 25q0 8 3 17l35 95q11 30 18.5 40.5t27.5 11.5l14 2q28 1 28 -19q0 -7 -6 -25l-34 -95q-10 -28 -20 -41t-26 -12z" />
    <glyph glyph-name="quotedblleft" unicode="&#x201c;" horiz-adv-x="380" 
d="M276 461q-16 -1 -26 12t-20 41l-34 95q-6 18 -6 25q0 23 28 19l14 -2q20 -3 28 -13t18 -39l35 -95q4 -12 4 -17q0 -23 -27 -25zM146 461q-16 -1 -26 12t-20 41l-35 95q-5 15 -5 25q0 23 28 19l14 -2q20 -3 28 -13t18 -39l34 -95q4 -9 4 -18q0 -22 -26 -24z" />
    <glyph glyph-name="quotedblright" unicode="&#x201d;" horiz-adv-x="380" 
d="M216 462q-26 2 -26 24q0 9 4 18l34 95q10 29 18 39t28 13l14 2q28 4 28 -19q0 -10 -5 -25l-35 -95q-10 -28 -20 -41t-26 -12zM86 462q-26 1 -26 25q0 8 3 17l35 95q11 30 18.5 40.5t27.5 11.5l14 2q28 1 28 -19q0 -7 -6 -25l-34 -95q-10 -28 -20 -41t-26 -12z" />
    <glyph glyph-name="dagger" unicode="&#x2020;" horiz-adv-x="370" 
d="M145 57v318h-89q-32 0 -32 17q0 5 4 15l3 7q8 13 18 17t27 5q26 1 69 2v99q0 28 6 42t25 23l13 6q8 4 17 4q13 0 19 -10.5t6 -26.5v-137q48 -1 75 -2q19 -1 30.5 -5.5t9.5 -20.5l-1 -7q-2 -15 -17 -22t-30 -6t-67 1v-281q0 -56 -31 -66l-13 -4q-8 -2 -12 -2
q-13 0 -21.5 9.5t-8.5 24.5z" />
    <glyph glyph-name="daggerdbl" unicode="&#x2021;" horiz-adv-x="370" 
d="M145 57v143h-89q-32 0 -32 17q0 5 4 15l3 7q8 13 18 17t27 5q26 1 69 2v132h-89q-32 0 -32 17q0 5 4 15l3 7q8 13 18 17t27 5q26 1 69 2v79q0 28 6 42t25 23l13 6q8 4 17 4q13 0 19 -10.5t6 -26.5v-117q48 -1 75 -2q19 -1 30.5 -5.5t9.5 -20.5l-1 -7q-2 -15 -17 -22
t-30 -6t-67 1v-133q48 -1 75 -2q19 -1 30.5 -5.5t9.5 -20.5l-1 -7q-2 -15 -17 -22t-30 -6t-67 1v-106q0 -56 -31 -66l-13 -4q-8 -2 -12 -2q-13 0 -21.5 9.5t-8.5 24.5z" />
    <glyph glyph-name="bullet" unicode="&#x2022;" horiz-adv-x="190" 
d="M31 325q0 27 17 44t44 23q4 1 12 1q23 0 37 -18.5t14 -42.5q0 -48 -63 -61q-5 -1 -14 -1q-21 0 -34 14t-13 41z" />
    <glyph glyph-name="twodotenleader" unicode="&#x2025;" horiz-adv-x="350" 
d="M231 33q0 19 12 31.5t31 16.5q3 1 8 1q17 0 27 -13.5t10 -30.5q0 -35 -45 -44q-3 -1 -9 -1q-15 0 -24.5 10.5t-9.5 29.5zM31 33q0 19 12 31.5t31 16.5q3 1 8 1q17 0 27 -13.5t10 -30.5q0 -35 -45 -44q-3 -1 -9 -1q-15 0 -24.5 10.5t-9.5 29.5z" />
    <glyph glyph-name="ellipsis" unicode="&#x2026;" horiz-adv-x="550" 
d="M431 33q0 19 12 31.5t31 16.5q3 1 8 1q17 0 27 -13.5t10 -30.5q0 -35 -45 -44q-3 -1 -9 -1q-15 0 -24.5 10.5t-9.5 29.5zM31 33q0 19 12 31.5t31 16.5q3 1 8 1q17 0 27 -13.5t10 -30.5q0 -35 -45 -44q-3 -1 -9 -1q-15 0 -24.5 10.5t-9.5 29.5zM231 33q0 19 12 31.5
t31 16.5q3 1 8 1q17 0 27 -13.5t10 -30.5q0 -35 -45 -44q-3 -1 -9 -1q-15 0 -24.5 10.5t-9.5 29.5z" />
    <glyph glyph-name="perthousand" unicode="&#x2030;" horiz-adv-x="960" 
d="M193 37q-12 1 -18.5 7t-6.5 17q0 9 6 21l243 489q12 24 24 36t31 13l20 1q31 1 31 -17q0 -10 -5 -19l-246 -499q-14 -28 -25 -39.5t-27 -10.5zM69 310q-33 50 -33 140q0 103 34 151t88 48q63 0 91 -47q31 -47 31 -152q0 -91 -31 -142t-91 -51q-29 0 -52 13.5t-37 39.5z
M209 452q0 48 -11.5 92.5t-39.5 44.5q-21 0 -36.5 -40t-15.5 -97q0 -49 14 -90t38 -41t37.5 39.5t13.5 91.5zM442 73q-33 50 -33 140q0 103 34 151t88 48q63 0 91 -47q31 -47 31 -152q0 -91 -31 -142t-91 -51q-29 0 -52 13.5t-37 39.5zM582 215q0 48 -11.5 92.5t-39.5 44.5
q-21 0 -36.5 -40t-15.5 -97q0 -49 14 -90t38 -41t37.5 39.5t13.5 91.5zM714 73q-33 50 -33 140q0 103 34 151t88 48q63 0 91 -47q31 -47 31 -152q0 -91 -31 -142t-91 -51q-29 0 -52 13.5t-37 39.5zM854 215q0 48 -11.5 92.5t-39.5 44.5q-21 0 -36.5 -40t-15.5 -97
q0 -49 14 -90t38 -41t37.5 39.5t13.5 91.5z" />
    <glyph glyph-name="minute" unicode="&#x2032;" horiz-adv-x="230" 
d="M76 457q-13 1 -20 7.5t-7 17.5q0 5 4 17l45 115q12 30 19 39.5t27 12.5l14 2q28 4 28 -19q0 -7 -6 -25l-44 -115q-10 -28 -20 -41t-26 -12z" />
    <glyph glyph-name="second" unicode="&#x2033;" horiz-adv-x="360" 
d="M76 457q-13 1 -20 7.5t-7 17.5q0 5 4 17l45 115q12 30 19 39.5t27 12.5l14 2q28 4 28 -19q0 -7 -6 -25l-44 -115q-10 -28 -20 -41t-26 -12zM206 457q-12 1 -19 7.5t-7 16.5t4 18l44 115q12 30 19 39.5t27 12.5l14 2q28 4 28 -20q0 -11 -5 -24l-45 -115q-12 -29 -21 -41.5
t-25 -11.5z" />
    <glyph glyph-name="uni203B" unicode="&#x203b;" horiz-adv-x="600" 
d="M462 56q-16 -1 -25.5 9t-31.5 41l-105 148l-106 -168q-19 -29 -30 -40t-27 -10l-27 1q-12 1 -19 7t-7 16q0 11 7 22l157 246l-159 227q-6 9 -6 17q0 21 37 19l20 -1q16 -1 25 -9t17 -20.5t13 -19.5l100 -141l109 171q18 28 27 38t28 11l20 1q18 1 27.5 -4.5t9.5 -14.5
q0 -8 -6 -17l-163 -258l161 -225q8 -11 8 -22q0 -10 -7.5 -16t-19.5 -7zM249 572q0 19 12 31.5t31 16.5q3 1 8 1q17 0 27 -13.5t10 -30.5q0 -35 -45 -44q-3 -1 -9 -1q-15 0 -24.5 10.5t-9.5 29.5zM480 327q0 19 12 31.5t31 16.5q3 1 8 1q17 0 27 -13.5t10 -30.5
q0 -35 -45 -44q-3 -1 -9 -1q-15 0 -24.5 10.5t-9.5 29.5zM31 327q0 19 12 31.5t31 16.5q3 1 8 1q17 0 27 -13.5t10 -30.5q0 -35 -45 -44q-3 -1 -9 -1q-15 0 -24.5 10.5t-9.5 29.5zM249 87q0 19 12 31.5t31 16.5q3 1 8 1q17 0 27 -13.5t10 -30.5q0 -35 -45 -44q-3 -1 -9 -1
q-15 0 -24.5 10.5t-9.5 29.5z" />
    <glyph glyph-name="uni2074" unicode="&#x2074;" horiz-adv-x="365" 
d="M199 236v133l-136 -1q-29 0 -29 19q0 8 3 15l50 166q6 19 15 28.5t26 12.5l10 2q3 1 9 1q23 0 23 -22q0 -4 -2 -12l-46 -152h77v154q0 21 5 32.5t20 20.5l9 4q7 4 15 4q12 0 18.5 -10.5t6.5 -23.5v-181l43 -1q17 -2 27.5 -6t7.5 -20l-1 -5q-2 -14 -14.5 -20.5t-24.5 -5.5
l-38 1v-107q0 -20 -7 -34.5t-19 -18.5l-10 -3q-3 -1 -9 -1q-13 0 -21 8.5t-8 22.5z" />
    <glyph glyph-name="uni207F" unicode="&#x207f;" horiz-adv-x="360" 
d="M57 342v213q0 22 4.5 33.5t19.5 17.5l10 4q8 3 14 3q11 0 16 -8.5t5 -21.5v-10q44 37 84 37q92 0 99 -105v-115q0 -19 2 -29t6 -11q11 -6 11 -15q0 -11 -17 -17q-8 -2 -22.5 -2.5t-20.5 0.5q-13 2 -19.5 14.5t-6.5 33.5v144q0 45 -40 45q-36 0 -76 -50v-133
q0 -42 -25 -51l-9 -3q-8 -2 -11 -2q-10 0 -17 8t-7 20z" />
    <glyph glyph-name="uni2081" unicode="&#x2081;" horiz-adv-x="243" 
d="M73 19q-30 0 -30 19q0 8 4 13l3 5q7 10 18 15t18 5v299h-9q-27 0 -30 20l-1 5q0 9 5 14.5t10 7.5l60 20q9 3 14 3q13 0 19 -9.5t6 -23.5v-336q20 -1 29.5 -5.5t9.5 -20.5v-4q0 -13 -12 -20t-25 -7h-89z" />
    <glyph glyph-name="uni2082" unicode="&#x2082;" horiz-adv-x="350" 
d="M62 19q-28 0 -28 18q0 11 10 24q8 11 13.5 17.5t7.5 9.5q39 44 63 74q35 47 54 91.5t19 80.5q0 50 -33 50q-16 -1 -26 -7t-20 -17q-6 -6 -18 -6q-4 0 -14 2l-11 3q-14 4 -14 16q0 15 19 36q35 38 89 38q53 0 79.5 -31t24.5 -90q0 -69 -65 -167q-41 -57 -65 -84
q118 0 135 -1q18 -2 28.5 -6t6.5 -21l-1 -4q-3 -14 -14 -20t-23 -6h-217z" />
    <glyph glyph-name="uni2083" unicode="&#x2083;" horiz-adv-x="320" 
d="M43 68q-9 11 -9 23q0 9 5 15l7 9q5 8 15 8q11 0 23 -12q29 -30 72 -30q60 0 60 56q0 40 -25 61q-9 7 -24 14.5t-21 8.5q-25 8 -25 19v2q0 18 11 23q5 2 13 5.5t14.5 8t16.5 14.5t17 24.5t7 29.5t-8 25t-21 10q-2 0 -10 -2q-20 -6 -33 -17q-17 -17 -29 -17q-7 0 -13 6
l-6 6q-10 10 -10 23q0 10 7 17q46 47 94 49q45 0 71 -26t26 -76q0 -54 -42 -91q8 -4 16 -10q34 -25 43 -69q4 -26 4 -45q0 -53 -33.5 -85.5t-92.5 -32.5q-40 0 -72.5 18.5t-47.5 37.5z" />
    <glyph glyph-name="uni2084" unicode="&#x2084;" horiz-adv-x="365" 
d="M198 40v133l-136 -1q-29 0 -29 19q0 8 3 15l50 166q6 19 15 28.5t26 12.5l10 2q3 1 9 1q23 0 23 -22q0 -4 -2 -12l-46 -152h77v154q0 21 5 32.5t20 20.5l9 4q7 4 15 4q12 0 18.5 -10.5t6.5 -23.5v-181l43 -1q17 -2 27.5 -6t7.5 -20l-1 -5q-2 -14 -14.5 -20.5t-24.5 -5.5
l-38 1v-107q0 -20 -7 -34.5t-19 -18.5l-10 -3q-3 -1 -9 -1q-13 0 -21 8.5t-8 22.5z" />
    <glyph glyph-name="uni20A9" unicode="&#x20a9;" horiz-adv-x="690" 
d="M47 335q-32 0 -32 17q0 5 4 15l3 7q5 13 15.5 17t29.5 5q8 0 29 1l-43 159q-2 10 -2 14q0 13 7.5 21.5t20.5 9.5l12 1q17 2 31.5 -12t20.5 -38l38 -155q38 1 96 1l14 98q6 41 28 46l19 5q16 4 25.5 -10t16.5 -43l22 -96h103l32 166q5 25 19.5 38.5t34.5 9.5l12 -2
q26 -4 26 -31q0 -5 -2 -15l-37 -167q33 -1 45 -1q20 -1 31.5 -5.5t8.5 -20.5l-1 -7q-2 -15 -17 -22t-30 -6q-8 0 -50 1l-56 -255q-5 -23 -20 -35t-34 -12h-9q-24 0 -39.5 13.5t-21.5 37.5l-54 250l-38 -254q-4 -22 -19 -34.5t-35 -12.5h-9q-24 0 -39.5 13.5t-21.5 37.5
l-68 250h-66zM459 149l35 187h-55h-23zM243 149l26 186h-72z" />
    <glyph glyph-name="Euro" unicode="&#x20ac;" horiz-adv-x="560" 
d="M54 188q-32 0 -32 17q0 5 4 15l3 7q8 13 18 17t27 5q13 0 36 1q-3 21 -3 42q0 26 2 50h-55q-32 0 -32 17q0 5 4 15l3 7q8 13 18 17t27 5q15 1 44 1q14 64 46 109q58 79 161 90q24 2 36 2q49 0 99 -16q25 -8 39.5 -20.5t14.5 -25.5t-13 -23q-2 -2 -16 -12q-10 -7 -20 -7
t-24 8q-16 8 -42 13t-50 5q-71 0 -114 -60q-18 -27 -29 -62h27q123 0 161 -2q20 -1 31.5 -5.5t8.5 -20.5l-1 -7q-2 -15 -17 -22t-30 -6q-17 1 -103 1l-89 -1q-1 -20 -1 -41q0 -26 5 -50h35q123 0 161 -2q20 -1 31.5 -5.5t8.5 -20.5l-1 -7q-2 -15 -17 -22t-30 -6
q-17 1 -103 1h-65q19 -38 52 -63q39 -29 93 -29q42 0 68 7t65 22l8 2q8 0 14.5 -5t6.5 -13t-8 -19q-52 -70 -176 -70q-74 0 -123.5 38t-76.5 97q-8 16 -14 32h-73z" />
    <glyph glyph-name="uni2103" unicode="&#x2103;" horiz-adv-x="720" 
d="M287 156q-30 62 -34 136q15 290 238 311q24 2 36 2q49 0 99 -16q25 -8 39.5 -20.5t14.5 -25.5t-13 -23q-2 -2 -16 -12q-10 -7 -20 -7t-24 8q-15 8 -42.5 13t-51.5 5q-13 0 -18 -1q-72 -8 -111.5 -66t-44.5 -159q0 -52 21.5 -98.5t64.5 -76t104 -29.5q42 0 68 7t65 22
q6 2 8 2q8 0 14 -5t6 -13q0 -9 -7 -19q-52 -70 -176 -70q-84 0 -138.5 38t-81.5 97zM31 504q0 53 26 81.5t90 28.5q50 0 77 -29t27 -75q0 -28 -15 -53t-42 -40.5t-62 -15.5q-49 0 -75 28.5t-26 74.5zM188 516q0 19 -14.5 34t-31.5 15q-21 0 -33.5 -16.5t-12.5 -41.5
q0 -19 9.5 -38t27.5 -19q33 0 44 19t11 47z" />
    <glyph glyph-name="uni2109" unicode="&#x2109;" horiz-adv-x="670" 
d="M292 57v480q0 28 6 42t25 23l13 6q8 4 17 4t14 -5q36 1 95 1q78 0 116 -2q19 -1 30.5 -5.5t9.5 -20.5l-1 -7q-2 -15 -17 -22t-30 -6q-17 1 -78 1l-114 -1v-170q37 2 104 2q78 0 116 -2q20 -1 31.5 -5.5t8.5 -20.5l-1 -7q-2 -15 -17 -22t-30 -6q-17 1 -78 1l-134 -1v-219
q0 -56 -31 -66l-13 -4q-8 -2 -12 -2q-13 0 -21.5 9.5t-8.5 24.5zM31 504q0 53 26 81.5t90 28.5q50 0 77 -29t27 -75q0 -28 -15 -53t-42 -40.5t-62 -15.5q-49 0 -75 28.5t-26 74.5zM188 516q0 19 -14.5 34t-31.5 15q-21 0 -33.5 -16.5t-12.5 -41.5q0 -19 9.5 -38t27.5 -19
q33 0 44 19t11 47z" />
    <glyph glyph-name="uni2113" unicode="&#x2113;" horiz-adv-x="250" 
d="M67 57v480q0 28 6 42t25 23l13 6q8 4 17 4q13 0 19 -10.5t6 -26.5v-480v-10q3 1 5 1t6.5 -0.5t18.5 -1.5q20 -1 31.5 -5.5t8.5 -20.5l-1 -7q-2 -15 -17 -22t-30 -6l-28 1q-3 0 -8.5 -0.5t-24.5 -0.5h-11h-6q-13 0 -21.5 9.5t-8.5 24.5z" />
    <glyph glyph-name="uni2116" unicode="&#x2116;" horiz-adv-x="960" 
d="M70 57v480q0 28 6 42t25 23l13 6q8 4 17 4h1h2q2 0 5 -1q4 -2 7 -5q5 -4 10 -9q14 -14 25 -32l237 -382v371q0 28 6 42t25 23l13 6q8 4 17 4q13 0 19 -10.5t6 -26.5v-497q0 -56 -31 -66l-13 -4q-8 -2 -12 -2h-3h-1q-10 1 -18 9q-2 2 -3 5q-12 12 -26 35l-241 389v-366
q0 -56 -31 -66l-13 -4q-8 -2 -12 -2q-13 0 -21.5 9.5t-8.5 24.5zM557 303q2 104 43.5 156t123.5 53q161 0 169 -209q0 -76 -40.5 -127.5t-126.5 -51.5q-95 0 -132 55t-37 124zM816 309q-1 131 -93 137q-89 0 -92 -137q0 -48 25 -83.5t67 -35.5q44 0 68.5 33t24.5 86zM588 23
q-32 0 -32 17q0 5 4 15l3 7q8 13 18 17.5t27 4.5l190 2q11 0 49 -2q20 -1 31.5 -5.5t8.5 -20.5l-1 -7q-2 -15 -17 -22t-30 -6q-17 1 -80 1z" />
    <glyph glyph-name="uni2121" unicode="&#x2121;" horiz-adv-x="780" 
d="M312 335v240q0 17 4.5 26.5t17.5 15.5l7 3q8 3 13 3q6 0 10 -3h1q9 1 57 1t58 -1q14 0 23 -6t8 -20l-1 -3q-4 -11 -12.5 -17t-18.5 -6h-102v-62h37q42 0 52 -1q16 -2 24.5 -7.5t5.5 -18.5l-1 -4q-3 -12 -12.5 -17.5t-21.5 -5.5q-12 1 -54 1h-30v-88q15 1 50 1q54 0 64 -1
q16 -2 24.5 -7.5t5.5 -18.5l-1 -4q-3 -12 -12.5 -17.5t-21.5 -5.5q-12 1 -66 1q-51 0 -62 -1l-5 -2l-6 -1q-6 -2 -10 -2q-10 0 -17.5 7.5t-7.5 20.5zM52 568q-28 -1 -28 19q0 8 2 13l2 3q11 17 32 17q10 1 99 1t98 -1q31 0 31 -25v-3q0 -11 -10 -17.5t-22 -6.5h-58v-214
q0 -36 -24 -44l-6 -1q-6 -2 -10 -2q-10 0 -17.5 7.5t-7.5 20.5v229v4h-81zM543 345v230q0 16 5 26t17 16l6 3q7 4 14 4q10 0 16.5 -8.5t6.5 -21.5v-224h46q61 0 71 -1q36 0 31 -27l-1 -2q-2 -12 -13 -18.5t-22 -4.5q-16 1 -36.5 0.5t-37.5 -0.5h-72h-3h-3q-11 0 -18 7.5
t-7 20.5z" />
    <glyph glyph-name="trademark" unicode="&#x2122;" horiz-adv-x="660" 
d="M317 335v239q0 17 4.5 27t17.5 16l6 3q6 3 13 3q10 0 17 -5t13.5 -13.5t9.5 -11.5l60 -74l62 78q2 1 5 6q12 18 22 23l4 2q6 3 12 3q11 0 18 -8.5t7 -21.5v-248q0 -36 -23 -43l-7 -2q-8 -2 -12 -2q-23 0 -23 29l2 174l-21 -28q-12 -16 -20.5 -24t-20.5 -8h-7
q-13 0 -21.5 6.5t-14.5 15.5t-9 12l-30 41l1 -171q0 -36 -23 -43l-7 -2q-8 -2 -12 -2q-23 0 -23 29zM133 335v233l-64 -1h-17q-28 0 -28 19q0 8 2 12l2 5q3 8 10.5 11.5t20.5 5.5q10 1 100 1q89 0 99 -1q15 -2 23.5 -7t6.5 -18v-4q0 -12 -11 -18t-24 -6l-55 1v-215
q0 -36 -23 -43l-7 -2q-8 -2 -13 -2q-22 0 -22 29z" />
    <glyph glyph-name="uni2126" unicode="&#x2126;" horiz-adv-x="670" 
d="M83 34q-31 0 -31 17q0 5 4 15l3 7q8 13 18 17t27 5q18 1 35 1q-29 38 -48 92q-24 69 -24 139q0 90 37 156t98 101t133 35q124 0 195.5 -77t71.5 -215q0 -76 -19 -143q-15 -51 -40 -88q16 0 35 -1q20 -1 31.5 -5.5t8.5 -20.5l-1 -7q-2 -14 -15.5 -21t-28.5 -7l-54 1
l-79 -1h-1h-12q-31 0 -31 17q0 5 4 15l3 7q8 13 18 17q3 1 7 2v1q37 13 63 80.5t26 158.5q0 62 -22.5 111.5t-64.5 77.5t-96 28q-44 0 -86 -28.5t-69 -78.5t-27 -110t17.5 -113.5t44 -87t51.5 -38.5v-1q6 -1 10 -3q12 -4 9 -20l-1 -7q-2 -14 -15.5 -21t-28.5 -7h-9h-2l-45 1
z" />
    <glyph glyph-name="uni212B" unicode="&#x212b;" horiz-adv-x="700" 
d="M165 590q0 53 26 81.5t90 28.5q50 0 77 -29t27 -75q0 -28 -15 -53q-8 -13 -19 -24l182 -457q3 -9 3 -17q0 -11 -7 -19.5t-20 -9.5l-15 -2q-31 -4 -52 48l-75 188q-19 1 -64 1l-115 -1l-60 -168q-9 -26 -21 -38.5t-29 -11.5l-15 1q-14 2 -21.5 9.5t-7.5 20.5q0 8 3 15
l156 434v1l-2 2q-26 29 -26 75zM210 312q30 1 70 1q35 0 62 -1l-69 175zM322 602q0 19 -14.5 34t-31.5 15q-21 0 -33.5 -16.5t-12.5 -41.5q0 -19 9.5 -38t27.5 -19q33 0 44 19t11 47z" />
    <glyph glyph-name="uni2153" unicode="&#x2153;" horiz-adv-x="690" 
d="M404 66q-9 11 -9 23q0 9 5 15l7 9q5 8 15 8q11 0 23 -12q29 -30 72 -30q60 0 60 56q0 40 -25 61q-9 7 -24 14.5t-21 8.5q-25 8 -25 19v2q0 18 11 23q5 2 13 5.5t14.5 8t16.5 14.5t17 24.5t7 29.5t-8 25t-21 10q-2 0 -10 -2q-20 -6 -33 -17q-17 -17 -29 -17q-7 0 -13 6
l-6 6q-10 10 -10 23q0 10 7 17q46 47 94 49q45 0 71 -26t26 -76q0 -54 -42 -91q8 -4 16 -10q34 -25 43 -69q4 -26 4 -45q0 -53 -33.5 -85.5t-92.5 -32.5q-40 0 -72.5 18.5t-47.5 37.5zM180 37q-12 1 -18.5 7t-6.5 17q0 9 6 21l243 489q12 24 23.5 35.5t31.5 13.5l10 1
q31 3 31 -17q0 -10 -5 -19l-246 -499q-14 -28 -25 -39.5t-27 -10.5zM73 217q-30 0 -30 19q0 8 4 13l3 5q7 10 18 15t18 5v299h-9q-27 0 -30 20l-1 5q0 9 5 14.5t10 7.5l60 20q9 3 14 3q13 0 19 -9.5t6 -23.5v-336q20 -1 29.5 -5.5t9.5 -20.5v-4q0 -13 -12 -20t-25 -7h-89z
" />
    <glyph glyph-name="uni2154" unicode="&#x2154;" horiz-adv-x="800" 
d="M290 37q-12 1 -18.5 7t-6.5 17q0 9 6 21l243 489q12 24 23.5 35.5t31.5 13.5l10 1q31 3 31 -17q0 -10 -5 -19l-246 -499q-14 -28 -25 -39.5t-27 -10.5zM63 217q-28 0 -28 18q0 11 10 24q8 11 13.5 17.5t7.5 9.5q39 44 63 74q35 47 54 91.5t19 80.5q0 50 -33 50
q-16 -1 -26 -7t-20 -17q-6 -6 -18 -6q-4 0 -14 2l-11 3q-14 4 -14 16q0 15 19 36q35 38 89 38q53 0 79.5 -31t24.5 -90q0 -69 -65 -167q-41 -57 -65 -84q118 0 135 -1q18 -2 28.5 -6t6.5 -21l-1 -4q-3 -14 -14 -20t-23 -6h-217zM514 66q-9 11 -9 23q0 9 5 15l7 9q5 8 15 8
q11 0 23 -12q29 -30 72 -30q60 0 60 56q0 40 -25 61q-9 7 -24 14.5t-21 8.5q-25 8 -25 19v2q0 18 11 23q5 2 13 5.5t14.5 8t16.5 14.5t17 24.5t7 29.5t-8 25t-21 10q-2 0 -10 -2q-20 -6 -33 -17q-17 -17 -29 -17q-7 0 -13 6l-6 6q-10 10 -10 23q0 10 7 17q46 47 94 49
q45 0 71 -26t26 -76q0 -54 -42 -91q8 -4 16 -10q34 -25 43 -69q4 -26 4 -45q0 -53 -33.5 -85.5t-92.5 -32.5q-40 0 -72.5 18.5t-47.5 37.5z" />
    <glyph glyph-name="oneeighth" unicode="&#x215b;" horiz-adv-x="690" 
d="M406 119q0 30 17.5 60t47.5 50q-24 17 -38.5 43.5t-14.5 53.5q0 28 16.5 54t43.5 41.5t55 15.5q50 0 75.5 -27.5t25.5 -75.5q0 -32 -13.5 -58.5t-38.5 -44.5q31 -20 49.5 -53t18.5 -71q0 -40 -33 -69.5t-93 -29.5q-52 0 -85 30.5t-33 80.5zM180 37q-12 1 -18.5 7t-6.5 17
q0 9 6 21l243 489q12 24 23.5 35.5t31.5 13.5l10 1q31 3 31 -17q0 -10 -5 -19l-246 -499q-14 -28 -25 -39.5t-27 -10.5zM73 217q-30 0 -30 19q0 8 4 13l3 5q7 10 18 15t18 5v299h-9q-27 0 -30 20l-1 5q0 9 5 14.5t10 7.5l60 20q9 3 14 3q13 0 19 -9.5t6 -23.5v-336
q20 -1 29.5 -5.5t9.5 -20.5v-4q0 -13 -12 -20t-25 -7h-89zM579 112q0 29 -16.5 51t-33.5 31q-14 -6 -33.5 -27.5t-19.5 -41.5q0 -53 51 -53q27 0 39.5 11.5t12.5 28.5zM571 333q0 19 -9 27.5t-29 8.5t-34 -14t-14 -32q0 -20 10.5 -32.5t30.5 -23.5q45 31 45 66z" />
    <glyph glyph-name="threeeighths" unicode="&#x215c;" horiz-adv-x="755" 
d="M243 37q-12 1 -18.5 7t-6.5 17q0 9 6 21l243 489q12 24 23.5 35.5t31.5 13.5l10 1q31 3 31 -17q0 -10 -5 -19l-246 -499q-14 -28 -25 -39.5t-27 -10.5zM44 266q-9 11 -9 23q0 9 5 15l7 9q5 8 15 8q11 0 23 -12q29 -30 72 -30q60 0 60 56q0 40 -25 61q-9 7 -24 14.5
t-21 8.5q-25 8 -25 19v2q0 18 11 23q5 2 13 5.5t14.5 8t16.5 14.5t17 24.5t7 29.5t-8 25t-21 10q-2 0 -10 -2q-20 -6 -33 -17q-17 -17 -29 -17q-7 0 -13 6l-6 6q-10 10 -10 23q0 10 7 17q46 47 94 49q45 0 71 -26t26 -76q0 -54 -42 -91q8 -4 16 -10q34 -25 43 -69
q4 -26 4 -45q0 -53 -33.5 -85.5t-92.5 -32.5q-40 0 -72.5 18.5t-47.5 37.5zM642 112q0 29 -16.5 51t-33.5 31q-14 -6 -33.5 -27.5t-19.5 -41.5q0 -53 51 -53q27 0 39.5 11.5t12.5 28.5zM469 119q0 30 17.5 60t47.5 50q-24 17 -38.5 43.5t-14.5 53.5q0 28 16.5 54t43.5 41.5
t55 15.5q50 0 75.5 -27.5t25.5 -75.5q0 -32 -13.5 -58.5t-38.5 -44.5q31 -20 49.5 -53t18.5 -71q0 -40 -33 -69.5t-93 -29.5q-52 0 -85 30.5t-33 80.5zM634 333q0 19 -9 27.5t-29 8.5t-34 -14t-14 -32q0 -20 10.5 -32.5t30.5 -23.5q45 31 45 66z" />
    <glyph glyph-name="fiveeighths" unicode="&#x215d;" horiz-adv-x="725" 
d="M442 119q0 30 17.5 60t47.5 50q-24 17 -38.5 43.5t-14.5 53.5q0 28 16.5 54t43.5 41.5t55 15.5q50 0 75.5 -27.5t25.5 -75.5q0 -32 -13.5 -58.5t-38.5 -44.5q31 -20 49.5 -53t18.5 -71q0 -40 -33 -69.5t-93 -29.5q-52 0 -85 30.5t-33 80.5zM32 289q-2 6 -2 9q0 6 3.5 12
t8.5 10l7 5q9 6 17 6q15 0 28 -24q17 -31 45 -31q27 0 43 19t16 53q0 20 -5.5 33.5t-16.5 25.5q-16 14 -47.5 15.5t-34.5 1.5q-10 2 -16.5 10t-6.5 20v123q-30 0 -30 19q0 5 4 13l3 5q7 12 15.5 15.5t22.5 3.5q26 2 84 2t86 -2q40 0 35 -26l-1 -5q-2 -9 -9.5 -15t-15 -8
t-9.5 -2h-111v-98q55 -2 88.5 -37.5t33.5 -103.5q0 -26 -10 -53q-11 -29 -40 -50t-67 -22q-81 -4 -118 76zM216 37q-12 1 -18.5 7t-6.5 17q0 9 6 21l243 489q12 24 23.5 35.5t31.5 13.5l10 1q31 3 31 -17q0 -10 -5 -19l-246 -499q-14 -28 -25 -39.5t-27 -10.5zM615 112
q0 29 -16.5 51t-33.5 31q-14 -6 -33.5 -27.5t-19.5 -41.5q0 -53 51 -53q27 0 39.5 11.5t12.5 28.5zM607 333q0 19 -9 27.5t-29 8.5t-34 -14t-14 -32q0 -20 10.5 -32.5t30.5 -23.5q45 31 45 66z" />
    <glyph glyph-name="seveneighths" unicode="&#x215e;" horiz-adv-x="725" 
d="M216 37q-12 1 -18.5 7t-6.5 17q0 9 6 21l243 489q12 24 23.5 35.5t31.5 13.5l10 1q31 3 31 -17q0 -10 -5 -19l-246 -499q-14 -28 -25 -39.5t-27 -10.5zM196 210q-15 -3 -25.5 7.5t-8.5 26.5l40 332h-84v-51q0 -22 -6.5 -37t-19.5 -17l-11 -2q-16 -3 -26.5 5t-10.5 24
q0 93 1 97q0 17 12 27t31 10q26 2 78 2q51 0 79 -2q40 0 35 -26l-41 -345q-5 -43 -33 -49zM615 112q0 29 -16.5 51t-33.5 31q-14 -6 -33.5 -27.5t-19.5 -41.5q0 -53 51 -53q27 0 39.5 11.5t12.5 28.5zM442 119q0 30 17.5 60t47.5 50q-24 17 -38.5 43.5t-14.5 53.5
q0 28 16.5 54t43.5 41.5t55 15.5q50 0 75.5 -27.5t25.5 -75.5q0 -32 -13.5 -58.5t-38.5 -44.5q31 -20 49.5 -53t18.5 -71q0 -40 -33 -69.5t-93 -29.5q-52 0 -85 30.5t-33 80.5zM607 333q0 19 -9 27.5t-29 8.5t-34 -14t-14 -32q0 -20 10.5 -32.5t30.5 -23.5q45 31 45 66z" />
    <glyph glyph-name="uni2160" unicode="&#x2160;" horiz-adv-x="300" 
d="M82 546q-32 0 -32 17q0 5 4 15l3 7q8 13 18 17t27 5q38 2 54 2q18 0 56 -2q20 -1 31.5 -5.5t8.5 -20.5l-1 -7q-2 -15 -17 -22t-30 -6h-13v-431q0 -11 -1 -21q17 0 36 -1q20 -1 31.5 -5.5t8.5 -20.5l-1 -7q-2 -15 -17 -22t-30 -6q-16 1 -53 1l-99 -1q-32 0 -32 17
q0 5 4 15l3 7q8 13 18 17t27 5q10 0 19 1v433q0 11 1 19h-24z" />
    <glyph glyph-name="uni2161" unicode="&#x2161;" horiz-adv-x="430" 
d="M66 32q-32 0 -32 17q0 5 4 15l3 7q8 13 18 17t27 5q8 0 19 1v433q0 10 1 19h-24q-32 0 -32 17q0 5 4 15l3 7q8 13 18 17t27 5q38 2 119 2q83 0 121 -2q20 -1 31.5 -5.5t8.5 -20.5l-1 -7q-2 -15 -17 -22t-30 -6h-8v-431q0 -12 -2 -21q19 -1 32 -1q20 -1 31.5 -5.5
t8.5 -20.5l-1 -7q-2 -14 -17 -21.5t-30 -6.5q-17 1 -89 1zM240 527q0 11 1 20l-50 -1v-431q0 -11 -1 -20h30h20v432z" />
    <glyph glyph-name="uni2162" unicode="&#x2162;" horiz-adv-x="570" 
d="M66 32q-32 0 -32 17q0 5 4 15l3 7q8 13 18 17t27 5h19v434q0 10 1 19h-24q-32 0 -32 17q0 5 4 15l3 7q8 13 18 17t27 5q38 2 189 2q153 0 191 -2q20 -1 31.5 -5.5t8.5 -20.5l-1 -7q-2 -15 -17 -22t-30 -6h-13v-431q0 -12 -2 -21q25 -1 37 -1q20 -1 31.5 -5.5t8.5 -20.5
l-1 -7q-2 -14 -17 -21.5t-30 -6.5q-17 1 -129 1zM375 527q0 11 1 20h-22h-28v-432q0 -11 -1 -20h50v432zM240 95v432q0 11 1 19h-50v-431q0 -11 -1 -20h50z" />
    <glyph glyph-name="uni2163" unicode="&#x2163;" horiz-adv-x="750" 
d="M509 34q-24 0 -37 12t-24 39l-158 483q-3 8 -3 15q0 13 7.5 20.5t21.5 9.5l15 1q17 1 30.5 -12t21.5 -38l127 -417l110 417q6 24 21 37t33 11l15 -2q26 -3 26 -30q0 -10 -2 -16l-141 -483q-14 -47 -54 -47h-9zM82 546q-32 0 -32 17q0 5 4 15l3 7q8 13 18 17t27 5
q38 2 54 2q18 0 56 -2q20 -1 31.5 -5.5t8.5 -20.5l-1 -7q-2 -15 -17 -22t-30 -6h-13v-431q0 -11 -1 -21q17 0 36 -1q20 -1 31.5 -5.5t8.5 -20.5l-1 -7q-2 -15 -17 -22t-30 -6q-16 1 -53 1l-99 -1q-32 0 -32 17q0 5 4 15l3 7q8 13 18 17t27 5q10 0 19 1v433q0 11 1 19h-24z
" />
    <glyph glyph-name="uni2164" unicode="&#x2164;" horiz-adv-x="550" 
d="M286 34q-24 0 -37 12t-24 39l-188 483q-3 8 -3 15q0 13 7.5 20.5t21.5 9.5l15 1q33 3 52 -50l157 -417l130 417q8 24 22.5 37t31.5 11l15 -2q13 -1 20 -9.5t7 -20.5q0 -7 -3 -16l-161 -483q-8 -24 -20.5 -35.5t-33.5 -11.5h-9z" />
    <glyph glyph-name="uni2165" unicode="&#x2165;" horiz-adv-x="750" 
d="M256 34q-24 0 -37 12t-24 39l-158 483q-3 8 -3 15q0 13 7.5 20.5t21.5 9.5l15 1q17 1 30.5 -12t21.5 -38l127 -417l110 417q6 24 21 37t33 11l15 -2q26 -3 26 -30q0 -10 -2 -16l-141 -483q-14 -47 -54 -47h-9zM531 546q-32 0 -32 17q0 5 4 15l3 7q8 13 18 17t27 5
q38 2 54 2q18 0 56 -2q20 -1 31.5 -5.5t8.5 -20.5l-1 -7q-2 -15 -17 -22t-30 -6h-13v-431q0 -11 -1 -21q17 0 36 -1q20 -1 31.5 -5.5t8.5 -20.5l-1 -7q-2 -15 -17 -22t-30 -6q-16 1 -53 1l-99 -1q-32 0 -32 17q0 5 4 15l3 7q8 13 18 17t27 5q10 0 19 1v433q0 11 1 19h-24z
" />
    <glyph glyph-name="uni2166" unicode="&#x2166;" horiz-adv-x="880" 
d="M531 546q-32 0 -32 17q0 5 4 15l3 7q8 13 18 17t27 5q38 2 119 2q83 0 121 -2q20 -1 31.5 -5.5t8.5 -20.5l-1 -7q-2 -15 -17 -22t-30 -6h-8v-431q0 -12 -2 -21q19 -1 32 -1q20 -1 31.5 -5.5t8.5 -20.5l-1 -7q-2 -14 -17 -21.5t-30 -6.5q-17 1 -89 1l-193 -1q-32 0 -32 17
q0 5 4 15l3 7q8 13 18 17t27 5q8 0 19 1v433q0 10 1 19h-24zM256 34q-24 0 -37 12t-24 39l-158 483q-3 8 -3 15q0 13 7.5 20.5t21.5 9.5l15 1q17 1 30.5 -12t21.5 -38l127 -417l110 417q6 24 21 37t33 11l15 -2q26 -3 26 -30q0 -10 -2 -16l-141 -483q-14 -47 -54 -47h-9z
M669 95h20v432q0 11 1 20l-50 -1v-431q0 -11 -1 -20h30z" />
    <glyph glyph-name="uni2167" unicode="&#x2167;" horiz-adv-x="1020" 
d="M531 546q-32 0 -32 17q0 5 4 15l3 7q8 13 18 17t27 5q38 2 189 2q153 0 191 -2q20 -1 31.5 -5.5t8.5 -20.5l-1 -7q-2 -15 -17 -22t-30 -6h-13v-431q0 -12 -2 -21q25 -1 37 -1q20 -1 31.5 -5.5t8.5 -20.5l-1 -7q-2 -14 -17 -21.5t-30 -6.5q-17 1 -129 1l-293 -1
q-32 0 -32 17q0 5 4 15l3 7q8 13 18 17t27 5h19v434q0 10 1 19h-24zM256 34q-24 0 -37 12t-24 39l-158 483q-3 8 -3 15q0 13 7.5 20.5t21.5 9.5l15 1q17 1 30.5 -12t21.5 -38l127 -417l110 417q6 24 21 37t33 11l15 -2q26 -3 26 -30q0 -10 -2 -16l-141 -483q-14 -47 -54 -47
h-9zM774 95h50v432q0 11 1 20h-22h-28v-432q0 -11 -1 -20zM689 95v432q0 11 1 19h-50v-431q0 -11 -1 -20h50z" />
    <glyph glyph-name="uni2168" unicode="&#x2168;" horiz-adv-x="770" 
d="M319 58q-12 1 -19.5 7t-7.5 16q0 9 8 22l150 228l-152 213q-8 11 -8 19q0 18 31 18h20q17 0 27.5 -8.5t19.5 -21.5t12 -17l96 -133l98 149q5 8 14.5 22t18.5 20.5t22 6.5l20 1q33 2 33 -18q0 -6 -7 -18l-150 -231l181 -251q8 -11 8 -21t-7.5 -16.5t-18.5 -8.5l-15 -2
q-20 -3 -32 8t-33 40l-129 180l-101 -155q-4 -6 -14 -22.5t-18.5 -22t-19.5 -5.5zM82 546q-32 0 -32 17q0 5 4 15l3 7q8 13 18 17t27 5q38 2 54 2q18 0 56 -2q20 -1 31.5 -5.5t8.5 -20.5l-1 -7q-2 -15 -17 -22t-30 -6h-13v-431q0 -11 -1 -21q17 0 36 -1q20 -1 31.5 -5.5
t8.5 -20.5l-1 -7q-2 -15 -17 -22t-30 -6q-16 1 -53 1l-99 -1q-32 0 -32 17q0 5 4 15l3 7q8 13 18 17t27 5q10 0 19 1v433q0 11 1 19h-24z" />
    <glyph glyph-name="uni2169" unicode="&#x2169;" horiz-adv-x="545" 
d="M69 58q-12 1 -19.5 7t-7.5 16q0 9 8 22l160 227l-162 214q-8 11 -8 19q0 18 31 18h20q17 0 27.5 -8.5t19.5 -21.5t12 -17l106 -138l108 154q5 8 14.5 22t18.5 20.5t22 6.5l20 1q16 1 24.5 -3.5t8.5 -13.5t-7 -19l-161 -232l192 -250q8 -11 8 -21t-7.5 -16.5t-18.5 -8.5
l-15 -2q-19 -3 -31 7.5t-34 40.5l-140 184l-110 -159q-6 -8 -16 -23.5t-17.5 -21t-18.5 -5.5z" />
    <glyph glyph-name="uni2170" unicode="&#x2170;" horiz-adv-x="240" 
d="M77 57v284q0 28 6 42t25 23l13 6q8 4 17 4q13 0 19 -10.5t6 -26.5v-284q0 -56 -31 -66l-13 -4q-8 -2 -12 -2q-13 0 -21.5 9.5t-8.5 24.5zM67 542v4q0 21 6 31.5t25 13.5l33 6q10 2 14 2q15 0 21.5 -9t6.5 -26v-4q0 -15 -7 -23t-24 -11l-33 -6q-12 -2 -17 -2q-25 0 -25 24
z" />
    <glyph glyph-name="uni2171" unicode="&#x2171;" horiz-adv-x="405" 
d="M243 57v284q0 28 6 42t25 23l13 6q8 4 17 4q13 0 19 -10.5t6 -26.5v-284q0 -56 -31 -66l-13 -4q-8 -2 -12 -2q-13 0 -21.5 9.5t-8.5 24.5zM77 57v284q0 28 6 42t25 23l13 6q8 4 17 4q13 0 19 -10.5t6 -26.5v-284q0 -56 -31 -66l-13 -4q-8 -2 -12 -2q-13 0 -21.5 9.5
t-8.5 24.5zM67 542v4q0 21 6 31.5t25 13.5l33 6q10 2 14 2q15 0 21.5 -9t6.5 -26v-4q0 -15 -7 -23t-24 -11l-33 -6q-12 -2 -17 -2q-25 0 -25 24zM233 542v4q0 21 6 31.5t25 13.5l33 6q10 2 14 2q15 0 21.5 -9t6.5 -26v-4q0 -15 -7 -23t-24 -11l-33 -6q-12 -2 -17 -2
q-25 0 -25 24z" />
    <glyph glyph-name="uni2172" unicode="&#x2172;" horiz-adv-x="570" 
d="M409 57v284q0 28 6 42t25 23l13 6q8 4 17 4q13 0 19 -10.5t6 -26.5v-284q0 -56 -31 -66l-13 -4q-8 -2 -12 -2q-13 0 -21.5 9.5t-8.5 24.5zM77 57v284q0 28 6 42t25 23l13 6q8 4 17 4q13 0 19 -10.5t6 -26.5v-284q0 -56 -31 -66l-13 -4q-8 -2 -12 -2q-13 0 -21.5 9.5
t-8.5 24.5zM243 57v284q0 28 6 42t25 23l13 6q8 4 17 4q13 0 19 -10.5t6 -26.5v-284q0 -56 -31 -66l-13 -4q-8 -2 -12 -2q-13 0 -21.5 9.5t-8.5 24.5zM67 542v4q0 21 6 31.5t25 13.5l33 6q10 2 14 2q15 0 21.5 -9t6.5 -26v-4q0 -15 -7 -23t-24 -11l-33 -6q-12 -2 -17 -2
q-25 0 -25 24zM233 542v4q0 21 6 31.5t25 13.5l33 6q10 2 14 2q15 0 21.5 -9t6.5 -26v-4q0 -15 -7 -23t-24 -11l-33 -6q-12 -2 -17 -2q-25 0 -25 24zM399 542v4q0 21 6 31.5t25 13.5l33 6q10 2 14 2q15 0 21.5 -9t6.5 -26v-4q0 -15 -7 -23t-24 -11l-33 -6q-12 -2 -17 -2
q-25 0 -25 24z" />
    <glyph glyph-name="uni2173" unicode="&#x2173;" horiz-adv-x="635" 
d="M406 25q-13 2 -20 7q-16 8 -32 45l-127 291q-6 16 -6 23q0 24 30 24h14q21 0 33.5 -10.5t22.5 -35.5l89 -227l63 218q8 26 19.5 38t32.5 13l14 1q32 1 32 -25q0 -6 -4 -20l-96 -291q-8 -26 -21.5 -39.5t-30.5 -12.5zM77 57v284q0 28 6 42t25 23l13 6q8 4 17 4
q13 0 19 -10.5t6 -26.5v-284q0 -56 -31 -66l-13 -4q-8 -2 -12 -2q-13 0 -21.5 9.5t-8.5 24.5zM67 542v4q0 21 6 31.5t25 13.5l33 6q10 2 14 2q15 0 21.5 -9t6.5 -26v-4q0 -15 -7 -23t-24 -11l-33 -6q-12 -2 -17 -2q-25 0 -25 24z" />
    <glyph glyph-name="uni2174" unicode="&#x2174;" horiz-adv-x="440" 
d="M230 25q-13 2 -20 7q-8 4 -15 14t-17 31l-137 291q-6 16 -6 23q0 24 30 24h14q21 0 33 -10.5t23 -35.5l99 -227l73 218q9 26 20 38t32 13l14 1q32 1 32 -25q0 -6 -4 -20l-106 -291q-19 -55 -52 -52z" />
    <glyph glyph-name="uni2175" unicode="&#x2175;" horiz-adv-x="570" 
d="M219 25q-13 2 -20 7q-16 8 -32 45l-127 291q-6 16 -6 23q0 24 30 24h14q21 0 33.5 -10.5t22.5 -35.5l89 -227l63 218q8 26 19.5 38t32.5 13l14 1q32 1 32 -25q0 -6 -4 -20l-96 -291q-8 -26 -21.5 -39.5t-30.5 -12.5zM438 57v284q0 28 6 42t25 23l13 6q8 4 17 4
q13 0 19 -10.5t6 -26.5v-284q0 -56 -31 -66l-13 -4q-8 -2 -12 -2q-13 0 -21.5 9.5t-8.5 24.5zM428 542v4q0 21 6 31.5t25 13.5l33 6q10 2 14 2q15 0 21.5 -9t6.5 -26v-4q0 -15 -7 -23t-24 -11l-33 -6q-12 -2 -17 -2q-25 0 -25 24z" />
    <glyph glyph-name="uni2176" unicode="&#x2176;" horiz-adv-x="735" 
d="M219 25q-13 2 -20 7q-16 8 -32 45l-127 291q-6 16 -6 23q0 24 30 24h14q21 0 33.5 -10.5t22.5 -35.5l89 -227l63 218q8 26 19.5 38t32.5 13l14 1q32 1 32 -25q0 -6 -4 -20l-96 -291q-8 -26 -21.5 -39.5t-30.5 -12.5zM438 57v284q0 28 6 42t25 23l13 6q8 4 17 4
q13 0 19 -10.5t6 -26.5v-284q0 -56 -31 -66l-13 -4q-8 -2 -12 -2q-13 0 -21.5 9.5t-8.5 24.5zM604 57v284q0 28 6 42t25 23l13 6q8 4 17 4q13 0 19 -10.5t6 -26.5v-284q0 -56 -31 -66l-13 -4q-8 -2 -12 -2q-13 0 -21.5 9.5t-8.5 24.5zM428 542v4q0 21 6 31.5t25 13.5l33 6
q10 2 14 2q15 0 21.5 -9t6.5 -26v-4q0 -15 -7 -23t-24 -11l-33 -6q-12 -2 -17 -2q-25 0 -25 24zM594 542v4q0 21 6 31.5t25 13.5l33 6q10 2 14 2q15 0 21.5 -9t6.5 -26v-4q0 -15 -7 -23t-24 -11l-33 -6q-12 -2 -17 -2q-25 0 -25 24z" />
    <glyph glyph-name="uni2177" unicode="&#x2177;" horiz-adv-x="900" 
d="M219 25q-13 2 -20 7q-16 8 -32 45l-127 291q-6 16 -6 23q0 24 30 24h14q21 0 33.5 -10.5t22.5 -35.5l89 -227l63 218q8 26 19.5 38t32.5 13l14 1q32 1 32 -25q0 -6 -4 -20l-96 -291q-8 -26 -21.5 -39.5t-30.5 -12.5zM438 57v284q0 28 6 42t25 23l13 6q8 4 17 4
q13 0 19 -10.5t6 -26.5v-284q0 -56 -31 -66l-13 -4q-8 -2 -12 -2q-13 0 -21.5 9.5t-8.5 24.5zM604 57v284q0 28 6 42t25 23l13 6q8 4 17 4q13 0 19 -10.5t6 -26.5v-284q0 -56 -31 -66l-13 -4q-8 -2 -12 -2q-13 0 -21.5 9.5t-8.5 24.5zM770 57v284q0 28 6 42t25 23l13 6
q8 4 17 4q13 0 19 -10.5t6 -26.5v-284q0 -56 -31 -66l-13 -4q-8 -2 -12 -2q-13 0 -21.5 9.5t-8.5 24.5zM428 542v4q0 21 6 31.5t25 13.5l33 6q10 2 14 2q15 0 21.5 -9t6.5 -26v-4q0 -15 -7 -23t-24 -11l-33 -6q-12 -2 -17 -2q-25 0 -25 24zM594 542v4q0 21 6 31.5t25 13.5
l33 6q10 2 14 2q15 0 21.5 -9t6.5 -26v-4q0 -15 -7 -23t-24 -11l-33 -6q-12 -2 -17 -2q-25 0 -25 24zM760 542v4q0 21 6 31.5t25 13.5l33 6q10 2 14 2q15 0 21.5 -9t6.5 -26v-4q0 -15 -7 -23t-24 -11l-33 -6q-12 -2 -17 -2q-25 0 -25 24z" />
    <glyph glyph-name="uni2178" unicode="&#x2178;" horiz-adv-x="625" 
d="M233 29q-10 1 -15.5 7t-5.5 15q0 11 10 24l124 163l-107 125q-12 15 -12 29q0 18 24 18h14q20 0 32.5 -10t35.5 -36l57 -67l59 77q19 25 33.5 35.5t34.5 10.5h14q24 0 24 -18q0 -14 -12 -29l-102 -135l137 -158q10 -11 10 -24q0 -9 -5.5 -15t-15.5 -7l-12 -2l-8 -1
q-16 0 -28.5 11t-34.5 37l-88 101l-80 -106q-21 -28 -36 -39t-35 -8zM77 57v284q0 28 6 42t25 23l13 6q8 4 17 4q13 0 19 -10.5t6 -26.5v-284q0 -56 -31 -66l-13 -4q-8 -2 -12 -2q-13 0 -21.5 9.5t-8.5 24.5zM67 542v4q0 21 6 31.5t25 13.5l33 6q10 2 14 2q15 0 21.5 -9
t6.5 -26v-4q0 -15 -7 -23t-24 -11l-33 -6q-12 -2 -17 -2q-25 0 -25 24z" />
    <glyph glyph-name="uni2179" unicode="&#x2179;" horiz-adv-x="455" 
d="M56 29q-10 1 -15.5 7t-5.5 15q0 11 10 24l129 163l-112 125q-13 13 -13 28q0 19 25 19h14q18 0 29.5 -8.5t23 -21t15.5 -16.5l62 -70l64 80q19 25 33.5 35.5t34.5 10.5h14q24 0 24 -18q0 -14 -12 -29l-107 -135l142 -158q10 -10 10 -23q0 -9 -5.5 -15.5t-15.5 -7.5
l-12 -2l-8 -1q-14 0 -25.5 9t-22.5 21.5t-15 17.5l-93 103l-85 -108q-23 -28 -37 -39t-34 -8z" />
    <glyph glyph-name="arrowleft" unicode="&#x2190;" horiz-adv-x="650" 
d="M213 162q-15 -1 -29 10t-43 40l-101 104q-9 9 -9 18v3q0 10 10 20l98 94q26 25 41.5 36.5t33.5 12.5l15 1q16 1 25.5 -4.5t9.5 -14.5q0 -8 -9 -17q-57 -52 -102 -97q61 1 188 1q203 0 241 -2q20 -1 31.5 -5.5t8.5 -20.5l-1 -7q-2 -15 -17 -22t-30 -6q-18 1 -165 1
l-264 -1q48 -46 109 -98q11 -10 11 -20t-9 -17t-21 -8z" />
    <glyph glyph-name="arrowup" unicode="&#x2191;" horiz-adv-x="470" 
d="M193 1v506l-49 -59q-23 -28 -35.5 -39t-31.5 -12l-14 -1q-25 -1 -25 17q0 13 12 28l111 131q25 29 38.5 41t28.5 11l13 -1q16 -1 29 -12t24 -23.5t14 -16.5l112 -131q12 -14 12 -27q0 -9 -6.5 -14.5t-19.5 -5.5h-14q-20 0 -34 10.5t-32 35.5l-47 64v-474q0 -21 -6.5 -34
t-24.5 -21l-13 -6q-8 -4 -17 -4q-13 0 -19 10.5t-6 26.5z" />
    <glyph glyph-name="arrowright" unicode="&#x2192;" horiz-adv-x="650" 
d="M73 306q-15 0 -28.5 7t-15.5 21l-1 7q-3 16 8.5 20.5t31.5 5.5q40 2 241 2q127 0 187 -1q-44 44 -101 97q-9 9 -9 17q0 9 9.5 14.5t25.5 4.5l15 -1q18 -1 33.5 -12.5t41.5 -36.5l98 -94q10 -10 10 -20v-4q0 -8 -9 -17l-101 -104q-29 -29 -43 -40t-29 -10l-22 1
q-12 1 -21 8t-9 17t11 20q61 52 109 98h-30q-85 1 -203 1z" />
    <glyph glyph-name="arrowdown" unicode="&#x2193;" horiz-adv-x="470" 
d="M229 -35q-16 1 -29 12t-24 23.5t-14 16.5l-112 131q-12 14 -12 27q0 9 6.5 14.5t19.5 5.5h14q20 0 33 -10t33 -36l47 -62v472q0 21 6.5 34t24.5 21l13 6q8 4 17 4q13 0 19 -10.5t6 -26.5v-504l49 57q4 5 17 20.5t24.5 22.5t25.5 8l14 1q25 1 25 -17q0 -13 -12 -28
l-111 -131q-25 -29 -38.5 -41t-28.5 -11z" />
    <glyph glyph-name="arrowboth" unicode="&#x2194;" horiz-adv-x="720" 
d="M213 162q-15 -1 -29 10t-43 40l-101 104q-9 9 -9 18v2v1q0 10 10 20l98 94q26 25 41.5 36.5t33.5 12.5l15 1q16 1 25.5 -4.5t9.5 -14.5q0 -8 -9 -17q-57 -52 -102 -97q62 1 193 1q163 0 220 -1q-44 44 -101 97q-9 9 -9 17q0 9 9.5 14.5t25.5 4.5l15 -1q18 -1 33.5 -12.5
t41.5 -36.5l98 -94q10 -10 10 -20v-1v-2v-1q0 -8 -9 -17l-101 -104q-29 -29 -43 -40t-29 -10l-22 1q-12 1 -21 8t-9 17t11 20q61 52 109 98q-32 1 -159 1l-271 -1q48 -46 109 -98q11 -10 11 -20t-9 -17t-21 -8z" />
    <glyph glyph-name="arrowupdn" unicode="&#x2195;" horiz-adv-x="470" 
d="M229 -35q-16 1 -29 12t-24 23.5t-14 16.5l-112 131q-12 14 -12 27q0 9 6.5 14.5t19.5 5.5h14q20 0 33 -10t33 -36l47 -62v412v6l-47 -57q-23 -28 -35.5 -39t-31.5 -12l-14 -1q-25 -1 -25 17q0 13 12 28l111 131q25 29 38.5 41t28.5 11l13 -1q16 -1 29 -12t24 -23.5
t14 -16.5l112 -131q12 -14 12 -27q0 -9 -6.5 -14.5t-19.5 -5.5h-14q-20 0 -34 10.5t-32 35.5l-49 67v-423l49 57q4 5 17 20.5t24.5 22.5t25.5 8l14 1q25 1 25 -17q0 -13 -12 -28l-111 -131q-25 -29 -38.5 -41t-28.5 -11z" />
    <glyph glyph-name="uni2196" unicode="&#x2196;" horiz-adv-x="600" 
d="M102 320q-17 -3 -28.5 7.5t-9.5 29.5l24 193q5 40 24 56q7 7 15 10q11 3 29 2q38 -4 104 -12.5t102 -13.5q21 -4 31.5 -9t5.5 -21l-2 -7q-4 -15 -19 -19.5t-31 -2.5l-105 13l-18 2q5 -7 8 -10l335 -456q8 -11 8 -21t-7 -17t-19 -8l-15 -2q-19 -3 -31 7.5t-34 40.5
l-301 414l-14 -112q-6 -56 -39 -62z" />
    <glyph glyph-name="uni2197" unicode="&#x2197;" horiz-adv-x="600" 
d="M253 533q-16 -2 -31 2.5t-19 19.5l-2 7q-5 16 5.5 21t31.5 9q36 5 102 13.5t104 12.5q18 1 28 -2q8 -3 16 -10q18 -16 24 -56l24 -193q2 -19 -9.5 -29.5t-28.5 -7.5l-13 2q-33 6 -39 62l-14 112l-301 -414q-22 -30 -34 -40.5t-31 -7.5l-15 2q-12 1 -19 8t-7 17t8 21
l335 456q2 3 8 10l-18 -2z" />
    <glyph glyph-name="uni2198" unicode="&#x2198;" horiz-adv-x="600" 
d="M238 60q-21 4 -31.5 9t-5.5 21l2 7q4 15 19 19.5t31 2.5l105 -13l17 -2q-5 7 -7 10l-335 456q-8 11 -8 21t7 17t19 8l15 2q19 3 31 -7.5t34 -40.5l301 -414l14 112q6 56 39 62l13 2q17 3 28.5 -7.5t9.5 -29.5l-24 -193q-6 -41 -24 -56q-8 -8 -16 -10q-10 -3 -28 -2
q-38 4 -104 12.5t-102 13.5z" />
    <glyph glyph-name="uni2199" unicode="&#x2199;" horiz-adv-x="600" 
d="M469 570q22 30 34 40.5t31 7.5l15 -2q12 -1 19 -8t7 -17t-8 -21l-335 -456q-3 -4 -8 -10l18 2l105 13q16 2 31 -2.5t19 -19.5l2 -7q5 -16 -5.5 -21t-31.5 -9q-36 -5 -102 -13.5t-104 -12.5q-18 -1 -29 2q-8 2 -15 10q-19 15 -24 56l-24 193q-2 19 9.5 29.5t28.5 7.5
l13 -2q33 -6 39 -62l14 -112z" />
    <glyph glyph-name="arrowdblright" unicode="&#x21d2;" horiz-adv-x="650" 
d="M73 236q-15 0 -28.5 7t-15.5 21l-1 7q-3 16 8.5 20.5t31.5 5.5q40 2 206 2q168 0 204 -2q9 -1 16 -2l16 16q12 12 21 20q-6 7 -14 16q-9 9 -18 19q-5 0 -78.5 0.5t-175.5 0.5l-172 -1q-15 0 -28.5 7t-15.5 21l-1 7q-3 16 8.5 20.5t31.5 5.5q40 2 206 2q110 0 163 -1
q-34 32 -72 67q-9 9 -9 17q0 9 9.5 14.5t25.5 4.5l15 -1q18 -1 33.5 -12.5t41.5 -36.5l128 -124q10 -10 10 -20v-1v-2q0 -9 -9 -18l-131 -134q-27 -28 -41.5 -39.5t-30.5 -10.5l-22 1q-12 1 -21 8t-9 17t11 20l66 58h-12q-73 1 -175 1z" />
    <glyph glyph-name="arrowdblboth" unicode="&#x21d4;" horiz-adv-x="760" 
d="M243 132q-16 -1 -30.5 10.5t-41.5 39.5l-131 134q-9 9 -9 18v3q0 10 10 20l128 124q26 25 41.5 36.5t33.5 12.5l15 1q16 1 25.5 -4.5t9.5 -14.5q0 -8 -9 -17q-39 -35 -72 -67q58 1 161 1q116 0 173 -1q-34 32 -72 67q-9 9 -9 17q0 9 9.5 14.5t25.5 4.5l15 -1
q18 -1 33.5 -12.5t41.5 -36.5l128 -124q10 -10 10 -20v-1v-2v-1q0 -8 -9 -17l-131 -134q-27 -28 -41.5 -39.5t-30.5 -10.5l-22 1q-12 1 -21 8t-9 17t11 20l66 58h-10q-80 1 -191 1l-124 -1q33 -29 67 -58q11 -10 11 -20t-9 -17t-21 -8zM153 366h-3q-9 -10 -17 -19t-14 -15
l21 -21l13 -14q46 2 221 2q188 0 224 -2q4 0 7 -1l15 15q12 12 21 20q-6 7 -14 16q-9 9 -18 19h-77q-80 1 -191 1z" />
    <glyph glyph-name="universal" unicode="&#x2200;" horiz-adv-x="570" 
d="M296 14h-9q-20 0 -31 10.5t-23 36.5l-196 413q-4 8 -4 17q0 12 7.5 19.5t20.5 9.5l15 2q16 2 28 -10t24 -38l60 -128h9q17 -1 70 -1l128 1l47 108q11 27 22.5 39t27.5 11l15 -1q14 -1 21.5 -9t7.5 -20q0 -7 -3 -16l-170 -393q-10 -25 -21 -37q-9 -10 -25 -13
q-6 -1 -15 -1h-6zM290 284h-72l79 -168l72 168h-79z" />
    <glyph glyph-name="partialdiff" unicode="&#x2202;" horiz-adv-x="460" 
d="M304 427q0 60 -22 90t-78 32q-24 0 -43 -3t-47 -10q-3 -1 -8 -1q-10 0 -10 10q0 9 4 15q18 34 51 45.5t78 11.5q60 0 91.5 -23t54.5 -67q9 -18 12 -47t3 -53v-332q0 -31 -2 -46t-8.5 -20.5t-20.5 -4.5l-13 1q-12 1 -21 3l1 -1q-58 0 -109 17.5t-83 43.5q-44 38 -62.5 73
t-18.5 99q0 24 11.5 50t37.5 47q64 53 202 55v15zM219 330q-41 -12 -65 -32.5t-24 -44.5q0 -43 13 -66t43 -48q20 -18 54 -31q33 -13 64 -14v248q-46 -1 -85 -12z" />
    <glyph glyph-name="existential" unicode="&#x2203;" horiz-adv-x="470" 
d="M66 461q-20 1 -31.5 5.5t-8.5 20.5l1 7q2 15 17 22t30 6q17 -1 83 -1l178 1q4 3 10 5l13 4q8 2 12 2q13 0 21.5 -9.5t8.5 -24.5v-400q0 -28 -6 -42t-25 -23l-13 -6q-8 -4 -17 -4q-10 0 -16 6h-7q-18 -1 -114 -1t-116 1q-19 1 -30.5 5.5t-9.5 20.5l1 7q2 15 17 22t30 6
q17 -1 78 -1l142 1v129h-97q-81 0 -101 1t-31.5 5.5t-8.5 20.5l1 7q2 15 17 22t30 6q17 -1 70 -1l120 1v179q-21 -1 -122 -1q-106 0 -126 1z" />
    <glyph glyph-name="gradient" unicode="&#x2207;" horiz-adv-x="570" 
d="M296 14q-8 -1 -14 0q-17 1 -28 11q-12 12 -21 36l-196 493q-3 9 -3 17q0 11 7 19.5t20 9.5l15 2q12 1 23 -6q39 2 199 2q163 0 201 -2q20 -1 31 -6q11 -4 9 -19q1 -4 1 -8q0 -7 -3 -15l-174 -483q-10 -25 -21 -37q-8 -9 -22 -12q-7 -2 -18 -2h-6zM365 536l-230 -1
l162 -406l146 407h-78z" />
    <glyph glyph-name="element" unicode="&#x2208;" horiz-adv-x="595" 
d="M268 82q-114 0 -175 60.5t-61 160.5q0 105 64.5 161t189.5 56h220q16 0 26.5 -6t10.5 -19q0 -9 -4 -17l-6 -13q-9 -19 -23 -25t-42 -6h-183q-78 0 -129 -30q-42 -24 -49 -74q46 2 192 2q164 0 202 -2q20 -1 31.5 -5.5t8.5 -20.5l-1 -7q-2 -15 -17 -22t-30 -6
q-20 1 -167 1q-166 0 -216 -1q11 -40 43 -65q48 -36 135 -36h238q16 0 26.5 -6t10.5 -19q0 -9 -4 -17l-6 -13q-9 -19 -23 -25t-42 -6h-220z" />
    <glyph glyph-name="suchthat" unicode="&#x220b;" horiz-adv-x="595" 
d="M94 272q-20 1 -31.5 5.5t-8.5 20.5l1 7q2 15 17 22t30 6q20 -1 167 -1h215q-10 40 -43 65q-47 37 -134 37h-238q-16 0 -26.5 6t-10.5 19q0 9 4 17l6 13q9 19 23 25t42 6h220q114 0 175 -60.5t61 -160.5q0 -105 -64.5 -161t-189.5 -56h-220q-16 0 -26.5 6t-10.5 19
q0 9 4 17l6 13q9 19 23 25t42 6h183q78 0 128 29q42 25 49 74h-191q-182 0 -202 1z" />
    <glyph glyph-name="product" unicode="&#x220f;" horiz-adv-x="550" 
d="M133 57v459q0 17 2 29h-69q-32 0 -32 17q0 5 4 15l3 7q5 13 15.5 17t29.5 5q38 2 196 2q160 0 198 -2q20 -1 31.5 -5.5t8.5 -20.5l-1 -7q-2 -15 -17 -22t-30 -6q-9 0 -45 1v-451q0 -56 -31 -66l-13 -4q-8 -2 -12 -2q-13 0 -21.5 9.5t-8.5 24.5v459q0 18 2 30l-124 -1
v-450q0 -56 -31 -66l-13 -4q-8 -2 -12 -2q-13 0 -21.5 9.5t-8.5 24.5z" />
    <glyph glyph-name="summation" unicode="&#x2211;" horiz-adv-x="370" 
d="M72 27q-32 0 -32 17q0 5 4 15l3 7q3 7 7 12l144 227l-156 248l-2 4v1v4q0 5 4 15l3 7q5 13 15.5 17t29.5 5q38 2 101 2q65 0 103 -2q20 -1 31.5 -5.5t8.5 -20.5l-1 -7q-2 -15 -17 -22t-30 -6q-17 1 -71 1l-77 -1l134 -216q7 -11 7 -21t-6 -20l-118 -198h36q65 0 103 -2
q20 -1 31.5 -5.5t8.5 -20.5l-1 -7q-2 -15 -17 -22t-30 -6q-17 1 -71 1z" />
    <glyph glyph-name="radical" unicode="&#x221a;" horiz-adv-x="490" 
d="M170 25q-13 2 -20 7q-8 4 -15 14t-17 31l-75 159q-6 16 -6 23q0 24 30 24h14q21 0 33.5 -10.5t22.5 -35.5l37 -95l74 400q2 16 9 27q1 4 3 8l3 7q5 13 15.5 17t29.5 5q38 2 51 2q15 0 53 -2q20 -1 31.5 -5.5t8.5 -20.5l-1 -7q-2 -15 -17 -22t-30 -6q-16 1 -43 1l-39 -1
l-87 -469q-4 -25 -19 -39.5t-33 -12.5z" />
    <glyph glyph-name="proportional" unicode="&#x221d;" horiz-adv-x="535" 
d="M187 196q-59 0 -96.5 33t-37.5 103q0 76 40 105.5t94 29.5q45 3 74 -22q26 -23 53 -61q12 16 23 29q18 20 48.5 37t71.5 17q35 0 35 -17q0 -5 -4 -15l-3 -7q-6 -13 -17.5 -20t-29.5 -10q-29 -5 -48 -25.5t-32 -41.5l-3 -5q14 -17 30 -32q32 -29 67 -29q42 0 42 -22
q0 -2 -2 -10l-3 -7q-6 -14 -18.5 -22t-28.5 -8q-45 0 -86 33q-24 18 -42 38q-8 -10 -16 -19q-17 -21 -46 -37.5t-65 -14.5zM192 265q29 -1 50 20q16 16 32 40q-18 35 -36 54.5t-46 18.5q-34 0 -55 -18t-21 -48q0 -33 19.5 -50t56.5 -17z" />
    <glyph glyph-name="infinity" unicode="&#x221e;" horiz-adv-x="620" 
d="M187 196q-59 0 -96.5 33t-37.5 103q0 76 40 105.5t94 29.5q45 3 74 -22q26 -23 53 -61l9 13q20 30 52 50t68 20q52 0 88 -29t36 -106q0 -71 -33 -103.5t-91 -32.5q-51 0 -88 31q-22 18 -41 40q-8 -11 -16 -19q-17 -21 -46 -37.5t-65 -14.5zM192 265q29 -1 50 20
q16 16 32 40q-18 35 -36 54.5t-46 18.5q-34 0 -55 -18t-21 -48q0 -33 19.5 -50t56.5 -17zM438 265q36 0 51 16.5t15 50.5q0 31 -17 48.5t-49 17.5q-26 -2 -46.5 -24t-33.5 -44q-2 -2 -3 -4q13 -17 27 -32q29 -29 56 -29z" />
    <glyph glyph-name="angle" unicode="&#x2220;" horiz-adv-x="480" 
d="M75 69q-20 1 -31.5 5.5t-8.5 20.5l1 7q1 8 6 14q1 3 4 7l269 397q4 6 13.5 21t19 21.5t22.5 6.5l20 1q33 2 33 -18q0 -6 -7 -18l-271 -405h41l229 1q32 0 32 -17q0 -5 -4 -15l-3 -7q-5 -13 -15.5 -17t-29.5 -5q-18 -1 -159 -1t-161 1z" />
    <glyph glyph-name="uni2225" unicode="&#x2225;" horiz-adv-x="465" 
d="M263 44v469q0 28 6 42t25 23l13 6q8 4 17 4q13 0 19 -10.5t6 -26.5v-469q0 -56 -31 -66l-13 -4q-8 -2 -12 -2q-13 0 -21.5 9.5t-8.5 24.5zM111 44v469q0 28 6 42t25 23l13 6q8 4 17 4q13 0 19 -10.5t6 -26.5v-469q0 -56 -31 -66l-13 -4q-8 -2 -12 -2q-13 0 -21.5 9.5
t-8.5 24.5z" />
    <glyph glyph-name="logicaland" unicode="&#x2227;" horiz-adv-x="565" 
d="M62 55q-14 2 -22 9.5t-8 19.5q0 8 4 16l198 443q12 27 24.5 39t36.5 12h9q20 0 32.5 -11.5t21.5 -35.5l171 -443q3 -9 3 -17q0 -11 -7 -19.5t-20 -9.5l-15 -2q-17 -2 -31 10.5t-23 37.5l-140 377l-167 -377q-12 -27 -24 -39t-28 -11z" />
    <glyph glyph-name="logicalor" unicode="&#x2228;" horiz-adv-x="565" 
d="M296 54q-24 0 -36.5 12t-24.5 39l-198 443q-4 8 -4 16q0 12 8 19.5t22 9.5l15 1q16 1 28 -11t24 -39l167 -377l140 377q9 25 23 37.5t31 10.5l15 -2q13 -1 20 -9.5t7 -19.5q0 -8 -3 -17l-171 -443q-9 -24 -21.5 -35.5t-32.5 -11.5h-9z" />
    <glyph glyph-name="intersection" unicode="&#x2229;" horiz-adv-x="580" 
d="M422 78v268q0 87 -36.5 134.5t-105.5 47.5q-65 0 -94.5 -50.5t-29.5 -128.5v-213q0 -28 -6 -42t-25 -23l-13 -6q-8 -4 -17 -4q-13 0 -19 10.5t-6 26.5v250q0 125 56 189.5t161 64.5q100 0 160.5 -61t60.5 -175v-250q0 -28 -6 -42t-25 -23l-13 -6q-8 -4 -17 -4
q-13 0 -19 10.5t-6 26.5z" />
    <glyph glyph-name="union" unicode="&#x222a;" horiz-adv-x="580" 
d="M70 277v250q0 28 6 42t25 23l13 6q8 4 17 4q13 0 19 -10.5t6 -26.5v-268q0 -87 36.5 -134.5t105.5 -47.5q65 0 94.5 50.5t29.5 128.5v213q0 28 6 42t25 23l13 6q8 4 17 4q13 0 19 -10.5t6 -26.5v-250q0 -125 -56 -189.5t-161 -64.5q-100 0 -160.5 61t-60.5 175z" />
    <glyph glyph-name="integral" unicode="&#x222b;" horiz-adv-x="470" 
d="M41 0q-3 3 -5 8t-2 9q0 9 11 9h6q11 -2 30 -2q34 0 54.5 15.5t30.5 50.5q11 38 18.5 86.5t17.5 127.5q14 103 25.5 163t28.5 91q16 27 38 41.5t48 14.5t46 -8t41 -31q3 -3 5 -8t2 -9q0 -9 -11 -9h-6q-20 2 -28 2q-34 0 -53.5 -15.5t-33.5 -50.5q-13 -33 -36 -202
q-16 -111 -28.5 -178t-25.5 -88q-16 -25 -38.5 -40.5t-47.5 -15.5q-26 0 -46 8t-41 31z" />
    <glyph glyph-name="uni222C" unicode="&#x222c;" horiz-adv-x="685" 
d="M256 0q-3 3 -5 8t-2 9q0 9 11 9h6q11 -2 30 -2q34 0 54.5 15.5t30.5 50.5q11 38 18.5 86.5t17.5 127.5q14 103 25.5 163t28.5 91q16 27 38 41.5t48 14.5t46 -8t41 -31q3 -3 5 -8t2 -9q0 -9 -11 -9h-6q-20 2 -28 2q-34 0 -53.5 -15.5t-33.5 -50.5q-13 -33 -36 -202
q-16 -111 -28.5 -178t-25.5 -88q-16 -25 -38.5 -40.5t-47.5 -15.5q-26 0 -46 8t-41 31zM41 0q-3 3 -5 8t-2 9q0 9 11 9h6q11 -2 30 -2q34 0 54.5 15.5t30.5 50.5q11 38 18.5 86.5t17.5 127.5q14 103 25.5 163t28.5 91q16 27 38 41.5t48 14.5t46 -8t41 -31q3 -3 5 -8t2 -9
q0 -9 -11 -9h-6q-20 2 -28 2q-34 0 -53.5 -15.5t-33.5 -50.5q-13 -33 -36 -202q-16 -111 -28.5 -178t-25.5 -88q-16 -25 -38.5 -40.5t-47.5 -15.5q-26 0 -46 8t-41 31z" />
    <glyph glyph-name="uni222E" unicode="&#x222e;" horiz-adv-x="493" 
d="M103 287q3 154 121 163q2 9 3 17q12 60 29 91q16 27 38 41.5t48 14.5t46 -8t41 -31q3 -3 5 -8t2 -9q0 -9 -11 -9h-6q-20 2 -28 2q-34 0 -53.5 -15.5t-33.5 -50.5q-5 -13 -12 -45q71 -31 76 -153q0 -59 -33 -100q-30 -37 -88 -40q-4 -23 -8 -42q-12 -67 -25 -88
q-16 -25 -38.5 -40.5t-47.5 -15.5q-26 0 -46 8t-41 31q-3 3 -5 8t-2 9q0 9 11 9h6q11 -2 30 -2q34 0 54.5 15.5t30.5 50.5q8 29 15 64q-32 11 -49 36q-29 43 -29 97zM202 304q7 51 13 92q-50 -14 -52 -104q0 -38 20 -66q3 -5 7 -9q5 37 12 87zM308 292q-1 61 -27 87
q-6 -41 -13 -96q-7 -44 -12 -82q19 6 32 24q20 26 20 67z" />
    <glyph glyph-name="therefore" unicode="&#x2234;" horiz-adv-x="410" 
d="M162 422q0 19 12 31.5t31 16.5q3 1 8 1q17 0 27 -13.5t10 -30.5q0 -35 -45 -44q-3 -1 -9 -1q-15 0 -24.5 10.5t-9.5 29.5zM31 184q0 19 12 31.5t31 16.5q3 1 8 1q17 0 27 -13.5t10 -30.5q0 -35 -45 -44q-3 -1 -9 -1q-15 0 -24.5 10.5t-9.5 29.5zM291 184q0 19 12 31.5
t31 16.5q3 1 8 1q17 0 27 -13.5t10 -30.5q0 -35 -45 -44q-3 -1 -9 -1q-15 0 -24.5 10.5t-9.5 29.5z" />
    <glyph glyph-name="uni2235" unicode="&#x2235;" horiz-adv-x="410" 
d="M291 421q0 19 12 31.5t31 16.5q3 1 8 1q17 0 27 -13.5t10 -30.5q0 -35 -45 -44q-3 -1 -9 -1q-15 0 -24.5 10.5t-9.5 29.5zM162 181q0 19 12 31.5t31 16.5q3 1 8 1q17 0 27 -13.5t10 -30.5q0 -35 -45 -44q-3 -1 -9 -1q-15 0 -24.5 10.5t-9.5 29.5zM31 421q0 19 12 31.5
t31 16.5q3 1 8 1q17 0 27 -13.5t10 -30.5q0 -35 -45 -44q-3 -1 -9 -1q-15 0 -24.5 10.5t-9.5 29.5z" />
    <glyph glyph-name="uni2236" unicode="&#x2236;" horiz-adv-x="290" 
d="M70 564h150l-75 -150zM145 224l75 -150h-150z" />
    <glyph glyph-name="similar" unicode="&#x223c;" horiz-adv-x="520" 
d="M333 245q-32 0 -53 14t-39 40q-4 6 -15 21t-23 23t-26 8q-19 0 -31.5 -16t-18.5 -43q-3 -18 -7.5 -24.5t-13.5 -6.5q-2 0 -14 2l-30 6q-17 6 -17 24q0 17 12.5 47t43 55t80.5 25q33 0 56.5 -15t44.5 -45q15 -25 27.5 -36t27.5 -11q44 0 56 59q3 18 7.5 24.5t13.5 6.5
q2 0 14 -2l30 -6q17 -6 18 -24q-6 -42 -33.5 -80t-95.5 -45z" />
    <glyph glyph-name="uni223D" unicode="&#x223d;" horiz-adv-x="520" 
d="M45 372q0 18 17 24l30 6q12 2 14 2q9 0 13.5 -6.5t7.5 -24.5q6 -27 18.5 -43t31.5 -16q18 0 29.5 10t21 23t13.5 19q20 29 43.5 42.5t62.5 10.5q68 -7 95.5 -45t33.5 -80q-1 -18 -18 -24l-30 -6q-12 -2 -14 -2q-9 0 -13.5 6.5t-7.5 24.5q-12 59 -56 59q-15 0 -27.5 -11
t-27.5 -36q-21 -30 -44.5 -45t-56.5 -15q-50 0 -80.5 25t-43 55t-12.5 47z" />
    <glyph glyph-name="uni2252" unicode="&#x2252;" horiz-adv-x="440" 
d="M68 360q-32 0 -32 17q0 5 4 15l3 7q8 13 18 17t27 5q38 2 137 2q100 0 138 -2q20 -1 31.5 -5.5t8.5 -20.5l-1 -7q-2 -15 -17 -22t-30 -6q-20 1 -118 1zM283 165q0 19 12 31.5t31 16.5q3 1 8 1q17 0 27 -13.5t10 -30.5q0 -35 -45 -44q-3 -1 -9 -1q-15 0 -24.5 10.5
t-9.5 29.5zM68 250q-32 0 -32 17q0 5 4 15l3 7q8 13 18 17t27 5q38 2 137 2q100 0 138 -2q20 -1 31.5 -5.5t8.5 -20.5l-1 -7q-2 -15 -17 -22t-30 -6q-20 1 -118 1zM83 502q0 19 12 31.5t31 16.5q3 1 8 1q17 0 27 -13.5t10 -30.5q0 -35 -45 -44q-3 -1 -9 -1q-15 0 -24.5 10.5
t-9.5 29.5z" />
    <glyph glyph-name="notequal" unicode="&#x2260;" horiz-adv-x="440" 
d="M68 250q-32 0 -32 17q0 5 4 15l3 7q8 13 18 17t27 5q24 1 73 2l24 47h-117q-32 0 -32 17q0 5 4 15l3 7q8 13 18 17t27 5q36 2 128 2l43 87q12 24 24 36t31 13l20 1q31 1 31 -17q0 -10 -5 -19l-50 -102q34 0 53 -1q20 -1 31.5 -5.5t8.5 -20.5l-1 -7q-2 -15 -17 -22t-30 -6
q-15 0 -76 1l-23 -48q75 -1 107 -2q20 -1 31.5 -5.5t8.5 -20.5l-1 -7q-2 -15 -17 -22t-30 -6q-20 1 -118 1h-12l-48 -99q-14 -28 -25 -39.5t-27 -10.5l-27 1q-12 1 -18.5 7t-6.5 17q0 9 6 21l51 102h-62z" />
    <glyph glyph-name="equivalence" unicode="&#x2261;" horiz-adv-x="440" 
d="M68 410q-32 0 -32 17q0 5 4 15l3 7q8 13 18 17t27 5q38 2 137 2q100 0 138 -2q20 -1 31.5 -5.5t8.5 -20.5l-1 -7q-2 -15 -17 -22t-30 -6q-20 1 -118 1zM68 190q-32 0 -32 17q0 5 4 15l3 7q8 13 18 17t27 5q38 2 137 2q100 0 138 -2q20 -1 31.5 -5.5t8.5 -20.5l-1 -7
q-2 -15 -17 -22t-30 -6q-20 1 -118 1zM68 300q-32 0 -32 17q0 5 4 15l3 7q8 13 18 17t27 5q38 2 137 2q100 0 138 -2q20 -1 31.5 -5.5t8.5 -20.5l-1 -7q-2 -15 -17 -22t-30 -6q-20 1 -118 1z" />
    <glyph glyph-name="lessequal" unicode="&#x2264;" horiz-adv-x="440" 
d="M351 239q-16 -1 -29.5 2.5t-39.5 16.5l-212 105q-13 6 -13 20q0 15 14 21l195 90l19 9q13 7 24 10t24 4l13 1q15 1 23 -4t8 -14q0 -10 -12 -18q-52 -31 -190 -94l-20 -9l30 -13q115 -47 179 -81q20 -11 20 -26q0 -8 -5 -13t-14 -6zM68 140q-32 0 -32 17q0 5 4 15l3 7
q8 13 18 17t27 5q38 2 137 2q100 0 138 -2q20 -1 31.5 -5.5t8.5 -20.5l-1 -7q-2 -15 -17 -22t-30 -6q-20 1 -118 1z" />
    <glyph glyph-name="greaterequal" unicode="&#x2265;" horiz-adv-x="440" 
d="M75 240q-9 1 -14 6t-5 13q0 15 20 26q64 34 179 81l30 13l-20 9q-137 63 -190 94q-12 8 -12 18q0 9 8 14t23 4l13 -1q16 -1 27 -5t22.5 -9.5t17.5 -8.5l195 -90q14 -6 14 -21q0 -14 -13 -20l-212 -105q-26 -13 -39.5 -16.5t-29.5 -2.5zM82 140q-15 0 -28.5 7t-15.5 21
l-1 7q-3 16 8.5 20.5t31.5 5.5q40 2 138 2q101 0 137 -2q17 -1 27 -5t18 -17l3 -7q4 -10 4 -15q0 -17 -31 -17l-196 1z" />
    <glyph glyph-name="propersubset" unicode="&#x2282;" horiz-adv-x="595" 
d="M268 82q-114 0 -175 60.5t-61 160.5q0 105 64.5 161t189.5 56h220q16 0 26.5 -6t10.5 -19q0 -9 -4 -17l-6 -13q-9 -19 -23 -25t-42 -6h-183q-78 0 -128.5 -29.5t-50.5 -94.5q0 -69 47.5 -105.5t134.5 -36.5h238q16 0 26.5 -6t10.5 -19q0 -9 -4 -17l-6 -13q-9 -19 -23 -25
t-42 -6h-220z" />
    <glyph glyph-name="propersuperset" unicode="&#x2283;" horiz-adv-x="595" 
d="M89 82q-16 0 -26.5 6t-10.5 19q0 9 4 17l6 13q9 19 23 25t42 6h183q78 0 128.5 29.5t50.5 94.5q0 69 -47.5 105.5t-134.5 36.5h-238q-16 0 -26.5 6t-10.5 19q0 9 4 17l6 13q9 19 23 25t42 6h220q114 0 175 -60.5t61 -160.5q0 -105 -64.5 -161t-189.5 -56h-220z" />
    <glyph glyph-name="reflexsubset" unicode="&#x2286;" horiz-adv-x="595" 
d="M268 207q-113 0 -174.5 45t-61.5 136q0 96 64 136.5t190 40.5h220q16 0 26.5 -6t10.5 -19q0 -9 -4 -17l-6 -13q-9 -19 -23 -25t-42 -6h-183q-61 0 -94.5 -3.5t-59 -21.5t-25.5 -59q0 -60 46 -81t136 -21h238q16 0 26.5 -6t10.5 -19q0 -9 -4 -17l-6 -13q-9 -19 -23 -25
t-42 -6h-220zM75 69q-20 1 -31.5 5.5t-8.5 20.5l1 7q2 15 17 22t30 6q17 -1 136 -1l308 1q32 0 32 -17q0 -5 -4 -15l-3 -7q-5 -13 -15.5 -17t-29.5 -5q-18 -1 -215 -1t-217 1z" />
    <glyph glyph-name="reflexsuperset" unicode="&#x2287;" horiz-adv-x="595" 
d="M89 208q-16 0 -26.5 6t-10.5 19q0 9 4 17l6 13q9 19 23 25t42 6h183q61 0 94.5 3.5t59 21.5t25.5 59q0 60 -46 81t-136 21h-238q-16 0 -26.5 6t-10.5 19q0 9 4 17l6 13q9 19 23 25t42 6h220q113 0 174.5 -45t61.5 -136q0 -96 -64 -136.5t-190 -40.5h-220zM68 69
q-32 0 -32 17q0 5 4 15l3 7q5 13 15.5 17t29.5 5q38 2 215 2q179 0 217 -2q20 -1 31.5 -5.5t8.5 -20.5l-1 -7q-2 -15 -17 -22t-30 -6q-17 1 -136 1z" />
    <glyph glyph-name="uni2299" unicode="&#x2299;" horiz-adv-x="960" 
d="M63 302q0 123 53.5 221t148.5 153.5t215 55.5q121 0 216 -55.5t148 -153.5t53 -221t-53.5 -221t-148.5 -153.5t-215 -55.5t-215 55.5t-148.5 153.5t-53.5 221zM830 302q0 103 -45 185.5t-124.5 129.5t-180.5 47t-180.5 -47t-124.5 -129.5t-45 -185.5t45 -185.5
t124.5 -129.5t180.5 -47t180.5 47t124.5 129.5t45 185.5zM405 300q0 32 22 53.5t53 21.5q32 0 53.5 -21.5t21.5 -53.5q0 -31 -21.5 -53t-53.5 -22q-31 0 -53 22t-22 53z" />
    <glyph glyph-name="uni22A5" unicode="&#x22a5;" horiz-adv-x="555" 
d="M75 60q-20 1 -31.5 5.5t-8.5 20.5l1 7q2 15 17 22t30 6q17 -1 124 -1h9v391q0 56 31 66l13 4q8 2 12 2q13 0 21.5 -9.5t8.5 -24.5v-399q0 -18 -2 -30l189 1q32 0 32 -17q0 -5 -4 -15l-3 -7q-5 -13 -15.5 -17t-29.5 -5q-18 -1 -196 -1t-198 1z" />
    <glyph glyph-name="uni22EF" unicode="&#x22ef;" horiz-adv-x="550" 
d="M431 326q0 19 12 31.5t31 16.5q3 1 8 1q17 0 27 -13.5t10 -30.5q0 -35 -45 -44q-3 -1 -9 -1q-15 0 -24.5 10.5t-9.5 29.5zM31 326q0 19 12 31.5t31 16.5q3 1 8 1q17 0 27 -13.5t10 -30.5q0 -35 -45 -44q-3 -1 -9 -1q-15 0 -24.5 10.5t-9.5 29.5zM231 326q0 19 12 31.5
t31 16.5q3 1 8 1q17 0 27 -13.5t10 -30.5q0 -35 -45 -44q-3 -1 -9 -1q-15 0 -24.5 10.5t-9.5 29.5z" />
    <glyph glyph-name="uni2312" unicode="&#x2312;" horiz-adv-x="440" 
d="M42 523q0 41 20.5 76.5t55.5 56.5t77 21h50q42 0 77 -21t55.5 -56.5t20.5 -76.5q0 -25 -10 -37t-32 -12q-25 0 -33 13t-8 35q0 33 -23 58.5t-58 25.5h-28q-35 0 -58 -25.5t-23 -58.5q0 -22 -8 -35t-33 -13q-22 0 -32 12t-10 37z" />
    <glyph glyph-name="uni2460" unicode="&#x2460;" horiz-adv-x="960" 
d="M63 302q0 123 53.5 221t148.5 153.5t215 55.5t215 -55.5t148.5 -153.5t53.5 -221t-53.5 -221t-148.5 -153.5t-215 -55.5t-215 55.5t-148.5 153.5t-53.5 221zM830 302q0 103 -45 185.5t-124.5 129.5t-180.5 47t-180.5 -47t-124.5 -129.5t-45 -185.5t45 -185.5
t124.5 -129.5t180.5 -47t180.5 47t124.5 129.5t45 185.5zM432 50q-30 0 -30 17q0 5 1 8l2 6l3 6q8 12 17.5 16t24.5 5l5 1v389h-18q-13 0 -22.5 4.5t-9.5 18.5q0 10 6 16.5t12 8.5l72 22q8 4 16 4q12 0 18 -10t6 -25v-428q3 -1 12 -1q19 -1 29.5 -5t7.5 -20l-1 -7
q-1 -13 -14 -19.5t-27 -6.5h-110z" />
    <glyph glyph-name="uni2461" unicode="&#x2461;" horiz-adv-x="960" 
d="M63 302q0 123 53.5 221t148.5 153.5t215 55.5t215 -55.5t148.5 -153.5t53.5 -221t-53.5 -221t-148.5 -153.5t-215 -55.5t-215 55.5t-148.5 153.5t-53.5 221zM830 302q0 103 -45 185.5t-124.5 129.5t-180.5 47t-180.5 -47t-124.5 -129.5t-45 -185.5t45 -185.5
t124.5 -129.5t180.5 -47t180.5 47t124.5 129.5t45 185.5zM312 75q0 5 4 15l2 6q6 9 12 13l7 7q6 7 31 35t64 77q44 58 68.5 116t24.5 103q0 35 -13 53t-35 18q-21 -3 -35.5 -10.5t-26.5 -21.5q-7 -7 -19 -7q-5 0 -15 2l-13 5q-13 6 -13 16q0 15 22 39q41 45 106 45
q64 0 95.5 -37t29.5 -109q0 -44 -22 -97.5t-59 -107.5q-37 -56 -90 -117h52q95 0 131 -2q19 -1 29.5 -5t7.5 -20v-6q-2 -15 -16 -21t-28 -6q-18 1 -110 1q-137 0 -157 -1q-34 0 -34 17z" />
    <glyph glyph-name="uni2462" unicode="&#x2462;" horiz-adv-x="960" 
d="M63 302q0 123 53.5 221t148.5 153.5t215 55.5t215 -55.5t148.5 -153.5t53.5 -221t-53.5 -221t-148.5 -153.5t-215 -55.5t-215 55.5t-148.5 153.5t-53.5 221zM830 302q0 103 -45 185.5t-124.5 129.5t-180.5 47t-180.5 -47t-124.5 -129.5t-45 -185.5t45 -185.5
t124.5 -129.5t180.5 -47t180.5 47t124.5 129.5t45 185.5zM450 309q-13 7 -13 13q0 16 10 24v1q18 7 28 13t29 23q15 16 24.5 38t7.5 45q-2 17 -14.5 29t-31.5 12q-7 0 -11 -1q-25 -9 -44 -24q-19 -19 -31 -19q-7 0 -13 6l-8 8q-10 9 -10 20q0 10 7 20q58 59 116 59
q52 0 82.5 -31t30.5 -88q0 -71 -58 -118q13 -6 28 -16q37 -28 51 -83q5 -28 5 -54q0 -65 -40 -104.5t-112 -39.5q-48 0 -87 22t-59 45q-10 15 -10 25q0 9 6 16l8 10q10 7 19 7q12 0 19 -11q47 -41 101 -40q76 9 76 72q1 57 -34 87q-11 9 -31 19t-29 11v1q-6 1 -12 3z" />
    <glyph glyph-name="uni2463" unicode="&#x2463;" horiz-adv-x="960" 
d="M63 302q0 123 53.5 221t148.5 153.5t215 55.5t215 -55.5t148.5 -153.5t53.5 -221t-53.5 -221t-148.5 -153.5t-215 -55.5t-215 55.5t-148.5 153.5t-53.5 221zM830 302q0 103 -45 185.5t-124.5 129.5t-180.5 47t-180.5 -47t-124.5 -129.5t-45 -185.5t45 -185.5
t124.5 -129.5t180.5 -47t180.5 47t124.5 129.5t45 185.5zM313 242q-21 0 -21 13q0 2 2 10l63 210q7 22 17 32.5t28 14.5l13 2q4 1 11 1q21 0 21 -21q0 -3 -2 -13l-60 -200q38 1 102 1h9v200q0 25 6 38t23 22l12 5q8 4 16 4q12 0 18 -10.5t6 -25.5v-234q43 0 61 -1
q18 0 29 -4t9 -20l-1 -7q-2 -14 -14.5 -20t-26.5 -6h-57v-140q0 -51 -29 -61l-11 -3q-4 -1 -11 -1q-13 0 -21.5 8.5t-8.5 22.5v174h-173q-33 -1 -33 16q0 5 4 15l2 6q8 12 17.5 16t24.5 4q15 1 47 1q-12 -44 -45 -47l-13 -1z" />
    <glyph glyph-name="uni2464" unicode="&#x2464;" horiz-adv-x="960" 
d="M63 302q0 123 53.5 221t148.5 153.5t215 55.5t215 -55.5t148.5 -153.5t53.5 -221t-53.5 -221t-148.5 -153.5t-215 -55.5t-215 55.5t-148.5 153.5t-53.5 221zM830 302q0 103 -45 185.5t-124.5 129.5t-180.5 47t-180.5 -47t-124.5 -129.5t-45 -185.5t45 -185.5
t124.5 -129.5t180.5 -47t180.5 47t124.5 129.5t45 185.5zM375 326v148v13h-6q-30 0 -30 18q0 5 1 8l2 6l4 5q7 12 16 16t26 5q32 2 105 2q74 0 108 -2q19 -1 29.5 -5t7.5 -20l-1 -6q-1 -15 -15 -21.5t-28 -5.5q-15 1 -72 1l-66 -1v-127v-7q67 -1 109 -43q44 -43 44 -128
q0 -32 -12 -66q-14 -36 -49.5 -61.5t-84.5 -25.5q-43 0 -78 20t-58 73q-2 6 -2 8q0 11 12 20l8 8q10 8 17 8q17 0 30 -27q16 -29 33.5 -37.5t41.5 -6.5q32 5 50 30.5t18 67.5q0 49 -30 79q-24 22 -102 22v1q-12 0 -20 8.5t-8 22.5z" />
    <glyph glyph-name="uni2465" unicode="&#x2465;" horiz-adv-x="960" 
d="M63 302q0 123 53.5 221t148.5 153.5t215 55.5t215 -55.5t148.5 -153.5t53.5 -221t-53.5 -221t-148.5 -153.5t-215 -55.5t-215 55.5t-148.5 153.5t-53.5 221zM830 302q0 103 -45 185.5t-124.5 129.5t-180.5 47t-180.5 -47t-124.5 -129.5t-45 -185.5t45 -185.5
t124.5 -129.5t180.5 -47t180.5 47t124.5 129.5t45 185.5zM322 292q0 68 20 131t60.5 102.5t97.5 39.5q29 0 47 -8t33 -21q7 -4 7 -14q0 -7 -4 -18q-6 -14 -12 -20q-6 -9 -15 -5q-24 17 -54 17q-18 0 -38 -13.5t-32 -37.5q-31 -57 -35 -133q6 4 13 9q29 17 69 17
q60 -2 101 -42t41 -110q0 -45 -20.5 -78t-54.5 -50t-74 -17q-75 0 -114 62.5t-36 188.5zM398 209q3 -27 12 -48q12 -27 26.5 -41.5t36.5 -14.5q30 0 53 23t23 61q0 41 -22.5 64.5t-50.5 23.5q-29 0 -48.5 -15t-29.5 -35l-1 -2q1 -9 1 -16z" />
    <glyph glyph-name="uni2466" unicode="&#x2466;" horiz-adv-x="960" 
d="M63 302q0 123 53.5 221t148.5 153.5t215 55.5t215 -55.5t148.5 -153.5t53.5 -221t-53.5 -221t-148.5 -153.5t-215 -55.5t-215 55.5t-148.5 153.5t-53.5 221zM830 302q0 103 -45 185.5t-124.5 129.5t-180.5 47t-180.5 -47t-124.5 -129.5t-45 -185.5t45 -185.5
t124.5 -129.5t180.5 -47t180.5 47t124.5 129.5t45 185.5zM517 31q-16 -3 -26.5 7.5t-8.5 28.5l51 414q0 6 1 11h-28l-92 -1v-70q0 -24 -7.5 -40.5t-21.5 -20.5l-12 -3q-8 -2 -11 -2q-12 0 -20 9t-8 23v100v16v5q0 5 4 15l2 6q8 12 16.5 15.5t25.5 5.5q17 1 98 1q82 0 99 -1
q3 0 14.5 -1.5t17.5 -7.5t5 -16q1 -6 0 -12l-50 -422q-6 -50 -37 -56z" />
    <glyph glyph-name="uni2467" unicode="&#x2467;" horiz-adv-x="960" 
d="M63 302q0 123 53.5 221t148.5 153.5t215 55.5t215 -55.5t148.5 -153.5t53.5 -221t-53.5 -221t-148.5 -153.5t-215 -55.5t-215 55.5t-148.5 153.5t-53.5 221zM830 302q0 105 -44 187t-123.5 128.5t-182.5 46.5q-101 0 -180.5 -47t-124.5 -129.5t-45 -185.5t45 -185.5
t124.5 -129.5t180.5 -47t180.5 47t124.5 129.5t45 185.5zM352 433q0 34 20 64.5t52.5 49.5t66.5 19q59 0 89.5 -32.5t30.5 -90.5q0 -55 -36 -97q-16 -19 -37 -33q9 -5 18 -11q34 -26 54.5 -64t20.5 -80q0 -49 -40 -84t-112 -35q-63 0 -102.5 36.5t-39.5 96.5q0 52 39 98
q21 24 49 41q-4 3 -7 5q-30 22 -48 53t-18 64zM555 164q0 28 -13 51.5t-30 38.5t-28 19q-10 -3 -27.5 -18t-31 -35.5t-13.5 -39.5q0 -37 18.5 -55t51.5 -18q37 0 55 17t18 40zM545 442q0 51 -55 51q-27 0 -47 -19t-20 -45q0 -28 15.5 -46t43.5 -31q21 12 42 36.5t21 53.5z
" />
    <glyph glyph-name="uni2468" unicode="&#x2468;" horiz-adv-x="960" 
d="M63 302q0 123 53.5 221t148.5 153.5t215 55.5t215 -55.5t148.5 -153.5t53.5 -221t-53.5 -221t-148.5 -153.5t-215 -55.5t-215 55.5t-148.5 153.5t-53.5 221zM830 302q0 103 -45 185.5t-124.5 129.5t-180.5 47t-180.5 -47t-124.5 -129.5t-45 -185.5t45 -185.5
t124.5 -129.5t180.5 -47t180.5 47t124.5 129.5t45 185.5zM348 438q0 53 34 94t111 41q47 0 77 -25t43 -61q10 -29 12 -56q1 -10 1 -31q0 -100 -31.5 -194t-81.5 -153q-25 -28 -46 -28q-5 0 -13 2l-11 3q-10 3 -16.5 11t-6.5 17q0 11 10 21q56 60 87 144q17 46 25 94
q-24 -15 -63 -15q-59 0 -95 35t-36 101zM550 446q1 26 -15 44.5t-46 18.5q-67 0 -70 -67q4 -76 65 -76q63 0 66 61v19z" />
    <glyph glyph-name="uni2469" unicode="&#x2469;" horiz-adv-x="960" 
d="M63 302q0 123 53.5 221t148.5 153.5t215 55.5t215 -55.5t148.5 -153.5t53.5 -221t-53.5 -221t-148.5 -153.5t-215 -55.5t-215 55.5t-148.5 153.5t-53.5 221zM830 302q0 103 -45 185.5t-124.5 129.5t-180.5 47t-180.5 -47t-124.5 -129.5t-45 -185.5t45 -185.5
t124.5 -129.5t180.5 -47t180.5 47t124.5 129.5t45 185.5zM482 136q-38 58 -38 166q0 122 40 179.5t102 57.5q72 0 105 -55q36 -55 36 -182q0 -108 -36 -168.5t-105 -60.5q-33 0 -59.5 16.5t-44.5 46.5zM256 89q0 8 3 14l2 5q8 11 16.5 14.5t23.5 4.5h1v337h-13
q-11 0 -19.5 3t-10.5 15v5q0 12 7.5 17.5t8.5 6.5l65 19q7 4 14 4q11 0 17 -10.5t6 -23.5v-373h8q17 -1 27 -5.5t9 -19.5l-2 -6q-1 -14 -13.5 -19.5t-26.5 -5.5q-16 1 -42 1q-33 0 -50 -1q-31 0 -31 18zM655 305q0 76 -20 128q-15 46 -49 46q-19 0 -35.5 -23.5t-26 -63.5
t-9.5 -87q0 -63 18.5 -115.5t52.5 -52.5q33 0 51 50.5t18 117.5z" />
    <glyph glyph-name="uni246A" unicode="&#x246a;" horiz-adv-x="960" 
d="M63 302q0 123 53.5 221t148.5 153.5t215 55.5t215 -55.5t148.5 -153.5t53.5 -221t-53.5 -221t-148.5 -153.5t-215 -55.5t-215 55.5t-148.5 153.5t-53.5 221zM830 302q0 103 -45 185.5t-124.5 129.5t-180.5 47t-180.5 -47t-124.5 -129.5t-45 -185.5t45 -185.5
t124.5 -129.5t180.5 -47t180.5 47t124.5 129.5t45 185.5zM532 89q0 8 3 14l2 5q8 11 16.5 14.5t23.5 4.5h1v337h-13q-11 0 -19.5 3t-10.5 15v5q0 12 7.5 17.5t8.5 6.5l65 19q7 4 14 4q11 0 17 -10.5t6 -23.5v-373h8q17 -1 27 -5t9 -20l-1 -6q-2 -14 -14.5 -19.5t-26.5 -5.5
q-16 1 -42 1q-32 0 -49 -1q-32 0 -32 18zM283 90q0 7 3 13l3 5q8 11 16.5 15t22.5 4h1v337h-13q-11 0 -19 3t-11 15q-2 16 7 22t10 7l65 19q7 4 14 4q10 0 16 -10.5t6 -23.5v-373h9q18 -1 28 -5.5t7 -19.5l-1 -6q-3 -14 -15 -19.5t-26 -5.5q-16 1 -41 1q-33 0 -50 -1
q-32 0 -32 19z" />
    <glyph glyph-name="uni246B" unicode="&#x246b;" horiz-adv-x="960" 
d="M63 302q0 123 53.5 221t148.5 153.5t215 55.5t215 -55.5t148.5 -153.5t53.5 -221t-53.5 -221t-148.5 -153.5t-215 -55.5t-215 55.5t-148.5 153.5t-53.5 221zM830 302q0 103 -45 185.5t-124.5 129.5t-180.5 47t-180.5 -47t-124.5 -129.5t-45 -185.5t45 -185.5
t124.5 -129.5t180.5 -47t180.5 47t124.5 129.5t45 185.5zM446 90q0 8 3 14l2 5q6 8 12 12q7 8 23 25q25 26 65 79q38 50 59.5 100t21.5 90q0 30 -10.5 45t-29.5 15q-19 -3 -30 -9.5t-22 -19.5q-6 -6 -17 -6q-6 0 -14 3l-11 3q-15 4 -15 17q0 14 20 36q39 41 96 41
q56 0 84 -33t26 -98q0 -39 -19.5 -86.5t-52.5 -94.5q-33 -49 -75 -99h30q89 0 104 -1q18 -1 28 -5.5t7 -19.5l-1 -6q-2 -14 -14.5 -19.5t-26.5 -5.5q-15 1 -87 1q-107 0 -124 -1q-32 0 -32 18zM248 89q0 8 3 14l2 5q8 11 16.5 15t23.5 4h1v337h-13q-11 0 -19.5 3t-10.5 15v5
q0 13 8 18t9 6l65 19q7 4 14 4q10 0 16 -10.5t6 -23.5v-373h9q18 -1 28 -5.5t7 -19.5l-1 -6q-3 -14 -15.5 -19.5t-25.5 -5.5q-16 1 -42 1q-32 0 -49 -1q-32 0 -32 18z" />
    <glyph glyph-name="uni246C" unicode="&#x246c;" horiz-adv-x="960" 
d="M63 302q0 123 53.5 221t148.5 153.5t215 55.5t215 -55.5t148.5 -153.5t53.5 -221t-53.5 -221t-148.5 -153.5t-215 -55.5t-215 55.5t-148.5 153.5t-53.5 221zM830 302q0 103 -45 185.5t-124.5 129.5t-180.5 47t-180.5 -47t-124.5 -129.5t-45 -185.5t45 -185.5
t124.5 -129.5t180.5 -47t180.5 47t124.5 129.5t45 185.5zM558 302q-11 6 -11 12q0 18 12 23q16 7 25.5 13.5t23.5 19.5q11 12 18.5 28.5t7.5 34.5q0 17 -9 28.5t-25 11.5q-4 0 -12 -2q-23 -5 -38 -19q-15 -18 -30 -18q-7 0 -13 6l-6 7q-9 11 -9 22q0 10 8 18q52 52 102 52
q47 0 73.5 -28.5t26.5 -80.5q0 -61 -48 -100q10 -6 22 -15q32 -22 45 -71q4 -16 4 -52q0 -57 -35.5 -91t-98.5 -34q-43 0 -78.5 19.5t-51.5 40.5q-8 9 -8 20q0 7 5 17l5 10q5 9 14 9q13 0 25 -12q36 -35 82 -35q34 0 51 15.5t18 44.5q0 51 -30 75q-12 12 -22 16q-7 4 -22 9
q-9 2 -21 6zM259 89q0 8 3 14l2 5q8 11 16.5 15t23.5 4h1v337h-13q-11 0 -19.5 3t-10.5 15v5q0 13 8 18t9 6l65 19q7 4 14 4q10 0 16 -10.5t6 -23.5v-373h9q18 -1 28 -5.5t7 -19.5l-1 -6q-3 -14 -15.5 -19.5t-25.5 -5.5q-16 1 -42 1q-32 0 -49 -1q-32 0 -32 18z" />
    <glyph glyph-name="uni246D" unicode="&#x246d;" horiz-adv-x="960" 
d="M63 302q0 123 53.5 221t148.5 153.5t215 55.5t215 -55.5t148.5 -153.5t53.5 -221t-53.5 -221t-148.5 -153.5t-215 -55.5t-215 55.5t-148.5 153.5t-53.5 221zM830 302q0 103 -45 185.5t-124.5 129.5t-180.5 47t-180.5 -47t-124.5 -129.5t-45 -185.5t45 -185.5
t124.5 -129.5t180.5 -47t180.5 47t124.5 129.5t45 185.5zM626 93v150q-133 0 -149 -1q-32 0 -32 18q0 7 3 13l2 6l53 178q7 21 16 30.5t26 12.5l11 2q4 1 10 1q21 0 21 -21q0 -8 -1 -12l-53 -171h88h5v172q0 24 5 36.5t21 18.5l9 5q12 4 15 4q12 0 18.5 -10t6.5 -24v-202
q42 -1 51 -1q17 -1 27.5 -5.5t7.5 -20.5l-1 -5q-1 -13 -14 -19t-26 -6q-10 0 -45 1v-120q0 -47 -27 -56l-10 -3q-3 -1 -10 -1q-12 0 -20 8.5t-8 21.5zM253 88q0 7 3 14l2 5q8 11 16.5 15t22.5 4h1v337h-13q-11 0 -19 3t-10 15l-1 6q0 11 8 16.5t9 6.5l65 19q7 4 14 4
q10 0 16 -10.5t6 -23.5v-373h9q18 -1 28 -5.5t7 -19.5l-1 -6q-3 -14 -15 -19.5t-26 -5.5q-16 1 -41 1q-33 0 -50 -1q-31 0 -31 18z" />
    <glyph glyph-name="uni246E" unicode="&#x246e;" horiz-adv-x="960" 
d="M63 302q0 123 53.5 221t148.5 153.5t215 55.5t215 -55.5t148.5 -153.5t53.5 -221t-53.5 -221t-148.5 -153.5t-215 -55.5t-215 55.5t-148.5 153.5t-53.5 221zM830 302q0 103 -45 185.5t-124.5 129.5t-180.5 47t-180.5 -47t-124.5 -129.5t-45 -185.5t45 -185.5
t124.5 -129.5t180.5 -47t180.5 47t124.5 129.5t45 185.5zM507 332v128v9h-1q-30 0 -30 18q0 7 3 14l2 6q5 11 14 14t25 4q14 1 81 1q69 0 84 -1q18 -1 28 -5t7 -19v-5q-1 -13 -14.5 -20t-26.5 -7q-16 1 -73 1h-24v-110v-4q56 -2 93 -37q39 -36 41 -108q0 -36 -11 -64
q-12 -33 -43.5 -55.5t-75.5 -22.5q-86 0 -121 81q-2 6 -2 10q0 10 10 20l7 6q9 9 17 9q16 0 29 -26q13 -22 26 -30t30 -8q30 0 47 22.5t17 60.5q0 44 -25 68q-18 17 -79 19q-4 -1 -7 -1q-12 0 -20 9t-8 23zM259 88q0 7 3 14l2 5q8 11 16.5 15t23.5 4h1v337h-13
q-11 0 -19.5 3t-10.5 15v5q0 13 8 18t9 6l65 19q7 4 14 4q10 0 16 -10.5t6 -23.5v-373h9q18 -1 28 -5.5t7 -19.5l-1 -6q-3 -14 -15.5 -19.5t-25.5 -5.5q-16 1 -42 1q-32 0 -49 -1q-32 0 -32 18z" />
    <glyph glyph-name="uni2474" unicode="&#x2474;" horiz-adv-x="960" 
d="M735 -48q-7 4 -7 14q0 11 8 24.5t9 15.5q39 76 52.5 155t17.5 159q2 39 -5 102t-31.5 129t-70.5 104q-12 9 -12 23q0 9 6.5 15.5t15.5 6.5q5 0 11 -3q89 -46 128.5 -154t39.5 -219q0 -85 -25.5 -183t-75.5 -163q-24 -31 -45 -31q-8 0 -16 5zM164 -22q-50 65 -75.5 163
t-25.5 183q0 111 39.5 219t128.5 154q6 3 11 3q9 0 15.5 -6.5t6.5 -15.5q0 -14 -12 -23q-46 -38 -70.5 -104t-31.5 -129t-5 -102q4 -80 17.5 -159t52.5 -155q1 -2 9 -15.5t8 -24.5q0 -10 -7 -14q-8 -5 -16 -5q-21 0 -45 31zM432 59q-30 0 -30 18q0 6 3 13l3 6
q6 12 16.5 16.5t25.5 4.5h5v390h-18q-13 0 -22.5 4t-9.5 18q0 10 6 17t12 9l72 22q8 4 16 4q12 0 18 -10t6 -25v-429h12q18 -1 28.5 -5t8.5 -20l-1 -7q-2 -14 -14.5 -20t-26.5 -6h-110z" />
    <glyph glyph-name="uni2475" unicode="&#x2475;" horiz-adv-x="960" 
d="M319 84q0 5 4 15l2 6q5 8 10 12l9 8l20 24q38 43 74 88q44 59 69 116t25 103q0 35 -13 52.5t-36 17.5q-21 -2 -35 -9.5t-26 -21.5q-7 -7 -19 -7q-5 0 -15 2l-14 5q-13 4 -13 16q0 14 22 39q44 45 107 45q127 0 124 -147q0 -43 -22 -96.5t-58 -107.5q-37 -56 -90 -117h52
q96 0 130 -2q19 -1 30 -5t8 -20v-6q-3 -15 -16.5 -21t-27.5 -6q-18 1 -110 1q-138 0 -158 -1q-33 0 -33 17zM735 -48q-7 4 -7 14q0 11 8 24.5t9 15.5q39 76 52.5 155t17.5 159q2 39 -5 102t-31.5 129t-70.5 104q-12 9 -12 23q0 9 6.5 15.5t15.5 6.5q5 0 11 -3
q89 -46 128.5 -154t39.5 -219q0 -85 -25.5 -183t-75.5 -163q-24 -31 -45 -31q-8 0 -16 5zM164 -22q-50 65 -75.5 163t-25.5 183q0 111 39.5 219t128.5 154q6 3 11 3q9 0 15.5 -6.5t6.5 -15.5q0 -14 -12 -23q-46 -38 -70.5 -104t-31.5 -129t-5 -102q4 -80 17.5 -159
t52.5 -155q1 -2 9 -15.5t8 -24.5q0 -10 -7 -14q-8 -5 -16 -5q-21 0 -45 31z" />
    <glyph glyph-name="uni2476" unicode="&#x2476;" horiz-adv-x="960" 
d="M450 319q-13 7 -13 13q0 16 10 24v1q18 7 28 13t29 23q15 16 24.5 38t7.5 45q-2 17 -14.5 28.5t-30.5 11.5q-8 0 -12 -1q-23 -7 -44 -23q-19 -19 -31 -19q-7 0 -13 6l-8 8q-10 9 -10 20t7 19q57 60 116 60q52 0 82.5 -31t30.5 -88q0 -71 -58 -118q13 -6 28 -16
q37 -28 51 -83q5 -28 5 -54q0 -65 -40 -104.5t-112 -39.5q-48 0 -87 22t-59 45q-10 15 -10 25q0 9 6 16l8 10q10 7 19 7q12 0 19 -11q47 -41 101 -40q76 9 76 72q1 58 -34 86q-11 10 -31 20t-29 11v1q-6 1 -12 3zM735 -48q-7 4 -7 14q0 11 8 24.5t9 15.5q39 76 52.5 155
t17.5 159q2 39 -5 102t-31.5 129t-70.5 104q-12 9 -12 23q0 9 6.5 15.5t15.5 6.5q5 0 11 -3q89 -46 128.5 -154t39.5 -219q0 -85 -25.5 -183t-75.5 -163q-24 -31 -45 -31q-8 0 -16 5zM164 -22q-50 65 -75.5 163t-25.5 183q0 111 39.5 219t128.5 154q6 3 11 3q9 0 15.5 -6.5
t6.5 -15.5q0 -14 -12 -23q-46 -38 -70.5 -104t-31.5 -129t-5 -102q4 -80 17.5 -159t52.5 -155q1 -2 9 -15.5t8 -24.5q0 -10 -7 -14q-8 -5 -16 -5q-21 0 -45 31z" />
    <glyph glyph-name="uni2477" unicode="&#x2477;" horiz-adv-x="960" 
d="M499 75v174h-177q-29 0 -29 17q0 5 2 11q0 2 1 4l63 210q7 23 16.5 33.5t28.5 14.5l13 2q4 1 10 1q23 0 23 -20q0 -6 -3 -14l-59 -200v-1q36 1 101 1h10v201q0 25 5.5 37.5t22.5 21.5l12 6q8 4 16 4q12 0 18 -10.5t6 -25.5v-234q51 -1 62 -2q17 0 28 -4t9 -20l-1 -6
q-1 -14 -14 -20.5t-27 -6.5h-57v-139q0 -51 -29 -61l-11 -3q-8 -2 -12 -2q-12 0 -20 8.5t-8 22.5zM735 -48q-7 4 -7 14q0 11 8 24.5t9 15.5q39 76 52.5 155t17.5 159q2 39 -5 102t-31.5 129t-70.5 104q-12 9 -12 23q0 9 6.5 15.5t15.5 6.5q5 0 11 -3q89 -46 128.5 -154
t39.5 -219q0 -85 -25.5 -183t-75.5 -163q-24 -31 -45 -31q-8 0 -16 5zM164 -22q-50 65 -75.5 163t-25.5 183q0 111 39.5 219t128.5 154q6 3 11 3q9 0 15.5 -6.5t6.5 -15.5q0 -14 -12 -23q-46 -38 -70.5 -104t-31.5 -129t-5 -102q4 -80 17.5 -159t52.5 -155q1 -2 9 -15.5
t8 -24.5q0 -10 -7 -14q-8 -5 -16 -5q-21 0 -45 31z" />
    <glyph glyph-name="uni2478" unicode="&#x2478;" horiz-adv-x="960" 
d="M378 346v147v14h-7q-29 0 -29 17q0 8 3 15l3 5q7 12 16 16t26 5q32 2 105 2q74 0 108 -2q19 -1 29.5 -5t8.5 -20l-2 -6q-1 -15 -15 -21.5t-27 -5.5q-15 1 -72 1l-67 -1v-127v-7q67 -2 109 -44q44 -43 44 -128q0 -35 -12 -65q-14 -36 -49.5 -61.5t-84.5 -25.5
q-95 0 -136 92l-2 8q0 12 12 21l8 8q10 8 17 8q17 0 30 -27q16 -29 34 -37.5t41 -6.5q32 5 50 30.5t18 67.5q0 47 -30 79q-24 22 -102 22v1q-12 0 -19 8q-8 9 -8 23zM735 -48q-7 4 -7 14q0 11 8 24.5t9 15.5q39 76 52.5 155t17.5 159q2 39 -5 102t-31.5 129t-70.5 104
q-12 9 -12 23q0 9 6.5 15.5t15.5 6.5q5 0 11 -3q89 -46 128.5 -154t39.5 -219q0 -85 -25.5 -183t-75.5 -163q-24 -31 -45 -31q-8 0 -16 5zM164 -22q-50 65 -75.5 163t-25.5 183q0 111 39.5 219t128.5 154q6 3 11 3q9 0 15.5 -6.5t6.5 -15.5q0 -14 -12 -23
q-46 -38 -70.5 -104t-31.5 -129t-5 -102q4 -80 17.5 -159t52.5 -155q1 -2 9 -15.5t8 -24.5q0 -10 -7 -14q-8 -5 -16 -5q-21 0 -45 31z" />
    <glyph glyph-name="uni2479" unicode="&#x2479;" horiz-adv-x="960" 
d="M331 312q0 68 20.5 131t61 102.5t97.5 39.5q29 0 47 -8t33 -21q7 -4 7 -14q0 -7 -4 -18q-3 -7 -7 -13t-5 -8q-6 -8 -15 -4q-24 16 -54 16q-18 0 -38 -13t-33 -37q-30 -59 -34 -133q6 4 14 9q29 17 68 17q39 -1 71.5 -19.5t52 -53.5t18.5 -83q-3 -66 -45.5 -103.5
t-102.5 -37.5q-76 0 -115 62t-37 189zM735 -48q-7 4 -7 14q0 11 8 24.5t9 15.5q39 76 52.5 155t17.5 159q2 39 -5 102t-31.5 129t-70.5 104q-12 9 -12 23q0 9 6.5 15.5t15.5 6.5q5 0 11 -3q89 -46 128.5 -154t39.5 -219q0 -85 -25.5 -183t-75.5 -163q-24 -31 -45 -31
q-8 0 -16 5zM164 -22q-50 65 -75.5 163t-25.5 183q0 111 39.5 219t128.5 154q6 3 11 3q9 0 15.5 -6.5t6.5 -15.5q0 -14 -12 -23q-46 -38 -70.5 -104t-31.5 -129t-5 -102q4 -80 17.5 -159t52.5 -155q1 -2 9 -15.5t8 -24.5q0 -10 -7 -14q-8 -5 -16 -5q-21 0 -45 31zM408 229
q2 -27 11 -48q13 -27 27.5 -41.5t36.5 -14.5q30 0 53 23t23 61q0 41 -22.5 64.5t-51.5 23.5q-28 0 -48 -15t-30 -35l-1 -1q1 -9 2 -17z" />
    <glyph glyph-name="uni247A" unicode="&#x247a;" horiz-adv-x="960" 
d="M521 40q-16 -3 -27 7.5t-9 27.5l51 415q0 6 1 11h-28l-92 -1v-70q0 -24 -7.5 -40.5t-20.5 -20.5l-12 -3q-8 -2 -12 -2q-12 0 -20 8.5t-8 23.5v100q0 11 1 19v3q0 7 3 14l3 5q8 12 16.5 16t24.5 5q17 1 98 1q82 0 99 -1q19 -1 30 -5q10 -4 8 -19q1 -5 0 -12l-51 -422
q-5 -50 -36 -56zM735 -48q-7 4 -7 14q0 11 8 24.5t9 15.5q39 76 52.5 155t17.5 159q2 39 -5 102t-31.5 129t-70.5 104q-12 9 -12 23q0 9 6.5 15.5t15.5 6.5q5 0 11 -3q89 -46 128.5 -154t39.5 -219q0 -85 -25.5 -183t-75.5 -163q-24 -31 -45 -31q-8 0 -16 5zM164 -22
q-50 65 -75.5 163t-25.5 183q0 111 39.5 219t128.5 154q6 3 11 3q9 0 15.5 -6.5t6.5 -15.5q0 -14 -12 -23q-46 -38 -70.5 -104t-31.5 -129t-5 -102q4 -80 17.5 -159t52.5 -155q1 -2 9 -15.5t8 -24.5q0 -10 -7 -14q-8 -5 -16 -5q-21 0 -45 31z" />
    <glyph glyph-name="uni247B" unicode="&#x247b;" horiz-adv-x="960" 
d="M357 454q0 34 20 64.5t52 49.5t66 19q60 0 90 -32.5t30 -90.5q0 -55 -36 -97q-16 -19 -37 -32q10 -5 19 -12q34 -26 54 -64t20 -80q0 -49 -40 -84t-112 -35q-62 0 -102 37t-40 96q0 52 39 98q21 24 50 41q-4 2 -8 5q-30 21 -47.5 52.5t-17.5 64.5zM735 -48q-7 4 -7 14
q0 11 8 24.5t9 15.5q39 76 52.5 155t17.5 159q2 39 -5 102t-31.5 129t-70.5 104q-12 9 -12 23q0 9 6.5 15.5t15.5 6.5q5 0 11 -3q89 -46 128.5 -154t39.5 -219q0 -85 -25.5 -183t-75.5 -163q-24 -31 -45 -31q-8 0 -16 5zM164 -22q-50 65 -75.5 163t-25.5 183q0 111 39.5 219
t128.5 154q6 3 11 3q9 0 15.5 -6.5t6.5 -15.5q0 -14 -12 -23q-46 -38 -70.5 -104t-31.5 -129t-5 -102q4 -80 17.5 -159t52.5 -155q1 -2 9 -15.5t8 -24.5q0 -10 -7 -14q-8 -5 -16 -5q-21 0 -45 31zM559 185q0 28 -13 51.5t-29.5 38.5t-27.5 19q-10 -3 -28 -18t-31.5 -35.5
t-13.5 -39.5q0 -36 19 -54.5t52 -18.5q36 0 54 17t18 40zM549 463q0 51 -55 51q-27 0 -47 -19.5t-20 -45.5q0 -27 15.5 -45t44.5 -32q21 13 41.5 37.5t20.5 53.5z" />
    <glyph glyph-name="uni247C" unicode="&#x247c;" horiz-adv-x="960" 
d="M349 449q0 53 34 94t111 41q47 0 77 -25t43 -61q10 -28 12 -55v-1q1 -10 1 -31q0 -100 -31.5 -194t-81.5 -153q-23 -27 -47 -27q-8 0 -12 1l-11 3q-10 3 -16.5 10.5t-6.5 16.5q0 12 11 22q56 59 86 143q17 47 26 95q-24 -15 -64 -15q-59 0 -95 35t-36 101zM735 -48
q-7 4 -7 14q0 11 8 24.5t9 15.5q39 76 52.5 155t17.5 159q2 39 -5 102t-31.5 129t-70.5 104q-12 9 -12 23q0 9 6.5 15.5t15.5 6.5q5 0 11 -3q89 -46 128.5 -154t39.5 -219q0 -85 -25.5 -183t-75.5 -163q-24 -31 -45 -31q-8 0 -16 5zM164 -22q-50 65 -75.5 163t-25.5 183
q0 111 39.5 219t128.5 154q6 3 11 3q9 0 15.5 -6.5t6.5 -15.5q0 -14 -12 -23q-46 -38 -70.5 -104t-31.5 -129t-5 -102q4 -80 17.5 -159t52.5 -155q1 -2 9 -15.5t8 -24.5q0 -10 -7 -14q-8 -5 -16 -5q-21 0 -45 31zM551 457q1 26 -15 44.5t-46 18.5q-68 0 -69 -67
q3 -76 64 -76q62 0 66 55v25z" />
    <glyph glyph-name="uni247D" unicode="&#x247d;" horiz-adv-x="960" 
d="M484 160q-38 59 -38 166q0 122 40 179.5t102 57.5q72 0 105 -55q37 -55 37 -182q0 -108 -36.5 -168.5t-105.5 -60.5q-64 0 -104 63zM735 -48q-7 4 -7 14q0 11 8 24.5t9 15.5q39 76 52.5 155t17.5 159q2 39 -5 102t-31.5 129t-70.5 104q-12 9 -12 23q0 9 6.5 15.5
t15.5 6.5q5 0 11 -3q89 -46 128.5 -154t39.5 -219q0 -85 -25.5 -183t-75.5 -163q-24 -31 -45 -31q-8 0 -16 5zM164 -22q-50 65 -75.5 163t-25.5 183q0 111 39.5 219t128.5 154q6 3 11 3q9 0 15.5 -6.5t6.5 -15.5q0 -14 -12 -23q-46 -38 -70.5 -104t-31.5 -129t-5 -102
q4 -80 17.5 -159t52.5 -155q1 -2 9 -15.5t8 -24.5q0 -10 -7 -14q-8 -5 -16 -5q-21 0 -45 31zM258 113q0 8 3 14l2 6q8 10 16.5 13.5t23.5 4.5h1v337h-13q-11 0 -19.5 3.5t-10.5 15.5v4q0 13 8 18t9 6l64 19q7 4 14 4q11 0 17 -10.5t6 -23.5v-373h9q17 -1 26.5 -5.5
t8.5 -19.5l-1 -5q-2 -14 -15 -20t-26 -6q-16 1 -42 1q-32 0 -49 -1q-32 0 -32 18zM657 330q0 75 -20 127q-15 46 -49 46q-19 0 -35.5 -23.5t-26 -63.5t-9.5 -86q0 -64 18.5 -116.5t52.5 -52.5q33 0 51 51t18 118z" />
    <glyph glyph-name="uni247E" unicode="&#x247e;" horiz-adv-x="960" 
d="M735 -48q-7 4 -7 14q0 11 8 24.5t9 15.5q39 76 52.5 155t17.5 159q2 39 -5 102t-31.5 129t-70.5 104q-12 9 -12 23q0 9 6.5 15.5t15.5 6.5q5 0 11 -3q89 -46 128.5 -154t39.5 -219q0 -85 -25.5 -183t-75.5 -163q-24 -31 -45 -31q-8 0 -16 5zM164 -22q-50 65 -75.5 163
t-25.5 183q0 111 39.5 219t128.5 154q6 3 11 3q9 0 15.5 -6.5t6.5 -15.5q0 -14 -12 -23q-46 -38 -70.5 -104t-31.5 -129t-5 -102q4 -80 17.5 -159t52.5 -155q1 -2 9 -15.5t8 -24.5q0 -10 -7 -14q-8 -5 -16 -5q-21 0 -45 31zM533 117q0 7 3 13l2 6q8 11 16.5 14.5t23.5 4.5h1
v336h-13q-11 0 -19.5 3.5t-10.5 15.5v5q0 12 7.5 17.5t9.5 6.5l64 18q7 4 14 4q11 0 17 -10t6 -23v-373h9q17 -1 26.5 -5.5t8.5 -20.5l-1 -5q-2 -14 -14.5 -19.5t-26.5 -5.5q-16 1 -42 1q-32 0 -49 -1q-32 0 -32 18zM284 117q0 7 3 13l3 6q8 11 17 15t22 4h1v336h-13
q-11 0 -19 3.5t-11 15.5q-2 10 2 15.5t9 8.5t6 5l65 18q7 4 14 4q10 0 16 -10t6 -23v-373h9q18 -1 28 -5.5t7 -20.5l-1 -5q-3 -14 -15 -19.5t-26 -5.5q-16 1 -41 1q-33 0 -50 -1q-32 0 -32 18z" />
    <glyph glyph-name="uni247F" unicode="&#x247f;" horiz-adv-x="960" 
d="M735 -48q-7 4 -7 14q0 11 8 24.5t9 15.5q39 76 52.5 155t17.5 159q2 39 -5 102t-31.5 129t-70.5 104q-12 9 -12 23q0 9 6.5 15.5t15.5 6.5q5 0 11 -3q89 -46 128.5 -154t39.5 -219q0 -85 -25.5 -183t-75.5 -163q-24 -31 -45 -31q-8 0 -16 5zM164 -22q-50 65 -75.5 163
t-25.5 183q0 111 39.5 219t128.5 154q6 3 11 3q9 0 15.5 -6.5t6.5 -15.5q0 -14 -12 -23q-46 -38 -70.5 -104t-31.5 -129t-5 -102q4 -80 17.5 -159t52.5 -155q1 -2 9 -15.5t8 -24.5q0 -10 -7 -14q-8 -5 -16 -5q-21 0 -45 31zM448 122q0 7 3 13l3 5q4 6 8 10l9 9q35 35 83 97
q38 50 59 100t21 90q0 60 -40 60q-19 -3 -30 -9.5t-21 -19.5q-7 -6 -17 -6q-7 0 -15 3l-11 3q-14 4 -14 17q0 15 19 36q40 40 96 40t84 -33t26 -97q0 -39 -19.5 -86.5t-52.5 -94.5q-27 -42 -62 -84q-6 -8 -12 -15h29q89 0 104 -1q18 -1 28 -5.5t7 -19.5l-1 -6
q-1 -14 -14 -19.5t-27 -5.5q-15 1 -87 1q-107 0 -124 -1q-32 0 -32 19zM250 120q0 7 3 14l3 5q8 11 16.5 15t22.5 4h1v337h-13q-11 0 -19 3t-11 15q-2 16 7 22t10 7l65 19q7 4 14 4q10 0 16 -10.5t6 -23.5v-373h9q18 -1 28 -5.5t7 -19.5l-1 -6q-3 -14 -15 -19.5t-26 -5.5
q-16 1 -41 1q-33 0 -50 -1q-32 0 -32 18z" />
    <glyph glyph-name="uni2480" unicode="&#x2480;" horiz-adv-x="960" 
d="M559 326q-11 6 -11 12q0 18 12 23q16 7 25.5 13.5t23.5 19.5q11 12 18.5 28.5t7.5 34.5q0 17 -9.5 28.5t-25.5 11.5q-7 0 -11 -1q-23 -7 -38 -20q-15 -18 -30 -18q-7 0 -12 6l-7 7q-9 11 -9 22q0 10 8 18q52 52 102 52q46 0 73 -28t27 -80q0 -62 -48 -101q11 -6 22 -15
q32 -22 45 -71q4 -16 4 -52q0 -57 -35.5 -91t-98.5 -34q-43 0 -78.5 19.5t-51.5 40.5q-8 9 -8 21q0 7 5 17l6 10q5 9 13 9q12 0 25 -13q36 -35 82 -35q34 0 51 16t18 45q0 50 -30 74q-12 12 -21.5 16.5t-31.5 11.5l44 42q20 0 40 -11l-8 -6q-20 -15 -31 -21t-25 -7
q-13 0 -32 6zM735 -48q-7 4 -7 14q0 11 8 24.5t9 15.5q39 76 52.5 155t17.5 159q2 39 -5 102t-31.5 129t-70.5 104q-12 9 -12 23q0 9 6.5 15.5t15.5 6.5q5 0 11 -3q89 -46 128.5 -154t39.5 -219q0 -85 -25.5 -183t-75.5 -163q-24 -31 -45 -31q-8 0 -16 5zM164 -22
q-50 65 -75.5 163t-25.5 183q0 111 39.5 219t128.5 154q6 3 11 3q9 0 15.5 -6.5t6.5 -15.5q0 -14 -12 -23q-46 -38 -70.5 -104t-31.5 -129t-5 -102q4 -80 17.5 -159t52.5 -155q1 -2 9 -15.5t8 -24.5q0 -10 -7 -14q-8 -5 -16 -5q-21 0 -45 31zM260 114q0 7 3 13l2 6
q8 11 17 14.5t23 3.5h1v337h-13q-11 0 -19 3.5t-11 15.5v4q0 13 8 18t9 6l65 19q7 4 14 4q10 0 16 -10.5t6 -23.5v-373h9q18 -1 28 -5.5t7 -19.5l-1 -5q-3 -14 -15.5 -20t-25.5 -6q-16 1 -41 1q-33 0 -50 -1q-32 0 -32 19z" />
    <glyph glyph-name="uni2481" unicode="&#x2481;" horiz-adv-x="960" 
d="M619 117v150q-134 0 -150 -1q-32 0 -32 18q0 7 3 14v1l55 182q7 21 16 30.5t26 12.5l11 2q4 1 11 1q20 0 20 -21q0 -7 -1 -11l-53 -172h88h6v173q0 24 5 36t20 19l10 4q12 4 15 4q11 0 17.5 -10t6.5 -24v-202q42 -1 51 -1q18 -1 28 -5.5t7 -19.5l-1 -6q-1 -13 -14 -19
t-26 -6q-10 0 -45 1v-120q0 -47 -27 -56l-10 -2q-8 -2 -11 -2q-11 0 -18.5 8.5t-7.5 21.5zM735 -48q-7 4 -7 14q0 11 8 24.5t9 15.5q39 76 52.5 155t17.5 159q2 39 -5 102t-31.5 129t-70.5 104q-12 9 -12 23q0 9 6.5 15.5t15.5 6.5q5 0 11 -3q89 -46 128.5 -154t39.5 -219
q0 -85 -25.5 -183t-75.5 -163q-24 -31 -45 -31q-8 0 -16 5zM164 -22q-50 65 -75.5 163t-25.5 183q0 111 39.5 219t128.5 154q6 3 11 3q9 0 15.5 -6.5t6.5 -15.5q0 -14 -12 -23q-46 -38 -70.5 -104t-31.5 -129t-5 -102q4 -80 17.5 -159t52.5 -155q1 -2 9 -15.5t8 -24.5
q0 -10 -7 -14q-8 -5 -16 -5q-21 0 -45 31zM245 112q0 8 3 14l2 6q8 11 17 14.5t23 3.5h1v337h-13q-11 0 -19.5 3.5t-10.5 15.5v4q0 12 7.5 17.5t8.5 6.5l65 19q7 4 14 4q11 0 17 -10.5t6 -23.5v-373h8q18 -1 28.5 -5.5t7.5 -19.5l-2 -6q-3 -13 -15 -19t-25 -6q-16 1 -42 1
q-33 0 -50 -1q-31 0 -31 18z" />
    <glyph glyph-name="uni2482" unicode="&#x2482;" horiz-adv-x="960" 
d="M735 -48q-7 4 -7 14q0 11 8 24.5t9 15.5q39 76 52.5 155t17.5 159q2 39 -5 102t-31.5 129t-70.5 104q-12 9 -12 23q0 9 6.5 15.5t15.5 6.5q5 0 11 -3q89 -46 128.5 -154t39.5 -219q0 -85 -25.5 -183t-75.5 -163q-24 -31 -45 -31q-8 0 -16 5zM164 -22q-50 65 -75.5 163
t-25.5 183q0 111 39.5 219t128.5 154q6 3 11 3q9 0 15.5 -6.5t6.5 -15.5q0 -14 -12 -23q-46 -38 -70.5 -104t-31.5 -129t-5 -102q4 -80 17.5 -159t52.5 -155q1 -2 9 -15.5t8 -24.5q0 -10 -7 -14q-8 -5 -16 -5q-21 0 -45 31zM510 352v128v9h-1q-31 0 -31 18q0 8 3 14l2 5
q5 11 14 14.5t25 4.5q14 1 81 1q69 0 84 -1q18 -1 28 -5t7 -19v-6q-1 -13 -14.5 -19.5t-26.5 -6.5q-16 1 -73 1h-24v-110v-4q57 -2 94 -37q39 -36 41 -108q0 -33 -11 -64q-13 -34 -44.5 -56t-75.5 -22q-85 0 -121 81q-2 6 -2 9q0 10 11 21l6 6q9 9 18 9q15 0 28 -26
q13 -22 26 -30t30 -8q30 0 47 22.5t17 60.5q0 24 -6 40t-19 28q-18 17 -79 19q-4 -1 -7 -1q-12 0 -19.5 8.5t-7.5 23.5zM261 108q0 7 3 14l3 5q8 11 16.5 15t22.5 4h1v336h-13q-11 0 -19 3.5t-11 15.5q-2 10 2 15.5t9 8.5t6 5l65 18q7 4 14 4q11 0 16.5 -10t5.5 -23v-373h9
q18 -1 28 -5.5t7 -19.5l-1 -6q-3 -14 -15 -19.5t-26 -5.5q-16 1 -41 1q-33 0 -50 -1q-32 0 -32 18z" />
    <glyph glyph-name="uni249C" unicode="&#x249c;" horiz-adv-x="960" 
d="M635 143q-43 34 -66 82q-10 -24 -27 -42q-41 -45 -112 -45q-49 0 -78.5 25.5t-43.5 61.5q-15 41 -16 90q12 195 168 207q53 0 80 -25q6 13 25 20l13 5q12 4 17 4q24 0 24 -36q0 -101 8 -161.5t41 -100.5q16 -18 22.5 -29t6.5 -21q0 -8 -4 -16l-6 -14q-8 -17 -24 -17
q-13 0 -28 12zM735 -48q-7 4 -7 14q0 11 8 24.5t9 15.5q39 76 52.5 155t17.5 159q2 39 -5 102t-31.5 129t-70.5 104q-12 9 -12 23q0 9 6.5 15.5t15.5 6.5q5 0 11 -3q89 -46 128.5 -154t39.5 -219q0 -85 -25.5 -183t-75.5 -163q-24 -31 -45 -31q-8 0 -16 5zM164 -22
q-50 65 -75.5 163t-25.5 183q0 111 39.5 219t128.5 154q6 3 11 3q9 0 15.5 -6.5t6.5 -15.5q0 -14 -12 -23q-46 -38 -70.5 -104t-31.5 -129t-5 -102q4 -80 17.5 -159t52.5 -155q1 -2 9 -15.5t8 -24.5q0 -10 -7 -14q-8 -5 -16 -5q-21 0 -45 31zM547 490l-12 -81q0 14 -12.5 29
t-44.5 15q-101 -9 -107 -130q0 -55 17 -83t59 -28q23 1 45 16.5t35.5 43.5t11.5 65l2 -2q-7 54 -7 118q0 29 6 43v1z" />
    <glyph glyph-name="uni249D" unicode="&#x249d;" horiz-adv-x="960" 
d="M353 94v475q0 28 6 42t25 23l12 6q8 4 17 4q13 0 19 -10.5t6 -26.5l1 -165q20 4 46 4q95 0 147.5 -32.5t52.5 -108.5q0 -103 -93 -169q-80 -60 -191 -72l-6 -2q-4 -1 -10 -1q-14 0 -23 9t-9 24zM735 -48q-7 4 -7 14q0 11 8 24.5t9 15.5q39 76 52.5 155t17.5 159
q2 39 -5 102t-31.5 129t-70.5 104q-12 9 -12 23q0 9 6.5 15.5t15.5 6.5q5 0 11 -3q89 -46 128.5 -154t39.5 -219q0 -85 -25.5 -183t-75.5 -163q-24 -31 -45 -31q-8 0 -16 5zM164 -22q-50 65 -75.5 163t-25.5 183q0 111 39.5 219t128.5 154q6 3 11 3q9 0 15.5 -6.5t6.5 -15.5
q0 -14 -12 -23q-46 -38 -70.5 -104t-31.5 -129t-5 -102q4 -80 17.5 -159t52.5 -155q1 -2 9 -15.5t8 -24.5q0 -10 -7 -14q-8 -5 -16 -5q-21 0 -45 31zM532 179q73 46 73 119q0 38 -31.5 60t-84.5 22q-9 0 -29 -2q-10 -1 -21 -2l2 -233q49 11 91 36z" />
    <glyph glyph-name="uni249E" unicode="&#x249e;" horiz-adv-x="960" 
d="M735 -48q-7 4 -7 14q0 11 8 24.5t9 15.5q39 76 52.5 155t17.5 159q2 39 -5 102t-31.5 129t-70.5 104q-12 9 -12 23q0 9 6.5 15.5t15.5 6.5q5 0 11 -3q89 -46 128.5 -154t39.5 -219q0 -85 -25.5 -183t-75.5 -163q-24 -31 -45 -31q-8 0 -16 5zM164 -22q-50 65 -75.5 163
t-25.5 183q0 111 39.5 219t128.5 154q6 3 11 3q9 0 15.5 -6.5t6.5 -15.5q0 -14 -12 -23q-46 -38 -70.5 -104t-31.5 -129t-5 -102q4 -80 17.5 -159t52.5 -155q1 -2 9 -15.5t8 -24.5q0 -10 -7 -14q-8 -5 -16 -5q-21 0 -45 31zM337 215q-20 41 -24 89q5 186 168 207q6 1 23 1
q47 0 73 -11q32 -14 32 -41q0 -15 -9 -26t-21 -11q-7 0 -14 4q-13 9 -31.5 12t-33.5 2q-101 -11 -108 -131q0 -51 30 -80.5t88 -34.5q42 -1 93 14h4q6 0 9.5 -3t3.5 -9t-3 -12q-14 -33 -46.5 -46t-78.5 -13q-109 0 -155 89z" />
    <glyph glyph-name="uni249F" unicode="&#x249f;" horiz-adv-x="960" 
d="M571 61q-12 1 -21 3l1 -1q-57 0 -107.5 17.5t-82.5 43.5q-44 37 -62 71.5t-18 98.5q0 24 11 49.5t37 46.5q64 53 200 55v123q0 29 6 42.5t25 22.5l12 6q8 4 17 4q13 0 19 -10.5t6 -26.5v-476q0 -31 -2 -45t-8.5 -20t-20.5 -5zM735 -48q-7 4 -7 14q0 11 8 24.5t9 15.5
q39 76 52.5 155t17.5 159q2 39 -5 102t-31.5 129t-70.5 104q-12 9 -12 23q0 9 6.5 15.5t15.5 6.5q5 0 11 -3q89 -46 128.5 -154t39.5 -219q0 -85 -25.5 -183t-75.5 -163q-24 -31 -45 -31q-8 0 -16 5zM164 -22q-50 65 -75.5 163t-25.5 183q0 111 39.5 219t128.5 154q6 3 11 3
q9 0 15.5 -6.5t6.5 -15.5q0 -14 -12 -23q-46 -38 -70.5 -104t-31.5 -129t-5 -102q4 -80 17.5 -159t52.5 -155q1 -2 9 -15.5t8 -24.5q0 -10 -7 -14q-8 -5 -16 -5q-21 0 -45 31zM445 364q-40 -12 -64 -32t-24 -44q0 -43 13 -66t43 -48q19 -17 53 -30q32 -13 63 -15v247
q-46 -1 -84 -12z" />
    <glyph glyph-name="uni24A0" unicode="&#x24a0;" horiz-adv-x="960" 
d="M339 215q-21 46 -24 89q6 201 168 208q76 0 117.5 -43.5t41.5 -126.5v-16q1 -5 0 -12v-6q-3 -15 -18 -22t-30 -6q-16 1 -75 1l-124 -1q7 -31 28 -53q31 -32 88 -33q47 0 99 12q8 2 9 2q8 0 8 -9q0 -10 -4 -16q-17 -33 -51 -45t-79 -12q-60 0 -96.5 24t-57.5 65zM735 -48
q-7 4 -7 14q0 11 8 24.5t9 15.5q39 76 52.5 155t17.5 159q2 39 -5 102t-31.5 129t-70.5 104q-12 9 -12 23q0 9 6.5 15.5t15.5 6.5q5 0 11 -3q89 -46 128.5 -154t39.5 -219q0 -85 -25.5 -183t-75.5 -163q-24 -31 -45 -31q-8 0 -16 5zM164 -22q-50 65 -75.5 163t-25.5 183
q0 111 39.5 219t128.5 154q6 3 11 3q9 0 15.5 -6.5t6.5 -15.5q0 -14 -12 -23q-46 -38 -70.5 -104t-31.5 -129t-5 -102q4 -80 17.5 -159t52.5 -155q1 -2 9 -15.5t8 -24.5q0 -10 -7 -14q-8 -5 -16 -5q-21 0 -45 31zM566 354q-10 82 -74 82q-87 0 -99 -95q35 2 97 2q44 0 76 -1
v12z" />
    <glyph glyph-name="uni24A1" unicode="&#x24a1;" horiz-adv-x="960" 
d="M425 499q0 43 20.5 77t57.5 45q20 5 40 5q34 0 55 -12q41 -23 41 -47q0 -5 -1 -8l-10 -18q-6 -10 -17 -10q-7 0 -18 6q-5 4 -12 10.5t-13.5 10t-14.5 3.5q-3 0 -11 -2q-19 -5 -25 -22q-6 -15 -6 -37v-5v-100q111 0 128 -2q20 -1 31 -5t9 -20l-1 -7q-2 -15 -17 -22t-30 -6
q-17 1 -101 1h-19v-235q0 -57 -31 -65l-13 -5q-4 -1 -11 -1q-14 0 -22.5 9t-8.5 24v272h-117q-32 0 -32 17q0 5 4 15l3 6q8 13 17 17t27 5q13 1 98 2v62v10v32zM735 -48q-7 4 -7 14q0 11 8 24.5t9 15.5q39 76 52.5 155t17.5 159q2 39 -5 102t-31.5 129t-70.5 104
q-12 9 -12 23q0 9 6.5 15.5t15.5 6.5q5 0 11 -3q89 -46 128.5 -154t39.5 -219q0 -85 -25.5 -183t-75.5 -163q-24 -31 -45 -31q-8 0 -16 5zM164 -22q-50 65 -75.5 163t-25.5 183q0 111 39.5 219t128.5 154q6 3 11 3q9 0 15.5 -6.5t6.5 -15.5q0 -14 -12 -23
q-46 -38 -70.5 -104t-31.5 -129t-5 -102q4 -80 17.5 -159t52.5 -155q1 -2 9 -15.5t8 -24.5q0 -10 -7 -14q-8 -5 -16 -5q-21 0 -45 31z" />
    </font>
</defs>
</svg>
